<?xml version="1.0" encoding="UTF-8"?>
<!-- LIPI PANEL SERIES 7/7 · seed 7 · A1 594x841mm · text continues from panel 6 -->
<svg xmlns="http://www.w3.org/2000/svg" width="594mm" height="841mm" viewBox="0 0 594 841">
  <g fill="none" stroke="#000000" stroke-width="1" stroke-linecap="round" stroke-linejoin="round">
    <polyline points="55.00,63.40 59.07,63.72 63.02,64.67 66.72,66.21 70.06,68.31 72.95,70.90 75.30,73.90 77.02,77.22 78.08,80.75 78.44,84.40 78.08,88.05 77.02,91.58 75.30,94.90 72.95,97.90 70.06,100.49 66.72,102.59 63.02,104.13 59.07,105.08 55.00,105.40"/>
    <polyline points="71.17,84.40 70.57,86.25 68.99,87.40 67.05,87.40 65.47,86.25 64.87,84.40 65.47,82.55 67.05,81.40 68.99,81.40 70.57,82.55 71.17,84.40"/>
    <polyline points="69.91,57.94 69.36,59.28 68.02,59.83 66.68,59.28 66.13,57.94 66.68,56.60 68.02,56.05 69.36,56.60 69.91,57.94"/>
    <polyline points="116.32,84.40 115.94,89.33 114.83,93.96 113.05,98.05 110.70,101.34 107.92,103.64 104.87,104.83 101.73,104.83 98.68,103.64 95.90,101.34 93.55,98.05 91.77,93.96 90.66,89.33 90.28,84.40 90.66,79.47 91.77,74.84 93.55,70.75 95.90,67.46 98.68,65.16 101.73,63.97 104.87,63.97 107.92,65.16 110.70,67.46 113.05,70.75 114.83,74.84 115.94,79.47 116.32,84.40"/>
    <polyline points="106.45,84.40 105.85,86.25 104.27,87.40 102.33,87.40 100.75,86.25 100.15,84.40 100.75,82.55 102.33,81.40 104.27,81.40 105.85,82.55 106.45,84.40"/>
    <polyline points="105.19,57.94 104.64,59.28 103.30,59.83 101.96,59.28 101.41,57.94 101.96,56.60 103.30,56.05 104.64,56.60 105.19,57.94"/>
    <polyline points="138.58,63.40 138.58,102.71 138.51,103.31 138.31,103.88 137.99,104.39 137.57,104.81 137.06,105.13 136.49,105.33 135.89,105.40"/>
    <polyline points="127.64,83.14 149.52,83.14"/>
    <polyline points="212.92,105.40 208.85,105.08 204.90,104.13 201.20,102.59 197.86,100.49 194.97,97.90 192.62,94.90 190.90,91.58 189.84,88.05 189.48,84.40 189.84,80.75 190.90,77.22 192.62,73.90 194.97,70.90 197.86,68.31 201.20,66.21 204.90,64.67 208.85,63.72 212.92,63.40"/>
    <polyline points="201.79,111.70 201.24,113.04 199.90,113.59 198.56,113.04 198.01,111.70 198.56,110.36 199.90,109.81 201.24,110.36 201.79,111.70"/>
    <polyline points="222.16,63.40 222.16,102.71 222.23,103.31 222.43,103.88 222.75,104.39 223.17,104.81 223.68,105.13 224.25,105.33 224.85,105.40"/>
    <polyline points="222.16,63.40 248.20,63.40 249.04,65.82"/>
    <polyline points="257.44,63.40 257.44,102.71 257.51,103.31 257.71,103.88 258.03,104.39 258.45,104.81 258.96,105.13 259.53,105.33 260.13,105.40"/>
    <polyline points="257.44,63.40 263.51,63.74 269.16,64.72 274.01,66.29 277.74,68.33 280.08,70.72 280.88,73.27 280.08,75.82 277.74,78.20 274.01,80.25 269.16,81.82 263.51,82.80 257.44,83.14"/>
    <polyline points="272.35,57.94 271.80,59.28 270.46,59.83 269.12,59.28 268.57,57.94 269.12,56.60 270.46,56.05 271.80,56.60 272.35,57.94"/>
    <polyline points="318.76,105.40 314.69,105.08 310.74,104.13 307.04,102.59 303.70,100.49 300.81,97.90 298.46,94.90 296.74,91.58 295.68,88.05 295.32,84.40 295.68,80.75 296.74,77.22 298.46,73.90 300.81,70.90 303.70,68.31 307.04,66.21 310.74,64.67 314.69,63.72 318.76,63.40"/>
    <polyline points="307.63,111.70 307.08,113.04 305.74,113.59 304.40,113.04 303.85,111.70 304.40,110.36 305.74,109.81 307.08,110.36 307.63,111.70"/>
    <polyline points="354.04,84.40 353.66,89.33 352.55,93.96 350.77,98.05 348.42,101.34 345.64,103.64 342.59,104.83 339.45,104.83 336.40,103.64 333.62,101.34 331.27,98.05 329.49,93.96 328.38,89.33 328.00,84.40 328.38,79.47 329.49,74.84 331.27,70.75 333.62,67.46 336.40,65.16 339.45,63.97 342.59,63.97 345.64,65.16 348.42,67.46 350.77,70.75 352.55,74.84 353.66,79.47 354.04,84.40"/>
    <polyline points="344.17,84.40 343.57,86.25 341.99,87.40 340.05,87.40 338.47,86.25 337.87,84.40 338.47,82.55 340.05,81.40 341.99,81.40 343.57,82.55 344.17,84.40"/>
    <polyline points="342.91,57.94 342.36,59.28 341.02,59.83 339.68,59.28 339.13,57.94 339.68,56.60 341.02,56.05 342.36,56.60 342.91,57.94"/>
    <polyline points="389.32,105.40 385.25,105.08 381.30,104.13 377.60,102.59 374.26,100.49 371.37,97.90 369.02,94.90 367.30,91.58 366.24,88.05 365.88,84.40 366.24,80.75 367.30,77.22 369.02,73.90 371.37,70.90 374.26,68.31 377.60,66.21 381.30,64.67 385.25,63.72 389.32,63.40"/>
    <polyline points="365.36,84.40 387.24,84.40"/>
    <polyline points="424.60,63.40 424.60,102.71 424.53,103.31 424.33,103.88 424.01,104.39 423.59,104.81 423.08,105.13 422.51,105.33 421.91,105.40"/>
    <polyline points="424.60,83.14 418.53,83.52 412.88,84.63 408.03,86.40 404.30,88.70 401.96,91.39 401.16,94.27 401.96,97.15 404.30,99.83 408.03,102.14 412.88,103.91 418.53,105.02 424.60,105.40"/>
    <polyline points="413.47,57.94 412.92,59.28 411.58,59.83 410.24,59.28 409.69,57.94 410.24,56.60 411.58,56.05 412.92,56.60 413.47,57.94"/>
    <polyline points="459.88,105.40 459.88,76.42 460.32,73.05 461.62,69.91 463.69,67.21 466.39,65.14 469.53,63.84 472.90,63.40 476.27,63.84 479.41,65.14 482.11,67.21 484.18,69.91 485.48,73.05 485.92,76.42 485.92,105.40"/>
    <polyline points="461.96,84.40 483.84,84.40"/>
    <polyline points="521.20,105.40 517.13,105.08 513.18,104.13 509.48,102.59 506.14,100.49 503.25,97.90 500.90,94.90 499.18,91.58 498.12,88.05 497.76,84.40 498.12,80.75 499.18,77.22 500.90,73.90 503.25,70.90 506.14,68.31 509.48,66.21 513.18,64.67 517.13,63.72 521.20,63.40"/>
    <polyline points="510.07,111.70 509.52,113.04 508.18,113.59 506.84,113.04 506.29,111.70 506.84,110.36 508.18,109.81 509.52,110.36 510.07,111.70"/>
    <polyline points="55.00,139.00 57.89,142.31 60.64,145.65 63.27,149.03 65.76,152.44 68.13,155.89 70.36,159.37 72.47,162.89 74.44,166.44 76.29,170.03 78.00,173.65 79.59,177.31 81.04,181.00"/>
    <polyline points="71.17,160.00 70.57,161.85 68.99,163.00 67.05,163.00 65.47,161.85 64.87,160.00 65.47,158.15 67.05,157.00 68.99,157.00 70.57,158.15 71.17,160.00"/>
    <polyline points="69.91,133.54 69.36,134.88 68.02,135.43 66.68,134.88 66.13,133.54 66.68,132.20 68.02,131.65 69.36,132.20 69.91,133.54"/>
    <polyline points="116.32,139.00 116.32,178.31 116.25,178.91 116.05,179.48 115.73,179.99 115.31,180.41 114.80,180.73 114.23,180.93 113.63,181.00"/>
    <polyline points="116.32,139.00 90.28,139.00 89.44,141.42"/>
    <polyline points="116.32,158.74 110.25,159.12 104.60,160.23 99.75,162.00 96.02,164.31 93.68,166.99 92.88,169.87 93.68,172.75 96.02,175.44 99.75,177.74 104.60,179.51 110.25,180.62 116.32,181.00"/>
    <polyline points="151.60,160.00 151.22,164.93 150.11,169.56 148.33,173.65 145.98,176.94 143.20,179.24 140.15,180.43 137.01,180.43 133.96,179.24 131.18,176.94 128.83,173.65 127.05,169.56 125.94,164.93 125.56,160.00 125.94,155.07 127.05,150.44 128.83,146.35 131.18,143.06 133.96,140.76 137.01,139.57 140.15,139.57 143.20,140.76 145.98,143.06 148.33,146.35 150.11,150.44 151.22,155.07 151.60,160.00"/>
    <polyline points="141.73,160.00 141.13,161.85 139.55,163.00 137.61,163.00 136.03,161.85 135.43,160.00 136.03,158.15 137.61,157.00 139.55,157.00 141.13,158.15 141.73,160.00"/>
    <polyline points="140.47,133.54 139.92,134.88 138.58,135.43 137.24,134.88 136.69,133.54 137.24,132.20 138.58,131.65 139.92,132.20 140.47,133.54"/>
    <polyline points="186.88,181.00 182.81,180.68 178.86,179.73 175.16,178.19 171.82,176.09 168.93,173.50 166.58,170.50 164.86,167.18 163.80,163.65 163.44,160.00 163.80,156.35 164.86,152.82 166.58,149.50 168.93,146.50 171.82,143.91 175.16,141.81 178.86,140.27 182.81,139.32 186.88,139.00"/>
    <polyline points="162.92,160.00 184.80,160.00"/>
    <polyline points="222.16,139.00 222.16,178.31 222.23,178.91 222.43,179.48 222.75,179.99 223.17,180.41 223.68,180.73 224.25,180.93 224.85,181.00"/>
    <polyline points="222.16,139.00 228.23,139.34 233.88,140.32 238.73,141.89 242.46,143.94 244.80,146.32 245.60,148.87 244.80,151.42 242.46,153.81 238.73,155.85 233.88,157.42 228.23,158.40 222.16,158.74"/>
    <polyline points="237.07,133.54 236.52,134.88 235.18,135.43 233.84,134.88 233.29,133.54 233.84,132.20 235.18,131.65 236.52,132.20 237.07,133.54"/>
    <polyline points="283.48,139.00 283.48,178.31 283.41,178.91 283.21,179.48 282.89,179.99 282.47,180.41 281.96,180.73 281.39,180.93 280.79,181.00"/>
    <polyline points="283.48,139.00 277.41,139.34 271.76,140.32 266.91,141.89 263.18,143.94 260.84,146.32 260.04,148.87 260.84,151.42 263.18,153.81 266.91,155.85 271.76,157.42 277.41,158.40 283.48,158.74"/>
    <polyline points="283.48,158.74 277.41,159.12 271.76,160.23 266.91,162.00 263.18,164.31 260.84,166.99 260.04,169.87 260.84,172.75 263.18,175.44 266.91,177.74 271.76,179.51 277.41,180.62 283.48,181.00"/>
    <polyline points="318.76,181.00 314.69,180.68 310.74,179.73 307.04,178.19 303.70,176.09 300.81,173.50 298.46,170.50 296.74,167.18 295.68,163.65 295.32,160.00 295.68,156.35 296.74,152.82 298.46,149.50 300.81,146.50 303.70,143.91 307.04,141.81 310.74,140.27 314.69,139.32 318.76,139.00"/>
    <polyline points="307.63,187.30 307.08,188.64 305.74,189.19 304.40,188.64 303.85,187.30 304.40,185.96 305.74,185.41 307.08,185.96 307.63,187.30"/>
    <polyline points="380.08,139.00 380.08,178.31 380.01,178.91 379.81,179.48 379.49,179.99 379.07,180.41 378.56,180.73 377.99,180.93 377.39,181.00"/>
    <polyline points="380.08,139.00 354.04,139.00 353.20,141.42"/>
    <polyline points="402.34,139.00 402.34,178.31 402.41,178.91 402.61,179.48 402.93,179.99 403.35,180.41 403.86,180.73 404.43,180.93 405.03,181.00"/>
    <polyline points="402.34,139.00 405.37,139.34 408.20,140.32 410.63,141.89 412.49,143.94 413.66,146.32 414.06,148.87 413.66,151.42 412.49,153.81 410.63,155.85 408.20,157.42 405.37,158.40 402.34,158.74"/>
    <polyline points="402.34,158.74 405.37,159.12 408.20,160.23 410.63,162.00 412.49,164.31 413.66,166.99 414.06,169.87 413.66,172.75 412.49,175.44 410.63,177.74 408.20,179.51 405.37,180.62 402.34,181.00"/>
    <polyline points="398.17,134.80 406.51,132.28"/>
    <polyline points="437.62,139.00 437.62,178.31 437.55,178.91 437.35,179.48 437.03,179.99 436.61,180.41 436.10,180.73 435.53,180.93 434.93,181.00"/>
    <polyline points="426.68,158.74 448.56,158.74"/>
    <polyline points="485.92,181.00 481.85,180.68 477.90,179.73 474.20,178.19 470.86,176.09 467.97,173.50 465.62,170.50 463.90,167.18 462.84,163.65 462.48,160.00 462.84,156.35 463.90,152.82 465.62,149.50 467.97,146.50 470.86,143.91 474.20,141.81 477.90,140.27 481.85,139.32 485.92,139.00"/>
    <polyline points="474.79,187.30 474.24,188.64 472.90,189.19 471.56,188.64 471.01,187.30 471.56,185.96 472.90,185.41 474.24,185.96 474.79,187.30"/>
    <polyline points="495.16,139.00 495.16,181.00"/>
    <polyline points="55.00,214.60 57.89,217.91 60.64,221.25 63.27,224.63 65.76,228.04 68.13,231.49 70.36,234.97 72.47,238.49 74.44,242.04 76.29,245.63 78.00,249.25 79.59,252.91 81.04,256.60"/>
    <polyline points="55.00,214.60 81.04,214.60 81.88,217.02"/>
    <polyline points="55.00,256.60 75.83,256.60"/>
    <polyline points="69.91,209.14 69.36,210.48 68.02,211.03 66.68,210.48 66.13,209.14 66.68,207.80 68.02,207.25 69.36,207.80 69.91,209.14"/>
    <polyline points="116.32,256.60 112.25,256.28 108.30,255.33 104.60,253.79 101.26,251.69 98.37,249.10 96.02,246.10 94.30,242.78 93.24,239.25 92.88,235.60 93.24,231.95 94.30,228.42 96.02,225.10 98.37,222.10 101.26,219.51 104.60,217.41 108.30,215.87 112.25,214.92 116.32,214.60"/>
    <polyline points="105.19,262.90 104.64,264.24 103.30,264.79 101.96,264.24 101.41,262.90 101.96,261.56 103.30,261.01 104.64,261.56 105.19,262.90"/>
    <polyline points="138.58,214.60 138.58,253.91 138.65,254.51 138.85,255.08 139.17,255.59 139.59,256.01 140.10,256.33 140.67,256.53 141.27,256.60"/>
    <polyline points="138.58,214.60 141.61,214.94 144.44,215.92 146.87,217.49 148.73,219.54 149.90,221.92 150.30,224.47 149.90,227.02 148.73,229.41 146.87,231.45 144.44,233.02 141.61,234.00 138.58,234.34"/>
    <polyline points="138.58,234.34 141.61,234.72 144.44,235.83 146.87,237.60 148.73,239.91 149.90,242.59 150.30,245.47 149.90,248.35 148.73,251.04 146.87,253.34 144.44,255.11 141.61,256.22 138.58,256.60"/>
    <polyline points="134.41,210.40 142.75,207.88"/>
    <polyline points="160.84,214.60 160.84,253.91 160.91,254.51 161.11,255.08 161.43,255.59 161.85,256.01 162.36,256.33 162.93,256.53 163.53,256.60"/>
    <polyline points="160.84,214.60 186.88,214.60 187.72,217.02"/>
    <polyline points="160.84,234.34 166.91,234.72 172.56,235.83 177.41,237.60 181.14,239.91 183.48,242.59 184.28,245.47 183.48,248.35 181.14,251.04 177.41,253.34 172.56,255.11 166.91,256.22 160.84,256.60"/>
    <polyline points="175.75,262.90 175.20,264.24 173.86,264.79 172.52,264.24 171.97,262.90 172.52,261.56 173.86,261.01 175.20,261.56 175.75,262.90"/>
    <polyline points="222.16,235.60 221.78,240.53 220.67,245.16 218.89,249.25 216.54,252.54 213.76,254.84 210.71,256.03 207.57,256.03 204.52,254.84 201.74,252.54 199.39,249.25 197.61,245.16 196.50,240.53 196.12,235.60 196.50,230.67 197.61,226.04 199.39,221.95 201.74,218.66 204.52,216.36 207.57,215.17 210.71,215.17 213.76,216.36 216.54,218.66 218.89,221.95 220.67,226.04 221.78,230.67 222.16,235.60"/>
    <polyline points="212.29,235.60 211.69,237.45 210.11,238.60 208.17,238.60 206.59,237.45 205.99,235.60 206.59,233.75 208.17,232.60 210.11,232.60 211.69,233.75 212.29,235.60"/>
    <polyline points="211.03,209.14 210.48,210.48 209.14,211.03 207.80,210.48 207.25,209.14 207.80,207.80 209.14,207.25 210.48,207.80 211.03,209.14"/>
    <polyline points="231.40,214.60 235.47,214.92 239.42,215.87 243.12,217.41 246.46,219.51 249.35,222.10 251.70,225.10 253.42,228.42 254.48,231.95 254.84,235.60 254.48,239.25 253.42,242.78 251.70,246.10 249.35,249.10 246.46,251.69 243.12,253.79 239.42,255.33 235.47,256.28 231.40,256.60"/>
    <polyline points="247.57,235.60 246.97,237.45 245.39,238.60 243.45,238.60 241.87,237.45 241.27,235.60 241.87,233.75 243.45,232.60 245.39,232.60 246.97,233.75 247.57,235.60"/>
    <polyline points="246.31,209.14 245.76,210.48 244.42,211.03 243.08,210.48 242.53,209.14 243.08,207.80 244.42,207.25 245.76,207.80 246.31,209.14"/>
    <polyline points="292.72,235.60 292.34,240.53 291.23,245.16 289.45,249.25 287.10,252.54 284.32,254.84 281.27,256.03 278.13,256.03 275.08,254.84 272.30,252.54 269.95,249.25 268.17,245.16 267.06,240.53 266.68,235.60 267.06,230.67 268.17,226.04 269.95,221.95 272.30,218.66 275.08,216.36 278.13,215.17 281.27,215.17 284.32,216.36 287.10,218.66 289.45,221.95 291.23,226.04 292.34,230.67 292.72,235.60"/>
    <polyline points="282.85,235.60 282.25,237.45 280.67,238.60 278.73,238.60 277.15,237.45 276.55,235.60 277.15,233.75 278.73,232.60 280.67,232.60 282.25,233.75 282.85,235.60"/>
    <polyline points="281.59,209.14 281.04,210.48 279.70,211.03 278.36,210.48 277.81,209.14 278.36,207.80 279.70,207.25 281.04,207.80 281.59,209.14"/>
    <polyline points="314.98,214.60 314.98,253.91 314.91,254.51 314.71,255.08 314.39,255.59 313.97,256.01 313.46,256.33 312.89,256.53 312.29,256.60"/>
    <polyline points="304.04,234.34 325.92,234.34"/>
    <polyline points="376.30,214.60 376.30,253.91 376.23,254.51 376.03,255.08 375.71,255.59 375.29,256.01 374.78,256.33 374.21,256.53 373.61,256.60"/>
    <polyline points="376.30,214.60 373.27,214.94 370.44,215.92 368.01,217.49 366.15,219.54 364.98,221.92 364.58,224.47 364.98,227.02 366.15,229.41 368.01,231.45 370.44,233.02 373.27,234.00 376.30,234.34"/>
    <polyline points="371.43,248.83 370.87,250.56 369.40,251.63 367.58,251.63 366.11,250.56 365.55,248.83 366.11,247.10 367.58,246.03 369.40,246.03 370.87,247.10 371.43,248.83"/>
    <polyline points="424.60,235.60 424.22,240.53 423.11,245.16 421.33,249.25 418.98,252.54 416.20,254.84 413.15,256.03 410.01,256.03 406.96,254.84 404.18,252.54 401.83,249.25 400.05,245.16 398.94,240.53 398.56,235.60 398.94,230.67 400.05,226.04 401.83,221.95 404.18,218.66 406.96,216.36 410.01,215.17 413.15,215.17 416.20,216.36 418.98,218.66 421.33,221.95 423.11,226.04 424.22,230.67 424.60,235.60"/>
    <polyline points="414.73,235.60 414.13,237.45 412.55,238.60 410.61,238.60 409.03,237.45 408.43,235.60 409.03,233.75 410.61,232.60 412.55,232.60 414.13,233.75 414.73,235.60"/>
    <polyline points="413.47,209.14 412.92,210.48 411.58,211.03 410.24,210.48 409.69,209.14 410.24,207.80 411.58,207.25 412.92,207.80 413.47,209.14"/>
    <polyline points="459.88,214.60 459.88,253.91 459.81,254.51 459.61,255.08 459.29,255.59 458.87,256.01 458.36,256.33 457.79,256.53 457.19,256.60"/>
    <polyline points="459.88,214.60 455.31,215.00 450.91,216.20 446.86,218.14 443.31,220.75 440.39,223.93 438.23,227.56 436.89,231.50 436.44,235.60 436.89,239.70 438.23,243.64 440.39,247.27 443.31,250.45 446.86,253.06 450.91,255.00 455.31,256.20 459.88,256.60"/>
    <polyline points="495.16,214.60 495.16,253.91 495.09,254.51 494.89,255.08 494.57,255.59 494.15,256.01 493.64,256.33 493.07,256.53 492.47,256.60"/>
    <polyline points="495.16,214.60 469.12,214.60 468.28,217.02"/>
    <polyline points="495.16,234.34 489.09,234.72 483.44,235.83 478.59,237.60 474.86,239.91 472.52,242.59 471.72,245.47 472.52,248.35 474.86,251.04 478.59,253.34 483.44,255.11 489.09,256.22 495.16,256.60"/>
    <polyline points="504.40,214.60 507.29,217.91 510.04,221.25 512.67,224.63 515.16,228.04 517.53,231.49 519.76,234.97 521.87,238.49 523.84,242.04 525.69,245.63 527.40,249.25 528.99,252.91 530.44,256.60"/>
    <polyline points="504.40,214.60 530.44,214.60 531.28,217.02"/>
    <polyline points="504.40,256.60 525.23,256.60"/>
    <polyline points="519.31,209.14 518.76,210.48 517.42,211.03 516.08,210.48 515.53,209.14 516.08,207.80 517.42,207.25 518.76,207.80 519.31,209.14"/>
    <polyline points="81.04,332.20 76.97,331.88 73.02,330.93 69.32,329.39 65.98,327.29 63.09,324.70 60.74,321.70 59.02,318.38 57.96,314.85 57.60,311.20 57.96,307.55 59.02,304.02 60.74,300.70 63.09,297.70 65.98,295.11 69.32,293.01 73.02,291.47 76.97,290.52 81.04,290.20"/>
    <polyline points="57.08,311.20 78.96,311.20"/>
    <polyline points="116.32,290.20 116.32,329.51 116.25,330.11 116.05,330.68 115.73,331.19 115.31,331.61 114.80,331.93 114.23,332.13 113.63,332.20"/>
    <polyline points="116.32,309.94 110.25,310.32 104.60,311.43 99.75,313.20 96.02,315.51 93.68,318.19 92.88,321.07 93.68,323.95 96.02,326.64 99.75,328.94 104.60,330.71 110.25,331.82 116.32,332.20"/>
    <polyline points="105.19,284.74 104.64,286.08 103.30,286.63 101.96,286.08 101.41,284.74 101.96,283.40 103.30,282.85 104.64,283.40 105.19,284.74"/>
    <polyline points="151.60,290.20 151.60,329.51 151.67,330.11 151.87,330.68 152.19,331.19 152.61,331.61 153.12,331.93 153.69,332.13 154.29,332.20"/>
    <polyline points="151.60,290.20 157.67,290.54 163.32,291.52 168.17,293.09 171.90,295.14 174.24,297.52 175.04,300.07 174.24,302.62 171.90,305.01 168.17,307.05 163.32,308.62 157.67,309.60 151.60,309.94"/>
    <polyline points="166.51,284.74 165.96,286.08 164.62,286.63 163.28,286.08 162.73,284.74 163.28,283.40 164.62,282.85 165.96,283.40 166.51,284.74"/>
    <polyline points="212.92,290.20 212.92,329.51 212.85,330.11 212.65,330.68 212.33,331.19 211.91,331.61 211.40,331.93 210.83,332.13 210.23,332.20"/>
    <polyline points="212.92,290.20 206.85,290.54 201.20,291.52 196.35,293.09 192.62,295.14 190.28,297.52 189.48,300.07 190.28,302.62 192.62,305.01 196.35,307.05 201.20,308.62 206.85,309.60 212.92,309.94"/>
    <polyline points="212.92,309.94 206.85,310.32 201.20,311.43 196.35,313.20 192.62,315.51 190.28,318.19 189.48,321.07 190.28,323.95 192.62,326.64 196.35,328.94 201.20,330.71 206.85,331.82 212.92,332.20"/>
    <polyline points="222.16,290.20 222.16,329.51 222.23,330.11 222.43,330.68 222.75,331.19 223.17,331.61 223.68,331.93 224.25,332.13 224.85,332.20"/>
    <polyline points="222.16,290.20 248.20,290.20 249.04,292.62"/>
    <polyline points="222.16,309.94 228.23,310.32 233.88,311.43 238.73,313.20 242.46,315.51 244.80,318.19 245.60,321.07 244.80,323.95 242.46,326.64 238.73,328.94 233.88,330.71 228.23,331.82 222.16,332.20"/>
    <polyline points="237.07,338.50 236.52,339.84 235.18,340.39 233.84,339.84 233.29,338.50 233.84,337.16 235.18,336.61 236.52,337.16 237.07,338.50"/>
    <polyline points="283.48,290.20 283.48,329.51 283.41,330.11 283.21,330.68 282.89,331.19 282.47,331.61 281.96,331.93 281.39,332.13 280.79,332.20"/>
    <polyline points="283.48,290.20 257.44,290.20 256.60,292.62"/>
    <polyline points="283.48,309.94 277.41,310.32 271.76,311.43 266.91,313.20 263.18,315.51 260.84,318.19 260.04,321.07 260.84,323.95 263.18,326.64 266.91,328.94 271.76,330.71 277.41,331.82 283.48,332.20"/>
    <polyline points="305.74,290.20 305.74,329.51 305.67,330.11 305.47,330.68 305.15,331.19 304.73,331.61 304.22,331.93 303.65,332.13 303.05,332.20"/>
    <polyline points="305.74,290.20 302.71,290.54 299.88,291.52 297.45,293.09 295.59,295.14 294.42,297.52 294.02,300.07 294.42,302.62 295.59,305.01 297.45,307.05 299.88,308.62 302.71,309.60 305.74,309.94"/>
    <polyline points="300.87,324.43 300.31,326.16 298.84,327.23 297.02,327.23 295.55,326.16 294.99,324.43 295.55,322.70 297.02,321.63 298.84,321.63 300.31,322.70 300.87,324.43"/>
    <polyline points="341.02,290.20 341.02,329.51 340.95,330.11 340.75,330.68 340.43,331.19 340.01,331.61 339.50,331.93 338.93,332.13 338.33,332.20"/>
    <polyline points="330.08,309.94 351.96,309.94"/>
    <polyline points="389.32,290.20 389.32,329.51 389.25,330.11 389.05,330.68 388.73,331.19 388.31,331.61 387.80,331.93 387.23,332.13 386.63,332.20"/>
    <polyline points="389.32,290.20 383.25,290.54 377.60,291.52 372.75,293.09 369.02,295.14 366.68,297.52 365.88,300.07 366.68,302.62 369.02,305.01 372.75,307.05 377.60,308.62 383.25,309.60 389.32,309.94"/>
    <polyline points="389.32,309.94 383.25,310.32 377.60,311.43 372.75,313.20 369.02,315.51 366.68,318.19 365.88,321.07 366.68,323.95 369.02,326.64 372.75,328.94 377.60,330.71 383.25,331.82 389.32,332.20"/>
    <polyline points="450.64,290.20 450.64,329.51 450.57,330.11 450.37,330.68 450.05,331.19 449.63,331.61 449.12,331.93 448.55,332.13 447.95,332.20"/>
    <polyline points="450.64,290.20 444.57,290.54 438.92,291.52 434.07,293.09 430.34,295.14 428.00,297.52 427.20,300.07 428.00,302.62 430.34,305.01 434.07,307.05 438.92,308.62 444.57,309.60 450.64,309.94"/>
    <polyline points="437.96,324.43 437.39,326.16 435.92,327.23 434.11,327.23 432.64,326.16 432.08,324.43 432.64,322.70 434.11,321.63 435.92,321.63 437.39,322.70 437.96,324.43"/>
    <polyline points="472.90,290.20 472.90,329.51 472.97,330.11 473.17,330.68 473.49,331.19 473.91,331.61 474.42,331.93 474.99,332.13 475.59,332.20"/>
    <polyline points="472.90,290.20 475.93,290.54 478.76,291.52 481.19,293.09 483.05,295.14 484.22,297.52 484.62,300.07 484.22,302.62 483.05,305.01 481.19,307.05 478.76,308.62 475.93,309.60 472.90,309.94"/>
    <polyline points="472.90,309.94 475.93,310.32 478.76,311.43 481.19,313.20 483.05,315.51 484.22,318.19 484.62,321.07 484.22,323.95 483.05,326.64 481.19,328.94 478.76,330.71 475.93,331.82 472.90,332.20"/>
    <polyline points="468.73,286.00 477.07,283.48"/>
    <polyline points="495.16,290.20 495.16,329.51 495.23,330.11 495.43,330.68 495.75,331.19 496.17,331.61 496.68,331.93 497.25,332.13 497.85,332.20"/>
    <polyline points="495.16,290.20 501.23,290.54 506.88,291.52 511.73,293.09 515.46,295.14 517.80,297.52 518.60,300.07 517.80,302.62 515.46,305.01 511.73,307.05 506.88,308.62 501.23,309.60 495.16,309.94"/>
    <polyline points="510.07,284.74 509.52,286.08 508.18,286.63 506.84,286.08 506.29,284.74 506.84,283.40 508.18,282.85 509.52,283.40 510.07,284.74"/>
    <polyline points="81.04,407.80 76.97,407.48 73.02,406.53 69.32,404.99 65.98,402.89 63.09,400.30 60.74,397.30 59.02,393.98 57.96,390.45 57.60,386.80 57.96,383.15 59.02,379.62 60.74,376.30 63.09,373.30 65.98,370.71 69.32,368.61 73.02,367.07 76.97,366.12 81.04,365.80"/>
    <polyline points="69.91,414.10 69.36,415.44 68.02,415.99 66.68,415.44 66.13,414.10 66.68,412.76 68.02,412.21 69.36,412.76 69.91,414.10"/>
    <polyline points="90.28,365.80 90.28,405.11 90.35,405.71 90.55,406.28 90.87,406.79 91.29,407.21 91.80,407.53 92.37,407.73 92.97,407.80"/>
    <polyline points="90.28,365.80 116.32,365.80 117.16,368.22"/>
    <polyline points="90.28,385.54 96.35,385.92 102.00,387.03 106.85,388.80 110.58,391.11 112.92,393.79 113.72,396.67 112.92,399.55 110.58,402.24 106.85,404.54 102.00,406.31 96.35,407.42 90.28,407.80"/>
    <polyline points="105.19,414.10 104.64,415.44 103.30,415.99 101.96,415.44 101.41,414.10 101.96,412.76 103.30,412.21 104.64,412.76 105.19,414.10"/>
    <polyline points="125.56,365.80 129.63,366.12 133.58,367.07 137.28,368.61 140.62,370.71 143.51,373.30 145.86,376.30 147.58,379.62 148.64,383.15 149.00,386.80 148.64,390.45 147.58,393.98 145.86,397.30 143.51,400.30 140.62,402.89 137.28,404.99 133.58,406.53 129.63,407.48 125.56,407.80"/>
    <polyline points="141.73,386.80 141.13,388.65 139.55,389.80 137.61,389.80 136.03,388.65 135.43,386.80 136.03,384.95 137.61,383.80 139.55,383.80 141.13,384.95 141.73,386.80"/>
    <polyline points="140.47,360.34 139.92,361.68 138.58,362.23 137.24,361.68 136.69,360.34 137.24,359.00 138.58,358.45 139.92,359.00 140.47,360.34"/>
    <polyline points="173.86,365.80 173.86,405.11 173.93,405.71 174.13,406.28 174.45,406.79 174.87,407.21 175.38,407.53 175.95,407.73 176.55,407.80"/>
    <polyline points="173.86,365.80 176.89,366.14 179.72,367.12 182.15,368.69 184.01,370.74 185.18,373.12 185.58,375.67 185.18,378.22 184.01,380.61 182.15,382.65 179.72,384.22 176.89,385.20 173.86,385.54"/>
    <polyline points="173.86,385.54 176.89,385.92 179.72,387.03 182.15,388.80 184.01,391.11 185.18,393.79 185.58,396.67 185.18,399.55 184.01,402.24 182.15,404.54 179.72,406.31 176.89,407.42 173.86,407.80"/>
    <polyline points="169.69,361.60 178.03,359.08"/>
    <polyline points="196.12,365.80 199.01,369.11 201.76,372.45 204.39,375.83 206.88,379.24 209.25,382.69 211.48,386.17 213.59,389.69 215.56,393.24 217.41,396.83 219.12,400.45 220.71,404.11 222.16,407.80"/>
    <polyline points="196.12,365.80 222.16,365.80 223.00,368.22"/>
    <polyline points="196.12,407.80 216.95,407.80"/>
    <polyline points="211.03,360.34 210.48,361.68 209.14,362.23 207.80,361.68 207.25,360.34 207.80,359.00 209.14,358.45 210.48,359.00 211.03,360.34"/>
    <polyline points="257.44,365.80 257.44,405.11 257.37,405.71 257.17,406.28 256.85,406.79 256.43,407.21 255.92,407.53 255.35,407.73 254.75,407.80"/>
    <polyline points="257.44,385.54 251.37,385.92 245.72,387.03 240.87,388.80 237.14,391.11 234.80,393.79 234.00,396.67 234.80,399.55 237.14,402.24 240.87,404.54 245.72,406.31 251.37,407.42 257.44,407.80"/>
    <polyline points="246.31,360.34 245.76,361.68 244.42,362.23 243.08,361.68 242.53,360.34 243.08,359.00 244.42,358.45 245.76,359.00 246.31,360.34"/>
    <polyline points="270.25,406.12 269.82,407.16 268.78,407.59 267.74,407.16 267.31,406.12 267.74,405.08 268.78,404.65 269.82,405.08 270.25,406.12"/>
    <polyline points="331.36,365.80 331.36,405.11 331.29,405.71 331.09,406.28 330.77,406.79 330.35,407.21 329.84,407.53 329.27,407.73 328.67,407.80"/>
    <polyline points="331.36,365.80 325.29,366.14 319.64,367.12 314.79,368.69 311.06,370.74 308.72,373.12 307.92,375.67 308.72,378.22 311.06,380.61 314.79,382.65 319.64,384.22 325.29,385.20 331.36,385.54"/>
    <polyline points="318.68,400.03 318.11,401.76 316.64,402.83 314.83,402.83 313.36,401.76 312.80,400.03 313.36,398.30 314.83,397.23 316.64,397.23 318.11,398.30 318.68,400.03"/>
    <polyline points="366.64,365.80 366.64,405.11 366.57,405.71 366.37,406.28 366.05,406.79 365.63,407.21 365.12,407.53 364.55,407.73 363.95,407.80"/>
    <polyline points="366.64,365.80 340.60,365.80 339.76,368.22"/>
    <polyline points="366.64,385.54 360.57,385.92 354.92,387.03 350.07,388.80 346.34,391.11 344.00,393.79 343.20,396.67 344.00,399.55 346.34,402.24 350.07,404.54 354.92,406.31 360.57,407.42 366.64,407.80"/>
    <polyline points="401.92,386.80 401.54,391.73 400.43,396.36 398.65,400.45 396.30,403.74 393.52,406.04 390.47,407.23 387.33,407.23 384.28,406.04 381.50,403.74 379.15,400.45 377.37,396.36 376.26,391.73 375.88,386.80 376.26,381.87 377.37,377.24 379.15,373.15 381.50,369.86 384.28,367.56 387.33,366.37 390.47,366.37 393.52,367.56 396.30,369.86 398.65,373.15 400.43,377.24 401.54,381.87 401.92,386.80"/>
    <polyline points="388.90,365.80 388.90,407.80"/>
    <polyline points="437.20,407.80 433.13,407.48 429.18,406.53 425.48,404.99 422.14,402.89 419.25,400.30 416.90,397.30 415.18,393.98 414.12,390.45 413.76,386.80 414.12,383.15 415.18,379.62 416.90,376.30 419.25,373.30 422.14,370.71 425.48,368.61 429.18,367.07 433.13,366.12 437.20,365.80"/>
    <polyline points="426.07,414.10 425.52,415.44 424.18,415.99 422.84,415.44 422.29,414.10 422.84,412.76 424.18,412.21 425.52,412.76 426.07,414.10"/>
    <polyline points="472.48,365.80 472.48,405.11 472.41,405.71 472.21,406.28 471.89,406.79 471.47,407.21 470.96,407.53 470.39,407.73 469.79,407.80"/>
    <polyline points="472.48,365.80 466.41,366.14 460.76,367.12 455.91,368.69 452.18,370.74 449.84,373.12 449.04,375.67 449.84,378.22 452.18,380.61 455.91,382.65 460.76,384.22 466.41,385.20 472.48,385.54"/>
    <polyline points="459.80,400.03 459.23,401.76 457.76,402.83 455.95,402.83 454.48,401.76 453.92,400.03 454.48,398.30 455.95,397.23 457.76,397.23 459.23,398.30 459.80,400.03"/>
    <polyline points="507.76,407.80 503.69,407.48 499.74,406.53 496.04,404.99 492.70,402.89 489.81,400.30 487.46,397.30 485.74,393.98 484.68,390.45 484.32,386.80 484.68,383.15 485.74,379.62 487.46,376.30 489.81,373.30 492.70,370.71 496.04,368.61 499.74,367.07 503.69,366.12 507.76,365.80"/>
    <polyline points="496.63,414.10 496.08,415.44 494.74,415.99 493.40,415.44 492.85,414.10 493.40,412.76 494.74,412.21 496.08,412.76 496.63,414.10"/>
    <polyline points="81.04,462.40 80.66,467.33 79.55,471.96 77.77,476.05 75.42,479.34 72.64,481.64 69.59,482.83 66.45,482.83 63.40,481.64 60.62,479.34 58.27,476.05 56.49,471.96 55.38,467.33 55.00,462.40 55.38,457.47 56.49,452.84 58.27,448.75 60.62,445.46 63.40,443.16 66.45,441.97 69.59,441.97 72.64,443.16 75.42,445.46 77.77,448.75 79.55,452.84 80.66,457.47 81.04,462.40"/>
    <polyline points="71.17,462.40 70.57,464.25 68.99,465.40 67.05,465.40 65.47,464.25 64.87,462.40 65.47,460.55 67.05,459.40 68.99,459.40 70.57,460.55 71.17,462.40"/>
    <polyline points="69.91,435.94 69.36,437.28 68.02,437.83 66.68,437.28 66.13,435.94 66.68,434.60 68.02,434.05 69.36,434.60 69.91,435.94"/>
    <polyline points="90.28,441.40 90.28,480.71 90.35,481.31 90.55,481.88 90.87,482.39 91.29,482.81 91.80,483.13 92.37,483.33 92.97,483.40"/>
    <polyline points="90.28,441.40 96.35,441.74 102.00,442.72 106.85,444.29 110.58,446.34 112.92,448.72 113.72,451.27 112.92,453.82 110.58,456.21 106.85,458.25 102.00,459.82 96.35,460.80 90.28,461.14"/>
    <polyline points="105.19,435.94 104.64,437.28 103.30,437.83 101.96,437.28 101.41,435.94 101.96,434.60 103.30,434.05 104.64,434.60 105.19,435.94"/>
    <polyline points="129.13,481.72 128.70,482.76 127.66,483.19 126.62,482.76 126.19,481.72 126.62,480.68 127.66,480.25 128.70,480.68 129.13,481.72"/>
    <polyline points="164.20,441.40 164.20,470.38 164.64,473.75 165.94,476.89 168.01,479.59 170.71,481.66 173.85,482.96 177.22,483.40 180.59,482.96 183.73,481.66 186.43,479.59 188.50,476.89 189.80,473.75 190.24,470.38 190.24,441.40"/>
    <polyline points="180.37,462.40 179.77,464.25 178.19,465.40 176.25,465.40 174.67,464.25 174.07,462.40 174.67,460.55 176.25,459.40 178.19,459.40 179.77,460.55 180.37,462.40"/>
    <polyline points="225.52,441.40 225.52,480.71 225.45,481.31 225.25,481.88 224.93,482.39 224.51,482.81 224.00,483.13 223.43,483.33 222.83,483.40"/>
    <polyline points="225.52,441.40 199.48,441.40 198.64,443.82"/>
    <polyline points="225.52,461.14 219.45,461.52 213.80,462.63 208.95,464.40 205.22,466.71 202.88,469.39 202.08,472.27 202.88,475.15 205.22,477.84 208.95,480.14 213.80,481.91 219.45,483.02 225.52,483.40"/>
    <polyline points="260.80,462.40 260.42,467.33 259.31,471.96 257.53,476.05 255.18,479.34 252.40,481.64 249.35,482.83 246.21,482.83 243.16,481.64 240.38,479.34 238.03,476.05 236.25,471.96 235.14,467.33 234.76,462.40 235.14,457.47 236.25,452.84 238.03,448.75 240.38,445.46 243.16,443.16 246.21,441.97 249.35,441.97 252.40,443.16 255.18,445.46 257.53,448.75 259.31,452.84 260.42,457.47 260.80,462.40"/>
    <polyline points="250.93,462.40 250.33,464.25 248.75,465.40 246.81,465.40 245.23,464.25 244.63,462.40 245.23,460.55 246.81,459.40 248.75,459.40 250.33,460.55 250.93,462.40"/>
    <polyline points="249.67,435.94 249.12,437.28 247.78,437.83 246.44,437.28 245.89,435.94 246.44,434.60 247.78,434.05 249.12,434.60 249.67,435.94"/>
    <polyline points="296.08,462.40 295.70,467.33 294.59,471.96 292.81,476.05 290.46,479.34 287.68,481.64 284.63,482.83 281.49,482.83 278.44,481.64 275.66,479.34 273.31,476.05 271.53,471.96 270.42,467.33 270.04,462.40 270.42,457.47 271.53,452.84 273.31,448.75 275.66,445.46 278.44,443.16 281.49,441.97 284.63,441.97 287.68,443.16 290.46,445.46 292.81,448.75 294.59,452.84 295.70,457.47 296.08,462.40"/>
    <polyline points="283.06,441.40 283.06,483.40"/>
    <polyline points="331.36,483.40 327.29,483.08 323.34,482.13 319.64,480.59 316.30,478.49 313.41,475.90 311.06,472.90 309.34,469.58 308.28,466.05 307.92,462.40 308.28,458.75 309.34,455.22 311.06,451.90 313.41,448.90 316.30,446.31 319.64,444.21 323.34,442.67 327.29,441.72 331.36,441.40"/>
    <polyline points="320.23,489.70 319.68,491.04 318.34,491.59 317.00,491.04 316.45,489.70 317.00,488.36 318.34,487.81 319.68,488.36 320.23,489.70"/>
    <polyline points="340.60,441.40 340.60,480.71 340.67,481.31 340.87,481.88 341.19,482.39 341.61,482.81 342.12,483.13 342.69,483.33 343.29,483.40"/>
    <polyline points="340.60,441.40 366.64,441.40 367.48,443.82"/>
    <polyline points="340.60,461.14 346.67,461.52 352.32,462.63 357.17,464.40 360.90,466.71 363.24,469.39 364.04,472.27 363.24,475.15 360.90,477.84 357.17,480.14 352.32,481.91 346.67,483.02 340.60,483.40"/>
    <polyline points="355.51,489.70 354.96,491.04 353.62,491.59 352.28,491.04 351.73,489.70 352.28,488.36 353.62,487.81 354.96,488.36 355.51,489.70"/>
    <polyline points="401.92,441.40 401.92,480.71 401.85,481.31 401.65,481.88 401.33,482.39 400.91,482.81 400.40,483.13 399.83,483.33 399.23,483.40"/>
    <polyline points="401.92,461.14 395.85,461.52 390.20,462.63 385.35,464.40 381.62,466.71 379.28,469.39 378.48,472.27 379.28,475.15 381.62,477.84 385.35,480.14 390.20,481.91 395.85,483.02 401.92,483.40"/>
    <polyline points="390.79,435.94 390.24,437.28 388.90,437.83 387.56,437.28 387.01,435.94 387.56,434.60 388.90,434.05 390.24,434.60 390.79,435.94"/>
    <polyline points="424.18,441.40 424.18,480.71 424.25,481.31 424.45,481.88 424.77,482.39 425.19,482.81 425.70,483.13 426.27,483.33 426.87,483.40"/>
    <polyline points="424.18,441.40 427.21,441.74 430.04,442.72 432.47,444.29 434.33,446.34 435.50,448.72 435.90,451.27 435.50,453.82 434.33,456.21 432.47,458.25 430.04,459.82 427.21,460.80 424.18,461.14"/>
    <polyline points="424.18,461.14 427.21,461.52 430.04,462.63 432.47,464.40 434.33,466.71 435.50,469.39 435.90,472.27 435.50,475.15 434.33,477.84 432.47,480.14 430.04,481.91 427.21,483.02 424.18,483.40"/>
    <polyline points="420.01,437.20 428.35,434.68"/>
    <polyline points="446.44,441.40 446.44,480.71 446.51,481.31 446.71,481.88 447.03,482.39 447.45,482.81 447.96,483.13 448.53,483.33 449.13,483.40"/>
    <polyline points="446.44,441.40 452.51,441.74 458.16,442.72 463.01,444.29 466.74,446.34 469.08,448.72 469.88,451.27 469.08,453.82 466.74,456.21 463.01,458.25 458.16,459.82 452.51,460.80 446.44,461.14"/>
    <polyline points="461.35,435.94 460.80,437.28 459.46,437.83 458.12,437.28 457.57,435.94 458.12,434.60 459.46,434.05 460.80,434.60 461.35,435.94"/>
    <polyline points="481.72,441.40 485.79,441.72 489.74,442.67 493.44,444.21 496.78,446.31 499.67,448.90 502.02,451.90 503.74,455.22 504.80,458.75 505.16,462.40 504.80,466.05 503.74,469.58 502.02,472.90 499.67,475.90 496.78,478.49 493.44,480.59 489.74,482.13 485.79,483.08 481.72,483.40"/>
    <polyline points="497.89,462.40 497.29,464.25 495.71,465.40 493.77,465.40 492.19,464.25 491.59,462.40 492.19,460.55 493.77,459.40 495.71,459.40 497.29,460.55 497.89,462.40"/>
    <polyline points="496.63,435.94 496.08,437.28 494.74,437.83 493.40,437.28 492.85,435.94 493.40,434.60 494.74,434.05 496.08,434.60 496.63,435.94"/>
    <polyline points="81.04,517.00 81.04,556.31 80.97,556.91 80.77,557.48 80.45,557.99 80.03,558.41 79.52,558.73 78.95,558.93 78.35,559.00"/>
    <polyline points="81.04,517.00 55.00,517.00 54.16,519.42"/>
    <polyline points="81.04,536.74 74.97,537.12 69.32,538.23 64.47,540.00 60.74,542.31 58.40,544.99 57.60,547.87 58.40,550.75 60.74,553.44 64.47,555.74 69.32,557.51 74.97,558.62 81.04,559.00"/>
    <polyline points="116.32,538.00 115.94,542.93 114.83,547.56 113.05,551.65 110.70,554.94 107.92,557.24 104.87,558.43 101.73,558.43 98.68,557.24 95.90,554.94 93.55,551.65 91.77,547.56 90.66,542.93 90.28,538.00 90.66,533.07 91.77,528.44 93.55,524.35 95.90,521.06 98.68,518.76 101.73,517.57 104.87,517.57 107.92,518.76 110.70,521.06 113.05,524.35 114.83,528.44 115.94,533.07 116.32,538.00"/>
    <polyline points="106.45,538.00 105.85,539.85 104.27,541.00 102.33,541.00 100.75,539.85 100.15,538.00 100.75,536.15 102.33,535.00 104.27,535.00 105.85,536.15 106.45,538.00"/>
    <polyline points="105.19,511.54 104.64,512.88 103.30,513.43 101.96,512.88 101.41,511.54 101.96,510.20 103.30,509.65 104.64,510.20 105.19,511.54"/>
    <polyline points="164.62,517.00 164.62,556.31 164.69,556.91 164.89,557.48 165.21,557.99 165.63,558.41 166.14,558.73 166.71,558.93 167.31,559.00"/>
    <polyline points="164.62,517.00 167.65,517.34 170.48,518.32 172.91,519.89 174.77,521.94 175.94,524.32 176.34,526.87 175.94,529.42 174.77,531.81 172.91,533.85 170.48,535.42 167.65,536.40 164.62,536.74"/>
    <polyline points="164.62,536.74 167.65,537.12 170.48,538.23 172.91,540.00 174.77,542.31 175.94,544.99 176.34,547.87 175.94,550.75 174.77,553.44 172.91,555.74 170.48,557.51 167.65,558.62 164.62,559.00"/>
    <polyline points="160.45,512.80 168.79,510.28"/>
    <polyline points="212.92,538.00 212.54,542.93 211.43,547.56 209.65,551.65 207.30,554.94 204.52,557.24 201.47,558.43 198.33,558.43 195.28,557.24 192.50,554.94 190.15,551.65 188.37,547.56 187.26,542.93 186.88,538.00 187.26,533.07 188.37,528.44 190.15,524.35 192.50,521.06 195.28,518.76 198.33,517.57 201.47,517.57 204.52,518.76 207.30,521.06 209.65,524.35 211.43,528.44 212.54,533.07 212.92,538.00"/>
    <polyline points="203.05,538.00 202.45,539.85 200.87,541.00 198.93,541.00 197.35,539.85 196.75,538.00 197.35,536.15 198.93,535.00 200.87,535.00 202.45,536.15 203.05,538.00"/>
    <polyline points="201.79,511.54 201.24,512.88 199.90,513.43 198.56,512.88 198.01,511.54 198.56,510.20 199.90,509.65 201.24,510.20 201.79,511.54"/>
    <polyline points="248.20,559.00 244.13,558.68 240.18,557.73 236.48,556.19 233.14,554.09 230.25,551.50 227.90,548.50 226.18,545.18 225.12,541.65 224.76,538.00 225.12,534.35 226.18,530.82 227.90,527.50 230.25,524.50 233.14,521.91 236.48,519.81 240.18,518.27 244.13,517.32 248.20,517.00"/>
    <polyline points="224.24,538.00 246.12,538.00"/>
    <polyline points="283.48,517.00 287.55,517.32 291.50,518.27 295.20,519.81 298.54,521.91 301.43,524.50 303.78,527.50 305.50,530.82 306.56,534.35 306.92,538.00 306.56,541.65 305.50,545.18 303.78,548.50 301.43,551.50 298.54,554.09 295.20,556.19 291.50,557.73 287.55,558.68 283.48,559.00"/>
    <polyline points="299.65,538.00 299.05,539.85 297.47,541.00 295.53,541.00 293.95,539.85 293.35,538.00 293.95,536.15 295.53,535.00 297.47,535.00 299.05,536.15 299.65,538.00"/>
    <polyline points="298.39,511.54 297.84,512.88 296.50,513.43 295.16,512.88 294.61,511.54 295.16,510.20 296.50,509.65 297.84,510.20 298.39,511.54"/>
    <polyline points="344.80,517.00 344.80,556.31 344.73,556.91 344.53,557.48 344.21,557.99 343.79,558.41 343.28,558.73 342.71,558.93 342.11,559.00"/>
    <polyline points="344.80,517.00 338.73,517.34 333.08,518.32 328.23,519.89 324.50,521.94 322.16,524.32 321.36,526.87 322.16,529.42 324.50,531.81 328.23,533.85 333.08,535.42 338.73,536.40 344.80,536.74"/>
    <polyline points="332.12,551.23 331.55,552.96 330.08,554.03 328.27,554.03 326.80,552.96 326.24,551.23 326.80,549.50 328.27,548.43 330.08,548.43 331.55,549.50 332.12,551.23"/>
    <polyline points="367.06,517.00 367.06,556.31 367.13,556.91 367.33,557.48 367.65,557.99 368.07,558.41 368.58,558.73 369.15,558.93 369.75,559.00"/>
    <polyline points="367.06,517.00 370.09,517.34 372.92,518.32 375.35,519.89 377.21,521.94 378.38,524.32 378.78,526.87 378.38,529.42 377.21,531.81 375.35,533.85 372.92,535.42 370.09,536.40 367.06,536.74"/>
    <polyline points="367.06,536.74 370.09,537.12 372.92,538.23 375.35,540.00 377.21,542.31 378.38,544.99 378.78,547.87 378.38,550.75 377.21,553.44 375.35,555.74 372.92,557.51 370.09,558.62 367.06,559.00"/>
    <polyline points="362.89,512.80 371.23,510.28"/>
    <polyline points="402.34,517.00 402.34,556.31 402.27,556.91 402.07,557.48 401.75,557.99 401.33,558.41 400.82,558.73 400.25,558.93 399.65,559.00"/>
    <polyline points="391.40,536.74 413.28,536.74"/>
    <polyline points="424.60,517.00 428.67,517.32 432.62,518.27 436.32,519.81 439.66,521.91 442.55,524.50 444.90,527.50 446.62,530.82 447.68,534.35 448.04,538.00 447.68,541.65 446.62,545.18 444.90,548.50 442.55,551.50 439.66,554.09 436.32,556.19 432.62,557.73 428.67,558.68 424.60,559.00"/>
    <polyline points="440.77,538.00 440.17,539.85 438.59,541.00 436.65,541.00 435.07,539.85 434.47,538.00 435.07,536.15 436.65,535.00 438.59,535.00 440.17,536.15 440.77,538.00"/>
    <polyline points="439.51,511.54 438.96,512.88 437.62,513.43 436.28,512.88 435.73,511.54 436.28,510.20 437.62,509.65 438.96,510.20 439.51,511.54"/>
    <polyline points="485.92,538.00 485.54,542.93 484.43,547.56 482.65,551.65 480.30,554.94 477.52,557.24 474.47,558.43 471.33,558.43 468.28,557.24 465.50,554.94 463.15,551.65 461.37,547.56 460.26,542.93 459.88,538.00 460.26,533.07 461.37,528.44 463.15,524.35 465.50,521.06 468.28,518.76 471.33,517.57 474.47,517.57 477.52,518.76 480.30,521.06 482.65,524.35 484.43,528.44 485.54,533.07 485.92,538.00"/>
    <polyline points="476.05,538.00 475.45,539.85 473.87,541.00 471.93,541.00 470.35,539.85 469.75,538.00 470.35,536.15 471.93,535.00 473.87,535.00 475.45,536.15 476.05,538.00"/>
    <polyline points="474.79,511.54 474.24,512.88 472.90,513.43 471.56,512.88 471.01,511.54 471.56,510.20 472.90,509.65 474.24,510.20 474.79,511.54"/>
    <polyline points="508.18,517.00 508.18,556.31 508.25,556.91 508.45,557.48 508.77,557.99 509.19,558.41 509.70,558.73 510.27,558.93 510.87,559.00"/>
    <polyline points="508.18,517.00 511.21,517.34 514.04,518.32 516.47,519.89 518.33,521.94 519.50,524.32 519.90,526.87 519.50,529.42 518.33,531.81 516.47,533.85 514.04,535.42 511.21,536.40 508.18,536.74"/>
    <polyline points="508.18,536.74 511.21,537.12 514.04,538.23 516.47,540.00 518.33,542.31 519.50,544.99 519.90,547.87 519.50,550.75 518.33,553.44 516.47,555.74 514.04,557.51 511.21,558.62 508.18,559.00"/>
    <polyline points="504.01,512.80 512.35,510.28"/>
    <polyline points="55.00,592.60 55.00,631.91 55.07,632.51 55.27,633.08 55.59,633.59 56.01,634.01 56.52,634.33 57.09,634.53 57.69,634.60"/>
    <polyline points="55.00,592.60 61.07,592.94 66.72,593.92 71.57,595.49 75.30,597.54 77.64,599.92 78.44,602.47 77.64,605.02 75.30,607.41 71.57,609.45 66.72,611.02 61.07,612.00 55.00,612.34"/>
    <polyline points="69.91,587.14 69.36,588.48 68.02,589.03 66.68,588.48 66.13,587.14 66.68,585.80 68.02,585.25 69.36,585.80 69.91,587.14"/>
    <polyline points="90.28,592.60 94.35,592.92 98.30,593.87 102.00,595.41 105.34,597.51 108.23,600.10 110.58,603.10 112.30,606.42 113.36,609.95 113.72,613.60 113.36,617.25 112.30,620.78 110.58,624.10 108.23,627.10 105.34,629.69 102.00,631.79 98.30,633.33 94.35,634.28 90.28,634.60"/>
    <polyline points="106.45,613.60 105.85,615.45 104.27,616.60 102.33,616.60 100.75,615.45 100.15,613.60 100.75,611.75 102.33,610.60 104.27,610.60 105.85,611.75 106.45,613.60"/>
    <polyline points="105.19,587.14 104.64,588.48 103.30,589.03 101.96,588.48 101.41,587.14 101.96,585.80 103.30,585.25 104.64,585.80 105.19,587.14"/>
    <polyline points="151.60,592.60 151.60,631.91 151.53,632.51 151.33,633.08 151.01,633.59 150.59,634.01 150.08,634.33 149.51,634.53 148.91,634.60"/>
    <polyline points="151.60,592.60 125.56,592.60 124.72,595.02"/>
    <polyline points="151.60,612.34 145.53,612.72 139.88,613.83 135.03,615.60 131.30,617.91 128.96,620.59 128.16,623.47 128.96,626.35 131.30,629.04 135.03,631.34 139.88,633.11 145.53,634.22 151.60,634.60"/>
    <polyline points="186.88,613.60 186.50,618.53 185.39,623.16 183.61,627.25 181.26,630.54 178.48,632.84 175.43,634.03 172.29,634.03 169.24,632.84 166.46,630.54 164.11,627.25 162.33,623.16 161.22,618.53 160.84,613.60 161.22,608.67 162.33,604.04 164.11,599.95 166.46,596.66 169.24,594.36 172.29,593.17 175.43,593.17 178.48,594.36 181.26,596.66 183.61,599.95 185.39,604.04 186.50,608.67 186.88,613.60"/>
    <polyline points="177.01,613.60 176.41,615.45 174.83,616.60 172.89,616.60 171.31,615.45 170.71,613.60 171.31,611.75 172.89,610.60 174.83,610.60 176.41,611.75 177.01,613.60"/>
    <polyline points="175.75,587.14 175.20,588.48 173.86,589.03 172.52,588.48 171.97,587.14 172.52,585.80 173.86,585.25 175.20,585.80 175.75,587.14"/>
    <polyline points="196.12,592.60 196.12,634.60"/>
    <polyline points="256.68,592.60 256.68,631.91 256.75,632.51 256.95,633.08 257.27,633.59 257.70,634.01 258.21,634.33 258.77,634.53 259.37,634.60"/>
    <polyline points="256.68,592.60 282.72,592.60 283.56,595.02"/>
    <polyline points="256.68,612.34 262.75,612.72 268.40,613.83 273.26,615.60 276.98,617.91 279.32,620.59 280.12,623.47 279.32,626.35 276.98,629.04 273.26,631.34 268.40,633.11 262.75,634.22 256.68,634.60"/>
    <polyline points="271.59,640.90 271.04,642.24 269.70,642.79 268.37,642.24 267.81,640.90 268.37,639.56 269.70,639.01 271.04,639.56 271.59,640.90"/>
    <polyline points="318.00,634.60 313.93,634.28 309.99,633.33 306.29,631.79 302.94,629.69 300.05,627.10 297.71,624.10 295.98,620.78 294.92,617.25 294.57,613.60 294.92,609.95 295.98,606.42 297.71,603.10 300.05,600.10 302.94,597.51 306.29,595.41 309.99,593.87 313.93,592.92 318.00,592.60"/>
    <polyline points="306.87,640.90 306.32,642.24 304.98,642.79 303.65,642.24 303.09,640.90 303.65,639.56 304.98,639.01 306.32,639.56 306.87,640.90"/>
    <polyline points="340.26,592.60 340.26,631.91 340.33,632.51 340.53,633.08 340.85,633.59 341.28,634.01 341.79,634.33 342.35,634.53 342.95,634.60"/>
    <polyline points="340.26,592.60 343.30,592.94 346.12,593.92 348.55,595.49 350.41,597.54 351.58,599.92 351.98,602.47 351.58,605.02 350.41,607.41 348.55,609.45 346.12,611.02 343.30,612.00 340.26,612.34"/>
    <polyline points="340.26,612.34 343.30,612.72 346.12,613.83 348.55,615.60 350.41,617.91 351.58,620.59 351.98,623.47 351.58,626.35 350.41,629.04 348.55,631.34 346.12,633.11 343.30,634.22 340.26,634.60"/>
    <polyline points="336.10,588.40 344.43,585.88"/>
    <polyline points="388.56,634.60 384.49,634.28 380.55,633.33 376.85,631.79 373.50,629.69 370.61,627.10 368.27,624.10 366.54,620.78 365.48,617.25 365.13,613.60 365.48,609.95 366.54,606.42 368.27,603.10 370.61,600.10 373.50,597.51 376.85,595.41 380.55,593.87 384.49,592.92 388.56,592.60"/>
    <polyline points="364.61,613.60 386.48,613.60"/>
    <polyline points="397.80,592.60 401.87,592.92 405.82,593.87 409.52,595.41 412.87,597.51 415.76,600.10 418.10,603.10 419.83,606.42 420.88,609.95 421.24,613.60 420.88,617.25 419.83,620.78 418.10,624.10 415.76,627.10 412.87,629.69 409.52,631.79 405.82,633.33 401.87,634.28 397.80,634.60"/>
    <polyline points="413.97,613.60 413.37,615.45 411.80,616.60 409.85,616.60 408.28,615.45 407.67,613.60 408.28,611.75 409.85,610.60 411.80,610.60 413.37,611.75 413.97,613.60"/>
    <polyline points="412.71,587.14 412.16,588.48 410.82,589.03 409.49,588.48 408.93,587.14 409.49,585.80 410.82,585.25 412.16,585.80 412.71,587.14"/>
    <polyline points="459.12,613.60 458.75,618.53 457.63,623.16 455.85,627.25 453.50,630.54 450.72,632.84 447.67,634.03 444.53,634.03 441.49,632.84 438.71,630.54 436.36,627.25 434.58,623.16 433.46,618.53 433.08,613.60 433.46,608.67 434.58,604.04 436.36,599.95 438.71,596.66 441.49,594.36 444.53,593.17 447.67,593.17 450.72,594.36 453.50,596.66 455.85,599.95 457.63,604.04 458.75,608.67 459.12,613.60"/>
    <polyline points="449.25,613.60 448.65,615.45 447.08,616.60 445.13,616.60 443.56,615.45 442.95,613.60 443.56,611.75 445.13,610.60 447.08,610.60 448.65,611.75 449.25,613.60"/>
    <polyline points="447.99,587.14 447.44,588.48 446.10,589.03 444.77,588.48 444.21,587.14 444.77,585.80 446.10,585.25 447.44,585.80 447.99,587.14"/>
    <polyline points="481.38,592.60 481.38,631.91 481.32,632.51 481.12,633.08 480.80,633.59 480.37,634.01 479.86,634.33 479.29,634.53 478.70,634.60"/>
    <polyline points="470.45,612.34 492.32,612.34"/>
    <polyline points="81.04,710.20 76.97,709.88 73.02,708.93 69.32,707.39 65.98,705.29 63.09,702.70 60.74,699.70 59.02,696.38 57.96,692.85 57.60,689.20 57.96,685.55 59.02,682.02 60.74,678.70 63.09,675.70 65.98,673.11 69.32,671.01 73.02,669.47 76.97,668.52 81.04,668.20"/>
    <polyline points="69.91,716.50 69.36,717.84 68.02,718.39 66.68,717.84 66.13,716.50 66.68,715.16 68.02,714.61 69.36,715.16 69.91,716.50"/>
    <polyline points="90.28,668.20 90.28,707.51 90.35,708.11 90.55,708.68 90.87,709.19 91.29,709.61 91.80,709.93 92.37,710.13 92.97,710.20"/>
    <polyline points="90.28,668.20 116.32,668.20 117.16,670.62"/>
    <polyline points="125.56,668.20 125.56,707.51 125.63,708.11 125.83,708.68 126.15,709.19 126.57,709.61 127.08,709.93 127.65,710.13 128.25,710.20"/>
    <polyline points="125.56,668.20 131.63,668.54 137.28,669.52 142.13,671.09 145.86,673.14 148.20,675.52 149.00,678.07 148.20,680.62 145.86,683.01 142.13,685.05 137.28,686.62 131.63,687.60 125.56,687.94"/>
    <polyline points="140.47,662.74 139.92,664.08 138.58,664.63 137.24,664.08 136.69,662.74 137.24,661.40 138.58,660.85 139.92,661.40 140.47,662.74"/>
    <polyline points="186.88,710.20 182.81,709.88 178.86,708.93 175.16,707.39 171.82,705.29 168.93,702.70 166.58,699.70 164.86,696.38 163.80,692.85 163.44,689.20 163.80,685.55 164.86,682.02 166.58,678.70 168.93,675.70 171.82,673.11 175.16,671.01 178.86,669.47 182.81,668.52 186.88,668.20"/>
    <polyline points="175.75,716.50 175.20,717.84 173.86,718.39 172.52,717.84 171.97,716.50 172.52,715.16 173.86,714.61 175.20,715.16 175.75,716.50"/>
    <polyline points="222.16,689.20 221.78,694.13 220.67,698.76 218.89,702.85 216.54,706.14 213.76,708.44 210.71,709.63 207.57,709.63 204.52,708.44 201.74,706.14 199.39,702.85 197.61,698.76 196.50,694.13 196.12,689.20 196.50,684.27 197.61,679.64 199.39,675.55 201.74,672.26 204.52,669.96 207.57,668.77 210.71,668.77 213.76,669.96 216.54,672.26 218.89,675.55 220.67,679.64 221.78,684.27 222.16,689.20"/>
    <polyline points="212.29,689.20 211.69,691.05 210.11,692.20 208.17,692.20 206.59,691.05 205.99,689.20 206.59,687.35 208.17,686.20 210.11,686.20 211.69,687.35 212.29,689.20"/>
    <polyline points="211.03,662.74 210.48,664.08 209.14,664.63 207.80,664.08 207.25,662.74 207.80,661.40 209.14,660.85 210.48,661.40 211.03,662.74"/>
    <polyline points="257.44,710.20 253.37,709.88 249.42,708.93 245.72,707.39 242.38,705.29 239.49,702.70 237.14,699.70 235.42,696.38 234.36,692.85 234.00,689.20 234.36,685.55 235.42,682.02 237.14,678.70 239.49,675.70 242.38,673.11 245.72,671.01 249.42,669.47 253.37,668.52 257.44,668.20"/>
    <polyline points="233.48,689.20 255.36,689.20"/>
    <polyline points="292.72,668.20 292.72,707.51 292.65,708.11 292.45,708.68 292.13,709.19 291.71,709.61 291.20,709.93 290.63,710.13 290.03,710.20"/>
    <polyline points="292.72,687.94 286.65,688.32 281.00,689.43 276.15,691.20 272.42,693.51 270.08,696.19 269.28,699.07 270.08,701.95 272.42,704.64 276.15,706.94 281.00,708.71 286.65,709.82 292.72,710.20"/>
    <polyline points="281.59,662.74 281.04,664.08 279.70,664.63 278.36,664.08 277.81,662.74 278.36,661.40 279.70,660.85 281.04,661.40 281.59,662.74"/>
    <polyline points="328.00,710.20 328.00,681.22 328.44,677.85 329.74,674.71 331.81,672.01 334.51,669.94 337.65,668.64 341.02,668.20 344.39,668.64 347.53,669.94 350.23,672.01 352.30,674.71 353.60,677.85 354.04,681.22 354.04,710.20"/>
    <polyline points="330.08,689.20 351.96,689.20"/>
    <polyline points="389.32,710.20 385.25,709.88 381.30,708.93 377.60,707.39 374.26,705.29 371.37,702.70 369.02,699.70 367.30,696.38 366.24,692.85 365.88,689.20 366.24,685.55 367.30,682.02 369.02,678.70 371.37,675.70 374.26,673.11 377.60,671.01 381.30,669.47 385.25,668.52 389.32,668.20"/>
    <polyline points="378.19,716.50 377.64,717.84 376.30,718.39 374.96,717.84 374.41,716.50 374.96,715.16 376.30,714.61 377.64,715.16 378.19,716.50"/>
    <polyline points="398.56,668.20 401.45,671.51 404.20,674.85 406.83,678.23 409.32,681.64 411.69,685.09 413.92,688.57 416.03,692.09 418.00,695.64 419.85,699.23 421.56,702.85 423.15,706.51 424.60,710.20"/>
    <polyline points="414.73,689.20 414.13,691.05 412.55,692.20 410.61,692.20 409.03,691.05 408.43,689.20 409.03,687.35 410.61,686.20 412.55,686.20 414.13,687.35 414.73,689.20"/>
    <polyline points="413.47,662.74 412.92,664.08 411.58,664.63 410.24,664.08 409.69,662.74 410.24,661.40 411.58,660.85 412.92,661.40 413.47,662.74"/>
    <polyline points="459.88,668.20 459.88,707.51 459.81,708.11 459.61,708.68 459.29,709.19 458.87,709.61 458.36,709.93 457.79,710.13 457.19,710.20"/>
    <polyline points="459.88,668.20 433.84,668.20 433.00,670.62"/>
    <polyline points="459.88,687.94 453.81,688.32 448.16,689.43 443.31,691.20 439.58,693.51 437.24,696.19 436.44,699.07 437.24,701.95 439.58,704.64 443.31,706.94 448.16,708.71 453.81,709.82 459.88,710.20"/>
    <polyline points="495.16,689.20 494.78,694.13 493.67,698.76 491.89,702.85 489.54,706.14 486.76,708.44 483.71,709.63 480.57,709.63 477.52,708.44 474.74,706.14 472.39,702.85 470.61,698.76 469.50,694.13 469.12,689.20 469.50,684.27 470.61,679.64 472.39,675.55 474.74,672.26 477.52,669.96 480.57,668.77 483.71,668.77 486.76,669.96 489.54,672.26 491.89,675.55 493.67,679.64 494.78,684.27 495.16,689.20"/>
    <polyline points="485.29,689.20 484.69,691.05 483.11,692.20 481.17,692.20 479.59,691.05 478.99,689.20 479.59,687.35 481.17,686.20 483.11,686.20 484.69,687.35 485.29,689.20"/>
    <polyline points="484.03,662.74 483.48,664.08 482.14,664.63 480.80,664.08 480.25,662.74 480.80,661.40 482.14,660.85 483.48,661.40 484.03,662.74"/>
    <polyline points="530.44,710.20 526.37,709.88 522.42,708.93 518.72,707.39 515.38,705.29 512.49,702.70 510.14,699.70 508.42,696.38 507.36,692.85 507.00,689.20 507.36,685.55 508.42,682.02 510.14,678.70 512.49,675.70 515.38,673.11 518.72,671.01 522.42,669.47 526.37,668.52 530.44,668.20"/>
    <polyline points="506.48,689.20 528.36,689.20"/>
  </g>
</svg>