<?xml version="1.0" encoding="UTF-8"?>
<!-- LIPI GLOSSARY · seed 7 · the key to the wall -->
<svg xmlns="http://www.w3.org/2000/svg" width="313.20000000000005mm" height="399.00000000000006mm" viewBox="0 0 313.20000000000005 399.00000000000006">
  <g fill="none" stroke="#000000" stroke-width="0.6" stroke-linecap="round" stroke-linejoin="round">
    <polyline points="18.00,18.00 18.00,24.60"/>
    <polyline points="18.00,24.60 22.15,24.60"/>
    <polyline points="25.64,18.00 27.52,18.00"/>
    <polyline points="26.58,18.00 26.58,24.60"/>
    <polyline points="25.64,24.60 27.52,24.60"/>
    <polyline points="30.45,24.60 30.45,18.00 33.84,18.00 34.69,18.75 34.69,20.55 33.84,21.30 30.45,21.30"/>
    <polyline points="38.08,18.00 39.97,18.00"/>
    <polyline points="39.03,18.00 39.03,24.60"/>
    <polyline points="38.08,24.60 39.97,24.60"/>
    <polyline points="47.89,18.19 51.94,18.19 49.40,24.60"/>
    <polyline points="59.77,21.49 59.77,21.87"/>
    <polyline points="72.21,19.32 71.08,18.28 69.39,18.28 68.35,19.41 68.07,21.30 68.35,23.19 69.39,24.32 71.08,24.32 72.21,23.28 72.21,21.96 70.52,21.96"/>
    <polyline points="74.57,18.00 74.57,24.60"/>
    <polyline points="74.57,24.60 78.72,24.60"/>
    <polyline points="83.62,18.00 82.21,18.47 81.45,19.89 81.45,22.71 82.21,24.13 83.62,24.60 85.04,24.13 85.79,22.71 85.79,19.89 85.04,18.47 83.62,18.00"/>
    <polyline points="92.11,19.13 90.98,18.19 89.28,18.19 88.34,19.13 88.34,20.64 89.28,21.21 91.17,21.39 92.11,22.05 92.11,23.56 91.17,24.41 89.28,24.41 88.15,23.47"/>
    <polyline points="98.80,19.13 97.67,18.19 95.97,18.19 95.03,19.13 95.03,20.64 95.97,21.21 97.86,21.39 98.80,22.05 98.80,23.56 97.86,24.41 95.97,24.41 94.84,23.47"/>
    <polyline points="101.35,24.60 103.71,18.00 106.06,24.60"/>
    <polyline points="102.20,22.34 105.21,22.34"/>
    <polyline points="108.04,24.60 108.04,18.00 111.44,18.00 112.29,18.75 112.29,20.55 111.44,21.30 108.04,21.30"/>
    <polyline points="110.12,21.30 112.57,24.60"/>
    <polyline points="114.74,18.00 117.09,21.49 119.45,18.00"/>
    <polyline points="117.09,21.49 117.09,24.60"/>
    <polyline points="41.10,38.90 41.10,59.49 41.14,59.81 41.24,60.10 41.41,60.37 41.63,60.59 41.90,60.76 42.19,60.86 42.51,60.90"/>
    <polyline points="41.10,38.90 42.69,39.08 44.17,39.59 45.44,40.41 46.42,41.48 47.03,42.73 47.24,44.07 47.03,45.41 46.42,46.65 45.44,47.73 44.17,48.55 42.69,49.06 41.10,49.24"/>
    <polyline points="41.10,49.24 42.69,49.44 44.17,50.02 45.44,50.95 46.42,52.16 47.03,53.56 47.24,55.07 47.03,56.58 46.42,57.98 45.44,59.19 44.17,60.12 42.69,60.70 41.10,60.90"/>
    <polyline points="38.92,36.70 43.28,35.38"/>
    <polyline points="37.80,80.04 41.10,70.80 44.40,80.04"/>
    <polyline points="38.99,76.87 43.21,76.87"/>
    <polyline points="80.48,60.90 80.48,45.72 80.71,43.95 81.39,42.31 82.48,40.90 83.89,39.81 85.53,39.13 87.30,38.90 89.07,39.13 90.71,39.81 92.12,40.90 93.21,42.31 93.89,43.95 94.12,45.72 94.12,60.90"/>
    <polyline points="81.57,49.90 93.03,49.90"/>
    <polyline points="84.00,70.80 84.00,80.04"/>
    <polyline points="84.00,70.80 88.62,70.80 89.68,71.72 89.68,74.50 88.62,75.42 84.00,75.42"/>
    <polyline points="84.00,75.42 89.02,75.42 90.07,76.48 90.07,78.98 89.02,80.04 84.00,80.04"/>
    <polyline points="126.68,38.90 126.68,54.08 126.91,55.85 127.59,57.49 128.68,58.90 130.09,59.99 131.73,60.67 133.50,60.90 135.27,60.67 136.91,59.99 138.32,58.90 139.41,57.49 140.09,55.85 140.32,54.08 140.32,38.90"/>
    <polyline points="135.15,49.90 134.83,50.87 134.01,51.47 132.99,51.47 132.17,50.87 131.85,49.90 132.17,48.93 132.99,48.33 134.01,48.33 134.83,48.93 135.15,49.90"/>
    <polyline points="136.27,72.65 134.69,71.20 132.31,71.20 130.86,72.78 130.46,75.42 130.86,78.06 132.31,79.64 134.69,79.64 136.27,78.19"/>
    <polyline points="186.52,60.90 184.39,60.73 182.32,60.24 180.38,59.43 178.63,58.33 177.12,56.97 175.89,55.40 174.98,53.66 174.43,51.81 174.24,49.90 174.43,47.99 174.98,46.14 175.89,44.40 177.12,42.83 178.63,41.47 180.38,40.37 182.32,39.56 184.39,39.07 186.52,38.90"/>
    <polyline points="173.97,49.90 185.43,49.90"/>
    <polyline points="176.40,70.80 176.40,80.04"/>
    <polyline points="176.40,70.80 180.36,70.80 182.47,72.91 182.47,77.93 180.36,80.04 176.40,80.04"/>
    <polyline points="232.72,60.90 230.59,60.73 228.52,60.24 226.58,59.43 224.83,58.33 223.32,56.97 222.09,55.40 221.18,53.66 220.63,51.81 220.44,49.90 220.63,47.99 221.18,46.14 222.09,44.40 223.32,42.83 224.83,41.47 226.58,40.37 228.52,39.56 230.59,39.07 232.72,38.90"/>
    <polyline points="226.89,64.20 226.60,64.90 225.90,65.19 225.20,64.90 224.91,64.20 225.20,63.50 225.90,63.21 226.60,63.50 226.89,64.20"/>
    <polyline points="222.60,70.80 222.60,80.04"/>
    <polyline points="222.60,70.80 228.41,70.80"/>
    <polyline points="222.60,75.42 227.09,75.42"/>
    <polyline points="222.60,80.04 228.41,80.04"/>
    <polyline points="278.92,38.90 278.92,59.49 278.88,59.81 278.78,60.10 278.61,60.37 278.39,60.59 278.12,60.76 277.83,60.86 277.51,60.90"/>
    <polyline points="278.92,38.90 276.53,39.11 274.22,39.74 272.10,40.75 270.24,42.12 268.71,43.79 267.58,45.69 266.88,47.75 266.64,49.90 266.88,52.05 267.58,54.11 268.71,56.01 270.24,57.68 272.10,59.05 274.22,60.06 276.53,60.69 278.92,60.90"/>
    <polyline points="268.80,70.80 268.80,80.04"/>
    <polyline points="268.80,70.80 274.61,70.80"/>
    <polyline points="268.80,75.42 273.02,75.42"/>
    <polyline points="41.10,96.10 41.10,116.69 41.06,117.01 40.96,117.30 40.79,117.57 40.57,117.79 40.30,117.96 40.01,118.06 39.69,118.10"/>
    <polyline points="35.37,106.44 46.83,106.44"/>
    <polyline points="43.87,129.85 42.29,128.40 39.91,128.40 38.46,129.98 38.06,132.62 38.46,135.26 39.91,136.84 42.29,136.84 43.87,135.39 43.87,133.54 41.50,133.54"/>
    <polyline points="94.12,96.10 94.12,116.69 94.08,117.01 93.98,117.30 93.81,117.57 93.59,117.79 93.32,117.96 93.03,118.06 92.71,118.10"/>
    <polyline points="94.12,96.10 90.94,96.28 87.98,96.79 85.44,97.61 83.49,98.68 82.26,99.93 81.84,101.27 82.26,102.61 83.49,103.85 85.44,104.93 87.98,105.75 90.94,106.26 94.12,106.44"/>
    <polyline points="94.12,106.44 90.94,106.64 87.98,107.22 85.44,108.15 83.49,109.35 82.26,110.76 81.84,112.27 82.26,113.78 83.49,115.18 85.44,116.39 87.98,117.32 90.94,117.90 94.12,118.10"/>
    <polyline points="84.00,128.00 84.00,137.24"/>
    <polyline points="90.60,128.00 90.60,137.24"/>
    <polyline points="84.00,132.62 90.60,132.62"/>
    <polyline points="126.68,96.10 128.81,96.27 130.88,96.76 132.82,97.57 134.57,98.67 136.08,100.03 137.31,101.60 138.22,103.34 138.77,105.19 138.96,107.10 138.77,109.01 138.22,110.86 137.31,112.60 136.08,114.17 134.57,115.53 132.82,116.63 130.88,117.44 128.81,117.93 126.68,118.10"/>
    <polyline points="135.15,107.10 134.83,108.07 134.01,108.67 132.99,108.67 132.17,108.07 131.85,107.10 132.17,106.13 132.99,105.53 134.01,105.53 134.83,106.13 135.15,107.10"/>
    <polyline points="134.49,93.24 134.20,93.94 133.50,94.23 132.80,93.94 132.51,93.24 132.80,92.54 133.50,92.25 134.20,92.54 134.49,93.24"/>
    <polyline points="132.18,128.00 134.82,128.00"/>
    <polyline points="133.50,128.00 133.50,137.24"/>
    <polyline points="132.18,137.24 134.82,137.24"/>
    <polyline points="179.70,96.10 179.70,116.69 179.66,117.01 179.56,117.30 179.39,117.57 179.17,117.79 178.90,117.96 178.61,118.06 178.29,118.10"/>
    <polyline points="179.70,96.10 172.88,96.10 172.44,97.37"/>
    <polyline points="179.70,106.44 178.96,107.08 178.23,107.84 177.51,108.71 176.81,109.70 176.12,110.81 175.44,112.04 174.78,113.38 174.13,114.84 173.50,116.41 172.88,118.10"/>
    <polyline points="181.15,128.00 181.15,135.13 180.23,136.98 178.25,137.24 176.93,136.05 176.53,134.60"/>
    <polyline points="219.08,96.10 219.08,116.69 219.12,117.01 219.22,117.30 219.39,117.57 219.61,117.79 219.88,117.96 220.17,118.06 220.49,118.10"/>
    <polyline points="219.08,106.44 229.99,106.44"/>
    <polyline points="219.08,118.10 229.99,118.10"/>
    <polyline points="222.60,128.00 222.60,137.24"/>
    <polyline points="229.20,128.00 222.86,133.02"/>
    <polyline points="224.84,131.43 229.20,137.24"/>
    <polyline points="265.28,96.10 266.79,97.83 268.24,99.58 269.61,101.35 270.92,103.14 272.16,104.95 273.33,106.77 274.43,108.61 275.46,110.47 276.43,112.35 277.33,114.25 278.16,116.17 278.92,118.10"/>
    <polyline points="265.28,96.10 278.92,96.10 279.36,97.37"/>
    <polyline points="265.28,118.10 276.19,118.10"/>
    <polyline points="273.09,93.24 272.80,93.94 272.10,94.23 271.40,93.94 271.11,93.24 271.40,92.54 272.10,92.25 272.80,92.54 273.09,93.24"/>
    <polyline points="268.80,128.00 268.80,137.24"/>
    <polyline points="268.80,137.24 274.61,137.24"/>
    <polyline points="47.92,153.30 47.92,173.89 47.88,174.21 47.78,174.50 47.61,174.77 47.39,174.99 47.12,175.16 46.83,175.26 46.51,175.30"/>
    <polyline points="47.92,153.30 44.74,153.48 41.78,153.99 39.24,154.81 37.29,155.89 36.06,157.13 35.64,158.47 36.06,159.81 37.29,161.06 39.24,162.13 41.78,162.95 44.74,163.46 47.92,163.64"/>
    <polyline points="41.28,171.23 40.98,172.14 40.21,172.69 39.26,172.69 38.49,172.14 38.20,171.23 38.49,170.32 39.26,169.77 40.21,169.77 40.98,170.32 41.28,171.23"/>
    <polyline points="37.14,194.44 37.14,185.20 41.10,190.74 45.06,185.20 45.06,194.44"/>
    <polyline points="94.12,164.30 93.92,166.88 93.34,169.31 92.40,171.45 91.17,173.17 89.72,174.38 88.12,175.00 86.48,175.00 84.88,174.38 83.43,173.17 82.20,171.45 81.26,169.31 80.68,166.88 80.48,164.30 80.68,161.72 81.26,159.29 82.20,157.15 83.43,155.43 84.88,154.22 86.48,153.60 88.12,153.60 89.72,154.22 91.17,155.43 92.40,157.15 93.34,159.29 93.92,161.72 94.12,164.30"/>
    <polyline points="88.95,164.30 88.63,165.27 87.81,165.87 86.79,165.87 85.97,165.27 85.65,164.30 85.97,163.33 86.79,162.73 87.81,162.73 88.63,163.33 88.95,164.30"/>
    <polyline points="88.29,150.44 88.00,151.14 87.30,151.43 86.60,151.14 86.31,150.44 86.60,149.74 87.30,149.45 88.00,149.74 88.29,150.44"/>
    <polyline points="84.00,194.44 84.00,185.20 90.60,194.44 90.60,185.20"/>
    <polyline points="140.32,153.30 140.32,173.89 140.28,174.21 140.18,174.50 140.01,174.77 139.79,174.99 139.52,175.16 139.23,175.26 138.91,175.30"/>
    <polyline points="140.32,153.30 126.68,153.30 126.24,154.57"/>
    <polyline points="140.32,163.64 137.14,163.84 134.18,164.42 131.64,165.35 129.69,166.56 128.46,167.96 128.04,169.47 128.46,170.98 129.69,172.39 131.64,173.59 134.18,174.52 137.14,175.10 140.32,175.30"/>
    <polyline points="133.50,185.20 131.52,185.86 130.46,187.84 130.46,191.80 131.52,193.78 133.50,194.44 135.48,193.78 136.54,191.80 136.54,187.84 135.48,185.86 133.50,185.20"/>
    <polyline points="186.52,153.30 186.52,173.89 186.48,174.21 186.38,174.50 186.21,174.77 185.99,174.99 185.72,175.16 185.43,175.26 185.11,175.30"/>
    <polyline points="186.52,153.30 172.88,153.30 172.44,154.57"/>
    <polyline points="176.40,194.44 176.40,185.20 181.15,185.20 182.34,186.26 182.34,188.76 181.15,189.82 176.40,189.82"/>
    <polyline points="232.72,175.30 230.59,175.13 228.52,174.64 226.58,173.83 224.83,172.73 223.32,171.37 222.09,169.80 221.18,168.06 220.63,166.21 220.44,164.30 220.63,162.39 221.18,160.54 222.09,158.80 223.32,157.23 224.83,155.87 226.58,154.77 228.52,153.96 230.59,153.47 232.72,153.30"/>
    <polyline points="232.72,175.30 233.26,176.15 233.66,176.95 233.91,177.69 234.02,178.38 233.98,179.01 233.79,179.59 233.47,180.11 232.99,180.58"/>
    <polyline points="226.89,150.44 226.60,151.14 225.90,151.43 225.20,151.14 224.91,150.44 225.20,149.74 225.90,149.45 226.60,149.74 226.89,150.44"/>
    <polyline points="225.90,185.20 223.92,185.86 222.86,187.84 222.86,191.80 223.92,193.78 225.90,194.44 227.88,193.78 228.94,191.80 228.94,187.84 227.88,185.86 225.90,185.20"/>
    <polyline points="226.56,192.06 229.20,194.84"/>
    <polyline points="265.28,153.30 265.28,173.89 265.32,174.21 265.42,174.50 265.59,174.77 265.81,174.99 266.08,175.16 266.37,175.26 266.69,175.30"/>
    <polyline points="265.28,153.30 278.92,153.30 279.36,154.57"/>
    <polyline points="265.28,163.64 268.46,163.84 271.42,164.42 273.96,165.35 275.91,166.56 277.14,167.96 277.56,169.47 277.14,170.98 275.91,172.39 273.96,173.59 271.42,174.52 268.46,175.10 265.28,175.30"/>
    <polyline points="273.09,178.60 272.80,179.30 272.10,179.59 271.40,179.30 271.11,178.60 271.40,177.90 272.10,177.61 272.80,177.90 273.09,178.60"/>
    <polyline points="268.80,194.44 268.80,185.20 273.55,185.20 274.74,186.26 274.74,188.76 273.55,189.82 268.80,189.82"/>
    <polyline points="271.70,189.82 275.14,194.44"/>
    <polyline points="47.92,210.50 47.92,231.09 47.88,231.41 47.78,231.70 47.61,231.97 47.39,232.19 47.12,232.36 46.83,232.46 46.51,232.50"/>
    <polyline points="47.92,220.84 44.74,221.04 41.78,221.62 39.24,222.55 37.29,223.76 36.06,225.16 35.64,226.67 36.06,228.18 37.29,229.59 39.24,230.79 41.78,231.72 44.74,232.30 47.92,232.50"/>
    <polyline points="42.09,207.64 41.80,208.34 41.10,208.63 40.40,208.34 40.11,207.64 40.40,206.94 41.10,206.65 41.80,206.94 42.09,207.64"/>
    <polyline points="43.61,243.98 42.02,242.66 39.65,242.66 38.33,243.98 38.33,246.10 39.65,246.89 42.29,247.15 43.61,248.08 43.61,250.19 42.29,251.38 39.65,251.38 38.06,250.06"/>
    <polyline points="80.48,210.50 80.48,231.09 80.52,231.41 80.62,231.70 80.79,231.97 81.01,232.19 81.28,232.36 81.57,232.46 81.89,232.50"/>
    <polyline points="80.48,210.50 83.66,210.68 86.62,211.19 89.16,212.01 91.11,213.09 92.34,214.33 92.76,215.67 92.34,217.01 91.11,218.26 89.16,219.33 86.62,220.15 83.66,220.66 80.48,220.84"/>
    <polyline points="88.29,207.64 88.00,208.34 87.30,208.63 86.60,208.34 86.31,207.64 86.60,206.94 87.30,206.65 88.00,206.94 88.29,207.64"/>
    <polyline points="84.00,242.40 90.60,242.40"/>
    <polyline points="87.30,242.40 87.30,251.64"/>
    <polyline points="133.50,210.50 133.50,231.09 133.46,231.41 133.36,231.70 133.19,231.97 132.97,232.19 132.70,232.36 132.41,232.46 132.09,232.50"/>
    <polyline points="133.50,210.50 131.91,210.68 130.43,211.19 129.16,212.01 128.18,213.09 127.57,214.33 127.36,215.67 127.57,217.01 128.18,218.26 129.16,219.33 130.43,220.15 131.91,220.66 133.50,220.84"/>
    <polyline points="130.95,228.43 130.65,229.34 129.88,229.89 128.93,229.89 128.16,229.34 127.87,228.43 128.16,227.52 128.93,226.97 129.88,226.97 130.65,227.52 130.95,228.43"/>
    <polyline points="130.20,242.40 130.20,249.00 131.52,251.24 133.50,251.64 135.48,251.24 136.80,249.00 136.80,242.40"/>
    <polyline points="186.52,221.50 186.32,224.08 185.74,226.51 184.80,228.65 183.57,230.37 182.12,231.58 180.52,232.20 178.88,232.20 177.28,231.58 175.83,230.37 174.60,228.65 173.66,226.51 173.08,224.08 172.88,221.50 173.08,218.92 173.66,216.49 174.60,214.35 175.83,212.63 177.28,211.42 178.88,210.80 180.52,210.80 182.12,211.42 183.57,212.63 184.80,214.35 185.74,216.49 186.32,218.92 186.52,221.50"/>
    <polyline points="179.70,210.50 179.70,232.50"/>
    <polyline points="176.40,242.40 179.70,251.64 183.00,242.40"/>
    <polyline points="219.08,210.50 219.08,231.09 219.12,231.41 219.22,231.70 219.39,231.97 219.61,232.19 219.88,232.36 220.17,232.46 220.49,232.50"/>
    <polyline points="219.08,210.50 232.72,210.50 233.16,211.77"/>
    <polyline points="219.08,220.84 220.57,221.48 222.03,222.24 223.46,223.11 224.86,224.10 226.24,225.21 227.59,226.44 228.91,227.78 230.21,229.24 231.48,230.81 232.72,232.50"/>
    <polyline points="221.94,242.40 223.79,251.64 225.90,245.83 228.01,251.64 229.86,242.40"/>
    <polyline points="265.28,210.50 265.28,231.09 265.32,231.41 265.42,231.70 265.59,231.97 265.81,232.19 266.08,232.36 266.37,232.46 266.69,232.50"/>
    <polyline points="265.28,210.50 278.92,210.50 279.36,211.77"/>
    <polyline points="268.80,242.40 275.40,251.64"/>
    <polyline points="275.40,242.40 268.80,251.64"/>
    <polyline points="34.28,267.70 35.79,269.43 37.24,271.18 38.61,272.95 39.92,274.74 41.16,276.55 42.33,278.37 43.43,280.21 44.46,282.07 45.43,283.95 46.33,285.85 47.16,287.77 47.92,289.70"/>
    <polyline points="42.75,278.70 42.43,279.67 41.61,280.27 40.59,280.27 39.77,279.67 39.45,278.70 39.77,277.73 40.59,277.13 41.61,277.13 42.43,277.73 42.75,278.70"/>
    <polyline points="42.09,264.84 41.80,265.54 41.10,265.83 40.40,265.54 40.11,264.84 40.40,264.14 41.10,263.85 41.80,264.14 42.09,264.84"/>
    <polyline points="37.80,299.60 41.10,304.48 44.40,299.60"/>
    <polyline points="41.10,304.48 41.10,308.84"/>
    <polyline points="94.12,267.70 94.12,288.29 94.08,288.61 93.98,288.90 93.81,289.17 93.59,289.39 93.32,289.56 93.03,289.66 92.71,289.70"/>
    <polyline points="88.39,278.04 99.85,278.04"/>
    <polyline points="88.29,293.00 88.00,293.70 87.30,293.99 86.60,293.70 86.31,293.00 86.60,292.30 87.30,292.01 88.00,292.30 88.29,293.00"/>
    <polyline points="84.00,299.60 90.60,299.60 84.00,308.84 90.60,308.84"/>
    <polyline points="126.68,267.70 128.81,267.87 130.88,268.36 132.82,269.17 134.57,270.27 136.08,271.63 137.31,273.20 138.22,274.94 138.77,276.79 138.96,278.70 138.77,280.61 138.22,282.46 137.31,284.20 136.08,285.77 134.57,287.13 132.82,288.23 130.88,289.04 128.81,289.53 126.68,289.70"/>
    <polyline points="126.68,289.70 127.22,290.55 127.62,291.35 127.87,292.09 127.98,292.78 127.94,293.41 127.75,293.99 127.43,294.51 126.95,294.98"/>
    <polyline points="134.49,264.84 134.20,265.54 133.50,265.83 132.80,265.54 132.51,264.84 132.80,264.14 133.50,263.85 134.20,264.14 134.49,264.84"/>
    <polyline points="133.50,299.60 131.65,300.26 130.73,302.24 130.73,306.20 131.65,308.18 133.50,308.84 135.35,308.18 136.27,306.20 136.27,302.24 135.35,300.26 133.50,299.60"/>
    <polyline points="179.70,267.70 179.70,288.29 179.66,288.61 179.56,288.90 179.39,289.17 179.17,289.39 178.90,289.56 178.61,289.66 178.29,289.70"/>
    <polyline points="179.70,267.70 178.11,267.88 176.63,268.39 175.36,269.21 174.38,270.28 173.77,271.53 173.56,272.87 173.77,274.21 174.38,275.45 175.36,276.53 176.63,277.35 178.11,277.86 179.70,278.04"/>
    <polyline points="179.70,278.04 178.96,278.68 178.23,279.44 177.51,280.31 176.81,281.30 176.12,282.41 175.44,283.64 174.78,284.98 174.13,286.44 173.50,288.01 172.88,289.70"/>
    <polyline points="177.98,301.71 179.96,299.60 179.96,308.84"/>
    <polyline points="177.98,308.84 181.94,308.84"/>
    <polyline points="225.90,267.70 225.90,288.29 225.86,288.61 225.76,288.90 225.59,289.17 225.37,289.39 225.10,289.56 224.81,289.66 224.49,289.70"/>
    <polyline points="225.90,267.70 219.08,267.70 218.64,268.97"/>
    <polyline points="223.72,265.50 228.08,264.18"/>
    <polyline points="223.26,301.58 224.98,299.86 227.22,299.86 228.67,301.45 228.67,303.30 223.26,308.84 228.80,308.84"/>
    <polyline points="278.92,267.70 278.92,288.29 278.88,288.61 278.78,288.90 278.61,289.17 278.39,289.39 278.12,289.56 277.83,289.66 277.51,289.70"/>
    <polyline points="278.92,267.70 265.28,267.70 264.84,268.97"/>
    <polyline points="278.92,278.04 277.43,278.68 275.97,279.44 274.54,280.31 273.14,281.30 271.76,282.41 270.41,283.64 269.09,284.98 267.79,286.44 266.52,288.01 265.28,289.70"/>
    <polyline points="269.46,300.92 271.31,299.86 273.55,299.86 274.87,301.18 274.87,303.03 273.02,304.22 274.87,305.41 274.87,307.39 273.55,308.58 271.18,308.58 269.46,307.52"/>
    <polyline points="47.92,346.90 45.79,346.73 43.72,346.24 41.78,345.43 40.03,344.33 38.52,342.97 37.29,341.40 36.38,339.66 35.83,337.81 35.64,335.90 35.83,333.99 36.38,332.14 37.29,330.40 38.52,328.83 40.03,327.47 41.78,326.37 43.72,325.56 45.79,325.07 47.92,324.90"/>
    <polyline points="35.37,335.90 46.83,335.90"/>
    <polyline points="42.75,335.90 42.43,336.87 41.61,337.47 40.59,337.47 39.77,336.87 39.45,335.90 39.77,334.93 40.59,334.33 41.61,334.33 42.43,334.93 42.75,335.90"/>
    <polyline points="42.55,366.04 42.55,356.80 38.33,363.27 44.14,363.27"/>
    <polyline points="94.12,335.90 93.92,338.48 93.34,340.91 92.40,343.05 91.17,344.77 89.72,345.98 88.12,346.60 86.48,346.60 84.88,345.98 83.43,344.77 82.20,343.05 81.26,340.91 80.68,338.48 80.48,335.90 80.68,333.32 81.26,330.89 82.20,328.75 83.43,327.03 84.88,325.82 86.48,325.20 88.12,325.20 89.72,325.82 91.17,327.03 92.40,328.75 93.34,330.89 93.92,333.32 94.12,335.90"/>
    <polyline points="89.94,357.06 85.06,357.06 84.79,360.76 86.77,360.23 88.88,360.63 90.07,361.95 90.07,364.32 88.75,365.78 86.38,365.91 84.66,364.72"/>
    <polyline points="126.68,346.90 126.68,331.72 126.91,329.95 127.59,328.31 128.68,326.90 130.09,325.81 131.73,325.13 133.50,324.90 135.27,325.13 136.91,325.81 138.32,326.90 139.41,328.31 140.09,329.95 140.32,331.72 140.32,346.90"/>
    <polyline points="135.15,335.90 134.83,336.87 134.01,337.47 132.99,337.47 132.17,336.87 131.85,335.90 132.17,334.93 132.99,334.33 134.01,334.33 134.83,334.93 135.15,335.90"/>
    <polyline points="134.49,322.04 134.20,322.74 133.50,323.03 132.80,322.74 132.51,322.04 132.80,321.34 133.50,321.05 134.20,321.34 134.49,322.04"/>
    <polyline points="135.74,358.12 134.16,357.06 132.31,357.59 131.12,359.57 130.86,362.87 130.86,364.32 132.18,365.78 134.29,365.91 135.74,364.85 136.14,363.27 135.35,361.68 133.50,361.16 131.78,361.68 130.99,363.00"/>
    <polyline points="172.88,324.90 172.88,345.49 172.92,345.81 173.02,346.10 173.19,346.37 173.41,346.59 173.68,346.76 173.97,346.86 174.29,346.90"/>
    <polyline points="172.88,335.24 176.06,335.44 179.02,336.02 181.56,336.95 183.51,338.15 184.74,339.56 185.16,341.07 184.74,342.58 183.51,343.98 181.56,345.19 179.02,346.12 176.06,346.70 172.88,346.90"/>
    <polyline points="180.69,322.04 180.40,322.74 179.70,323.03 179.00,322.74 178.71,322.04 179.00,321.34 179.70,321.05 180.40,321.34 180.69,322.04"/>
    <polyline points="176.93,357.06 182.60,357.06 179.04,366.04"/>
    <polyline points="219.08,346.90 219.08,331.72 219.31,329.95 219.99,328.31 221.08,326.90 222.49,325.81 224.13,325.13 225.90,324.90 227.67,325.13 229.31,325.81 230.72,326.90 231.81,328.31 232.49,329.95 232.72,331.72 232.72,346.90"/>
    <polyline points="225.90,361.29 224.18,360.63 223.66,359.04 224.71,357.33 225.90,357.06 227.22,357.33 228.14,359.04 227.62,360.63 225.90,361.29 224.18,362.08 223.52,363.93 224.71,365.78 225.90,365.91 227.22,365.78 228.41,363.93 227.62,362.08 225.90,361.29"/>
    <polyline points="278.92,324.90 278.92,345.49 278.88,345.81 278.78,346.10 278.61,346.37 278.39,346.59 278.12,346.76 277.83,346.86 277.51,346.90"/>
    <polyline points="278.92,324.90 275.74,325.08 272.78,325.59 270.24,326.41 268.29,327.48 267.06,328.73 266.64,330.07 267.06,331.41 268.29,332.65 270.24,333.73 272.78,334.55 275.74,335.06 278.92,335.24"/>
    <polyline points="278.92,335.24 277.43,335.88 275.97,336.64 274.54,337.51 273.14,338.50 271.76,339.61 270.41,340.84 269.09,342.18 267.79,343.64 266.52,345.21 265.28,346.90"/>
    <polyline points="269.86,364.72 271.57,365.78 273.42,365.25 274.61,363.40 274.87,359.97 274.87,358.65 273.68,357.20 271.57,357.06 270.12,357.99 269.72,359.44 270.38,361.02 272.23,361.55 274.08,361.02 274.74,359.44"/>
  </g>
</svg>