<svg xmlns="http://www.w3.org/2000/svg" width="1400" height="1982" viewBox="0 0 1400 1982">
  <rect width="1400" height="1982" fill="#ffffff"/>
  <g fill="none" stroke="#141414" stroke-width="2.6" stroke-linecap="round" stroke-linejoin="round">
    <polyline points="129.6,149.4 129.6,242.1 129.8,243.5 130.3,244.8 131.0,246.0 132.0,247.0 133.2,247.8 134.6,248.3 136.0,248.4"/>
    <polyline points="129.6,149.4 191.0,149.4 193.0,155.1"/>
    <polyline points="129.6,196.0 143.9,196.8 157.2,199.5 168.7,203.6 177.5,209.1 183.0,215.4 184.9,222.2 183.0,229.0 177.5,235.3 168.7,240.7 157.2,244.9 143.9,247.5 129.6,248.4"/>
    <polyline points="164.8,263.3 163.5,266.4 160.3,267.7 157.2,266.4 155.9,263.3 157.2,260.1 160.3,258.8 163.5,260.1 164.8,263.3"/>
    <polyline points="274.2,248.4 264.6,247.7 255.3,245.4 246.5,241.8 238.6,236.8 231.8,230.7 226.3,223.7 222.2,215.9 219.8,207.5 218.9,198.9 219.8,190.3 222.2,182.0 226.3,174.2 231.8,167.1 238.6,161.0 246.5,156.1 255.3,152.4 264.6,150.2 274.2,149.4"/>
    <polyline points="247.9,263.3 246.6,266.4 243.5,267.7 240.3,266.4 239.0,263.3 240.3,260.1 243.5,258.8 246.6,260.1 247.9,263.3"/>
    <polyline points="326.6,149.4 326.6,242.1 326.8,243.5 327.2,244.8 328.0,246.0 329.0,247.0 330.2,247.8 331.5,248.3 333.0,248.4"/>
    <polyline points="326.6,149.4 333.8,150.2 340.4,152.5 346.1,156.2 350.5,161.1 353.3,166.7 354.2,172.7 353.3,178.7 350.5,184.3 346.1,189.1 340.4,192.8 333.8,195.2 326.6,196.0"/>
    <polyline points="326.6,196.0 333.8,196.8 340.4,199.5 346.1,203.6 350.5,209.1 353.3,215.4 354.2,222.2 353.3,229.0 350.5,235.3 346.1,240.7 340.4,244.9 333.8,247.5 326.6,248.4"/>
    <polyline points="316.8,139.5 336.4,133.6"/>
    <polyline points="440.5,248.4 430.9,247.7 421.6,245.4 412.8,241.8 405.0,236.8 398.1,230.7 392.6,223.7 388.6,215.9 386.1,207.5 385.2,198.9 386.1,190.3 388.6,182.0 392.6,174.2 398.1,167.1 405.0,161.0 412.8,156.1 421.6,152.4 430.9,150.2 440.5,149.4"/>
    <polyline points="384.0,198.9 435.5,198.9"/>
    <polyline points="462.2,149.4 471.8,150.2 481.1,152.4 489.9,156.1 497.7,161.0 504.5,167.1 510.1,174.2 514.1,182.0 516.6,190.3 517.5,198.9 516.6,207.5 514.1,215.9 510.1,223.7 504.5,230.7 497.7,236.8 489.9,241.8 481.1,245.4 471.8,247.7 462.2,248.4"/>
    <polyline points="500.3,198.9 498.9,203.3 495.2,206.0 490.6,206.0 486.9,203.3 485.5,198.9 486.9,194.6 490.6,191.9 495.2,191.9 498.9,194.6 500.3,198.9"/>
    <polyline points="497.4,136.6 496.1,139.7 492.9,141.0 489.8,139.7 488.5,136.6 489.8,133.4 492.9,132.1 496.1,133.4 497.4,136.6"/>
    <polyline points="606.8,198.9 605.9,210.5 603.2,221.5 599.0,231.1 593.5,238.8 587.0,244.3 579.8,247.1 572.4,247.1 565.2,244.3 558.6,238.8 553.1,231.1 548.9,221.5 546.3,210.5 545.4,198.9 546.3,187.3 548.9,176.4 553.1,166.8 558.6,159.0 565.2,153.6 572.4,150.8 579.8,150.8 587.0,153.6 593.5,159.0 599.0,166.8 603.2,176.4 605.9,187.3 606.8,198.9"/>
    <polyline points="583.5,198.9 582.1,203.3 578.4,206.0 573.8,206.0 570.1,203.3 568.6,198.9 570.1,194.6 573.8,191.9 578.4,191.9 582.1,194.6 583.5,198.9"/>
    <polyline points="580.5,136.6 579.2,139.7 576.1,141.0 572.9,139.7 571.6,136.6 572.9,133.4 576.1,132.1 579.2,133.4 580.5,136.6"/>
    <polyline points="659.2,149.4 659.2,242.1 659.1,243.5 658.6,244.8 657.8,246.0 656.8,247.0 655.6,247.8 654.3,248.3 652.9,248.4"/>
    <polyline points="633.4,196.0 685.0,196.0"/>
    <polyline points="834.4,248.4 824.8,247.7 815.5,245.4 806.8,241.8 798.9,236.8 792.1,230.7 786.6,223.7 782.5,215.9 780.0,207.5 779.2,198.9 780.0,190.3 782.5,182.0 786.6,174.2 792.1,167.1 798.9,161.0 806.8,156.1 815.5,152.4 824.8,150.2 834.4,149.4"/>
    <polyline points="808.2,263.3 806.9,266.4 803.8,267.7 800.6,266.4 799.3,263.3 800.6,260.1 803.8,258.8 806.9,260.1 808.2,263.3"/>
    <polyline points="856.2,149.4 856.2,242.1 856.4,243.5 856.8,244.8 857.6,246.0 858.6,247.0 859.8,247.8 861.1,248.3 862.6,248.4"/>
    <polyline points="856.2,149.4 917.6,149.4 919.6,155.1"/>
    <polyline points="939.4,149.4 939.4,242.1 939.5,243.5 940.0,244.8 940.7,246.0 941.8,247.0 943.0,247.8 944.3,248.3 945.7,248.4"/>
    <polyline points="939.4,149.4 953.7,150.2 967.0,152.5 978.4,156.2 987.2,161.1 992.7,166.7 994.6,172.7 992.7,178.7 987.2,184.3 978.4,189.1 967.0,192.8 953.7,195.2 939.4,196.0"/>
    <polyline points="974.5,136.6 973.2,139.7 970.1,141.0 966.9,139.7 965.6,136.6 966.9,133.4 970.1,132.1 973.2,133.4 974.5,136.6"/>
    <polyline points="1083.9,248.4 1074.3,247.7 1065.0,245.4 1056.3,241.8 1048.4,236.8 1041.6,230.7 1036.1,223.7 1032.0,215.9 1029.5,207.5 1028.7,198.9 1029.5,190.3 1032.0,182.0 1036.1,174.2 1041.6,167.1 1048.4,161.0 1056.3,156.1 1065.0,152.4 1074.3,150.2 1083.9,149.4"/>
    <polyline points="1057.7,263.3 1056.4,266.4 1053.2,267.7 1050.1,266.4 1048.8,263.3 1050.1,260.1 1053.2,258.8 1056.4,260.1 1057.7,263.3"/>
    <polyline points="1167.0,198.9 1166.2,210.5 1163.5,221.5 1159.3,231.1 1153.8,238.8 1147.2,244.3 1140.1,247.1 1132.7,247.1 1125.5,244.3 1118.9,238.8 1113.4,231.1 1109.2,221.5 1106.6,210.5 1105.7,198.9 1106.6,187.3 1109.2,176.4 1113.4,166.8 1118.9,159.0 1125.5,153.6 1132.7,150.8 1140.1,150.8 1147.2,153.6 1153.8,159.0 1159.3,166.8 1163.5,176.4 1166.2,187.3 1167.0,198.9"/>
    <polyline points="1143.8,198.9 1142.4,203.3 1138.7,206.0 1134.1,206.0 1130.4,203.3 1128.9,198.9 1130.4,194.6 1134.1,191.9 1138.7,191.9 1142.4,194.6 1143.8,198.9"/>
    <polyline points="1140.8,136.6 1139.5,139.7 1136.4,141.0 1133.2,139.7 1131.9,136.6 1133.2,133.4 1136.4,132.1 1139.5,133.4 1140.8,136.6"/>
    <polyline points="1250.2,248.4 1240.6,247.7 1231.3,245.4 1222.6,241.8 1214.7,236.8 1207.9,230.7 1202.4,223.7 1198.3,215.9 1195.8,207.5 1195.0,198.9 1195.8,190.3 1198.3,182.0 1202.4,174.2 1207.9,167.1 1214.7,161.0 1222.6,156.1 1231.3,152.4 1240.6,150.2 1250.2,149.4"/>
    <polyline points="1193.7,198.9 1245.3,198.9"/>
    <polyline points="191.0,327.6 191.0,420.3 190.8,421.7 190.4,423.0 189.6,424.2 188.6,425.2 187.4,426.0 186.1,426.4 184.7,426.6"/>
    <polyline points="191.0,374.1 176.7,375.0 163.4,377.6 151.9,381.8 143.2,387.3 137.6,393.6 135.8,400.4 137.6,407.2 143.2,413.5 151.9,418.9 163.4,423.1 176.7,425.7 191.0,426.6"/>
    <polyline points="164.8,314.7 163.5,317.9 160.3,319.2 157.2,317.9 155.9,314.7 157.2,311.6 160.3,310.3 163.5,311.6 164.8,314.7"/>
    <polyline points="274.2,426.6 274.2,358.3 275.2,350.4 278.3,343.0 283.1,336.6 289.5,331.7 296.9,328.7 304.8,327.6 312.8,328.7 320.2,331.7 326.5,336.6 331.4,343.0 334.5,350.4 335.5,358.3 335.5,426.6"/>
    <polyline points="279.1,377.1 330.6,377.1"/>
    <polyline points="418.7,426.6 409.1,425.8 399.8,423.6 391.1,420.0 383.2,415.0 376.4,408.9 370.8,401.9 366.8,394.0 364.3,385.7 363.4,377.1 364.3,368.5 366.8,360.2 370.8,352.4 376.4,345.3 383.2,339.2 391.1,334.2 399.8,330.6 409.1,328.4 418.7,327.6"/>
    <polyline points="392.4,441.4 391.1,444.6 388.0,445.9 384.8,444.6 383.5,441.4 384.8,438.3 388.0,437.0 391.1,438.3 392.4,441.4"/>
    <polyline points="440.5,327.6 447.3,335.4 453.8,343.3 459.9,351.2 465.8,359.3 471.4,367.4 476.7,375.6 481.6,383.9 486.3,392.3 490.6,400.7 494.7,409.3 498.4,417.9 501.8,426.6"/>
    <polyline points="478.6,377.1 477.2,381.5 473.4,384.2 468.9,384.2 465.1,381.5 463.7,377.1 465.1,372.7 468.9,370.0 473.4,370.0 477.2,372.7 478.6,377.1"/>
    <polyline points="475.6,314.7 474.3,317.9 471.1,319.2 468.0,317.9 466.7,314.7 468.0,311.6 471.1,310.3 474.3,311.6 475.6,314.7"/>
    <polyline points="585.0,327.6 585.0,420.3 584.8,421.7 584.4,423.0 583.6,424.2 582.6,425.2 581.4,426.0 580.1,426.4 578.6,426.6"/>
    <polyline points="585.0,327.6 523.6,327.6 521.6,333.3"/>
    <polyline points="585.0,374.1 570.7,375.0 557.4,377.6 545.9,381.8 537.1,387.3 531.6,393.6 529.7,400.4 531.6,407.2 537.1,413.5 545.9,418.9 557.4,423.1 570.7,425.7 585.0,426.6"/>
    <polyline points="668.1,377.1 667.2,388.7 664.6,399.6 660.4,409.3 654.9,417.0 648.3,422.5 641.1,425.3 633.7,425.3 626.6,422.5 620.0,417.0 614.5,409.3 610.3,399.6 607.7,388.7 606.8,377.1 607.7,365.5 610.3,354.6 614.5,344.9 620.0,337.2 626.6,331.8 633.7,329.0 641.1,329.0 648.3,331.8 654.9,337.2 660.4,344.9 664.6,354.6 667.2,365.5 668.1,377.1"/>
    <polyline points="644.9,377.1 643.5,381.5 639.7,384.2 635.2,384.2 631.4,381.5 630.0,377.1 631.4,372.7 635.2,370.0 639.7,370.0 643.5,372.7 644.9,377.1"/>
    <polyline points="641.9,314.7 640.6,317.9 637.4,319.2 634.3,317.9 633.0,314.7 634.3,311.6 637.4,310.3 640.6,311.6 641.9,314.7"/>
    <polyline points="751.3,426.6 741.7,425.8 732.4,423.6 723.7,420.0 715.8,415.0 709.0,408.9 703.5,401.9 699.4,394.0 696.9,385.7 696.0,377.1 696.9,368.5 699.4,360.2 703.5,352.4 709.0,345.3 715.8,339.2 723.7,334.2 732.4,330.6 741.7,328.4 751.3,327.6"/>
    <polyline points="694.8,377.1 746.4,377.1"/>
    <polyline points="834.4,327.6 834.4,420.3 834.6,421.7 835.1,423.0 835.8,424.2 836.8,425.2 838.0,426.0 839.4,426.4 840.8,426.6"/>
    <polyline points="834.4,327.6 848.7,328.4 862.1,330.7 873.5,334.4 882.3,339.2 887.8,344.9 889.7,350.9 887.8,356.9 882.3,362.5 873.5,367.3 862.1,371.0 848.7,373.3 834.4,374.1"/>
    <polyline points="869.6,314.7 868.3,317.9 865.1,319.2 862.0,317.9 860.7,314.7 862.0,311.6 865.1,310.3 868.3,311.6 869.6,314.7"/>
    <polyline points="979.0,327.6 979.0,420.3 978.8,421.7 978.3,423.0 977.6,424.2 976.6,425.2 975.4,426.0 974.0,426.4 972.6,426.6"/>
    <polyline points="979.0,327.6 964.7,328.4 951.3,330.7 939.9,334.4 931.1,339.2 925.6,344.9 923.7,350.9 925.6,356.9 931.1,362.5 939.9,367.3 951.3,371.0 964.7,373.3 979.0,374.1"/>
    <polyline points="979.0,374.1 964.7,375.0 951.3,377.6 939.9,381.8 931.1,387.3 925.6,393.6 923.7,400.4 925.6,407.2 931.1,413.5 939.9,418.9 951.3,423.1 964.7,425.7 979.0,426.6"/>
    <polyline points="1062.1,426.6 1052.5,425.8 1043.2,423.6 1034.5,420.0 1026.6,415.0 1019.8,408.9 1014.3,401.9 1010.2,394.0 1007.7,385.7 1006.9,377.1 1007.7,368.5 1010.2,360.2 1014.3,352.4 1019.8,345.3 1026.6,339.2 1034.5,334.2 1043.2,330.6 1052.5,328.4 1062.1,327.6"/>
    <polyline points="1035.9,441.4 1034.6,444.6 1031.4,445.9 1028.3,444.6 1027.0,441.4 1028.3,438.3 1031.4,437.0 1034.6,438.3 1035.9,441.4"/>
    <polyline points="1206.6,327.6 1206.6,420.3 1206.5,421.7 1206.0,423.0 1205.3,424.2 1204.3,425.2 1203.1,426.0 1201.7,426.4 1200.3,426.6"/>
    <polyline points="1206.6,327.6 1145.3,327.6 1143.3,333.3"/>
    <polyline points="160.3,505.8 160.3,598.4 160.5,599.9 160.9,601.2 161.7,602.4 162.7,603.4 163.9,604.2 165.2,604.6 166.7,604.8"/>
    <polyline points="160.3,505.8 167.5,506.6 174.1,508.9 179.8,512.6 184.2,517.4 187.0,523.0 187.9,529.1 187.0,535.1 184.2,540.7 179.8,545.5 174.1,549.2 167.5,551.5 160.3,552.3"/>
    <polyline points="160.3,552.3 167.5,553.2 174.1,555.8 179.8,560.0 184.2,565.4 187.0,571.8 187.9,578.5 187.0,585.3 184.2,591.7 179.8,597.1 174.1,601.3 167.5,603.9 160.3,604.8"/>
    <polyline points="150.5,495.9 170.1,490.0"/>
    <polyline points="243.5,505.8 243.5,598.4 243.3,599.9 242.8,601.2 242.1,602.4 241.1,603.4 239.9,604.2 238.5,604.6 237.1,604.8"/>
    <polyline points="217.7,552.3 269.2,552.3"/>
    <polyline points="357.3,604.8 347.7,604.0 338.4,601.8 329.7,598.2 321.8,593.2 315.0,587.1 309.5,580.0 305.4,572.2 302.9,563.9 302.1,555.3 302.9,546.7 305.4,538.4 309.5,530.5 315.0,523.5 321.8,517.4 329.7,512.4 338.4,508.8 347.7,506.5 357.3,505.8"/>
    <polyline points="331.1,619.6 329.8,622.8 326.6,624.1 323.5,622.8 322.2,619.6 323.5,616.5 326.6,615.2 329.8,616.5 331.1,619.6"/>
    <polyline points="379.1,505.8 379.1,604.8"/>
    <polyline points="485.0,505.8 491.8,513.6 498.3,521.5 504.5,529.4 510.4,537.5 515.9,545.6 521.2,553.8 526.2,562.1 530.8,570.5 535.2,578.9 539.2,587.5 543.0,596.1 546.4,604.8"/>
    <polyline points="485.0,505.8 546.4,505.8 548.4,511.5"/>
    <polyline points="485.0,604.8 534.1,604.8"/>
    <polyline points="520.1,492.9 518.8,496.1 515.7,497.4 512.5,496.1 511.2,492.9 512.5,489.8 515.7,488.5 518.8,489.8 520.1,492.9"/>
    <polyline points="629.5,604.8 619.9,604.0 610.6,601.8 601.9,598.2 594.0,593.2 587.2,587.1 581.7,580.0 577.6,572.2 575.1,563.9 574.3,555.3 575.1,546.7 577.6,538.4 581.7,530.5 587.2,523.5 594.0,517.4 601.9,512.4 610.6,508.8 619.9,506.5 629.5,505.8"/>
    <polyline points="603.3,619.6 602.0,622.8 598.8,624.1 595.7,622.8 594.4,619.6 595.7,616.5 598.8,615.2 602.0,616.5 603.3,619.6"/>
    <polyline points="682.0,505.8 682.0,598.4 682.2,599.9 682.6,601.2 683.4,602.4 684.4,603.4 685.6,604.2 686.9,604.6 688.3,604.8"/>
    <polyline points="682.0,505.8 689.1,506.6 695.8,508.9 701.5,512.6 705.9,517.4 708.7,523.0 709.6,529.1 708.7,535.1 705.9,540.7 701.5,545.5 695.8,549.2 689.1,551.5 682.0,552.3"/>
    <polyline points="682.0,552.3 689.1,553.2 695.8,555.8 701.5,560.0 705.9,565.4 708.7,571.8 709.6,578.5 708.7,585.3 705.9,591.7 701.5,597.1 695.8,601.3 689.1,603.9 682.0,604.8"/>
    <polyline points="672.2,495.9 691.8,490.0"/>
    <polyline points="734.5,505.8 734.5,598.4 734.6,599.9 735.1,601.2 735.8,602.4 736.8,603.4 738.0,604.2 739.4,604.6 740.8,604.8"/>
    <polyline points="734.5,505.8 795.8,505.8 797.8,511.5"/>
    <polyline points="734.5,552.3 748.8,553.2 762.1,555.8 773.5,560.0 782.3,565.4 787.8,571.8 789.7,578.5 787.8,585.3 782.3,591.7 773.5,597.1 762.1,601.3 748.8,603.9 734.5,604.8"/>
    <polyline points="769.6,619.6 768.3,622.8 765.1,624.1 762.0,622.8 760.7,619.6 762.0,616.5 765.1,615.2 768.3,616.5 769.6,619.6"/>
    <polyline points="879.0,555.3 878.1,566.9 875.5,577.8 871.3,587.5 865.7,595.2 859.2,600.6 852.0,603.4 844.6,603.4 837.4,600.6 830.9,595.2 825.3,587.5 821.1,577.8 818.5,566.9 817.6,555.3 818.5,543.7 821.1,532.7 825.3,523.1 830.9,515.4 837.4,509.9 844.6,507.1 852.0,507.1 859.2,509.9 865.7,515.4 871.3,523.1 875.5,532.7 878.1,543.7 879.0,555.3"/>
    <polyline points="855.7,555.3 854.3,559.7 850.6,562.3 846.0,562.3 842.3,559.7 840.9,555.3 842.3,550.9 846.0,548.2 850.6,548.2 854.3,550.9 855.7,555.3"/>
    <polyline points="852.8,492.9 851.4,496.1 848.3,497.4 845.1,496.1 843.8,492.9 845.1,489.8 848.3,488.5 851.4,489.8 852.8,492.9"/>
    <polyline points="900.8,505.8 910.4,506.5 919.7,508.8 928.4,512.4 936.3,517.4 943.1,523.5 948.6,530.5 952.7,538.4 955.2,546.7 956.0,555.3 955.2,563.9 952.7,572.2 948.6,580.0 943.1,587.1 936.3,593.2 928.4,598.2 919.7,601.8 910.4,604.0 900.8,604.8"/>
    <polyline points="938.9,555.3 937.5,559.7 933.7,562.3 929.2,562.3 925.4,559.7 924.0,555.3 925.4,550.9 929.2,548.2 933.7,548.2 937.5,550.9 938.9,555.3"/>
    <polyline points="935.9,492.9 934.6,496.1 931.4,497.4 928.3,496.1 927.0,492.9 928.3,489.8 931.4,488.5 934.6,489.8 935.9,492.9"/>
    <polyline points="1045.3,555.3 1044.4,566.9 1041.8,577.8 1037.6,587.5 1032.0,595.2 1025.5,600.6 1018.3,603.4 1010.9,603.4 1003.7,600.6 997.2,595.2 991.6,587.5 987.4,577.8 984.8,566.9 983.9,555.3 984.8,543.7 987.4,532.7 991.6,523.1 997.2,515.4 1003.7,509.9 1010.9,507.1 1018.3,507.1 1025.5,509.9 1032.0,515.4 1037.6,523.1 1041.8,532.7 1044.4,543.7 1045.3,555.3"/>
    <polyline points="1022.0,555.3 1020.6,559.7 1016.9,562.3 1012.3,562.3 1008.6,559.7 1007.2,555.3 1008.6,550.9 1012.3,548.2 1016.9,548.2 1020.6,550.9 1022.0,555.3"/>
    <polyline points="1019.1,492.9 1017.7,496.1 1014.6,497.4 1011.4,496.1 1010.1,492.9 1011.4,489.8 1014.6,488.5 1017.7,489.8 1019.1,492.9"/>
    <polyline points="1097.8,505.8 1097.8,598.4 1097.6,599.9 1097.1,601.2 1096.4,602.4 1095.4,603.4 1094.2,604.2 1092.8,604.6 1091.4,604.8"/>
    <polyline points="1072.0,552.3 1123.5,552.3"/>
    <polyline points="160.3,684.0 160.3,776.6 160.2,778.0 159.7,779.4 158.9,780.6 157.9,781.6 156.7,782.3 155.4,782.8 154.0,783.0"/>
    <polyline points="160.3,684.0 153.2,684.8 146.5,687.1 140.8,690.8 136.4,695.6 133.6,701.2 132.7,707.2 133.6,713.3 136.4,718.9 140.8,723.7 146.5,727.4 153.2,729.7 160.3,730.5"/>
    <polyline points="148.8,764.6 147.5,768.7 144.0,771.2 139.8,771.2 136.3,768.7 135.0,764.6 136.3,760.6 139.8,758.1 144.0,758.1 147.5,760.6 148.8,764.6"/>
    <polyline points="274.2,733.5 273.3,745.1 270.6,756.0 266.4,765.6 260.9,773.4 254.3,778.8 247.2,781.6 239.8,781.6 232.6,778.8 226.0,773.4 220.5,765.6 216.3,756.0 213.7,745.1 212.8,733.5 213.7,721.9 216.3,710.9 220.5,701.3 226.0,693.5 232.6,688.1 239.8,685.3 247.2,685.3 254.3,688.1 260.9,693.5 266.4,701.3 270.6,710.9 273.3,721.9 274.2,733.5"/>
    <polyline points="250.9,733.5 249.5,737.8 245.8,740.5 241.2,740.5 237.5,737.8 236.0,733.5 237.5,729.1 241.2,726.4 245.8,726.4 249.5,729.1 250.9,733.5"/>
    <polyline points="247.9,671.1 246.6,674.3 243.5,675.6 240.3,674.3 239.0,671.1 240.3,668.0 243.5,666.6 246.6,668.0 247.9,671.1"/>
    <polyline points="357.3,684.0 357.3,776.6 357.1,778.0 356.7,779.4 355.9,780.6 354.9,781.6 353.7,782.3 352.4,782.8 351.0,783.0"/>
    <polyline points="357.3,684.0 346.5,684.9 336.2,687.7 326.6,692.3 318.2,698.5 311.4,706.0 306.3,714.5 303.1,723.8 302.1,733.5 303.1,743.1 306.3,752.4 311.4,761.0 318.2,768.5 326.6,774.6 336.2,779.2 346.5,782.0 357.3,783.0"/>
    <polyline points="440.5,684.0 440.5,776.6 440.3,778.0 439.8,779.4 439.1,780.6 438.1,781.6 436.9,782.3 435.5,782.8 434.1,783.0"/>
    <polyline points="440.5,684.0 379.1,684.0 377.1,689.7"/>
    <polyline points="440.5,730.5 426.2,731.4 412.8,734.0 401.4,738.2 392.6,743.6 387.1,749.9 385.2,756.7 387.1,763.5 392.6,769.8 401.4,775.3 412.8,779.4 426.2,782.1 440.5,783.0"/>
    <polyline points="462.2,684.0 469.0,691.8 475.5,699.6 481.7,707.6 487.6,715.6 493.2,723.8 498.4,732.0 503.4,740.3 508.1,748.6 512.4,757.1 516.4,765.6 520.2,774.3 523.6,783.0"/>
    <polyline points="462.2,684.0 523.6,684.0 525.6,689.7"/>
    <polyline points="462.2,783.0 511.3,783.0"/>
    <polyline points="497.4,671.1 496.1,674.3 492.9,675.6 489.8,674.3 488.5,671.1 489.8,668.0 492.9,666.6 496.1,668.0 497.4,671.1"/>
    <polyline points="606.8,783.0 597.2,782.2 587.9,780.0 579.1,776.3 571.3,771.4 564.4,765.3 558.9,758.2 554.9,750.4 552.4,742.1 551.5,733.5 552.4,724.9 554.9,716.5 558.9,708.7 564.4,701.7 571.3,695.6 579.1,690.6 587.9,687.0 597.2,684.7 606.8,684.0"/>
    <polyline points="550.3,733.5 601.9,733.5"/>
    <polyline points="689.9,684.0 689.9,776.6 689.8,778.0 689.3,779.4 688.5,780.6 687.5,781.6 686.3,782.3 685.0,782.8 683.6,783.0"/>
    <polyline points="689.9,730.5 675.6,731.4 662.3,734.0 650.9,738.2 642.1,743.6 636.6,749.9 634.7,756.7 636.6,763.5 642.1,769.8 650.9,775.3 662.3,779.4 675.6,782.1 689.9,783.0"/>
    <polyline points="663.7,671.1 662.4,674.3 659.2,675.6 656.1,674.3 654.8,671.1 656.1,668.0 659.2,666.6 662.4,668.0 663.7,671.1"/>
    <polyline points="773.1,684.0 773.1,776.6 773.2,778.0 773.7,779.4 774.4,780.6 775.4,781.6 776.7,782.3 778.0,782.8 779.4,783.0"/>
    <polyline points="773.1,684.0 787.4,684.8 800.7,687.1 812.1,690.8 820.9,695.6 826.4,701.2 828.3,707.2 826.4,713.3 820.9,718.9 812.1,723.7 800.7,727.4 787.4,729.7 773.1,730.5"/>
    <polyline points="808.2,671.1 806.9,674.3 803.8,675.6 800.6,674.3 799.3,671.1 800.6,668.0 803.8,666.6 806.9,668.0 808.2,671.1"/>
    <polyline points="917.6,684.0 917.6,776.6 917.4,778.0 917.0,779.4 916.2,780.6 915.2,781.6 914.0,782.3 912.7,782.8 911.3,783.0"/>
    <polyline points="917.6,684.0 903.3,684.8 890.0,687.1 878.5,690.8 869.8,695.6 864.2,701.2 862.4,707.2 864.2,713.3 869.8,718.9 878.5,723.7 890.0,727.4 903.3,729.7 917.6,730.5"/>
    <polyline points="917.6,730.5 903.3,731.4 890.0,734.0 878.5,738.2 869.8,743.6 864.2,749.9 862.4,756.7 864.2,763.5 869.8,769.8 878.5,775.3 890.0,779.4 903.3,782.1 917.6,783.0"/>
    <polyline points="939.4,684.0 939.4,776.6 939.5,778.0 940.0,779.4 940.7,780.6 941.8,781.6 943.0,782.3 944.3,782.8 945.7,783.0"/>
    <polyline points="939.4,684.0 1000.7,684.0 1002.7,689.7"/>
    <polyline points="939.4,730.5 953.7,731.4 967.0,734.0 978.4,738.2 987.2,743.6 992.7,749.9 994.6,756.7 992.7,763.5 987.2,769.8 978.4,775.3 967.0,779.4 953.7,782.1 939.4,783.0"/>
    <polyline points="974.5,797.8 973.2,801.0 970.1,802.3 966.9,801.0 965.6,797.8 966.9,794.7 970.1,793.4 973.2,794.7 974.5,797.8"/>
    <polyline points="1083.9,684.0 1083.9,776.6 1083.7,778.0 1083.3,779.4 1082.5,780.6 1081.5,781.6 1080.3,782.3 1079.0,782.8 1077.6,783.0"/>
    <polyline points="1083.9,684.0 1022.5,684.0 1020.5,689.7"/>
    <polyline points="1083.9,730.5 1069.6,731.4 1056.3,734.0 1044.8,738.2 1036.1,743.6 1030.5,749.9 1028.7,756.7 1030.5,763.5 1036.1,769.8 1044.8,775.3 1056.3,779.4 1069.6,782.1 1083.9,783.0"/>
    <polyline points="1136.4,684.0 1136.4,776.6 1136.2,778.0 1135.7,779.4 1135.0,780.6 1134.0,781.6 1132.8,782.3 1131.4,782.8 1130.0,783.0"/>
    <polyline points="1136.4,684.0 1129.2,684.8 1122.5,687.1 1116.8,690.8 1112.4,695.6 1109.7,701.2 1108.7,707.2 1109.7,713.3 1112.4,718.9 1116.8,723.7 1122.5,727.4 1129.2,729.7 1136.4,730.5"/>
    <polyline points="1124.9,764.6 1123.6,768.7 1120.1,771.2 1115.8,771.2 1112.3,768.7 1111.0,764.6 1112.3,760.6 1115.8,758.1 1120.1,758.1 1123.6,760.6 1124.9,764.6"/>
    <polyline points="1219.5,684.0 1219.5,776.6 1219.3,778.0 1218.9,779.4 1218.1,780.6 1217.1,781.6 1215.9,782.3 1214.6,782.8 1213.2,783.0"/>
    <polyline points="1193.7,730.5 1245.3,730.5"/>
    <polyline points="191.0,862.2 191.0,954.8 190.8,956.2 190.4,957.6 189.6,958.8 188.6,959.8 187.4,960.5 186.1,961.0 184.7,961.1"/>
    <polyline points="191.0,862.2 176.7,862.9 163.4,865.3 151.9,869.0 143.2,873.8 137.6,879.4 135.8,885.4 137.6,891.4 143.2,897.0 151.9,901.9 163.4,905.6 176.7,907.9 191.0,908.7"/>
    <polyline points="191.0,908.7 176.7,909.6 163.4,912.2 151.9,916.4 143.2,921.8 137.6,928.1 135.8,934.9 137.6,941.7 143.2,948.0 151.9,953.5 163.4,957.6 176.7,960.3 191.0,961.1"/>
    <polyline points="335.5,862.2 335.5,954.8 335.4,956.2 334.9,957.6 334.1,958.8 333.1,959.8 331.9,960.5 330.6,961.0 329.2,961.1"/>
    <polyline points="335.5,862.2 321.2,862.9 307.9,865.3 296.5,869.0 287.7,873.8 282.2,879.4 280.3,885.4 282.2,891.4 287.7,897.0 296.5,901.9 307.9,905.6 321.2,907.9 335.5,908.7"/>
    <polyline points="305.6,942.8 304.3,946.9 300.8,949.4 296.6,949.4 293.1,946.9 291.8,942.8 293.1,938.8 296.6,936.2 300.8,936.2 304.3,938.8 305.6,942.8"/>
    <polyline points="388.0,862.2 388.0,954.8 388.2,956.2 388.6,957.6 389.4,958.8 390.4,959.8 391.6,960.5 392.9,961.0 394.3,961.1"/>
    <polyline points="388.0,862.2 395.1,862.9 401.8,865.3 407.5,869.0 411.9,873.8 414.7,879.4 415.6,885.4 414.7,891.4 411.9,897.0 407.5,901.9 401.8,905.6 395.1,907.9 388.0,908.7"/>
    <polyline points="388.0,908.7 395.1,909.6 401.8,912.2 407.5,916.4 411.9,921.8 414.7,928.1 415.6,934.9 414.7,941.7 411.9,948.0 407.5,953.5 401.8,957.6 395.1,960.3 388.0,961.1"/>
    <polyline points="378.2,852.3 397.8,846.3"/>
    <polyline points="440.5,862.2 440.5,954.8 440.6,956.2 441.1,957.6 441.8,958.8 442.8,959.8 444.0,960.5 445.4,961.0 446.8,961.1"/>
    <polyline points="440.5,862.2 454.8,862.9 468.1,865.3 479.5,869.0 488.3,873.8 493.8,879.4 495.7,885.4 493.8,891.4 488.3,897.0 479.5,901.9 468.1,905.6 454.8,907.9 440.5,908.7"/>
    <polyline points="475.6,849.3 474.3,852.4 471.1,853.7 468.0,852.4 466.7,849.3 468.0,846.1 471.1,844.8 474.3,846.1 475.6,849.3"/>
    <polyline points="585.0,961.1 575.4,960.4 566.1,958.2 557.4,954.5 549.5,949.6 542.7,943.5 537.1,936.4 533.1,928.6 530.6,920.2 529.7,911.6 530.6,903.1 533.1,894.7 537.1,886.9 542.7,879.8 549.5,873.7 557.4,868.8 566.1,865.1 575.4,862.9 585.0,862.2"/>
    <polyline points="558.8,976.0 557.4,979.1 554.3,980.4 551.1,979.1 549.8,976.0 551.1,972.8 554.3,971.5 557.4,972.8 558.8,976.0"/>
    <polyline points="606.8,862.2 606.8,954.8 606.9,956.2 607.4,957.6 608.1,958.8 609.1,959.8 610.3,960.5 611.7,961.0 613.1,961.1"/>
    <polyline points="606.8,862.2 668.1,862.2 670.1,867.9"/>
    <polyline points="606.8,908.7 621.1,909.6 634.4,912.2 645.8,916.4 654.6,921.8 660.1,928.1 662.0,934.9 660.1,941.7 654.6,948.0 645.8,953.5 634.4,957.6 621.1,960.3 606.8,961.1"/>
    <polyline points="641.9,976.0 640.6,979.1 637.4,980.4 634.3,979.1 633.0,976.0 634.3,972.8 637.4,971.5 640.6,972.8 641.9,976.0"/>
    <polyline points="689.9,862.2 699.5,862.9 708.8,865.1 717.5,868.8 725.4,873.7 732.2,879.8 737.7,886.9 741.8,894.7 744.3,903.1 745.1,911.6 744.3,920.2 741.8,928.6 737.7,936.4 732.2,943.5 725.4,949.6 717.5,954.5 708.8,958.2 699.5,960.4 689.9,961.1"/>
    <polyline points="728.0,911.6 726.6,916.0 722.9,918.7 718.3,918.7 714.6,916.0 713.2,911.6 714.6,907.3 718.3,904.6 722.9,904.6 726.6,907.3 728.0,911.6"/>
    <polyline points="725.1,849.3 723.7,852.4 720.6,853.7 717.4,852.4 716.1,849.3 717.4,846.1 720.6,844.8 723.7,846.1 725.1,849.3"/>
    <polyline points="803.8,862.2 803.8,954.8 803.9,956.2 804.4,957.6 805.1,958.8 806.1,959.8 807.3,960.5 808.7,961.0 810.1,961.1"/>
    <polyline points="803.8,862.2 810.9,862.9 817.6,865.3 823.3,869.0 827.7,873.8 830.4,879.4 831.4,885.4 830.4,891.4 827.7,897.0 823.3,901.9 817.6,905.6 810.9,907.9 803.8,908.7"/>
    <polyline points="803.8,908.7 810.9,909.6 817.6,912.2 823.3,916.4 827.7,921.8 830.4,928.1 831.4,934.9 830.4,941.7 827.7,948.0 823.3,953.5 817.6,957.6 810.9,960.3 803.8,961.1"/>
    <polyline points="793.9,852.3 813.6,846.3"/>
    <polyline points="856.2,862.2 863.0,870.0 869.5,877.8 875.7,885.8 881.6,893.8 887.2,902.0 892.4,910.2 897.4,918.5 902.0,926.8 906.4,935.3 910.4,943.8 914.2,952.4 917.6,961.1"/>
    <polyline points="856.2,862.2 917.6,862.2 919.6,867.9"/>
    <polyline points="856.2,961.1 905.3,961.1"/>
    <polyline points="891.4,849.3 890.1,852.4 886.9,853.7 883.8,852.4 882.4,849.3 883.8,846.1 886.9,844.8 890.1,846.1 891.4,849.3"/>
    <polyline points="1000.7,862.2 1000.7,954.8 1000.6,956.2 1000.1,957.6 999.4,958.8 998.4,959.8 997.2,960.5 995.8,961.0 994.4,961.1"/>
    <polyline points="1000.7,908.7 986.4,909.6 973.1,912.2 961.7,916.4 952.9,921.8 947.4,928.1 945.5,934.9 947.4,941.7 952.9,948.0 961.7,953.5 973.1,957.6 986.4,960.3 1000.7,961.1"/>
    <polyline points="974.5,849.3 973.2,852.4 970.1,853.7 966.9,852.4 965.6,849.3 966.9,846.1 970.1,844.8 973.2,846.1 974.5,849.3"/>
    <polyline points="1030.9,957.2 1029.9,959.6 1027.5,960.6 1025.0,959.6 1024.0,957.2 1025.0,954.7 1027.5,953.7 1029.9,954.7 1030.9,957.2"/>
    <polyline points="1175.0,862.2 1175.0,954.8 1174.8,956.2 1174.3,957.6 1173.6,958.8 1172.6,959.8 1171.4,960.5 1170.0,961.0 1168.6,961.1"/>
    <polyline points="1175.0,862.2 1160.7,862.9 1147.3,865.3 1135.9,869.0 1127.1,873.8 1121.6,879.4 1119.7,885.4 1121.6,891.4 1127.1,897.0 1135.9,901.9 1147.3,905.6 1160.7,907.9 1175.0,908.7"/>
    <polyline points="1145.1,942.8 1143.7,946.9 1140.3,949.4 1136.0,949.4 1132.5,946.9 1131.2,942.8 1132.5,938.8 1136.0,936.2 1140.3,936.2 1143.7,938.8 1145.1,942.8"/>
    <polyline points="1258.1,862.2 1258.1,954.8 1258.0,956.2 1257.5,957.6 1256.7,958.8 1255.7,959.8 1254.5,960.5 1253.2,961.0 1251.8,961.1"/>
    <polyline points="1258.1,862.2 1196.7,862.2 1194.8,867.9"/>
    <polyline points="1258.1,908.7 1243.8,909.6 1230.5,912.2 1219.1,916.4 1210.3,921.8 1204.8,928.1 1202.9,934.9 1204.8,941.7 1210.3,948.0 1219.1,953.5 1230.5,957.6 1243.8,960.3 1258.1,961.1"/>
    <polyline points="191.0,1089.8 190.1,1101.4 187.5,1112.4 183.3,1122.0 177.7,1129.8 171.2,1135.2 164.0,1138.0 156.6,1138.0 149.4,1135.2 142.9,1129.8 137.3,1122.0 133.1,1112.4 130.5,1101.4 129.6,1089.8 130.5,1078.2 133.1,1067.3 137.3,1057.7 142.9,1049.9 149.4,1044.5 156.6,1041.7 164.0,1041.7 171.2,1044.5 177.7,1049.9 183.3,1057.7 187.5,1067.3 190.1,1078.2 191.0,1089.8"/>
    <polyline points="160.3,1040.3 160.3,1139.3"/>
    <polyline points="274.2,1139.3 264.6,1138.6 255.3,1136.3 246.5,1132.7 238.6,1127.7 231.8,1121.6 226.3,1114.6 222.2,1106.8 219.8,1098.4 218.9,1089.8 219.8,1081.2 222.2,1072.9 226.3,1065.1 231.8,1058.0 238.6,1051.9 246.5,1047.0 255.3,1043.3 264.6,1041.1 274.2,1040.3"/>
    <polyline points="247.9,1154.2 246.6,1157.3 243.5,1158.6 240.3,1157.3 239.0,1154.2 240.3,1151.0 243.5,1149.7 246.6,1151.0 247.9,1154.2"/>
    <polyline points="357.3,1040.3 357.3,1133.0 357.1,1134.4 356.7,1135.7 355.9,1136.9 354.9,1137.9 353.7,1138.7 352.4,1139.2 351.0,1139.3"/>
    <polyline points="357.3,1040.3 343.0,1041.1 329.7,1043.5 318.2,1047.2 309.5,1052.0 304.0,1057.6 302.1,1063.6 304.0,1069.6 309.5,1075.2 318.2,1080.0 329.7,1083.7 343.0,1086.1 357.3,1086.9"/>
    <polyline points="327.4,1121.0 326.1,1125.1 322.6,1127.6 318.3,1127.6 314.9,1125.1 313.6,1121.0 314.9,1116.9 318.3,1114.4 322.6,1114.4 326.1,1116.9 327.4,1121.0"/>
    <polyline points="440.5,1139.3 430.9,1138.6 421.6,1136.3 412.8,1132.7 405.0,1127.7 398.1,1121.6 392.6,1114.6 388.6,1106.8 386.1,1098.4 385.2,1089.8 386.1,1081.2 388.6,1072.9 392.6,1065.1 398.1,1058.0 405.0,1051.9 412.8,1047.0 421.6,1043.3 430.9,1041.1 440.5,1040.3"/>
    <polyline points="414.2,1154.2 412.9,1157.3 409.8,1158.6 406.6,1157.3 405.3,1154.2 406.6,1151.0 409.8,1149.7 412.9,1151.0 414.2,1154.2"/>
    <polyline points="523.6,1089.8 522.7,1101.4 520.1,1112.4 515.9,1122.0 510.4,1129.8 503.8,1135.2 496.6,1138.0 489.2,1138.0 482.0,1135.2 475.5,1129.8 470.0,1122.0 465.8,1112.4 463.1,1101.4 462.2,1089.8 463.1,1078.2 465.8,1067.3 470.0,1057.7 475.5,1049.9 482.0,1044.5 489.2,1041.7 496.6,1041.7 503.8,1044.5 510.4,1049.9 515.9,1057.7 520.1,1067.3 522.7,1078.2 523.6,1089.8"/>
    <polyline points="500.3,1089.8 498.9,1094.2 495.2,1096.9 490.6,1096.9 486.9,1094.2 485.5,1089.8 486.9,1085.5 490.6,1082.8 495.2,1082.8 498.9,1085.5 500.3,1089.8"/>
    <polyline points="497.4,1027.5 496.1,1030.6 492.9,1031.9 489.8,1030.6 488.5,1027.5 489.8,1024.3 492.9,1023.0 496.1,1024.3 497.4,1027.5"/>
    <polyline points="545.4,1040.3 545.4,1133.0 545.5,1134.4 546.0,1135.7 546.8,1136.9 547.8,1137.9 549.0,1138.7 550.3,1139.2 551.7,1139.3"/>
    <polyline points="545.4,1040.3 559.7,1041.1 573.0,1043.5 584.4,1047.2 593.2,1052.0 598.7,1057.6 600.6,1063.6 598.7,1069.6 593.2,1075.2 584.4,1080.0 573.0,1083.7 559.7,1086.1 545.4,1086.9"/>
    <polyline points="580.5,1027.5 579.2,1030.6 576.1,1031.9 572.9,1030.6 571.6,1027.5 572.9,1024.3 576.1,1023.0 579.2,1024.3 580.5,1027.5"/>
    <polyline points="637.0,1135.4 635.9,1137.8 633.5,1138.8 631.0,1137.8 630.0,1135.4 631.0,1132.9 633.5,1131.9 635.9,1132.9 637.0,1135.4"/>
    <polyline points="719.6,1040.3 719.6,1108.6 720.7,1116.6 723.7,1124.0 728.6,1130.3 735.0,1135.2 742.4,1138.3 750.3,1139.3 758.2,1138.3 765.6,1135.2 772.0,1130.3 776.9,1124.0 779.9,1116.6 781.0,1108.6 781.0,1040.3"/>
    <polyline points="757.7,1089.8 756.3,1094.2 752.6,1096.9 748.0,1096.9 744.3,1094.2 742.9,1089.8 744.3,1085.5 748.0,1082.8 752.6,1082.8 756.3,1085.5 757.7,1089.8"/>
    <polyline points="864.1,1040.3 864.1,1133.0 864.0,1134.4 863.5,1135.7 862.8,1136.9 861.7,1137.9 860.5,1138.7 859.2,1139.2 857.8,1139.3"/>
    <polyline points="864.1,1040.3 802.8,1040.3 800.8,1046.0"/>
    <polyline points="864.1,1086.9 849.8,1087.8 836.5,1090.4 825.1,1094.5 816.3,1100.0 810.8,1106.3 808.9,1113.1 810.8,1119.9 816.3,1126.2 825.1,1131.6 836.5,1135.8 849.8,1138.4 864.1,1139.3"/>
    <polyline points="947.3,1089.8 946.4,1101.4 943.8,1112.4 939.6,1122.0 934.0,1129.8 927.5,1135.2 920.3,1138.0 912.9,1138.0 905.7,1135.2 899.2,1129.8 893.6,1122.0 889.4,1112.4 886.8,1101.4 885.9,1089.8 886.8,1078.2 889.4,1067.3 893.6,1057.7 899.2,1049.9 905.7,1044.5 912.9,1041.7 920.3,1041.7 927.5,1044.5 934.0,1049.9 939.6,1057.7 943.8,1067.3 946.4,1078.2 947.3,1089.8"/>
    <polyline points="924.0,1089.8 922.6,1094.2 918.9,1096.9 914.3,1096.9 910.6,1094.2 909.2,1089.8 910.6,1085.5 914.3,1082.8 918.9,1082.8 922.6,1085.5 924.0,1089.8"/>
    <polyline points="921.1,1027.5 919.7,1030.6 916.6,1031.9 913.4,1030.6 912.1,1027.5 913.4,1024.3 916.6,1023.0 919.7,1024.3 921.1,1027.5"/>
    <polyline points="1030.4,1089.8 1029.5,1101.4 1026.9,1112.4 1022.7,1122.0 1017.2,1129.8 1010.6,1135.2 1003.4,1138.0 996.1,1138.0 988.9,1135.2 982.3,1129.8 976.8,1122.0 972.6,1112.4 970.0,1101.4 969.1,1089.8 970.0,1078.2 972.6,1067.3 976.8,1057.7 982.3,1049.9 988.9,1044.5 996.1,1041.7 1003.4,1041.7 1010.6,1044.5 1017.2,1049.9 1022.7,1057.7 1026.9,1067.3 1029.5,1078.2 1030.4,1089.8"/>
    <polyline points="999.8,1040.3 999.8,1139.3"/>
    <polyline points="1113.6,1139.3 1104.0,1138.6 1094.7,1136.3 1086.0,1132.7 1078.1,1127.7 1071.3,1121.6 1065.8,1114.6 1061.7,1106.8 1059.2,1098.4 1058.4,1089.8 1059.2,1081.2 1061.7,1072.9 1065.8,1065.1 1071.3,1058.0 1078.1,1051.9 1086.0,1047.0 1094.7,1043.3 1104.0,1041.1 1113.6,1040.3"/>
    <polyline points="1087.4,1154.2 1086.1,1157.3 1082.9,1158.6 1079.8,1157.3 1078.4,1154.2 1079.8,1151.0 1082.9,1149.7 1086.1,1151.0 1087.4,1154.2"/>
    <polyline points="1135.4,1040.3 1135.4,1133.0 1135.5,1134.4 1136.0,1135.7 1136.7,1136.9 1137.8,1137.9 1139.0,1138.7 1140.3,1139.2 1141.7,1139.3"/>
    <polyline points="1135.4,1040.3 1196.7,1040.3 1198.7,1046.0"/>
    <polyline points="1135.4,1086.9 1149.7,1087.8 1163.0,1090.4 1174.4,1094.5 1183.2,1100.0 1188.7,1106.3 1190.6,1113.1 1188.7,1119.9 1183.2,1126.2 1174.4,1131.6 1163.0,1135.8 1149.7,1138.4 1135.4,1139.3"/>
    <polyline points="1170.5,1154.2 1169.2,1157.3 1166.1,1158.6 1162.9,1157.3 1161.6,1154.2 1162.9,1151.0 1166.1,1149.7 1169.2,1151.0 1170.5,1154.2"/>
    <polyline points="191.0,1218.5 191.0,1311.2 190.8,1312.6 190.4,1313.9 189.6,1315.1 188.6,1316.1 187.4,1316.9 186.1,1317.3 184.7,1317.5"/>
    <polyline points="191.0,1265.0 176.7,1265.9 163.4,1268.6 151.9,1272.7 143.2,1278.2 137.6,1284.5 135.8,1291.3 137.6,1298.1 143.2,1304.4 151.9,1309.8 163.4,1314.0 176.7,1316.6 191.0,1317.5"/>
    <polyline points="164.8,1205.6 163.5,1208.8 160.3,1210.1 157.2,1208.8 155.9,1205.6 157.2,1202.5 160.3,1201.2 163.5,1202.5 164.8,1205.6"/>
    <polyline points="243.5,1218.5 243.5,1311.2 243.6,1312.6 244.1,1313.9 244.9,1315.1 245.9,1316.1 247.1,1316.9 248.4,1317.3 249.8,1317.5"/>
    <polyline points="243.5,1218.5 250.6,1219.3 257.3,1221.6 263.0,1225.3 267.4,1230.1 270.1,1235.8 271.1,1241.8 270.1,1247.8 267.4,1253.4 263.0,1258.2 257.3,1261.9 250.6,1264.3 243.5,1265.0"/>
    <polyline points="243.5,1265.0 250.6,1265.9 257.3,1268.6 263.0,1272.7 267.4,1278.2 270.1,1284.5 271.1,1291.3 270.1,1298.1 267.4,1304.4 263.0,1309.8 257.3,1314.0 250.6,1316.6 243.5,1317.5"/>
    <polyline points="233.6,1208.6 253.3,1202.7"/>
    <polyline points="295.9,1218.5 295.9,1311.2 296.1,1312.6 296.6,1313.9 297.3,1315.1 298.3,1316.1 299.5,1316.9 300.9,1317.3 302.3,1317.5"/>
    <polyline points="295.9,1218.5 310.2,1219.3 323.6,1221.6 335.0,1225.3 343.8,1230.1 349.3,1235.8 351.2,1241.8 349.3,1247.8 343.8,1253.4 335.0,1258.2 323.6,1261.9 310.2,1264.3 295.9,1265.0"/>
    <polyline points="331.1,1205.6 329.8,1208.8 326.6,1210.1 323.5,1208.8 322.2,1205.6 323.5,1202.5 326.6,1201.2 329.8,1202.5 331.1,1205.6"/>
    <polyline points="379.1,1218.5 388.7,1219.3 398.0,1221.5 406.7,1225.1 414.6,1230.1 421.4,1236.2 426.9,1243.3 431.0,1251.1 433.5,1259.4 434.3,1268.0 433.5,1276.6 431.0,1284.9 426.9,1292.8 421.4,1299.8 414.6,1305.9 406.7,1310.9 398.0,1314.5 388.7,1316.8 379.1,1317.5"/>
    <polyline points="417.2,1268.0 415.8,1272.4 412.1,1275.1 407.5,1275.1 403.8,1272.4 402.3,1268.0 403.8,1263.6 407.5,1261.0 412.1,1261.0 415.8,1263.6 417.2,1268.0"/>
    <polyline points="414.2,1205.6 412.9,1208.8 409.8,1210.1 406.6,1208.8 405.3,1205.6 406.6,1202.5 409.8,1201.2 412.9,1202.5 414.2,1205.6"/>
    <polyline points="523.6,1218.5 523.6,1311.2 523.5,1312.6 523.0,1313.9 522.2,1315.1 521.2,1316.1 520.0,1316.9 518.7,1317.3 517.3,1317.5"/>
    <polyline points="523.6,1218.5 462.2,1218.5 460.3,1224.2"/>
    <polyline points="523.6,1265.0 509.3,1265.9 496.0,1268.6 484.6,1272.7 475.8,1278.2 470.3,1284.5 468.4,1291.3 470.3,1298.1 475.8,1304.4 484.6,1309.8 496.0,1314.0 509.3,1316.6 523.6,1317.5"/>
    <polyline points="606.8,1268.0 605.9,1279.6 603.2,1290.6 599.0,1300.2 593.5,1307.9 587.0,1313.4 579.8,1316.2 572.4,1316.2 565.2,1313.4 558.6,1307.9 553.1,1300.2 548.9,1290.6 546.3,1279.6 545.4,1268.0 546.3,1256.4 548.9,1245.5 553.1,1235.8 558.6,1228.1 565.2,1222.7 572.4,1219.9 579.8,1219.9 587.0,1222.7 593.5,1228.1 599.0,1235.8 603.2,1245.5 605.9,1256.4 606.8,1268.0"/>
    <polyline points="583.5,1268.0 582.1,1272.4 578.4,1275.1 573.8,1275.1 570.1,1272.4 568.6,1268.0 570.1,1263.6 573.8,1261.0 578.4,1261.0 582.1,1263.6 583.5,1268.0"/>
    <polyline points="580.5,1205.6 579.2,1208.8 576.1,1210.1 572.9,1208.8 571.6,1205.6 572.9,1202.5 576.1,1201.2 579.2,1202.5 580.5,1205.6"/>
    <polyline points="720.6,1218.5 720.6,1311.2 720.8,1312.6 721.2,1313.9 722.0,1315.1 723.0,1316.1 724.2,1316.9 725.5,1317.3 726.9,1317.5"/>
    <polyline points="720.6,1218.5 727.7,1219.3 734.4,1221.6 740.1,1225.3 744.5,1230.1 747.3,1235.8 748.2,1241.8 747.3,1247.8 744.5,1253.4 740.1,1258.2 734.4,1261.9 727.7,1264.3 720.6,1265.0"/>
    <polyline points="720.6,1265.0 727.7,1265.9 734.4,1268.6 740.1,1272.7 744.5,1278.2 747.3,1284.5 748.2,1291.3 747.3,1298.1 744.5,1304.4 740.1,1309.8 734.4,1314.0 727.7,1316.6 720.6,1317.5"/>
    <polyline points="710.8,1208.6 730.4,1202.7"/>
    <polyline points="834.4,1268.0 833.5,1279.6 830.9,1290.6 826.7,1300.2 821.2,1307.9 814.6,1313.4 807.4,1316.2 800.1,1316.2 792.9,1313.4 786.3,1307.9 780.8,1300.2 776.6,1290.6 774.0,1279.6 773.1,1268.0 774.0,1256.4 776.6,1245.5 780.8,1235.8 786.3,1228.1 792.9,1222.7 800.1,1219.9 807.4,1219.9 814.6,1222.7 821.2,1228.1 826.7,1235.8 830.9,1245.5 833.5,1256.4 834.4,1268.0"/>
    <polyline points="811.2,1268.0 809.8,1272.4 806.0,1275.1 801.5,1275.1 797.7,1272.4 796.3,1268.0 797.7,1263.6 801.5,1261.0 806.0,1261.0 809.8,1263.6 811.2,1268.0"/>
    <polyline points="808.2,1205.6 806.9,1208.8 803.8,1210.1 800.6,1208.8 799.3,1205.6 800.6,1202.5 803.8,1201.2 806.9,1202.5 808.2,1205.6"/>
    <polyline points="917.6,1317.5 908.0,1316.8 898.7,1314.5 890.0,1310.9 882.1,1305.9 875.3,1299.8 869.8,1292.8 865.7,1284.9 863.2,1276.6 862.4,1268.0 863.2,1259.4 865.7,1251.1 869.8,1243.3 875.3,1236.2 882.1,1230.1 890.0,1225.1 898.7,1221.5 908.0,1219.3 917.6,1218.5"/>
    <polyline points="861.1,1268.0 912.7,1268.0"/>
    <polyline points="1000.7,1218.5 1010.3,1219.3 1019.6,1221.5 1028.4,1225.1 1036.2,1230.1 1043.1,1236.2 1048.6,1243.3 1052.6,1251.1 1055.1,1259.4 1056.0,1268.0 1055.1,1276.6 1052.6,1284.9 1048.6,1292.8 1043.1,1299.8 1036.2,1305.9 1028.4,1310.9 1019.6,1314.5 1010.3,1316.8 1000.7,1317.5"/>
    <polyline points="1038.9,1268.0 1037.4,1272.4 1033.7,1275.1 1029.1,1275.1 1025.4,1272.4 1024.0,1268.0 1025.4,1263.6 1029.1,1261.0 1033.7,1261.0 1037.4,1263.6 1038.9,1268.0"/>
    <polyline points="1035.9,1205.6 1034.6,1208.8 1031.4,1210.1 1028.3,1208.8 1027.0,1205.6 1028.3,1202.5 1031.4,1201.2 1034.6,1202.5 1035.9,1205.6"/>
    <polyline points="1145.3,1218.5 1145.3,1311.2 1145.1,1312.6 1144.6,1313.9 1143.9,1315.1 1142.9,1316.1 1141.7,1316.9 1140.3,1317.3 1138.9,1317.5"/>
    <polyline points="1145.3,1218.5 1131.0,1219.3 1117.6,1221.6 1106.2,1225.3 1097.4,1230.1 1091.9,1235.8 1090.0,1241.8 1091.9,1247.8 1097.4,1253.4 1106.2,1258.2 1117.6,1261.9 1131.0,1264.3 1145.3,1265.0"/>
    <polyline points="1115.4,1299.2 1114.0,1303.3 1110.6,1305.8 1106.3,1305.8 1102.8,1303.3 1101.5,1299.2 1102.8,1295.1 1106.3,1292.6 1110.6,1292.6 1114.0,1295.1 1115.4,1299.2"/>
    <polyline points="1197.7,1218.5 1197.7,1311.2 1197.9,1312.6 1198.4,1313.9 1199.1,1315.1 1200.1,1316.1 1201.3,1316.9 1202.7,1317.3 1204.1,1317.5"/>
    <polyline points="1197.7,1218.5 1204.9,1219.3 1211.5,1221.6 1217.3,1225.3 1221.6,1230.1 1224.4,1235.8 1225.3,1241.8 1224.4,1247.8 1221.6,1253.4 1217.3,1258.2 1211.5,1261.9 1204.9,1264.3 1197.7,1265.0"/>
    <polyline points="1197.7,1265.0 1204.9,1265.9 1211.5,1268.6 1217.3,1272.7 1221.6,1278.2 1224.4,1284.5 1225.3,1291.3 1224.4,1298.1 1221.6,1304.4 1217.3,1309.8 1211.5,1314.0 1204.9,1316.6 1197.7,1317.5"/>
    <polyline points="1187.9,1208.6 1207.6,1202.7"/>
    <polyline points="160.3,1396.7 160.3,1489.4 160.2,1490.8 159.7,1492.1 158.9,1493.3 157.9,1494.3 156.7,1495.1 155.4,1495.5 154.0,1495.7"/>
    <polyline points="134.5,1443.2 186.1,1443.2"/>
    <polyline points="212.8,1396.7 222.4,1397.5 231.7,1399.7 240.4,1403.3 248.3,1408.3 255.1,1414.4 260.6,1421.4 264.7,1429.3 267.2,1437.6 268.0,1446.2 267.2,1454.8 264.7,1463.1 260.6,1470.9 255.1,1478.0 248.3,1484.1 240.4,1489.1 231.7,1492.7 222.4,1494.9 212.8,1495.7"/>
    <polyline points="250.9,1446.2 249.5,1450.6 245.8,1453.3 241.2,1453.3 237.5,1450.6 236.0,1446.2 237.5,1441.8 241.2,1439.1 245.8,1439.1 249.5,1441.8 250.9,1446.2"/>
    <polyline points="247.9,1383.8 246.6,1387.0 243.5,1388.3 240.3,1387.0 239.0,1383.8 240.3,1380.7 243.5,1379.4 246.6,1380.7 247.9,1383.8"/>
    <polyline points="357.3,1446.2 356.4,1457.8 353.8,1468.7 349.6,1478.4 344.1,1486.1 337.5,1491.5 330.3,1494.3 322.9,1494.3 315.7,1491.5 309.2,1486.1 303.7,1478.4 299.4,1468.7 296.8,1457.8 295.9,1446.2 296.8,1434.6 299.4,1423.7 303.7,1414.0 309.2,1406.3 315.7,1400.8 322.9,1398.0 330.3,1398.0 337.5,1400.8 344.1,1406.3 349.6,1414.0 353.8,1423.7 356.4,1434.6 357.3,1446.2"/>
    <polyline points="334.0,1446.2 332.6,1450.6 328.9,1453.3 324.3,1453.3 320.6,1450.6 319.2,1446.2 320.6,1441.8 324.3,1439.1 328.9,1439.1 332.6,1441.8 334.0,1446.2"/>
    <polyline points="331.1,1383.8 329.8,1387.0 326.6,1388.3 323.5,1387.0 322.2,1383.8 323.5,1380.7 326.6,1379.4 329.8,1380.7 331.1,1383.8"/>
    <polyline points="409.8,1396.7 409.8,1489.4 409.9,1490.8 410.4,1492.1 411.2,1493.3 412.2,1494.3 413.4,1495.1 414.7,1495.5 416.1,1495.7"/>
    <polyline points="409.8,1396.7 416.9,1397.5 423.6,1399.8 429.3,1403.5 433.7,1408.3 436.4,1413.9 437.4,1420.0 436.4,1426.0 433.7,1431.6 429.3,1436.4 423.6,1440.1 416.9,1442.4 409.8,1443.2"/>
    <polyline points="409.8,1443.2 416.9,1444.1 423.6,1446.7 429.3,1450.9 433.7,1456.3 436.4,1462.7 437.4,1469.5 436.4,1476.2 433.7,1482.6 429.3,1488.0 423.6,1492.2 416.9,1494.8 409.8,1495.7"/>
    <polyline points="400.0,1386.8 419.6,1380.9"/>
    <polyline points="462.2,1396.7 462.2,1489.4 462.4,1490.8 462.9,1492.1 463.6,1493.3 464.6,1494.3 465.8,1495.1 467.2,1495.5 468.6,1495.7"/>
    <polyline points="462.2,1396.7 476.5,1397.5 489.9,1399.8 501.3,1403.5 510.1,1408.3 515.6,1413.9 517.5,1420.0 515.6,1426.0 510.1,1431.6 501.3,1436.4 489.9,1440.1 476.5,1442.4 462.2,1443.2"/>
    <polyline points="497.4,1383.8 496.1,1387.0 492.9,1388.3 489.8,1387.0 488.5,1383.8 489.8,1380.7 492.9,1379.4 496.1,1380.7 497.4,1383.8"/>
    <polyline points="545.4,1396.7 555.0,1397.5 564.3,1399.7 573.0,1403.3 580.9,1408.3 587.7,1414.4 593.2,1421.4 597.3,1429.3 599.8,1437.6 600.6,1446.2 599.8,1454.8 597.3,1463.1 593.2,1470.9 587.7,1478.0 580.9,1484.1 573.0,1489.1 564.3,1492.7 555.0,1494.9 545.4,1495.7"/>
    <polyline points="583.5,1446.2 582.1,1450.6 578.4,1453.3 573.8,1453.3 570.1,1450.6 568.6,1446.2 570.1,1441.8 573.8,1439.1 578.4,1439.1 582.1,1441.8 583.5,1446.2"/>
    <polyline points="580.5,1383.8 579.2,1387.0 576.1,1388.3 572.9,1387.0 571.6,1383.8 572.9,1380.7 576.1,1379.4 579.2,1380.7 580.5,1383.8"/>
    <polyline points="689.9,1396.7 689.9,1489.4 689.8,1490.8 689.3,1492.1 688.5,1493.3 687.5,1494.3 686.3,1495.1 685.0,1495.5 683.6,1495.7"/>
    <polyline points="689.9,1396.7 628.5,1396.7 626.6,1402.4"/>
    <polyline points="689.9,1443.2 675.6,1444.1 662.3,1446.7 650.9,1450.9 642.1,1456.3 636.6,1462.7 634.7,1469.5 636.6,1476.2 642.1,1482.6 650.9,1488.0 662.3,1492.2 675.6,1494.8 689.9,1495.7"/>
    <polyline points="773.1,1446.2 772.2,1457.8 769.5,1468.7 765.3,1478.4 759.8,1486.1 753.3,1491.5 746.1,1494.3 738.7,1494.3 731.5,1491.5 724.9,1486.1 719.4,1478.4 715.2,1468.7 712.6,1457.8 711.7,1446.2 712.6,1434.6 715.2,1423.7 719.4,1414.0 724.9,1406.3 731.5,1400.8 738.7,1398.0 746.1,1398.0 753.3,1400.8 759.8,1406.3 765.3,1414.0 769.5,1423.7 772.2,1434.6 773.1,1446.2"/>
    <polyline points="749.8,1446.2 748.4,1450.6 744.7,1453.3 740.1,1453.3 736.4,1450.6 735.0,1446.2 736.4,1441.8 740.1,1439.1 744.7,1439.1 748.4,1441.8 749.8,1446.2"/>
    <polyline points="746.8,1383.8 745.5,1387.0 742.4,1388.3 739.2,1387.0 737.9,1383.8 739.2,1380.7 742.4,1379.4 745.5,1380.7 746.8,1383.8"/>
    <polyline points="794.8,1396.7 794.8,1495.7"/>
    <polyline points="937.6,1396.7 937.6,1489.4 937.7,1490.8 938.2,1492.1 939.0,1493.3 940.0,1494.3 941.2,1495.1 942.5,1495.5 943.9,1495.7"/>
    <polyline points="937.6,1396.7 999.0,1396.7 1000.9,1402.4"/>
    <polyline points="937.6,1443.2 951.9,1444.1 965.2,1446.7 976.6,1450.9 985.4,1456.3 990.9,1462.7 992.8,1469.5 990.9,1476.2 985.4,1482.6 976.6,1488.0 965.2,1492.2 951.9,1494.8 937.6,1495.7"/>
    <polyline points="972.7,1510.5 971.4,1513.7 968.3,1515.0 965.1,1513.7 963.8,1510.5 965.1,1507.4 968.3,1506.1 971.4,1507.4 972.7,1510.5"/>
    <polyline points="1082.1,1495.7 1072.5,1494.9 1063.2,1492.7 1054.5,1489.1 1046.6,1484.1 1039.8,1478.0 1034.3,1470.9 1030.2,1463.1 1027.7,1454.8 1026.9,1446.2 1027.7,1437.6 1030.2,1429.3 1034.3,1421.4 1039.8,1414.4 1046.6,1408.3 1054.5,1403.3 1063.2,1399.7 1072.5,1397.5 1082.1,1396.7"/>
    <polyline points="1055.9,1510.5 1054.6,1513.7 1051.4,1515.0 1048.3,1513.7 1047.0,1510.5 1048.3,1507.4 1051.4,1506.1 1054.6,1507.4 1055.9,1510.5"/>
    <polyline points="1134.6,1396.7 1134.6,1489.4 1134.7,1490.8 1135.2,1492.1 1136.0,1493.3 1137.0,1494.3 1138.2,1495.1 1139.5,1495.5 1140.9,1495.7"/>
    <polyline points="1134.6,1396.7 1141.7,1397.5 1148.4,1399.8 1154.1,1403.5 1158.5,1408.3 1161.3,1413.9 1162.2,1420.0 1161.3,1426.0 1158.5,1431.6 1154.1,1436.4 1148.4,1440.1 1141.7,1442.4 1134.6,1443.2"/>
    <polyline points="1134.6,1443.2 1141.7,1444.1 1148.4,1446.7 1154.1,1450.9 1158.5,1456.3 1161.3,1462.7 1162.2,1469.5 1161.3,1476.2 1158.5,1482.6 1154.1,1488.0 1148.4,1492.2 1141.7,1494.8 1134.6,1495.7"/>
    <polyline points="1124.8,1386.8 1144.4,1380.9"/>
    <polyline points="1248.4,1495.7 1238.8,1494.9 1229.5,1492.7 1220.8,1489.1 1212.9,1484.1 1206.1,1478.0 1200.6,1470.9 1196.5,1463.1 1194.0,1454.8 1193.2,1446.2 1194.0,1437.6 1196.5,1429.3 1200.6,1421.4 1206.1,1414.4 1212.9,1408.3 1220.8,1403.3 1229.5,1399.7 1238.8,1397.5 1248.4,1396.7"/>
    <polyline points="1191.9,1446.2 1243.5,1446.2"/>
    <polyline points="129.6,1574.9 139.2,1575.6 148.5,1577.9 157.2,1581.5 165.1,1586.5 171.9,1592.6 177.5,1599.6 181.5,1607.4 184.0,1615.8 184.9,1624.4 184.0,1633.0 181.5,1641.3 177.5,1649.1 171.9,1656.2 165.1,1662.3 157.2,1667.2 148.5,1670.9 139.2,1673.1 129.6,1673.9"/>
    <polyline points="167.7,1624.4 166.3,1628.7 162.6,1631.4 158.0,1631.4 154.3,1628.7 152.9,1624.4 154.3,1620.0 158.0,1617.3 162.6,1617.3 166.3,1620.0 167.7,1624.4"/>
    <polyline points="164.8,1562.0 163.5,1565.2 160.3,1566.5 157.2,1565.2 155.9,1562.0 157.2,1558.9 160.3,1557.6 163.5,1558.9 164.8,1562.0"/>
    <polyline points="274.2,1624.4 273.3,1636.0 270.6,1646.9 266.4,1656.5 260.9,1664.3 254.3,1669.7 247.2,1672.5 239.8,1672.5 232.6,1669.7 226.0,1664.3 220.5,1656.5 216.3,1646.9 213.7,1636.0 212.8,1624.4 213.7,1612.8 216.3,1601.8 220.5,1592.2 226.0,1584.5 232.6,1579.0 239.8,1576.2 247.2,1576.2 254.3,1579.0 260.9,1584.5 266.4,1592.2 270.6,1601.8 273.3,1612.8 274.2,1624.4"/>
    <polyline points="250.9,1624.4 249.5,1628.7 245.8,1631.4 241.2,1631.4 237.5,1628.7 236.0,1624.4 237.5,1620.0 241.2,1617.3 245.8,1617.3 249.5,1620.0 250.9,1624.4"/>
    <polyline points="247.9,1562.0 246.6,1565.2 243.5,1566.5 240.3,1565.2 239.0,1562.0 240.3,1558.9 243.5,1557.6 246.6,1558.9 247.9,1562.0"/>
    <polyline points="326.6,1574.9 326.6,1667.5 326.5,1668.9 326.0,1670.3 325.2,1671.5 324.2,1672.5 323.0,1673.2 321.7,1673.7 320.3,1673.9"/>
    <polyline points="300.8,1621.4 352.4,1621.4"/>
    <polyline points="501.8,1673.9 492.2,1673.1 482.9,1670.9 474.2,1667.2 466.3,1662.3 459.5,1656.2 454.0,1649.1 449.9,1641.3 447.4,1633.0 446.6,1624.4 447.4,1615.8 449.9,1607.4 454.0,1599.6 459.5,1592.6 466.3,1586.5 474.2,1581.5 482.9,1577.9 492.2,1575.6 501.8,1574.9"/>
    <polyline points="475.6,1688.7 474.3,1691.9 471.1,1693.2 468.0,1691.9 466.7,1688.7 468.0,1685.6 471.1,1684.3 474.3,1685.6 475.6,1688.7"/>
    <polyline points="523.6,1574.9 523.6,1667.5 523.8,1668.9 524.2,1670.3 525.0,1671.5 526.0,1672.5 527.2,1673.2 528.5,1673.7 529.9,1673.9"/>
    <polyline points="523.6,1574.9 585.0,1574.9 587.0,1580.6"/>
    <polyline points="606.8,1574.9 606.8,1667.5 606.9,1668.9 607.4,1670.3 608.1,1671.5 609.1,1672.5 610.3,1673.2 611.7,1673.7 613.1,1673.9"/>
    <polyline points="606.8,1574.9 621.1,1575.7 634.4,1578.0 645.8,1581.7 654.6,1586.5 660.1,1592.1 662.0,1598.1 660.1,1604.2 654.6,1609.8 645.8,1614.6 634.4,1618.3 621.1,1620.6 606.8,1621.4"/>
    <polyline points="641.9,1562.0 640.6,1565.2 637.4,1566.5 634.3,1565.2 633.0,1562.0 634.3,1558.9 637.4,1557.6 640.6,1558.9 641.9,1562.0"/>
    <polyline points="751.3,1673.9 741.7,1673.1 732.4,1670.9 723.7,1667.2 715.8,1662.3 709.0,1656.2 703.5,1649.1 699.4,1641.3 696.9,1633.0 696.0,1624.4 696.9,1615.8 699.4,1607.4 703.5,1599.6 709.0,1592.6 715.8,1586.5 723.7,1581.5 732.4,1577.9 741.7,1575.6 751.3,1574.9"/>
    <polyline points="725.1,1688.7 723.7,1691.9 720.6,1693.2 717.4,1691.9 716.1,1688.7 717.4,1685.6 720.6,1684.3 723.7,1685.6 725.1,1688.7"/>
    <polyline points="834.4,1624.4 833.5,1636.0 830.9,1646.9 826.7,1656.5 821.2,1664.3 814.6,1669.7 807.4,1672.5 800.1,1672.5 792.9,1669.7 786.3,1664.3 780.8,1656.5 776.6,1646.9 774.0,1636.0 773.1,1624.4 774.0,1612.8 776.6,1601.8 780.8,1592.2 786.3,1584.5 792.9,1579.0 800.1,1576.2 807.4,1576.2 814.6,1579.0 821.2,1584.5 826.7,1592.2 830.9,1601.8 833.5,1612.8 834.4,1624.4"/>
    <polyline points="811.2,1624.4 809.8,1628.7 806.0,1631.4 801.5,1631.4 797.7,1628.7 796.3,1624.4 797.7,1620.0 801.5,1617.3 806.0,1617.3 809.8,1620.0 811.2,1624.4"/>
    <polyline points="808.2,1562.0 806.9,1565.2 803.8,1566.5 800.6,1565.2 799.3,1562.0 800.6,1558.9 803.8,1557.6 806.9,1558.9 808.2,1562.0"/>
    <polyline points="917.6,1673.9 908.0,1673.1 898.7,1670.9 890.0,1667.2 882.1,1662.3 875.3,1656.2 869.8,1649.1 865.7,1641.3 863.2,1633.0 862.4,1624.4 863.2,1615.8 865.7,1607.4 869.8,1599.6 875.3,1592.6 882.1,1586.5 890.0,1581.5 898.7,1577.9 908.0,1575.6 917.6,1574.9"/>
    <polyline points="861.1,1624.4 912.7,1624.4"/>
    <polyline points="1000.7,1574.9 1000.7,1667.5 1000.6,1668.9 1000.1,1670.3 999.4,1671.5 998.4,1672.5 997.2,1673.2 995.8,1673.7 994.4,1673.9"/>
    <polyline points="1000.7,1621.4 986.4,1622.3 973.1,1624.9 961.7,1629.1 952.9,1634.5 947.4,1640.9 945.5,1647.6 947.4,1654.4 952.9,1660.8 961.7,1666.2 973.1,1670.4 986.4,1673.0 1000.7,1673.9"/>
    <polyline points="974.5,1562.0 973.2,1565.2 970.1,1566.5 966.9,1565.2 965.6,1562.0 966.9,1558.9 970.1,1557.6 973.2,1558.9 974.5,1562.0"/>
    <polyline points="1083.9,1673.9 1083.9,1605.6 1084.9,1597.6 1088.0,1590.2 1092.9,1583.9 1099.2,1579.0 1106.6,1575.9 1114.6,1574.9 1122.5,1575.9 1129.9,1579.0 1136.3,1583.9 1141.2,1590.2 1144.2,1597.6 1145.3,1605.6 1145.3,1673.9"/>
    <polyline points="1088.8,1624.4 1140.4,1624.4"/>
    <polyline points="1228.4,1673.9 1218.8,1673.1 1209.5,1670.9 1200.8,1667.2 1192.9,1662.3 1186.1,1656.2 1180.6,1649.1 1176.5,1641.3 1174.0,1633.0 1173.2,1624.4 1174.0,1615.8 1176.5,1607.4 1180.6,1599.6 1186.1,1592.6 1192.9,1586.5 1200.8,1581.5 1209.5,1577.9 1218.8,1575.6 1228.4,1574.9"/>
    <polyline points="1202.2,1688.7 1200.9,1691.9 1197.7,1693.2 1194.6,1691.9 1193.3,1688.7 1194.6,1685.6 1197.7,1684.3 1200.9,1685.6 1202.2,1688.7"/>
  </g>
</svg>