<?xml version="1.0" encoding="UTF-8"?>
<!-- LIPI PANEL SERIES 4/7 · seed 7 · A1 594x841mm · text continues from panel 3 -->
<svg xmlns="http://www.w3.org/2000/svg" width="594mm" height="841mm" viewBox="0 0 594 841">
  <g fill="none" stroke="#000000" stroke-width="1" stroke-linecap="round" stroke-linejoin="round">
    <polyline points="81.04,63.40 81.04,102.71 80.97,103.31 80.77,103.88 80.45,104.39 80.03,104.81 79.52,105.13 78.95,105.33 78.35,105.40"/>
    <polyline points="81.04,63.40 74.97,63.74 69.32,64.72 64.47,66.29 60.74,68.33 58.40,70.72 57.60,73.27 58.40,75.82 60.74,78.20 64.47,80.25 69.32,81.82 74.97,82.80 81.04,83.14"/>
    <polyline points="81.04,83.14 74.97,83.52 69.32,84.63 64.47,86.40 60.74,88.70 58.40,91.39 57.60,94.27 58.40,97.15 60.74,99.83 64.47,102.14 69.32,103.91 74.97,105.02 81.04,105.40"/>
    <polyline points="142.36,63.40 142.36,102.71 142.29,103.31 142.09,103.88 141.77,104.39 141.35,104.81 140.84,105.13 140.27,105.33 139.67,105.40"/>
    <polyline points="142.36,63.40 136.29,63.74 130.64,64.72 125.79,66.29 122.06,68.33 119.72,70.72 118.92,73.27 119.72,75.82 122.06,78.20 125.79,80.25 130.64,81.82 136.29,82.80 142.36,83.14"/>
    <polyline points="129.68,97.63 129.11,99.36 127.64,100.43 125.83,100.43 124.36,99.36 123.80,97.63 124.36,95.90 125.83,94.83 127.64,94.83 129.11,95.90 129.68,97.63"/>
    <polyline points="164.62,63.40 164.62,102.71 164.69,103.31 164.89,103.88 165.21,104.39 165.63,104.81 166.14,105.13 166.71,105.33 167.31,105.40"/>
    <polyline points="164.62,63.40 167.65,63.74 170.48,64.72 172.91,66.29 174.77,68.33 175.94,70.72 176.34,73.27 175.94,75.82 174.77,78.20 172.91,80.25 170.48,81.82 167.65,82.80 164.62,83.14"/>
    <polyline points="164.62,83.14 167.65,83.52 170.48,84.63 172.91,86.40 174.77,88.70 175.94,91.39 176.34,94.27 175.94,97.15 174.77,99.83 172.91,102.14 170.48,103.91 167.65,105.02 164.62,105.40"/>
    <polyline points="160.45,59.20 168.79,56.68"/>
    <polyline points="186.88,63.40 186.88,102.71 186.95,103.31 187.15,103.88 187.47,104.39 187.89,104.81 188.40,105.13 188.97,105.33 189.57,105.40"/>
    <polyline points="186.88,63.40 192.95,63.74 198.60,64.72 203.45,66.29 207.18,68.33 209.52,70.72 210.32,73.27 209.52,75.82 207.18,78.20 203.45,80.25 198.60,81.82 192.95,82.80 186.88,83.14"/>
    <polyline points="201.79,57.94 201.24,59.28 199.90,59.83 198.56,59.28 198.01,57.94 198.56,56.60 199.90,56.05 201.24,56.60 201.79,57.94"/>
    <polyline points="248.20,105.40 244.13,105.08 240.18,104.13 236.48,102.59 233.14,100.49 230.25,97.90 227.90,94.90 226.18,91.58 225.12,88.05 224.76,84.40 225.12,80.75 226.18,77.22 227.90,73.90 230.25,70.90 233.14,68.31 236.48,66.21 240.18,64.67 244.13,63.72 248.20,63.40"/>
    <polyline points="237.07,111.70 236.52,113.04 235.18,113.59 233.84,113.04 233.29,111.70 233.84,110.36 235.18,109.81 236.52,110.36 237.07,111.70"/>
    <polyline points="257.44,63.40 257.44,102.71 257.51,103.31 257.71,103.88 258.03,104.39 258.45,104.81 258.96,105.13 259.53,105.33 260.13,105.40"/>
    <polyline points="257.44,63.40 283.48,63.40 284.32,65.82"/>
    <polyline points="257.44,83.14 263.51,83.52 269.16,84.63 274.01,86.40 277.74,88.70 280.08,91.39 280.88,94.27 280.08,97.15 277.74,99.83 274.01,102.14 269.16,103.91 263.51,105.02 257.44,105.40"/>
    <polyline points="272.35,111.70 271.80,113.04 270.46,113.59 269.12,113.04 268.57,111.70 269.12,110.36 270.46,109.81 271.80,110.36 272.35,111.70"/>
    <polyline points="292.72,63.40 296.79,63.72 300.74,64.67 304.44,66.21 307.78,68.31 310.67,70.90 313.02,73.90 314.74,77.22 315.80,80.75 316.16,84.40 315.80,88.05 314.74,91.58 313.02,94.90 310.67,97.90 307.78,100.49 304.44,102.59 300.74,104.13 296.79,105.08 292.72,105.40"/>
    <polyline points="308.89,84.40 308.29,86.25 306.71,87.40 304.77,87.40 303.19,86.25 302.59,84.40 303.19,82.55 304.77,81.40 306.71,81.40 308.29,82.55 308.89,84.40"/>
    <polyline points="307.63,57.94 307.08,59.28 305.74,59.83 304.40,59.28 303.85,57.94 304.40,56.60 305.74,56.05 307.08,56.60 307.63,57.94"/>
    <polyline points="341.02,63.40 341.02,102.71 341.09,103.31 341.29,103.88 341.61,104.39 342.03,104.81 342.54,105.13 343.11,105.33 343.71,105.40"/>
    <polyline points="341.02,63.40 344.05,63.74 346.88,64.72 349.31,66.29 351.17,68.33 352.34,70.72 352.74,73.27 352.34,75.82 351.17,78.20 349.31,80.25 346.88,81.82 344.05,82.80 341.02,83.14"/>
    <polyline points="341.02,83.14 344.05,83.52 346.88,84.63 349.31,86.40 351.17,88.70 352.34,91.39 352.74,94.27 352.34,97.15 351.17,99.83 349.31,102.14 346.88,103.91 344.05,105.02 341.02,105.40"/>
    <polyline points="336.85,59.20 345.19,56.68"/>
    <polyline points="363.28,63.40 366.17,66.71 368.92,70.05 371.55,73.43 374.04,76.84 376.41,80.29 378.64,83.77 380.75,87.29 382.72,90.84 384.57,94.43 386.28,98.05 387.87,101.71 389.32,105.40"/>
    <polyline points="363.28,63.40 389.32,63.40 390.16,65.82"/>
    <polyline points="363.28,105.40 384.11,105.40"/>
    <polyline points="378.19,57.94 377.64,59.28 376.30,59.83 374.96,59.28 374.41,57.94 374.96,56.60 376.30,56.05 377.64,56.60 378.19,57.94"/>
    <polyline points="424.60,63.40 424.60,102.71 424.53,103.31 424.33,103.88 424.01,104.39 423.59,104.81 423.08,105.13 422.51,105.33 421.91,105.40"/>
    <polyline points="424.60,83.14 418.53,83.52 412.88,84.63 408.03,86.40 404.30,88.70 401.96,91.39 401.16,94.27 401.96,97.15 404.30,99.83 408.03,102.14 412.88,103.91 418.53,105.02 424.60,105.40"/>
    <polyline points="413.47,57.94 412.92,59.28 411.58,59.83 410.24,59.28 409.69,57.94 410.24,56.60 411.58,56.05 412.92,56.60 413.47,57.94"/>
    <polyline points="437.41,103.72 436.98,104.76 435.94,105.19 434.90,104.76 434.47,103.72 434.90,102.68 435.94,102.25 436.98,102.68 437.41,103.72"/>
    <polyline points="498.52,63.40 498.52,102.71 498.45,103.31 498.25,103.88 497.93,104.39 497.51,104.81 497.00,105.13 496.43,105.33 495.83,105.40"/>
    <polyline points="498.52,63.40 492.45,63.74 486.80,64.72 481.95,66.29 478.22,68.33 475.88,70.72 475.08,73.27 475.88,75.82 478.22,78.20 481.95,80.25 486.80,81.82 492.45,82.80 498.52,83.14"/>
    <polyline points="485.84,97.63 485.27,99.36 483.80,100.43 481.99,100.43 480.52,99.36 479.96,97.63 480.52,95.90 481.99,94.83 483.80,94.83 485.27,95.90 485.84,97.63"/>
    <polyline points="533.80,63.40 533.80,102.71 533.73,103.31 533.53,103.88 533.21,104.39 532.79,104.81 532.28,105.13 531.71,105.33 531.11,105.40"/>
    <polyline points="533.80,63.40 507.76,63.40 506.92,65.82"/>
    <polyline points="533.80,83.14 527.73,83.52 522.08,84.63 517.23,86.40 513.50,88.70 511.16,91.39 510.36,94.27 511.16,97.15 513.50,99.83 517.23,102.14 522.08,103.91 527.73,105.02 533.80,105.40"/>
    <polyline points="81.04,160.00 80.66,164.93 79.55,169.56 77.77,173.65 75.42,176.94 72.64,179.24 69.59,180.43 66.45,180.43 63.40,179.24 60.62,176.94 58.27,173.65 56.49,169.56 55.38,164.93 55.00,160.00 55.38,155.07 56.49,150.44 58.27,146.35 60.62,143.06 63.40,140.76 66.45,139.57 69.59,139.57 72.64,140.76 75.42,143.06 77.77,146.35 79.55,150.44 80.66,155.07 81.04,160.00"/>
    <polyline points="68.02,139.00 68.02,181.00"/>
    <polyline points="116.32,181.00 112.25,180.68 108.30,179.73 104.60,178.19 101.26,176.09 98.37,173.50 96.02,170.50 94.30,167.18 93.24,163.65 92.88,160.00 93.24,156.35 94.30,152.82 96.02,149.50 98.37,146.50 101.26,143.91 104.60,141.81 108.30,140.27 112.25,139.32 116.32,139.00"/>
    <polyline points="105.19,187.30 104.64,188.64 103.30,189.19 101.96,188.64 101.41,187.30 101.96,185.96 103.30,185.41 104.64,185.96 105.19,187.30"/>
    <polyline points="151.60,139.00 151.60,178.31 151.53,178.91 151.33,179.48 151.01,179.99 150.59,180.41 150.08,180.73 149.51,180.93 148.91,181.00"/>
    <polyline points="151.60,139.00 145.53,139.34 139.88,140.32 135.03,141.89 131.30,143.94 128.96,146.32 128.16,148.87 128.96,151.42 131.30,153.81 135.03,155.85 139.88,157.42 145.53,158.40 151.60,158.74"/>
    <polyline points="138.92,173.23 138.35,174.96 136.88,176.03 135.07,176.03 133.60,174.96 133.04,173.23 133.60,171.50 135.07,170.43 136.88,170.43 138.35,171.50 138.92,173.23"/>
    <polyline points="186.88,181.00 182.81,180.68 178.86,179.73 175.16,178.19 171.82,176.09 168.93,173.50 166.58,170.50 164.86,167.18 163.80,163.65 163.44,160.00 163.80,156.35 164.86,152.82 166.58,149.50 168.93,146.50 171.82,143.91 175.16,141.81 178.86,140.27 182.81,139.32 186.88,139.00"/>
    <polyline points="175.75,187.30 175.20,188.64 173.86,189.19 172.52,188.64 171.97,187.30 172.52,185.96 173.86,185.41 175.20,185.96 175.75,187.30"/>
    <polyline points="222.16,160.00 221.78,164.93 220.67,169.56 218.89,173.65 216.54,176.94 213.76,179.24 210.71,180.43 207.57,180.43 204.52,179.24 201.74,176.94 199.39,173.65 197.61,169.56 196.50,164.93 196.12,160.00 196.50,155.07 197.61,150.44 199.39,146.35 201.74,143.06 204.52,140.76 207.57,139.57 210.71,139.57 213.76,140.76 216.54,143.06 218.89,146.35 220.67,150.44 221.78,155.07 222.16,160.00"/>
    <polyline points="212.29,160.00 211.69,161.85 210.11,163.00 208.17,163.00 206.59,161.85 205.99,160.00 206.59,158.15 208.17,157.00 210.11,157.00 211.69,158.15 212.29,160.00"/>
    <polyline points="211.03,133.54 210.48,134.88 209.14,135.43 207.80,134.88 207.25,133.54 207.80,132.20 209.14,131.65 210.48,132.20 211.03,133.54"/>
    <polyline points="231.40,139.00 231.40,178.31 231.47,178.91 231.67,179.48 231.99,179.99 232.41,180.41 232.92,180.73 233.49,180.93 234.09,181.00"/>
    <polyline points="231.40,139.00 237.47,139.34 243.12,140.32 247.97,141.89 251.70,143.94 254.04,146.32 254.84,148.87 254.04,151.42 251.70,153.81 247.97,155.85 243.12,157.42 237.47,158.40 231.40,158.74"/>
    <polyline points="246.31,133.54 245.76,134.88 244.42,135.43 243.08,134.88 242.53,133.54 243.08,132.20 244.42,131.65 245.76,132.20 246.31,133.54"/>
    <polyline points="270.25,179.32 269.82,180.36 268.78,180.79 267.74,180.36 267.31,179.32 267.74,178.28 268.78,177.85 269.82,178.28 270.25,179.32"/>
    <polyline points="305.32,139.00 305.32,167.98 305.76,171.35 307.06,174.49 309.13,177.19 311.83,179.26 314.97,180.56 318.34,181.00 321.71,180.56 324.85,179.26 327.55,177.19 329.62,174.49 330.92,171.35 331.36,167.98 331.36,139.00"/>
    <polyline points="321.49,160.00 320.89,161.85 319.31,163.00 317.37,163.00 315.79,161.85 315.19,160.00 315.79,158.15 317.37,157.00 319.31,157.00 320.89,158.15 321.49,160.00"/>
    <polyline points="366.64,139.00 366.64,178.31 366.57,178.91 366.37,179.48 366.05,179.99 365.63,180.41 365.12,180.73 364.55,180.93 363.95,181.00"/>
    <polyline points="366.64,139.00 340.60,139.00 339.76,141.42"/>
    <polyline points="366.64,158.74 360.57,159.12 354.92,160.23 350.07,162.00 346.34,164.31 344.00,166.99 343.20,169.87 344.00,172.75 346.34,175.44 350.07,177.74 354.92,179.51 360.57,180.62 366.64,181.00"/>
    <polyline points="401.92,160.00 401.54,164.93 400.43,169.56 398.65,173.65 396.30,176.94 393.52,179.24 390.47,180.43 387.33,180.43 384.28,179.24 381.50,176.94 379.15,173.65 377.37,169.56 376.26,164.93 375.88,160.00 376.26,155.07 377.37,150.44 379.15,146.35 381.50,143.06 384.28,140.76 387.33,139.57 390.47,139.57 393.52,140.76 396.30,143.06 398.65,146.35 400.43,150.44 401.54,155.07 401.92,160.00"/>
    <polyline points="392.05,160.00 391.45,161.85 389.87,163.00 387.93,163.00 386.35,161.85 385.75,160.00 386.35,158.15 387.93,157.00 389.87,157.00 391.45,158.15 392.05,160.00"/>
    <polyline points="390.79,133.54 390.24,134.88 388.90,135.43 387.56,134.88 387.01,133.54 387.56,132.20 388.90,131.65 390.24,132.20 390.79,133.54"/>
    <polyline points="437.20,160.00 436.82,164.93 435.71,169.56 433.93,173.65 431.58,176.94 428.80,179.24 425.75,180.43 422.61,180.43 419.56,179.24 416.78,176.94 414.43,173.65 412.65,169.56 411.54,164.93 411.16,160.00 411.54,155.07 412.65,150.44 414.43,146.35 416.78,143.06 419.56,140.76 422.61,139.57 425.75,139.57 428.80,140.76 431.58,143.06 433.93,146.35 435.71,150.44 436.82,155.07 437.20,160.00"/>
    <polyline points="424.18,139.00 424.18,181.00"/>
    <polyline points="472.48,181.00 468.41,180.68 464.46,179.73 460.76,178.19 457.42,176.09 454.53,173.50 452.18,170.50 450.46,167.18 449.40,163.65 449.04,160.00 449.40,156.35 450.46,152.82 452.18,149.50 454.53,146.50 457.42,143.91 460.76,141.81 464.46,140.27 468.41,139.32 472.48,139.00"/>
    <polyline points="461.35,187.30 460.80,188.64 459.46,189.19 458.12,188.64 457.57,187.30 458.12,185.96 459.46,185.41 460.80,185.96 461.35,187.30"/>
    <polyline points="481.72,139.00 481.72,178.31 481.79,178.91 481.99,179.48 482.31,179.99 482.73,180.41 483.24,180.73 483.81,180.93 484.41,181.00"/>
    <polyline points="481.72,139.00 507.76,139.00 508.60,141.42"/>
    <polyline points="481.72,158.74 487.79,159.12 493.44,160.23 498.29,162.00 502.02,164.31 504.36,166.99 505.16,169.87 504.36,172.75 502.02,175.44 498.29,177.74 493.44,179.51 487.79,180.62 481.72,181.00"/>
    <polyline points="496.63,187.30 496.08,188.64 494.74,189.19 493.40,188.64 492.85,187.30 493.40,185.96 494.74,185.41 496.08,185.96 496.63,187.30"/>
    <polyline points="81.04,214.60 81.04,253.91 80.97,254.51 80.77,255.08 80.45,255.59 80.03,256.01 79.52,256.33 78.95,256.53 78.35,256.60"/>
    <polyline points="81.04,234.34 74.97,234.72 69.32,235.83 64.47,237.60 60.74,239.91 58.40,242.59 57.60,245.47 58.40,248.35 60.74,251.04 64.47,253.34 69.32,255.11 74.97,256.22 81.04,256.60"/>
    <polyline points="69.91,209.14 69.36,210.48 68.02,211.03 66.68,210.48 66.13,209.14 66.68,207.80 68.02,207.25 69.36,207.80 69.91,209.14"/>
    <polyline points="103.30,214.60 103.30,253.91 103.37,254.51 103.57,255.08 103.89,255.59 104.31,256.01 104.82,256.33 105.39,256.53 105.99,256.60"/>
    <polyline points="103.30,214.60 106.33,214.94 109.16,215.92 111.59,217.49 113.45,219.54 114.62,221.92 115.02,224.47 114.62,227.02 113.45,229.41 111.59,231.45 109.16,233.02 106.33,234.00 103.30,234.34"/>
    <polyline points="103.30,234.34 106.33,234.72 109.16,235.83 111.59,237.60 113.45,239.91 114.62,242.59 115.02,245.47 114.62,248.35 113.45,251.04 111.59,253.34 109.16,255.11 106.33,256.22 103.30,256.60"/>
    <polyline points="99.13,210.40 107.47,207.88"/>
    <polyline points="125.56,214.60 125.56,253.91 125.63,254.51 125.83,255.08 126.15,255.59 126.57,256.01 127.08,256.33 127.65,256.53 128.25,256.60"/>
    <polyline points="125.56,214.60 131.63,214.94 137.28,215.92 142.13,217.49 145.86,219.54 148.20,221.92 149.00,224.47 148.20,227.02 145.86,229.41 142.13,231.45 137.28,233.02 131.63,234.00 125.56,234.34"/>
    <polyline points="140.47,209.14 139.92,210.48 138.58,211.03 137.24,210.48 136.69,209.14 137.24,207.80 138.58,207.25 139.92,207.80 140.47,209.14"/>
    <polyline points="160.84,214.60 164.91,214.92 168.86,215.87 172.56,217.41 175.90,219.51 178.79,222.10 181.14,225.10 182.86,228.42 183.92,231.95 184.28,235.60 183.92,239.25 182.86,242.78 181.14,246.10 178.79,249.10 175.90,251.69 172.56,253.79 168.86,255.33 164.91,256.28 160.84,256.60"/>
    <polyline points="177.01,235.60 176.41,237.45 174.83,238.60 172.89,238.60 171.31,237.45 170.71,235.60 171.31,233.75 172.89,232.60 174.83,232.60 176.41,233.75 177.01,235.60"/>
    <polyline points="175.75,209.14 175.20,210.48 173.86,211.03 172.52,210.48 171.97,209.14 172.52,207.80 173.86,207.25 175.20,207.80 175.75,209.14"/>
    <polyline points="222.16,214.60 222.16,253.91 222.09,254.51 221.89,255.08 221.57,255.59 221.15,256.01 220.64,256.33 220.07,256.53 219.47,256.60"/>
    <polyline points="222.16,214.60 196.12,214.60 195.28,217.02"/>
    <polyline points="222.16,234.34 216.09,234.72 210.44,235.83 205.59,237.60 201.86,239.91 199.52,242.59 198.72,245.47 199.52,248.35 201.86,251.04 205.59,253.34 210.44,255.11 216.09,256.22 222.16,256.60"/>
    <polyline points="257.44,235.60 257.06,240.53 255.95,245.16 254.17,249.25 251.82,252.54 249.04,254.84 245.99,256.03 242.85,256.03 239.80,254.84 237.02,252.54 234.67,249.25 232.89,245.16 231.78,240.53 231.40,235.60 231.78,230.67 232.89,226.04 234.67,221.95 237.02,218.66 239.80,216.36 242.85,215.17 245.99,215.17 249.04,216.36 251.82,218.66 254.17,221.95 255.95,226.04 257.06,230.67 257.44,235.60"/>
    <polyline points="247.57,235.60 246.97,237.45 245.39,238.60 243.45,238.60 241.87,237.45 241.27,235.60 241.87,233.75 243.45,232.60 245.39,232.60 246.97,233.75 247.57,235.60"/>
    <polyline points="246.31,209.14 245.76,210.48 244.42,211.03 243.08,210.48 242.53,209.14 243.08,207.80 244.42,207.25 245.76,207.80 246.31,209.14"/>
    <polyline points="305.74,214.60 305.74,253.91 305.81,254.51 306.01,255.08 306.33,255.59 306.75,256.01 307.26,256.33 307.83,256.53 308.43,256.60"/>
    <polyline points="305.74,214.60 308.77,214.94 311.60,215.92 314.03,217.49 315.89,219.54 317.06,221.92 317.46,224.47 317.06,227.02 315.89,229.41 314.03,231.45 311.60,233.02 308.77,234.00 305.74,234.34"/>
    <polyline points="305.74,234.34 308.77,234.72 311.60,235.83 314.03,237.60 315.89,239.91 317.06,242.59 317.46,245.47 317.06,248.35 315.89,251.04 314.03,253.34 311.60,255.11 308.77,256.22 305.74,256.60"/>
    <polyline points="301.57,210.40 309.91,207.88"/>
    <polyline points="354.04,235.60 353.66,240.53 352.55,245.16 350.77,249.25 348.42,252.54 345.64,254.84 342.59,256.03 339.45,256.03 336.40,254.84 333.62,252.54 331.27,249.25 329.49,245.16 328.38,240.53 328.00,235.60 328.38,230.67 329.49,226.04 331.27,221.95 333.62,218.66 336.40,216.36 339.45,215.17 342.59,215.17 345.64,216.36 348.42,218.66 350.77,221.95 352.55,226.04 353.66,230.67 354.04,235.60"/>
    <polyline points="344.17,235.60 343.57,237.45 341.99,238.60 340.05,238.60 338.47,237.45 337.87,235.60 338.47,233.75 340.05,232.60 341.99,232.60 343.57,233.75 344.17,235.60"/>
    <polyline points="342.91,209.14 342.36,210.48 341.02,211.03 339.68,210.48 339.13,209.14 339.68,207.80 341.02,207.25 342.36,207.80 342.91,209.14"/>
    <polyline points="389.32,256.60 385.25,256.28 381.30,255.33 377.60,253.79 374.26,251.69 371.37,249.10 369.02,246.10 367.30,242.78 366.24,239.25 365.88,235.60 366.24,231.95 367.30,228.42 369.02,225.10 371.37,222.10 374.26,219.51 377.60,217.41 381.30,215.87 385.25,214.92 389.32,214.60"/>
    <polyline points="365.36,235.60 387.24,235.60"/>
    <polyline points="424.60,214.60 428.67,214.92 432.62,215.87 436.32,217.41 439.66,219.51 442.55,222.10 444.90,225.10 446.62,228.42 447.68,231.95 448.04,235.60 447.68,239.25 446.62,242.78 444.90,246.10 442.55,249.10 439.66,251.69 436.32,253.79 432.62,255.33 428.67,256.28 424.60,256.60"/>
    <polyline points="440.77,235.60 440.17,237.45 438.59,238.60 436.65,238.60 435.07,237.45 434.47,235.60 435.07,233.75 436.65,232.60 438.59,232.60 440.17,233.75 440.77,235.60"/>
    <polyline points="439.51,209.14 438.96,210.48 437.62,211.03 436.28,210.48 435.73,209.14 436.28,207.80 437.62,207.25 438.96,207.80 439.51,209.14"/>
    <polyline points="485.92,214.60 485.92,253.91 485.85,254.51 485.65,255.08 485.33,255.59 484.91,256.01 484.40,256.33 483.83,256.53 483.23,256.60"/>
    <polyline points="485.92,214.60 479.85,214.94 474.20,215.92 469.35,217.49 465.62,219.54 463.28,221.92 462.48,224.47 463.28,227.02 465.62,229.41 469.35,231.45 474.20,233.02 479.85,234.00 485.92,234.34"/>
    <polyline points="473.24,248.83 472.67,250.56 471.20,251.63 469.39,251.63 467.92,250.56 467.36,248.83 467.92,247.10 469.39,246.03 471.20,246.03 472.67,247.10 473.24,248.83"/>
    <polyline points="508.18,214.60 508.18,253.91 508.25,254.51 508.45,255.08 508.77,255.59 509.19,256.01 509.70,256.33 510.27,256.53 510.87,256.60"/>
    <polyline points="508.18,214.60 511.21,214.94 514.04,215.92 516.47,217.49 518.33,219.54 519.50,221.92 519.90,224.47 519.50,227.02 518.33,229.41 516.47,231.45 514.04,233.02 511.21,234.00 508.18,234.34"/>
    <polyline points="508.18,234.34 511.21,234.72 514.04,235.83 516.47,237.60 518.33,239.91 519.50,242.59 519.90,245.47 519.50,248.35 518.33,251.04 516.47,253.34 514.04,255.11 511.21,256.22 508.18,256.60"/>
    <polyline points="504.01,210.40 512.35,207.88"/>
    <polyline points="68.02,290.20 68.02,329.51 67.95,330.11 67.75,330.68 67.43,331.19 67.01,331.61 66.50,331.93 65.93,332.13 65.33,332.20"/>
    <polyline points="57.08,309.94 78.96,309.94"/>
    <polyline points="90.28,290.20 94.35,290.52 98.30,291.47 102.00,293.01 105.34,295.11 108.23,297.70 110.58,300.70 112.30,304.02 113.36,307.55 113.72,311.20 113.36,314.85 112.30,318.38 110.58,321.70 108.23,324.70 105.34,327.29 102.00,329.39 98.30,330.93 94.35,331.88 90.28,332.20"/>
    <polyline points="106.45,311.20 105.85,313.05 104.27,314.20 102.33,314.20 100.75,313.05 100.15,311.20 100.75,309.35 102.33,308.20 104.27,308.20 105.85,309.35 106.45,311.20"/>
    <polyline points="105.19,284.74 104.64,286.08 103.30,286.63 101.96,286.08 101.41,284.74 101.96,283.40 103.30,282.85 104.64,283.40 105.19,284.74"/>
    <polyline points="151.60,311.20 151.22,316.13 150.11,320.76 148.33,324.85 145.98,328.14 143.20,330.44 140.15,331.63 137.01,331.63 133.96,330.44 131.18,328.14 128.83,324.85 127.05,320.76 125.94,316.13 125.56,311.20 125.94,306.27 127.05,301.64 128.83,297.55 131.18,294.26 133.96,291.96 137.01,290.77 140.15,290.77 143.20,291.96 145.98,294.26 148.33,297.55 150.11,301.64 151.22,306.27 151.60,311.20"/>
    <polyline points="141.73,311.20 141.13,313.05 139.55,314.20 137.61,314.20 136.03,313.05 135.43,311.20 136.03,309.35 137.61,308.20 139.55,308.20 141.13,309.35 141.73,311.20"/>
    <polyline points="140.47,284.74 139.92,286.08 138.58,286.63 137.24,286.08 136.69,284.74 137.24,283.40 138.58,282.85 139.92,283.40 140.47,284.74"/>
    <polyline points="173.86,290.20 173.86,329.51 173.93,330.11 174.13,330.68 174.45,331.19 174.87,331.61 175.38,331.93 175.95,332.13 176.55,332.20"/>
    <polyline points="173.86,290.20 176.89,290.54 179.72,291.52 182.15,293.09 184.01,295.14 185.18,297.52 185.58,300.07 185.18,302.62 184.01,305.01 182.15,307.05 179.72,308.62 176.89,309.60 173.86,309.94"/>
    <polyline points="173.86,309.94 176.89,310.32 179.72,311.43 182.15,313.20 184.01,315.51 185.18,318.19 185.58,321.07 185.18,323.95 184.01,326.64 182.15,328.94 179.72,330.71 176.89,331.82 173.86,332.20"/>
    <polyline points="169.69,286.00 178.03,283.48"/>
    <polyline points="196.12,290.20 196.12,329.51 196.19,330.11 196.39,330.68 196.71,331.19 197.13,331.61 197.64,331.93 198.21,332.13 198.81,332.20"/>
    <polyline points="196.12,290.20 202.19,290.54 207.84,291.52 212.69,293.09 216.42,295.14 218.76,297.52 219.56,300.07 218.76,302.62 216.42,305.01 212.69,307.05 207.84,308.62 202.19,309.60 196.12,309.94"/>
    <polyline points="211.03,284.74 210.48,286.08 209.14,286.63 207.80,286.08 207.25,284.74 207.80,283.40 209.14,282.85 210.48,283.40 211.03,284.74"/>
    <polyline points="231.40,290.20 235.47,290.52 239.42,291.47 243.12,293.01 246.46,295.11 249.35,297.70 251.70,300.70 253.42,304.02 254.48,307.55 254.84,311.20 254.48,314.85 253.42,318.38 251.70,321.70 249.35,324.70 246.46,327.29 243.12,329.39 239.42,330.93 235.47,331.88 231.40,332.20"/>
    <polyline points="247.57,311.20 246.97,313.05 245.39,314.20 243.45,314.20 241.87,313.05 241.27,311.20 241.87,309.35 243.45,308.20 245.39,308.20 246.97,309.35 247.57,311.20"/>
    <polyline points="246.31,284.74 245.76,286.08 244.42,286.63 243.08,286.08 242.53,284.74 243.08,283.40 244.42,282.85 245.76,283.40 246.31,284.74"/>
    <polyline points="292.72,290.20 292.72,329.51 292.65,330.11 292.45,330.68 292.13,331.19 291.71,331.61 291.20,331.93 290.63,332.13 290.03,332.20"/>
    <polyline points="292.72,290.20 266.68,290.20 265.84,292.62"/>
    <polyline points="292.72,309.94 286.65,310.32 281.00,311.43 276.15,313.20 272.42,315.51 270.08,318.19 269.28,321.07 270.08,323.95 272.42,326.64 276.15,328.94 281.00,330.71 286.65,331.82 292.72,332.20"/>
    <polyline points="328.00,311.20 327.62,316.13 326.51,320.76 324.73,324.85 322.38,328.14 319.60,330.44 316.55,331.63 313.41,331.63 310.36,330.44 307.58,328.14 305.23,324.85 303.45,320.76 302.34,316.13 301.96,311.20 302.34,306.27 303.45,301.64 305.23,297.55 307.58,294.26 310.36,291.96 313.41,290.77 316.55,290.77 319.60,291.96 322.38,294.26 324.73,297.55 326.51,301.64 327.62,306.27 328.00,311.20"/>
    <polyline points="318.13,311.20 317.53,313.05 315.95,314.20 314.01,314.20 312.43,313.05 311.83,311.20 312.43,309.35 314.01,308.20 315.95,308.20 317.53,309.35 318.13,311.20"/>
    <polyline points="316.87,284.74 316.32,286.08 314.98,286.63 313.64,286.08 313.09,284.74 313.64,283.40 314.98,282.85 316.32,283.40 316.87,284.74"/>
    <polyline points="337.24,290.20 337.24,332.20"/>
    <polyline points="397.80,290.20 397.80,329.51 397.87,330.11 398.07,330.68 398.39,331.19 398.82,331.61 399.33,331.93 399.89,332.13 400.49,332.20"/>
    <polyline points="397.80,290.20 423.84,290.20 424.68,292.62"/>
    <polyline points="397.80,309.94 403.87,310.32 409.52,311.43 414.38,313.20 418.10,315.51 420.44,318.19 421.24,321.07 420.44,323.95 418.10,326.64 414.38,328.94 409.52,330.71 403.87,331.82 397.80,332.20"/>
    <polyline points="412.71,338.50 412.16,339.84 410.82,340.39 409.49,339.84 408.93,338.50 409.49,337.16 410.82,336.61 412.16,337.16 412.71,338.50"/>
    <polyline points="459.12,332.20 455.05,331.88 451.11,330.93 447.41,329.39 444.06,327.29 441.17,324.70 438.83,321.70 437.10,318.38 436.04,314.85 435.69,311.20 436.04,307.55 437.10,304.02 438.83,300.70 441.17,297.70 444.06,295.11 447.41,293.01 451.11,291.47 455.05,290.52 459.12,290.20"/>
    <polyline points="447.99,338.50 447.44,339.84 446.10,340.39 444.77,339.84 444.21,338.50 444.77,337.16 446.10,336.61 447.44,337.16 447.99,338.50"/>
    <polyline points="481.38,290.20 481.38,329.51 481.45,330.11 481.65,330.68 481.97,331.19 482.40,331.61 482.91,331.93 483.47,332.13 484.07,332.20"/>
    <polyline points="481.38,290.20 484.42,290.54 487.24,291.52 489.67,293.09 491.53,295.14 492.70,297.52 493.10,300.07 492.70,302.62 491.53,305.01 489.67,307.05 487.24,308.62 484.42,309.60 481.38,309.94"/>
    <polyline points="481.38,309.94 484.42,310.32 487.24,311.43 489.67,313.20 491.53,315.51 492.70,318.19 493.10,321.07 492.70,323.95 491.53,326.64 489.67,328.94 487.24,330.71 484.42,331.82 481.38,332.20"/>
    <polyline points="477.22,286.00 485.55,283.48"/>
    <polyline points="529.68,332.20 525.61,331.88 521.67,330.93 517.97,329.39 514.62,327.29 511.73,324.70 509.39,321.70 507.66,318.38 506.60,314.85 506.25,311.20 506.60,307.55 507.66,304.02 509.39,300.70 511.73,297.70 514.62,295.11 517.97,293.01 521.67,291.47 525.61,290.52 529.68,290.20"/>
    <polyline points="505.73,311.20 527.60,311.20"/>
    <polyline points="55.00,365.80 59.07,366.12 63.02,367.07 66.72,368.61 70.06,370.71 72.95,373.30 75.30,376.30 77.02,379.62 78.08,383.15 78.44,386.80 78.08,390.45 77.02,393.98 75.30,397.30 72.95,400.30 70.06,402.89 66.72,404.99 63.02,406.53 59.07,407.48 55.00,407.80"/>
    <polyline points="71.17,386.80 70.57,388.65 68.99,389.80 67.05,389.80 65.47,388.65 64.87,386.80 65.47,384.95 67.05,383.80 68.99,383.80 70.57,384.95 71.17,386.80"/>
    <polyline points="69.91,360.34 69.36,361.68 68.02,362.23 66.68,361.68 66.13,360.34 66.68,359.00 68.02,358.45 69.36,359.00 69.91,360.34"/>
    <polyline points="116.32,386.80 115.94,391.73 114.83,396.36 113.05,400.45 110.70,403.74 107.92,406.04 104.87,407.23 101.73,407.23 98.68,406.04 95.90,403.74 93.55,400.45 91.77,396.36 90.66,391.73 90.28,386.80 90.66,381.87 91.77,377.24 93.55,373.15 95.90,369.86 98.68,367.56 101.73,366.37 104.87,366.37 107.92,367.56 110.70,369.86 113.05,373.15 114.83,377.24 115.94,381.87 116.32,386.80"/>
    <polyline points="106.45,386.80 105.85,388.65 104.27,389.80 102.33,389.80 100.75,388.65 100.15,386.80 100.75,384.95 102.33,383.80 104.27,383.80 105.85,384.95 106.45,386.80"/>
    <polyline points="105.19,360.34 104.64,361.68 103.30,362.23 101.96,361.68 101.41,360.34 101.96,359.00 103.30,358.45 104.64,359.00 105.19,360.34"/>
    <polyline points="138.58,365.80 138.58,405.11 138.51,405.71 138.31,406.28 137.99,406.79 137.57,407.21 137.06,407.53 136.49,407.73 135.89,407.80"/>
    <polyline points="127.64,385.54 149.52,385.54"/>
    <polyline points="212.92,407.80 208.85,407.48 204.90,406.53 201.20,404.99 197.86,402.89 194.97,400.30 192.62,397.30 190.90,393.98 189.84,390.45 189.48,386.80 189.84,383.15 190.90,379.62 192.62,376.30 194.97,373.30 197.86,370.71 201.20,368.61 204.90,367.07 208.85,366.12 212.92,365.80"/>
    <polyline points="201.79,414.10 201.24,415.44 199.90,415.99 198.56,415.44 198.01,414.10 198.56,412.76 199.90,412.21 201.24,412.76 201.79,414.10"/>
    <polyline points="222.16,365.80 222.16,405.11 222.23,405.71 222.43,406.28 222.75,406.79 223.17,407.21 223.68,407.53 224.25,407.73 224.85,407.80"/>
    <polyline points="222.16,365.80 248.20,365.80 249.04,368.22"/>
    <polyline points="257.44,365.80 257.44,405.11 257.51,405.71 257.71,406.28 258.03,406.79 258.45,407.21 258.96,407.53 259.53,407.73 260.13,407.80"/>
    <polyline points="257.44,365.80 263.51,366.14 269.16,367.12 274.01,368.69 277.74,370.74 280.08,373.12 280.88,375.67 280.08,378.22 277.74,380.61 274.01,382.65 269.16,384.22 263.51,385.20 257.44,385.54"/>
    <polyline points="272.35,360.34 271.80,361.68 270.46,362.23 269.12,361.68 268.57,360.34 269.12,359.00 270.46,358.45 271.80,359.00 272.35,360.34"/>
    <polyline points="318.76,407.80 314.69,407.48 310.74,406.53 307.04,404.99 303.70,402.89 300.81,400.30 298.46,397.30 296.74,393.98 295.68,390.45 295.32,386.80 295.68,383.15 296.74,379.62 298.46,376.30 300.81,373.30 303.70,370.71 307.04,368.61 310.74,367.07 314.69,366.12 318.76,365.80"/>
    <polyline points="307.63,414.10 307.08,415.44 305.74,415.99 304.40,415.44 303.85,414.10 304.40,412.76 305.74,412.21 307.08,412.76 307.63,414.10"/>
    <polyline points="354.04,386.80 353.66,391.73 352.55,396.36 350.77,400.45 348.42,403.74 345.64,406.04 342.59,407.23 339.45,407.23 336.40,406.04 333.62,403.74 331.27,400.45 329.49,396.36 328.38,391.73 328.00,386.80 328.38,381.87 329.49,377.24 331.27,373.15 333.62,369.86 336.40,367.56 339.45,366.37 342.59,366.37 345.64,367.56 348.42,369.86 350.77,373.15 352.55,377.24 353.66,381.87 354.04,386.80"/>
    <polyline points="344.17,386.80 343.57,388.65 341.99,389.80 340.05,389.80 338.47,388.65 337.87,386.80 338.47,384.95 340.05,383.80 341.99,383.80 343.57,384.95 344.17,386.80"/>
    <polyline points="342.91,360.34 342.36,361.68 341.02,362.23 339.68,361.68 339.13,360.34 339.68,359.00 341.02,358.45 342.36,359.00 342.91,360.34"/>
    <polyline points="389.32,407.80 385.25,407.48 381.30,406.53 377.60,404.99 374.26,402.89 371.37,400.30 369.02,397.30 367.30,393.98 366.24,390.45 365.88,386.80 366.24,383.15 367.30,379.62 369.02,376.30 371.37,373.30 374.26,370.71 377.60,368.61 381.30,367.07 385.25,366.12 389.32,365.80"/>
    <polyline points="365.36,386.80 387.24,386.80"/>
    <polyline points="424.60,365.80 424.60,405.11 424.53,405.71 424.33,406.28 424.01,406.79 423.59,407.21 423.08,407.53 422.51,407.73 421.91,407.80"/>
    <polyline points="424.60,385.54 418.53,385.92 412.88,387.03 408.03,388.80 404.30,391.11 401.96,393.79 401.16,396.67 401.96,399.55 404.30,402.24 408.03,404.54 412.88,406.31 418.53,407.42 424.60,407.80"/>
    <polyline points="413.47,360.34 412.92,361.68 411.58,362.23 410.24,361.68 409.69,360.34 410.24,359.00 411.58,358.45 412.92,359.00 413.47,360.34"/>
    <polyline points="459.88,407.80 459.88,378.82 460.32,375.45 461.62,372.31 463.69,369.61 466.39,367.54 469.53,366.24 472.90,365.80 476.27,366.24 479.41,367.54 482.11,369.61 484.18,372.31 485.48,375.45 485.92,378.82 485.92,407.80"/>
    <polyline points="461.96,386.80 483.84,386.80"/>
    <polyline points="521.20,407.80 517.13,407.48 513.18,406.53 509.48,404.99 506.14,402.89 503.25,400.30 500.90,397.30 499.18,393.98 498.12,390.45 497.76,386.80 498.12,383.15 499.18,379.62 500.90,376.30 503.25,373.30 506.14,370.71 509.48,368.61 513.18,367.07 517.13,366.12 521.20,365.80"/>
    <polyline points="510.07,414.10 509.52,415.44 508.18,415.99 506.84,415.44 506.29,414.10 506.84,412.76 508.18,412.21 509.52,412.76 510.07,414.10"/>
    <polyline points="55.00,441.40 57.89,444.71 60.64,448.05 63.27,451.43 65.76,454.84 68.13,458.29 70.36,461.77 72.47,465.29 74.44,468.84 76.29,472.43 78.00,476.05 79.59,479.71 81.04,483.40"/>
    <polyline points="71.17,462.40 70.57,464.25 68.99,465.40 67.05,465.40 65.47,464.25 64.87,462.40 65.47,460.55 67.05,459.40 68.99,459.40 70.57,460.55 71.17,462.40"/>
    <polyline points="69.91,435.94 69.36,437.28 68.02,437.83 66.68,437.28 66.13,435.94 66.68,434.60 68.02,434.05 69.36,434.60 69.91,435.94"/>
    <polyline points="116.32,441.40 116.32,480.71 116.25,481.31 116.05,481.88 115.73,482.39 115.31,482.81 114.80,483.13 114.23,483.33 113.63,483.40"/>
    <polyline points="116.32,441.40 90.28,441.40 89.44,443.82"/>
    <polyline points="116.32,461.14 110.25,461.52 104.60,462.63 99.75,464.40 96.02,466.71 93.68,469.39 92.88,472.27 93.68,475.15 96.02,477.84 99.75,480.14 104.60,481.91 110.25,483.02 116.32,483.40"/>
    <polyline points="151.60,462.40 151.22,467.33 150.11,471.96 148.33,476.05 145.98,479.34 143.20,481.64 140.15,482.83 137.01,482.83 133.96,481.64 131.18,479.34 128.83,476.05 127.05,471.96 125.94,467.33 125.56,462.40 125.94,457.47 127.05,452.84 128.83,448.75 131.18,445.46 133.96,443.16 137.01,441.97 140.15,441.97 143.20,443.16 145.98,445.46 148.33,448.75 150.11,452.84 151.22,457.47 151.60,462.40"/>
    <polyline points="141.73,462.40 141.13,464.25 139.55,465.40 137.61,465.40 136.03,464.25 135.43,462.40 136.03,460.55 137.61,459.40 139.55,459.40 141.13,460.55 141.73,462.40"/>
    <polyline points="140.47,435.94 139.92,437.28 138.58,437.83 137.24,437.28 136.69,435.94 137.24,434.60 138.58,434.05 139.92,434.60 140.47,435.94"/>
    <polyline points="186.88,483.40 182.81,483.08 178.86,482.13 175.16,480.59 171.82,478.49 168.93,475.90 166.58,472.90 164.86,469.58 163.80,466.05 163.44,462.40 163.80,458.75 164.86,455.22 166.58,451.90 168.93,448.90 171.82,446.31 175.16,444.21 178.86,442.67 182.81,441.72 186.88,441.40"/>
    <polyline points="162.92,462.40 184.80,462.40"/>
    <polyline points="222.16,441.40 222.16,480.71 222.23,481.31 222.43,481.88 222.75,482.39 223.17,482.81 223.68,483.13 224.25,483.33 224.85,483.40"/>
    <polyline points="222.16,441.40 228.23,441.74 233.88,442.72 238.73,444.29 242.46,446.34 244.80,448.72 245.60,451.27 244.80,453.82 242.46,456.21 238.73,458.25 233.88,459.82 228.23,460.80 222.16,461.14"/>
    <polyline points="237.07,435.94 236.52,437.28 235.18,437.83 233.84,437.28 233.29,435.94 233.84,434.60 235.18,434.05 236.52,434.60 237.07,435.94"/>
    <polyline points="283.48,441.40 283.48,480.71 283.41,481.31 283.21,481.88 282.89,482.39 282.47,482.81 281.96,483.13 281.39,483.33 280.79,483.40"/>
    <polyline points="283.48,441.40 277.41,441.74 271.76,442.72 266.91,444.29 263.18,446.34 260.84,448.72 260.04,451.27 260.84,453.82 263.18,456.21 266.91,458.25 271.76,459.82 277.41,460.80 283.48,461.14"/>
    <polyline points="283.48,461.14 277.41,461.52 271.76,462.63 266.91,464.40 263.18,466.71 260.84,469.39 260.04,472.27 260.84,475.15 263.18,477.84 266.91,480.14 271.76,481.91 277.41,483.02 283.48,483.40"/>
    <polyline points="318.76,483.40 314.69,483.08 310.74,482.13 307.04,480.59 303.70,478.49 300.81,475.90 298.46,472.90 296.74,469.58 295.68,466.05 295.32,462.40 295.68,458.75 296.74,455.22 298.46,451.90 300.81,448.90 303.70,446.31 307.04,444.21 310.74,442.67 314.69,441.72 318.76,441.40"/>
    <polyline points="307.63,489.70 307.08,491.04 305.74,491.59 304.40,491.04 303.85,489.70 304.40,488.36 305.74,487.81 307.08,488.36 307.63,489.70"/>
    <polyline points="380.08,441.40 380.08,480.71 380.01,481.31 379.81,481.88 379.49,482.39 379.07,482.81 378.56,483.13 377.99,483.33 377.39,483.40"/>
    <polyline points="380.08,441.40 354.04,441.40 353.20,443.82"/>
    <polyline points="402.34,441.40 402.34,480.71 402.41,481.31 402.61,481.88 402.93,482.39 403.35,482.81 403.86,483.13 404.43,483.33 405.03,483.40"/>
    <polyline points="402.34,441.40 405.37,441.74 408.20,442.72 410.63,444.29 412.49,446.34 413.66,448.72 414.06,451.27 413.66,453.82 412.49,456.21 410.63,458.25 408.20,459.82 405.37,460.80 402.34,461.14"/>
    <polyline points="402.34,461.14 405.37,461.52 408.20,462.63 410.63,464.40 412.49,466.71 413.66,469.39 414.06,472.27 413.66,475.15 412.49,477.84 410.63,480.14 408.20,481.91 405.37,483.02 402.34,483.40"/>
    <polyline points="398.17,437.20 406.51,434.68"/>
    <polyline points="437.62,441.40 437.62,480.71 437.55,481.31 437.35,481.88 437.03,482.39 436.61,482.81 436.10,483.13 435.53,483.33 434.93,483.40"/>
    <polyline points="426.68,461.14 448.56,461.14"/>
    <polyline points="485.92,483.40 481.85,483.08 477.90,482.13 474.20,480.59 470.86,478.49 467.97,475.90 465.62,472.90 463.90,469.58 462.84,466.05 462.48,462.40 462.84,458.75 463.90,455.22 465.62,451.90 467.97,448.90 470.86,446.31 474.20,444.21 477.90,442.67 481.85,441.72 485.92,441.40"/>
    <polyline points="474.79,489.70 474.24,491.04 472.90,491.59 471.56,491.04 471.01,489.70 471.56,488.36 472.90,487.81 474.24,488.36 474.79,489.70"/>
    <polyline points="495.16,441.40 495.16,483.40"/>
    <polyline points="55.00,517.00 57.89,520.31 60.64,523.65 63.27,527.03 65.76,530.44 68.13,533.89 70.36,537.37 72.47,540.89 74.44,544.44 76.29,548.03 78.00,551.65 79.59,555.31 81.04,559.00"/>
    <polyline points="55.00,517.00 81.04,517.00 81.88,519.42"/>
    <polyline points="55.00,559.00 75.83,559.00"/>
    <polyline points="69.91,511.54 69.36,512.88 68.02,513.43 66.68,512.88 66.13,511.54 66.68,510.20 68.02,509.65 69.36,510.20 69.91,511.54"/>
    <polyline points="116.32,559.00 112.25,558.68 108.30,557.73 104.60,556.19 101.26,554.09 98.37,551.50 96.02,548.50 94.30,545.18 93.24,541.65 92.88,538.00 93.24,534.35 94.30,530.82 96.02,527.50 98.37,524.50 101.26,521.91 104.60,519.81 108.30,518.27 112.25,517.32 116.32,517.00"/>
    <polyline points="105.19,565.30 104.64,566.64 103.30,567.19 101.96,566.64 101.41,565.30 101.96,563.96 103.30,563.41 104.64,563.96 105.19,565.30"/>
    <polyline points="138.58,517.00 138.58,556.31 138.65,556.91 138.85,557.48 139.17,557.99 139.59,558.41 140.10,558.73 140.67,558.93 141.27,559.00"/>
    <polyline points="138.58,517.00 141.61,517.34 144.44,518.32 146.87,519.89 148.73,521.94 149.90,524.32 150.30,526.87 149.90,529.42 148.73,531.81 146.87,533.85 144.44,535.42 141.61,536.40 138.58,536.74"/>
    <polyline points="138.58,536.74 141.61,537.12 144.44,538.23 146.87,540.00 148.73,542.31 149.90,544.99 150.30,547.87 149.90,550.75 148.73,553.44 146.87,555.74 144.44,557.51 141.61,558.62 138.58,559.00"/>
    <polyline points="134.41,512.80 142.75,510.28"/>
    <polyline points="160.84,517.00 160.84,556.31 160.91,556.91 161.11,557.48 161.43,557.99 161.85,558.41 162.36,558.73 162.93,558.93 163.53,559.00"/>
    <polyline points="160.84,517.00 186.88,517.00 187.72,519.42"/>
    <polyline points="160.84,536.74 166.91,537.12 172.56,538.23 177.41,540.00 181.14,542.31 183.48,544.99 184.28,547.87 183.48,550.75 181.14,553.44 177.41,555.74 172.56,557.51 166.91,558.62 160.84,559.00"/>
    <polyline points="175.75,565.30 175.20,566.64 173.86,567.19 172.52,566.64 171.97,565.30 172.52,563.96 173.86,563.41 175.20,563.96 175.75,565.30"/>
    <polyline points="222.16,538.00 221.78,542.93 220.67,547.56 218.89,551.65 216.54,554.94 213.76,557.24 210.71,558.43 207.57,558.43 204.52,557.24 201.74,554.94 199.39,551.65 197.61,547.56 196.50,542.93 196.12,538.00 196.50,533.07 197.61,528.44 199.39,524.35 201.74,521.06 204.52,518.76 207.57,517.57 210.71,517.57 213.76,518.76 216.54,521.06 218.89,524.35 220.67,528.44 221.78,533.07 222.16,538.00"/>
    <polyline points="212.29,538.00 211.69,539.85 210.11,541.00 208.17,541.00 206.59,539.85 205.99,538.00 206.59,536.15 208.17,535.00 210.11,535.00 211.69,536.15 212.29,538.00"/>
    <polyline points="211.03,511.54 210.48,512.88 209.14,513.43 207.80,512.88 207.25,511.54 207.80,510.20 209.14,509.65 210.48,510.20 211.03,511.54"/>
    <polyline points="231.40,517.00 235.47,517.32 239.42,518.27 243.12,519.81 246.46,521.91 249.35,524.50 251.70,527.50 253.42,530.82 254.48,534.35 254.84,538.00 254.48,541.65 253.42,545.18 251.70,548.50 249.35,551.50 246.46,554.09 243.12,556.19 239.42,557.73 235.47,558.68 231.40,559.00"/>
    <polyline points="247.57,538.00 246.97,539.85 245.39,541.00 243.45,541.00 241.87,539.85 241.27,538.00 241.87,536.15 243.45,535.00 245.39,535.00 246.97,536.15 247.57,538.00"/>
    <polyline points="246.31,511.54 245.76,512.88 244.42,513.43 243.08,512.88 242.53,511.54 243.08,510.20 244.42,509.65 245.76,510.20 246.31,511.54"/>
    <polyline points="292.72,538.00 292.34,542.93 291.23,547.56 289.45,551.65 287.10,554.94 284.32,557.24 281.27,558.43 278.13,558.43 275.08,557.24 272.30,554.94 269.95,551.65 268.17,547.56 267.06,542.93 266.68,538.00 267.06,533.07 268.17,528.44 269.95,524.35 272.30,521.06 275.08,518.76 278.13,517.57 281.27,517.57 284.32,518.76 287.10,521.06 289.45,524.35 291.23,528.44 292.34,533.07 292.72,538.00"/>
    <polyline points="282.85,538.00 282.25,539.85 280.67,541.00 278.73,541.00 277.15,539.85 276.55,538.00 277.15,536.15 278.73,535.00 280.67,535.00 282.25,536.15 282.85,538.00"/>
    <polyline points="281.59,511.54 281.04,512.88 279.70,513.43 278.36,512.88 277.81,511.54 278.36,510.20 279.70,509.65 281.04,510.20 281.59,511.54"/>
    <polyline points="314.98,517.00 314.98,556.31 314.91,556.91 314.71,557.48 314.39,557.99 313.97,558.41 313.46,558.73 312.89,558.93 312.29,559.00"/>
    <polyline points="304.04,536.74 325.92,536.74"/>
    <polyline points="376.30,517.00 376.30,556.31 376.23,556.91 376.03,557.48 375.71,557.99 375.29,558.41 374.78,558.73 374.21,558.93 373.61,559.00"/>
    <polyline points="376.30,517.00 373.27,517.34 370.44,518.32 368.01,519.89 366.15,521.94 364.98,524.32 364.58,526.87 364.98,529.42 366.15,531.81 368.01,533.85 370.44,535.42 373.27,536.40 376.30,536.74"/>
    <polyline points="371.43,551.23 370.87,552.96 369.40,554.03 367.58,554.03 366.11,552.96 365.55,551.23 366.11,549.50 367.58,548.43 369.40,548.43 370.87,549.50 371.43,551.23"/>
    <polyline points="424.60,538.00 424.22,542.93 423.11,547.56 421.33,551.65 418.98,554.94 416.20,557.24 413.15,558.43 410.01,558.43 406.96,557.24 404.18,554.94 401.83,551.65 400.05,547.56 398.94,542.93 398.56,538.00 398.94,533.07 400.05,528.44 401.83,524.35 404.18,521.06 406.96,518.76 410.01,517.57 413.15,517.57 416.20,518.76 418.98,521.06 421.33,524.35 423.11,528.44 424.22,533.07 424.60,538.00"/>
    <polyline points="414.73,538.00 414.13,539.85 412.55,541.00 410.61,541.00 409.03,539.85 408.43,538.00 409.03,536.15 410.61,535.00 412.55,535.00 414.13,536.15 414.73,538.00"/>
    <polyline points="413.47,511.54 412.92,512.88 411.58,513.43 410.24,512.88 409.69,511.54 410.24,510.20 411.58,509.65 412.92,510.20 413.47,511.54"/>
    <polyline points="459.88,517.00 459.88,556.31 459.81,556.91 459.61,557.48 459.29,557.99 458.87,558.41 458.36,558.73 457.79,558.93 457.19,559.00"/>
    <polyline points="459.88,517.00 455.31,517.40 450.91,518.60 446.86,520.54 443.31,523.15 440.39,526.33 438.23,529.96 436.89,533.90 436.44,538.00 436.89,542.10 438.23,546.04 440.39,549.67 443.31,552.85 446.86,555.46 450.91,557.40 455.31,558.60 459.88,559.00"/>
    <polyline points="495.16,517.00 495.16,556.31 495.09,556.91 494.89,557.48 494.57,557.99 494.15,558.41 493.64,558.73 493.07,558.93 492.47,559.00"/>
    <polyline points="495.16,517.00 469.12,517.00 468.28,519.42"/>
    <polyline points="495.16,536.74 489.09,537.12 483.44,538.23 478.59,540.00 474.86,542.31 472.52,544.99 471.72,547.87 472.52,550.75 474.86,553.44 478.59,555.74 483.44,557.51 489.09,558.62 495.16,559.00"/>
    <polyline points="504.40,517.00 507.29,520.31 510.04,523.65 512.67,527.03 515.16,530.44 517.53,533.89 519.76,537.37 521.87,540.89 523.84,544.44 525.69,548.03 527.40,551.65 528.99,555.31 530.44,559.00"/>
    <polyline points="504.40,517.00 530.44,517.00 531.28,519.42"/>
    <polyline points="504.40,559.00 525.23,559.00"/>
    <polyline points="519.31,511.54 518.76,512.88 517.42,513.43 516.08,512.88 515.53,511.54 516.08,510.20 517.42,509.65 518.76,510.20 519.31,511.54"/>
    <polyline points="81.04,634.60 76.97,634.28 73.02,633.33 69.32,631.79 65.98,629.69 63.09,627.10 60.74,624.10 59.02,620.78 57.96,617.25 57.60,613.60 57.96,609.95 59.02,606.42 60.74,603.10 63.09,600.10 65.98,597.51 69.32,595.41 73.02,593.87 76.97,592.92 81.04,592.60"/>
    <polyline points="57.08,613.60 78.96,613.60"/>
    <polyline points="116.32,592.60 116.32,631.91 116.25,632.51 116.05,633.08 115.73,633.59 115.31,634.01 114.80,634.33 114.23,634.53 113.63,634.60"/>
    <polyline points="116.32,612.34 110.25,612.72 104.60,613.83 99.75,615.60 96.02,617.91 93.68,620.59 92.88,623.47 93.68,626.35 96.02,629.04 99.75,631.34 104.60,633.11 110.25,634.22 116.32,634.60"/>
    <polyline points="105.19,587.14 104.64,588.48 103.30,589.03 101.96,588.48 101.41,587.14 101.96,585.80 103.30,585.25 104.64,585.80 105.19,587.14"/>
    <polyline points="151.60,592.60 151.60,631.91 151.67,632.51 151.87,633.08 152.19,633.59 152.61,634.01 153.12,634.33 153.69,634.53 154.29,634.60"/>
    <polyline points="151.60,592.60 157.67,592.94 163.32,593.92 168.17,595.49 171.90,597.54 174.24,599.92 175.04,602.47 174.24,605.02 171.90,607.41 168.17,609.45 163.32,611.02 157.67,612.00 151.60,612.34"/>
    <polyline points="166.51,587.14 165.96,588.48 164.62,589.03 163.28,588.48 162.73,587.14 163.28,585.80 164.62,585.25 165.96,585.80 166.51,587.14"/>
    <polyline points="212.92,592.60 212.92,631.91 212.85,632.51 212.65,633.08 212.33,633.59 211.91,634.01 211.40,634.33 210.83,634.53 210.23,634.60"/>
    <polyline points="212.92,592.60 206.85,592.94 201.20,593.92 196.35,595.49 192.62,597.54 190.28,599.92 189.48,602.47 190.28,605.02 192.62,607.41 196.35,609.45 201.20,611.02 206.85,612.00 212.92,612.34"/>
    <polyline points="212.92,612.34 206.85,612.72 201.20,613.83 196.35,615.60 192.62,617.91 190.28,620.59 189.48,623.47 190.28,626.35 192.62,629.04 196.35,631.34 201.20,633.11 206.85,634.22 212.92,634.60"/>
    <polyline points="222.16,592.60 222.16,631.91 222.23,632.51 222.43,633.08 222.75,633.59 223.17,634.01 223.68,634.33 224.25,634.53 224.85,634.60"/>
    <polyline points="222.16,592.60 248.20,592.60 249.04,595.02"/>
    <polyline points="222.16,612.34 228.23,612.72 233.88,613.83 238.73,615.60 242.46,617.91 244.80,620.59 245.60,623.47 244.80,626.35 242.46,629.04 238.73,631.34 233.88,633.11 228.23,634.22 222.16,634.60"/>
    <polyline points="237.07,640.90 236.52,642.24 235.18,642.79 233.84,642.24 233.29,640.90 233.84,639.56 235.18,639.01 236.52,639.56 237.07,640.90"/>
    <polyline points="283.48,592.60 283.48,631.91 283.41,632.51 283.21,633.08 282.89,633.59 282.47,634.01 281.96,634.33 281.39,634.53 280.79,634.60"/>
    <polyline points="283.48,592.60 257.44,592.60 256.60,595.02"/>
    <polyline points="283.48,612.34 277.41,612.72 271.76,613.83 266.91,615.60 263.18,617.91 260.84,620.59 260.04,623.47 260.84,626.35 263.18,629.04 266.91,631.34 271.76,633.11 277.41,634.22 283.48,634.60"/>
    <polyline points="305.74,592.60 305.74,631.91 305.67,632.51 305.47,633.08 305.15,633.59 304.73,634.01 304.22,634.33 303.65,634.53 303.05,634.60"/>
    <polyline points="305.74,592.60 302.71,592.94 299.88,593.92 297.45,595.49 295.59,597.54 294.42,599.92 294.02,602.47 294.42,605.02 295.59,607.41 297.45,609.45 299.88,611.02 302.71,612.00 305.74,612.34"/>
    <polyline points="300.87,626.83 300.31,628.56 298.84,629.63 297.02,629.63 295.55,628.56 294.99,626.83 295.55,625.10 297.02,624.03 298.84,624.03 300.31,625.10 300.87,626.83"/>
    <polyline points="341.02,592.60 341.02,631.91 340.95,632.51 340.75,633.08 340.43,633.59 340.01,634.01 339.50,634.33 338.93,634.53 338.33,634.60"/>
    <polyline points="330.08,612.34 351.96,612.34"/>
    <polyline points="389.32,592.60 389.32,631.91 389.25,632.51 389.05,633.08 388.73,633.59 388.31,634.01 387.80,634.33 387.23,634.53 386.63,634.60"/>
    <polyline points="389.32,592.60 383.25,592.94 377.60,593.92 372.75,595.49 369.02,597.54 366.68,599.92 365.88,602.47 366.68,605.02 369.02,607.41 372.75,609.45 377.60,611.02 383.25,612.00 389.32,612.34"/>
    <polyline points="389.32,612.34 383.25,612.72 377.60,613.83 372.75,615.60 369.02,617.91 366.68,620.59 365.88,623.47 366.68,626.35 369.02,629.04 372.75,631.34 377.60,633.11 383.25,634.22 389.32,634.60"/>
    <polyline points="450.64,592.60 450.64,631.91 450.57,632.51 450.37,633.08 450.05,633.59 449.63,634.01 449.12,634.33 448.55,634.53 447.95,634.60"/>
    <polyline points="450.64,592.60 444.57,592.94 438.92,593.92 434.07,595.49 430.34,597.54 428.00,599.92 427.20,602.47 428.00,605.02 430.34,607.41 434.07,609.45 438.92,611.02 444.57,612.00 450.64,612.34"/>
    <polyline points="437.96,626.83 437.39,628.56 435.92,629.63 434.11,629.63 432.64,628.56 432.08,626.83 432.64,625.10 434.11,624.03 435.92,624.03 437.39,625.10 437.96,626.83"/>
    <polyline points="472.90,592.60 472.90,631.91 472.97,632.51 473.17,633.08 473.49,633.59 473.91,634.01 474.42,634.33 474.99,634.53 475.59,634.60"/>
    <polyline points="472.90,592.60 475.93,592.94 478.76,593.92 481.19,595.49 483.05,597.54 484.22,599.92 484.62,602.47 484.22,605.02 483.05,607.41 481.19,609.45 478.76,611.02 475.93,612.00 472.90,612.34"/>
    <polyline points="472.90,612.34 475.93,612.72 478.76,613.83 481.19,615.60 483.05,617.91 484.22,620.59 484.62,623.47 484.22,626.35 483.05,629.04 481.19,631.34 478.76,633.11 475.93,634.22 472.90,634.60"/>
    <polyline points="468.73,588.40 477.07,585.88"/>
    <polyline points="495.16,592.60 495.16,631.91 495.23,632.51 495.43,633.08 495.75,633.59 496.17,634.01 496.68,634.33 497.25,634.53 497.85,634.60"/>
    <polyline points="495.16,592.60 501.23,592.94 506.88,593.92 511.73,595.49 515.46,597.54 517.80,599.92 518.60,602.47 517.80,605.02 515.46,607.41 511.73,609.45 506.88,611.02 501.23,612.00 495.16,612.34"/>
    <polyline points="510.07,587.14 509.52,588.48 508.18,589.03 506.84,588.48 506.29,587.14 506.84,585.80 508.18,585.25 509.52,585.80 510.07,587.14"/>
    <polyline points="81.04,710.20 76.97,709.88 73.02,708.93 69.32,707.39 65.98,705.29 63.09,702.70 60.74,699.70 59.02,696.38 57.96,692.85 57.60,689.20 57.96,685.55 59.02,682.02 60.74,678.70 63.09,675.70 65.98,673.11 69.32,671.01 73.02,669.47 76.97,668.52 81.04,668.20"/>
    <polyline points="69.91,716.50 69.36,717.84 68.02,718.39 66.68,717.84 66.13,716.50 66.68,715.16 68.02,714.61 69.36,715.16 69.91,716.50"/>
    <polyline points="90.28,668.20 90.28,707.51 90.35,708.11 90.55,708.68 90.87,709.19 91.29,709.61 91.80,709.93 92.37,710.13 92.97,710.20"/>
    <polyline points="90.28,668.20 116.32,668.20 117.16,670.62"/>
    <polyline points="90.28,687.94 96.35,688.32 102.00,689.43 106.85,691.20 110.58,693.51 112.92,696.19 113.72,699.07 112.92,701.95 110.58,704.64 106.85,706.94 102.00,708.71 96.35,709.82 90.28,710.20"/>
    <polyline points="105.19,716.50 104.64,717.84 103.30,718.39 101.96,717.84 101.41,716.50 101.96,715.16 103.30,714.61 104.64,715.16 105.19,716.50"/>
    <polyline points="125.56,668.20 129.63,668.52 133.58,669.47 137.28,671.01 140.62,673.11 143.51,675.70 145.86,678.70 147.58,682.02 148.64,685.55 149.00,689.20 148.64,692.85 147.58,696.38 145.86,699.70 143.51,702.70 140.62,705.29 137.28,707.39 133.58,708.93 129.63,709.88 125.56,710.20"/>
    <polyline points="141.73,689.20 141.13,691.05 139.55,692.20 137.61,692.20 136.03,691.05 135.43,689.20 136.03,687.35 137.61,686.20 139.55,686.20 141.13,687.35 141.73,689.20"/>
    <polyline points="140.47,662.74 139.92,664.08 138.58,664.63 137.24,664.08 136.69,662.74 137.24,661.40 138.58,660.85 139.92,661.40 140.47,662.74"/>
    <polyline points="173.86,668.20 173.86,707.51 173.93,708.11 174.13,708.68 174.45,709.19 174.87,709.61 175.38,709.93 175.95,710.13 176.55,710.20"/>
    <polyline points="173.86,668.20 176.89,668.54 179.72,669.52 182.15,671.09 184.01,673.14 185.18,675.52 185.58,678.07 185.18,680.62 184.01,683.01 182.15,685.05 179.72,686.62 176.89,687.60 173.86,687.94"/>
    <polyline points="173.86,687.94 176.89,688.32 179.72,689.43 182.15,691.20 184.01,693.51 185.18,696.19 185.58,699.07 185.18,701.95 184.01,704.64 182.15,706.94 179.72,708.71 176.89,709.82 173.86,710.20"/>
    <polyline points="169.69,664.00 178.03,661.48"/>
    <polyline points="196.12,668.20 199.01,671.51 201.76,674.85 204.39,678.23 206.88,681.64 209.25,685.09 211.48,688.57 213.59,692.09 215.56,695.64 217.41,699.23 219.12,702.85 220.71,706.51 222.16,710.20"/>
    <polyline points="196.12,668.20 222.16,668.20 223.00,670.62"/>
    <polyline points="196.12,710.20 216.95,710.20"/>
    <polyline points="211.03,662.74 210.48,664.08 209.14,664.63 207.80,664.08 207.25,662.74 207.80,661.40 209.14,660.85 210.48,661.40 211.03,662.74"/>
    <polyline points="257.44,668.20 257.44,707.51 257.37,708.11 257.17,708.68 256.85,709.19 256.43,709.61 255.92,709.93 255.35,710.13 254.75,710.20"/>
    <polyline points="257.44,687.94 251.37,688.32 245.72,689.43 240.87,691.20 237.14,693.51 234.80,696.19 234.00,699.07 234.80,701.95 237.14,704.64 240.87,706.94 245.72,708.71 251.37,709.82 257.44,710.20"/>
    <polyline points="246.31,662.74 245.76,664.08 244.42,664.63 243.08,664.08 242.53,662.74 243.08,661.40 244.42,660.85 245.76,661.40 246.31,662.74"/>
    <polyline points="270.25,708.52 269.82,709.56 268.78,709.99 267.74,709.56 267.31,708.52 267.74,707.48 268.78,707.05 269.82,707.48 270.25,708.52"/>
    <polyline points="331.36,668.20 331.36,707.51 331.29,708.11 331.09,708.68 330.77,709.19 330.35,709.61 329.84,709.93 329.27,710.13 328.67,710.20"/>
    <polyline points="331.36,668.20 325.29,668.54 319.64,669.52 314.79,671.09 311.06,673.14 308.72,675.52 307.92,678.07 308.72,680.62 311.06,683.01 314.79,685.05 319.64,686.62 325.29,687.60 331.36,687.94"/>
    <polyline points="318.68,702.43 318.11,704.16 316.64,705.23 314.83,705.23 313.36,704.16 312.80,702.43 313.36,700.70 314.83,699.63 316.64,699.63 318.11,700.70 318.68,702.43"/>
    <polyline points="366.64,668.20 366.64,707.51 366.57,708.11 366.37,708.68 366.05,709.19 365.63,709.61 365.12,709.93 364.55,710.13 363.95,710.20"/>
    <polyline points="366.64,668.20 340.60,668.20 339.76,670.62"/>
    <polyline points="366.64,687.94 360.57,688.32 354.92,689.43 350.07,691.20 346.34,693.51 344.00,696.19 343.20,699.07 344.00,701.95 346.34,704.64 350.07,706.94 354.92,708.71 360.57,709.82 366.64,710.20"/>
    <polyline points="401.92,689.20 401.54,694.13 400.43,698.76 398.65,702.85 396.30,706.14 393.52,708.44 390.47,709.63 387.33,709.63 384.28,708.44 381.50,706.14 379.15,702.85 377.37,698.76 376.26,694.13 375.88,689.20 376.26,684.27 377.37,679.64 379.15,675.55 381.50,672.26 384.28,669.96 387.33,668.77 390.47,668.77 393.52,669.96 396.30,672.26 398.65,675.55 400.43,679.64 401.54,684.27 401.92,689.20"/>
    <polyline points="388.90,668.20 388.90,710.20"/>
    <polyline points="437.20,710.20 433.13,709.88 429.18,708.93 425.48,707.39 422.14,705.29 419.25,702.70 416.90,699.70 415.18,696.38 414.12,692.85 413.76,689.20 414.12,685.55 415.18,682.02 416.90,678.70 419.25,675.70 422.14,673.11 425.48,671.01 429.18,669.47 433.13,668.52 437.20,668.20"/>
    <polyline points="426.07,716.50 425.52,717.84 424.18,718.39 422.84,717.84 422.29,716.50 422.84,715.16 424.18,714.61 425.52,715.16 426.07,716.50"/>
    <polyline points="472.48,668.20 472.48,707.51 472.41,708.11 472.21,708.68 471.89,709.19 471.47,709.61 470.96,709.93 470.39,710.13 469.79,710.20"/>
    <polyline points="472.48,668.20 466.41,668.54 460.76,669.52 455.91,671.09 452.18,673.14 449.84,675.52 449.04,678.07 449.84,680.62 452.18,683.01 455.91,685.05 460.76,686.62 466.41,687.60 472.48,687.94"/>
    <polyline points="459.80,702.43 459.23,704.16 457.76,705.23 455.95,705.23 454.48,704.16 453.92,702.43 454.48,700.70 455.95,699.63 457.76,699.63 459.23,700.70 459.80,702.43"/>
    <polyline points="507.76,710.20 503.69,709.88 499.74,708.93 496.04,707.39 492.70,705.29 489.81,702.70 487.46,699.70 485.74,696.38 484.68,692.85 484.32,689.20 484.68,685.55 485.74,682.02 487.46,678.70 489.81,675.70 492.70,673.11 496.04,671.01 499.74,669.47 503.69,668.52 507.76,668.20"/>
    <polyline points="496.63,716.50 496.08,717.84 494.74,718.39 493.40,717.84 492.85,716.50 493.40,715.16 494.74,714.61 496.08,715.16 496.63,716.50"/>
  </g>
</svg>