<?xml version="1.0" encoding="UTF-8"?>
<!-- LIPI PANEL SERIES 6/7 · seed 7 · A1 594x841mm · text continues from panel 5 -->
<svg xmlns="http://www.w3.org/2000/svg" width="594mm" height="841mm" viewBox="0 0 594 841">
  <g fill="none" stroke="#000000" stroke-width="1" stroke-linecap="round" stroke-linejoin="round">
    <polyline points="81.04,105.40 76.97,105.08 73.02,104.13 69.32,102.59 65.98,100.49 63.09,97.90 60.74,94.90 59.02,91.58 57.96,88.05 57.60,84.40 57.96,80.75 59.02,77.22 60.74,73.90 63.09,70.90 65.98,68.31 69.32,66.21 73.02,64.67 76.97,63.72 81.04,63.40"/>
    <polyline points="57.08,84.40 78.96,84.40"/>
    <polyline points="116.32,63.40 120.39,63.72 124.34,64.67 128.04,66.21 131.38,68.31 134.27,70.90 136.62,73.90 138.34,77.22 139.40,80.75 139.76,84.40 139.40,88.05 138.34,91.58 136.62,94.90 134.27,97.90 131.38,100.49 128.04,102.59 124.34,104.13 120.39,105.08 116.32,105.40"/>
    <polyline points="132.49,84.40 131.89,86.25 130.31,87.40 128.37,87.40 126.79,86.25 126.19,84.40 126.79,82.55 128.37,81.40 130.31,81.40 131.89,82.55 132.49,84.40"/>
    <polyline points="131.23,57.94 130.68,59.28 129.34,59.83 128.00,59.28 127.45,57.94 128.00,56.60 129.34,56.05 130.68,56.60 131.23,57.94"/>
    <polyline points="177.64,63.40 177.64,102.71 177.57,103.31 177.37,103.88 177.05,104.39 176.63,104.81 176.12,105.13 175.55,105.33 174.95,105.40"/>
    <polyline points="177.64,63.40 171.57,63.74 165.92,64.72 161.07,66.29 157.34,68.33 155.00,70.72 154.20,73.27 155.00,75.82 157.34,78.20 161.07,80.25 165.92,81.82 171.57,82.80 177.64,83.14"/>
    <polyline points="164.96,97.63 164.39,99.36 162.92,100.43 161.11,100.43 159.64,99.36 159.08,97.63 159.64,95.90 161.11,94.83 162.92,94.83 164.39,95.90 164.96,97.63"/>
    <polyline points="199.90,63.40 199.90,102.71 199.97,103.31 200.17,103.88 200.49,104.39 200.91,104.81 201.42,105.13 201.99,105.33 202.59,105.40"/>
    <polyline points="199.90,63.40 202.93,63.74 205.76,64.72 208.19,66.29 210.05,68.33 211.22,70.72 211.62,73.27 211.22,75.82 210.05,78.20 208.19,80.25 205.76,81.82 202.93,82.80 199.90,83.14"/>
    <polyline points="199.90,83.14 202.93,83.52 205.76,84.63 208.19,86.40 210.05,88.70 211.22,91.39 211.62,94.27 211.22,97.15 210.05,99.83 208.19,102.14 205.76,103.91 202.93,105.02 199.90,105.40"/>
    <polyline points="195.73,59.20 204.07,56.68"/>
    <polyline points="235.18,63.40 235.18,102.71 235.11,103.31 234.91,103.88 234.59,104.39 234.17,104.81 233.66,105.13 233.09,105.33 232.49,105.40"/>
    <polyline points="224.24,83.14 246.12,83.14"/>
    <polyline points="257.44,63.40 261.51,63.72 265.46,64.67 269.16,66.21 272.50,68.31 275.39,70.90 277.74,73.90 279.46,77.22 280.52,80.75 280.88,84.40 280.52,88.05 279.46,91.58 277.74,94.90 275.39,97.90 272.50,100.49 269.16,102.59 265.46,104.13 261.51,105.08 257.44,105.40"/>
    <polyline points="273.61,84.40 273.01,86.25 271.43,87.40 269.49,87.40 267.91,86.25 267.31,84.40 267.91,82.55 269.49,81.40 271.43,81.40 273.01,82.55 273.61,84.40"/>
    <polyline points="272.35,57.94 271.80,59.28 270.46,59.83 269.12,59.28 268.57,57.94 269.12,56.60 270.46,56.05 271.80,56.60 272.35,57.94"/>
    <polyline points="318.76,84.40 318.38,89.33 317.27,93.96 315.49,98.05 313.14,101.34 310.36,103.64 307.31,104.83 304.17,104.83 301.12,103.64 298.34,101.34 295.99,98.05 294.21,93.96 293.10,89.33 292.72,84.40 293.10,79.47 294.21,74.84 295.99,70.75 298.34,67.46 301.12,65.16 304.17,63.97 307.31,63.97 310.36,65.16 313.14,67.46 315.49,70.75 317.27,74.84 318.38,79.47 318.76,84.40"/>
    <polyline points="308.89,84.40 308.29,86.25 306.71,87.40 304.77,87.40 303.19,86.25 302.59,84.40 303.19,82.55 304.77,81.40 306.71,81.40 308.29,82.55 308.89,84.40"/>
    <polyline points="307.63,57.94 307.08,59.28 305.74,59.83 304.40,59.28 303.85,57.94 304.40,56.60 305.74,56.05 307.08,56.60 307.63,57.94"/>
    <polyline points="341.02,63.40 341.02,102.71 341.09,103.31 341.29,103.88 341.61,104.39 342.03,104.81 342.54,105.13 343.11,105.33 343.71,105.40"/>
    <polyline points="341.02,63.40 344.05,63.74 346.88,64.72 349.31,66.29 351.17,68.33 352.34,70.72 352.74,73.27 352.34,75.82 351.17,78.20 349.31,80.25 346.88,81.82 344.05,82.80 341.02,83.14"/>
    <polyline points="341.02,83.14 344.05,83.52 346.88,84.63 349.31,86.40 351.17,88.70 352.34,91.39 352.74,94.27 352.34,97.15 351.17,99.83 349.31,102.14 346.88,103.91 344.05,105.02 341.02,105.40"/>
    <polyline points="336.85,59.20 345.19,56.68"/>
    <polyline points="363.28,63.40 363.28,102.71 363.35,103.31 363.55,103.88 363.87,104.39 364.29,104.81 364.80,105.13 365.37,105.33 365.97,105.40"/>
    <polyline points="363.28,63.40 369.35,63.74 375.00,64.72 379.85,66.29 383.58,68.33 385.92,70.72 386.72,73.27 385.92,75.82 383.58,78.20 379.85,80.25 375.00,81.82 369.35,82.80 363.28,83.14"/>
    <polyline points="378.19,57.94 377.64,59.28 376.30,59.83 374.96,59.28 374.41,57.94 374.96,56.60 376.30,56.05 377.64,56.60 378.19,57.94"/>
    <polyline points="398.56,63.40 402.63,63.72 406.58,64.67 410.28,66.21 413.62,68.31 416.51,70.90 418.86,73.90 420.58,77.22 421.64,80.75 422.00,84.40 421.64,88.05 420.58,91.58 418.86,94.90 416.51,97.90 413.62,100.49 410.28,102.59 406.58,104.13 402.63,105.08 398.56,105.40"/>
    <polyline points="414.73,84.40 414.13,86.25 412.55,87.40 410.61,87.40 409.03,86.25 408.43,84.40 409.03,82.55 410.61,81.40 412.55,81.40 414.13,82.55 414.73,84.40"/>
    <polyline points="413.47,57.94 412.92,59.28 411.58,59.83 410.24,59.28 409.69,57.94 410.24,56.60 411.58,56.05 412.92,56.60 413.47,57.94"/>
    <polyline points="459.88,63.40 459.88,102.71 459.81,103.31 459.61,103.88 459.29,104.39 458.87,104.81 458.36,105.13 457.79,105.33 457.19,105.40"/>
    <polyline points="459.88,63.40 433.84,63.40 433.00,65.82"/>
    <polyline points="459.88,83.14 453.81,83.52 448.16,84.63 443.31,86.40 439.58,88.70 437.24,91.39 436.44,94.27 437.24,97.15 439.58,99.83 443.31,102.14 448.16,103.91 453.81,105.02 459.88,105.40"/>
    <polyline points="495.16,84.40 494.78,89.33 493.67,93.96 491.89,98.05 489.54,101.34 486.76,103.64 483.71,104.83 480.57,104.83 477.52,103.64 474.74,101.34 472.39,98.05 470.61,93.96 469.50,89.33 469.12,84.40 469.50,79.47 470.61,74.84 472.39,70.75 474.74,67.46 477.52,65.16 480.57,63.97 483.71,63.97 486.76,65.16 489.54,67.46 491.89,70.75 493.67,74.84 494.78,79.47 495.16,84.40"/>
    <polyline points="485.29,84.40 484.69,86.25 483.11,87.40 481.17,87.40 479.59,86.25 478.99,84.40 479.59,82.55 481.17,81.40 483.11,81.40 484.69,82.55 485.29,84.40"/>
    <polyline points="484.03,57.94 483.48,59.28 482.14,59.83 480.80,59.28 480.25,57.94 480.80,56.60 482.14,56.05 483.48,56.60 484.03,57.94"/>
    <polyline points="504.40,63.40 504.40,105.40"/>
    <polyline points="55.00,139.00 55.00,178.31 55.07,178.91 55.27,179.48 55.59,179.99 56.01,180.41 56.52,180.73 57.09,180.93 57.69,181.00"/>
    <polyline points="55.00,139.00 81.04,139.00 81.88,141.42"/>
    <polyline points="55.00,158.74 61.07,159.12 66.72,160.23 71.57,162.00 75.30,164.31 77.64,166.99 78.44,169.87 77.64,172.75 75.30,175.44 71.57,177.74 66.72,179.51 61.07,180.62 55.00,181.00"/>
    <polyline points="69.91,187.30 69.36,188.64 68.02,189.19 66.68,188.64 66.13,187.30 66.68,185.96 68.02,185.41 69.36,185.96 69.91,187.30"/>
    <polyline points="116.32,181.00 112.25,180.68 108.30,179.73 104.60,178.19 101.26,176.09 98.37,173.50 96.02,170.50 94.30,167.18 93.24,163.65 92.88,160.00 93.24,156.35 94.30,152.82 96.02,149.50 98.37,146.50 101.26,143.91 104.60,141.81 108.30,140.27 112.25,139.32 116.32,139.00"/>
    <polyline points="105.19,187.30 104.64,188.64 103.30,189.19 101.96,188.64 101.41,187.30 101.96,185.96 103.30,185.41 104.64,185.96 105.19,187.30"/>
    <polyline points="138.58,139.00 138.58,178.31 138.65,178.91 138.85,179.48 139.17,179.99 139.59,180.41 140.10,180.73 140.67,180.93 141.27,181.00"/>
    <polyline points="138.58,139.00 141.61,139.34 144.44,140.32 146.87,141.89 148.73,143.94 149.90,146.32 150.30,148.87 149.90,151.42 148.73,153.81 146.87,155.85 144.44,157.42 141.61,158.40 138.58,158.74"/>
    <polyline points="138.58,158.74 141.61,159.12 144.44,160.23 146.87,162.00 148.73,164.31 149.90,166.99 150.30,169.87 149.90,172.75 148.73,175.44 146.87,177.74 144.44,179.51 141.61,180.62 138.58,181.00"/>
    <polyline points="134.41,134.80 142.75,132.28"/>
    <polyline points="186.88,181.00 182.81,180.68 178.86,179.73 175.16,178.19 171.82,176.09 168.93,173.50 166.58,170.50 164.86,167.18 163.80,163.65 163.44,160.00 163.80,156.35 164.86,152.82 166.58,149.50 168.93,146.50 171.82,143.91 175.16,141.81 178.86,140.27 182.81,139.32 186.88,139.00"/>
    <polyline points="162.92,160.00 184.80,160.00"/>
    <polyline points="196.12,139.00 200.19,139.32 204.14,140.27 207.84,141.81 211.18,143.91 214.07,146.50 216.42,149.50 218.14,152.82 219.20,156.35 219.56,160.00 219.20,163.65 218.14,167.18 216.42,170.50 214.07,173.50 211.18,176.09 207.84,178.19 204.14,179.73 200.19,180.68 196.12,181.00"/>
    <polyline points="212.29,160.00 211.69,161.85 210.11,163.00 208.17,163.00 206.59,161.85 205.99,160.00 206.59,158.15 208.17,157.00 210.11,157.00 211.69,158.15 212.29,160.00"/>
    <polyline points="211.03,133.54 210.48,134.88 209.14,135.43 207.80,134.88 207.25,133.54 207.80,132.20 209.14,131.65 210.48,132.20 211.03,133.54"/>
    <polyline points="257.44,160.00 257.06,164.93 255.95,169.56 254.17,173.65 251.82,176.94 249.04,179.24 245.99,180.43 242.85,180.43 239.80,179.24 237.02,176.94 234.67,173.65 232.89,169.56 231.78,164.93 231.40,160.00 231.78,155.07 232.89,150.44 234.67,146.35 237.02,143.06 239.80,140.76 242.85,139.57 245.99,139.57 249.04,140.76 251.82,143.06 254.17,146.35 255.95,150.44 257.06,155.07 257.44,160.00"/>
    <polyline points="247.57,160.00 246.97,161.85 245.39,163.00 243.45,163.00 241.87,161.85 241.27,160.00 241.87,158.15 243.45,157.00 245.39,157.00 246.97,158.15 247.57,160.00"/>
    <polyline points="246.31,133.54 245.76,134.88 244.42,135.43 243.08,134.88 242.53,133.54 243.08,132.20 244.42,131.65 245.76,132.20 246.31,133.54"/>
    <polyline points="279.70,139.00 279.70,178.31 279.63,178.91 279.43,179.48 279.11,179.99 278.69,180.41 278.18,180.73 277.61,180.93 277.01,181.00"/>
    <polyline points="268.76,158.74 290.64,158.74"/>
    <polyline points="354.04,181.00 349.97,180.68 346.02,179.73 342.32,178.19 338.98,176.09 336.09,173.50 333.74,170.50 332.02,167.18 330.96,163.65 330.60,160.00 330.96,156.35 332.02,152.82 333.74,149.50 336.09,146.50 338.98,143.91 342.32,141.81 346.02,140.27 349.97,139.32 354.04,139.00"/>
    <polyline points="342.91,187.30 342.36,188.64 341.02,189.19 339.68,188.64 339.13,187.30 339.68,185.96 341.02,185.41 342.36,185.96 342.91,187.30"/>
    <polyline points="363.28,139.00 363.28,178.31 363.35,178.91 363.55,179.48 363.87,179.99 364.29,180.41 364.80,180.73 365.37,180.93 365.97,181.00"/>
    <polyline points="363.28,139.00 389.32,139.00 390.16,141.42"/>
    <polyline points="398.56,139.00 398.56,178.31 398.63,178.91 398.83,179.48 399.15,179.99 399.57,180.41 400.08,180.73 400.65,180.93 401.25,181.00"/>
    <polyline points="398.56,139.00 404.63,139.34 410.28,140.32 415.13,141.89 418.86,143.94 421.20,146.32 422.00,148.87 421.20,151.42 418.86,153.81 415.13,155.85 410.28,157.42 404.63,158.40 398.56,158.74"/>
    <polyline points="413.47,133.54 412.92,134.88 411.58,135.43 410.24,134.88 409.69,133.54 410.24,132.20 411.58,131.65 412.92,132.20 413.47,133.54"/>
    <polyline points="459.88,181.00 455.81,180.68 451.86,179.73 448.16,178.19 444.82,176.09 441.93,173.50 439.58,170.50 437.86,167.18 436.80,163.65 436.44,160.00 436.80,156.35 437.86,152.82 439.58,149.50 441.93,146.50 444.82,143.91 448.16,141.81 451.86,140.27 455.81,139.32 459.88,139.00"/>
    <polyline points="448.75,187.30 448.20,188.64 446.86,189.19 445.52,188.64 444.97,187.30 445.52,185.96 446.86,185.41 448.20,185.96 448.75,187.30"/>
    <polyline points="495.16,160.00 494.78,164.93 493.67,169.56 491.89,173.65 489.54,176.94 486.76,179.24 483.71,180.43 480.57,180.43 477.52,179.24 474.74,176.94 472.39,173.65 470.61,169.56 469.50,164.93 469.12,160.00 469.50,155.07 470.61,150.44 472.39,146.35 474.74,143.06 477.52,140.76 480.57,139.57 483.71,139.57 486.76,140.76 489.54,143.06 491.89,146.35 493.67,150.44 494.78,155.07 495.16,160.00"/>
    <polyline points="485.29,160.00 484.69,161.85 483.11,163.00 481.17,163.00 479.59,161.85 478.99,160.00 479.59,158.15 481.17,157.00 483.11,157.00 484.69,158.15 485.29,160.00"/>
    <polyline points="484.03,133.54 483.48,134.88 482.14,135.43 480.80,134.88 480.25,133.54 480.80,132.20 482.14,131.65 483.48,132.20 484.03,133.54"/>
    <polyline points="530.44,181.00 526.37,180.68 522.42,179.73 518.72,178.19 515.38,176.09 512.49,173.50 510.14,170.50 508.42,167.18 507.36,163.65 507.00,160.00 507.36,156.35 508.42,152.82 510.14,149.50 512.49,146.50 515.38,143.91 518.72,141.81 522.42,140.27 526.37,139.32 530.44,139.00"/>
    <polyline points="506.48,160.00 528.36,160.00"/>
    <polyline points="81.04,214.60 81.04,253.91 80.97,254.51 80.77,255.08 80.45,255.59 80.03,256.01 79.52,256.33 78.95,256.53 78.35,256.60"/>
    <polyline points="81.04,234.34 74.97,234.72 69.32,235.83 64.47,237.60 60.74,239.91 58.40,242.59 57.60,245.47 58.40,248.35 60.74,251.04 64.47,253.34 69.32,255.11 74.97,256.22 81.04,256.60"/>
    <polyline points="69.91,209.14 69.36,210.48 68.02,211.03 66.68,210.48 66.13,209.14 66.68,207.80 68.02,207.25 69.36,207.80 69.91,209.14"/>
    <polyline points="116.32,256.60 116.32,227.62 116.76,224.25 118.06,221.11 120.13,218.41 122.83,216.34 125.97,215.04 129.34,214.60 132.71,215.04 135.85,216.34 138.55,218.41 140.62,221.11 141.92,224.25 142.36,227.62 142.36,256.60"/>
    <polyline points="118.40,235.60 140.28,235.60"/>
    <polyline points="177.64,256.60 173.57,256.28 169.62,255.33 165.92,253.79 162.58,251.69 159.69,249.10 157.34,246.10 155.62,242.78 154.56,239.25 154.20,235.60 154.56,231.95 155.62,228.42 157.34,225.10 159.69,222.10 162.58,219.51 165.92,217.41 169.62,215.87 173.57,214.92 177.64,214.60"/>
    <polyline points="166.51,262.90 165.96,264.24 164.62,264.79 163.28,264.24 162.73,262.90 163.28,261.56 164.62,261.01 165.96,261.56 166.51,262.90"/>
    <polyline points="186.88,214.60 189.77,217.91 192.52,221.25 195.15,224.63 197.64,228.04 200.01,231.49 202.24,234.97 204.35,238.49 206.32,242.04 208.17,245.63 209.88,249.25 211.47,252.91 212.92,256.60"/>
    <polyline points="203.05,235.60 202.45,237.45 200.87,238.60 198.93,238.60 197.35,237.45 196.75,235.60 197.35,233.75 198.93,232.60 200.87,232.60 202.45,233.75 203.05,235.60"/>
    <polyline points="201.79,209.14 201.24,210.48 199.90,211.03 198.56,210.48 198.01,209.14 198.56,207.80 199.90,207.25 201.24,207.80 201.79,209.14"/>
    <polyline points="248.20,214.60 248.20,253.91 248.13,254.51 247.93,255.08 247.61,255.59 247.19,256.01 246.68,256.33 246.11,256.53 245.51,256.60"/>
    <polyline points="248.20,214.60 222.16,214.60 221.32,217.02"/>
    <polyline points="248.20,234.34 242.13,234.72 236.48,235.83 231.63,237.60 227.90,239.91 225.56,242.59 224.76,245.47 225.56,248.35 227.90,251.04 231.63,253.34 236.48,255.11 242.13,256.22 248.20,256.60"/>
    <polyline points="283.48,235.60 283.10,240.53 281.99,245.16 280.21,249.25 277.86,252.54 275.08,254.84 272.03,256.03 268.89,256.03 265.84,254.84 263.06,252.54 260.71,249.25 258.93,245.16 257.82,240.53 257.44,235.60 257.82,230.67 258.93,226.04 260.71,221.95 263.06,218.66 265.84,216.36 268.89,215.17 272.03,215.17 275.08,216.36 277.86,218.66 280.21,221.95 281.99,226.04 283.10,230.67 283.48,235.60"/>
    <polyline points="273.61,235.60 273.01,237.45 271.43,238.60 269.49,238.60 267.91,237.45 267.31,235.60 267.91,233.75 269.49,232.60 271.43,232.60 273.01,233.75 273.61,235.60"/>
    <polyline points="272.35,209.14 271.80,210.48 270.46,211.03 269.12,210.48 268.57,209.14 269.12,207.80 270.46,207.25 271.80,207.80 272.35,209.14"/>
    <polyline points="318.76,256.60 314.69,256.28 310.74,255.33 307.04,253.79 303.70,251.69 300.81,249.10 298.46,246.10 296.74,242.78 295.68,239.25 295.32,235.60 295.68,231.95 296.74,228.42 298.46,225.10 300.81,222.10 303.70,219.51 307.04,217.41 310.74,215.87 314.69,214.92 318.76,214.60"/>
    <polyline points="294.80,235.60 316.68,235.60"/>
    <polyline points="354.04,214.60 354.04,253.91 354.11,254.51 354.31,255.08 354.63,255.59 355.05,256.01 355.56,256.33 356.13,256.53 356.73,256.60"/>
    <polyline points="354.04,214.60 360.11,214.94 365.76,215.92 370.61,217.49 374.34,219.54 376.68,221.92 377.48,224.47 376.68,227.02 374.34,229.41 370.61,231.45 365.76,233.02 360.11,234.00 354.04,234.34"/>
    <polyline points="368.95,209.14 368.40,210.48 367.06,211.03 365.72,210.48 365.17,209.14 365.72,207.80 367.06,207.25 368.40,207.80 368.95,209.14"/>
    <polyline points="415.36,214.60 415.36,253.91 415.29,254.51 415.09,255.08 414.77,255.59 414.35,256.01 413.84,256.33 413.27,256.53 412.67,256.60"/>
    <polyline points="415.36,214.60 409.29,214.94 403.64,215.92 398.79,217.49 395.06,219.54 392.72,221.92 391.92,224.47 392.72,227.02 395.06,229.41 398.79,231.45 403.64,233.02 409.29,234.00 415.36,234.34"/>
    <polyline points="415.36,234.34 409.29,234.72 403.64,235.83 398.79,237.60 395.06,239.91 392.72,242.59 391.92,245.47 392.72,248.35 395.06,251.04 398.79,253.34 403.64,255.11 409.29,256.22 415.36,256.60"/>
    <polyline points="450.64,256.60 446.57,256.28 442.62,255.33 438.92,253.79 435.58,251.69 432.69,249.10 430.34,246.10 428.62,242.78 427.56,239.25 427.20,235.60 427.56,231.95 428.62,228.42 430.34,225.10 432.69,222.10 435.58,219.51 438.92,217.41 442.62,215.87 446.57,214.92 450.64,214.60"/>
    <polyline points="439.51,262.90 438.96,264.24 437.62,264.79 436.28,264.24 435.73,262.90 436.28,261.56 437.62,261.01 438.96,261.56 439.51,262.90"/>
    <polyline points="511.96,214.60 511.96,253.91 511.89,254.51 511.69,255.08 511.37,255.59 510.95,256.01 510.44,256.33 509.87,256.53 509.27,256.60"/>
    <polyline points="511.96,214.60 485.92,214.60 485.08,217.02"/>
    <polyline points="68.02,290.20 68.02,329.51 68.09,330.11 68.29,330.68 68.61,331.19 69.03,331.61 69.54,331.93 70.11,332.13 70.71,332.20"/>
    <polyline points="68.02,290.20 71.05,290.54 73.88,291.52 76.31,293.09 78.17,295.14 79.34,297.52 79.74,300.07 79.34,302.62 78.17,305.01 76.31,307.05 73.88,308.62 71.05,309.60 68.02,309.94"/>
    <polyline points="68.02,309.94 71.05,310.32 73.88,311.43 76.31,313.20 78.17,315.51 79.34,318.19 79.74,321.07 79.34,323.95 78.17,326.64 76.31,328.94 73.88,330.71 71.05,331.82 68.02,332.20"/>
    <polyline points="63.85,286.00 72.19,283.48"/>
    <polyline points="103.30,290.20 103.30,329.51 103.23,330.11 103.03,330.68 102.71,331.19 102.29,331.61 101.78,331.93 101.21,332.13 100.61,332.20"/>
    <polyline points="92.36,309.94 114.24,309.94"/>
    <polyline points="151.60,332.20 147.53,331.88 143.58,330.93 139.88,329.39 136.54,327.29 133.65,324.70 131.30,321.70 129.58,318.38 128.52,314.85 128.16,311.20 128.52,307.55 129.58,304.02 131.30,300.70 133.65,297.70 136.54,295.11 139.88,293.01 143.58,291.47 147.53,290.52 151.60,290.20"/>
    <polyline points="140.47,338.50 139.92,339.84 138.58,340.39 137.24,339.84 136.69,338.50 137.24,337.16 138.58,336.61 139.92,337.16 140.47,338.50"/>
    <polyline points="160.84,290.20 160.84,332.20"/>
    <polyline points="205.78,290.20 208.67,293.51 211.42,296.85 214.05,300.23 216.54,303.64 218.91,307.09 221.14,310.57 223.25,314.09 225.22,317.64 227.07,321.23 228.78,324.85 230.37,328.51 231.82,332.20"/>
    <polyline points="205.78,290.20 231.82,290.20 232.66,292.62"/>
    <polyline points="205.78,332.20 226.61,332.20"/>
    <polyline points="220.69,284.74 220.14,286.08 218.80,286.63 217.46,286.08 216.91,284.74 217.46,283.40 218.80,282.85 220.14,283.40 220.69,284.74"/>
    <polyline points="267.10,332.20 263.03,331.88 259.08,330.93 255.38,329.39 252.04,327.29 249.15,324.70 246.80,321.70 245.08,318.38 244.02,314.85 243.66,311.20 244.02,307.55 245.08,304.02 246.80,300.70 249.15,297.70 252.04,295.11 255.38,293.01 259.08,291.47 263.03,290.52 267.10,290.20"/>
    <polyline points="255.97,338.50 255.42,339.84 254.08,340.39 252.74,339.84 252.19,338.50 252.74,337.16 254.08,336.61 255.42,337.16 255.97,338.50"/>
    <polyline points="289.36,290.20 289.36,329.51 289.43,330.11 289.63,330.68 289.95,331.19 290.37,331.61 290.88,331.93 291.45,332.13 292.05,332.20"/>
    <polyline points="289.36,290.20 292.39,290.54 295.22,291.52 297.65,293.09 299.51,295.14 300.68,297.52 301.08,300.07 300.68,302.62 299.51,305.01 297.65,307.05 295.22,308.62 292.39,309.60 289.36,309.94"/>
    <polyline points="289.36,309.94 292.39,310.32 295.22,311.43 297.65,313.20 299.51,315.51 300.68,318.19 301.08,321.07 300.68,323.95 299.51,326.64 297.65,328.94 295.22,330.71 292.39,331.82 289.36,332.20"/>
    <polyline points="285.19,286.00 293.53,283.48"/>
    <polyline points="311.62,290.20 311.62,329.51 311.69,330.11 311.89,330.68 312.21,331.19 312.63,331.61 313.14,331.93 313.71,332.13 314.31,332.20"/>
    <polyline points="311.62,290.20 337.66,290.20 338.50,292.62"/>
    <polyline points="311.62,309.94 317.69,310.32 323.34,311.43 328.19,313.20 331.92,315.51 334.26,318.19 335.06,321.07 334.26,323.95 331.92,326.64 328.19,328.94 323.34,330.71 317.69,331.82 311.62,332.20"/>
    <polyline points="326.53,338.50 325.98,339.84 324.64,340.39 323.30,339.84 322.75,338.50 323.30,337.16 324.64,336.61 325.98,337.16 326.53,338.50"/>
    <polyline points="372.94,311.20 372.56,316.13 371.45,320.76 369.67,324.85 367.32,328.14 364.54,330.44 361.49,331.63 358.35,331.63 355.30,330.44 352.52,328.14 350.17,324.85 348.39,320.76 347.28,316.13 346.90,311.20 347.28,306.27 348.39,301.64 350.17,297.55 352.52,294.26 355.30,291.96 358.35,290.77 361.49,290.77 364.54,291.96 367.32,294.26 369.67,297.55 371.45,301.64 372.56,306.27 372.94,311.20"/>
    <polyline points="363.07,311.20 362.47,313.05 360.89,314.20 358.95,314.20 357.37,313.05 356.77,311.20 357.37,309.35 358.95,308.20 360.89,308.20 362.47,309.35 363.07,311.20"/>
    <polyline points="361.81,284.74 361.26,286.08 359.92,286.63 358.58,286.08 358.03,284.74 358.58,283.40 359.92,282.85 361.26,283.40 361.81,284.74"/>
    <polyline points="382.18,290.20 386.25,290.52 390.20,291.47 393.90,293.01 397.24,295.11 400.13,297.70 402.48,300.70 404.20,304.02 405.26,307.55 405.62,311.20 405.26,314.85 404.20,318.38 402.48,321.70 400.13,324.70 397.24,327.29 393.90,329.39 390.20,330.93 386.25,331.88 382.18,332.20"/>
    <polyline points="398.35,311.20 397.75,313.05 396.17,314.20 394.23,314.20 392.65,313.05 392.05,311.20 392.65,309.35 394.23,308.20 396.17,308.20 397.75,309.35 398.35,311.20"/>
    <polyline points="397.09,284.74 396.54,286.08 395.20,286.63 393.86,286.08 393.31,284.74 393.86,283.40 395.20,282.85 396.54,283.40 397.09,284.74"/>
    <polyline points="443.50,311.20 443.12,316.13 442.01,320.76 440.23,324.85 437.88,328.14 435.10,330.44 432.05,331.63 428.91,331.63 425.86,330.44 423.08,328.14 420.73,324.85 418.95,320.76 417.84,316.13 417.46,311.20 417.84,306.27 418.95,301.64 420.73,297.55 423.08,294.26 425.86,291.96 428.91,290.77 432.05,290.77 435.10,291.96 437.88,294.26 440.23,297.55 442.01,301.64 443.12,306.27 443.50,311.20"/>
    <polyline points="433.63,311.20 433.03,313.05 431.45,314.20 429.51,314.20 427.93,313.05 427.33,311.20 427.93,309.35 429.51,308.20 431.45,308.20 433.03,309.35 433.63,311.20"/>
    <polyline points="432.37,284.74 431.82,286.08 430.48,286.63 429.14,286.08 428.59,284.74 429.14,283.40 430.48,282.85 431.82,283.40 432.37,284.74"/>
    <polyline points="465.76,290.20 465.76,329.51 465.69,330.11 465.49,330.68 465.17,331.19 464.75,331.61 464.24,331.93 463.67,332.13 463.07,332.20"/>
    <polyline points="454.82,309.94 476.70,309.94"/>
    <polyline points="68.02,365.80 68.02,405.11 67.95,405.71 67.75,406.28 67.43,406.79 67.01,407.21 66.50,407.53 65.93,407.73 65.33,407.80"/>
    <polyline points="68.02,365.80 64.99,366.14 62.16,367.12 59.73,368.69 57.87,370.74 56.70,373.12 56.30,375.67 56.70,378.22 57.87,380.61 59.73,382.65 62.16,384.22 64.99,385.20 68.02,385.54"/>
    <polyline points="63.15,400.03 62.59,401.76 61.12,402.83 59.30,402.83 57.83,401.76 57.27,400.03 57.83,398.30 59.30,397.23 61.12,397.23 62.59,398.30 63.15,400.03"/>
    <polyline points="116.32,386.80 115.94,391.73 114.83,396.36 113.05,400.45 110.70,403.74 107.92,406.04 104.87,407.23 101.73,407.23 98.68,406.04 95.90,403.74 93.55,400.45 91.77,396.36 90.66,391.73 90.28,386.80 90.66,381.87 91.77,377.24 93.55,373.15 95.90,369.86 98.68,367.56 101.73,366.37 104.87,366.37 107.92,367.56 110.70,369.86 113.05,373.15 114.83,377.24 115.94,381.87 116.32,386.80"/>
    <polyline points="106.45,386.80 105.85,388.65 104.27,389.80 102.33,389.80 100.75,388.65 100.15,386.80 100.75,384.95 102.33,383.80 104.27,383.80 105.85,384.95 106.45,386.80"/>
    <polyline points="105.19,360.34 104.64,361.68 103.30,362.23 101.96,361.68 101.41,360.34 101.96,359.00 103.30,358.45 104.64,359.00 105.19,360.34"/>
    <polyline points="151.60,365.80 151.60,405.11 151.53,405.71 151.33,406.28 151.01,406.79 150.59,407.21 150.08,407.53 149.51,407.73 148.91,407.80"/>
    <polyline points="151.60,365.80 147.03,366.20 142.63,367.40 138.58,369.34 135.03,371.95 132.11,375.13 129.95,378.76 128.61,382.70 128.16,386.80 128.61,390.90 129.95,394.84 132.11,398.47 135.03,401.65 138.58,404.26 142.63,406.20 147.03,407.40 151.60,407.80"/>
    <polyline points="186.88,365.80 186.88,405.11 186.81,405.71 186.61,406.28 186.29,406.79 185.87,407.21 185.36,407.53 184.79,407.73 184.19,407.80"/>
    <polyline points="186.88,365.80 160.84,365.80 160.00,368.22"/>
    <polyline points="186.88,385.54 180.81,385.92 175.16,387.03 170.31,388.80 166.58,391.11 164.24,393.79 163.44,396.67 164.24,399.55 166.58,402.24 170.31,404.54 175.16,406.31 180.81,407.42 186.88,407.80"/>
    <polyline points="196.12,365.80 199.01,369.11 201.76,372.45 204.39,375.83 206.88,379.24 209.25,382.69 211.48,386.17 213.59,389.69 215.56,393.24 217.41,396.83 219.12,400.45 220.71,404.11 222.16,407.80"/>
    <polyline points="196.12,365.80 222.16,365.80 223.00,368.22"/>
    <polyline points="196.12,407.80 216.95,407.80"/>
    <polyline points="211.03,360.34 210.48,361.68 209.14,362.23 207.80,361.68 207.25,360.34 207.80,359.00 209.14,358.45 210.48,359.00 211.03,360.34"/>
    <polyline points="257.44,407.80 253.37,407.48 249.42,406.53 245.72,404.99 242.38,402.89 239.49,400.30 237.14,397.30 235.42,393.98 234.36,390.45 234.00,386.80 234.36,383.15 235.42,379.62 237.14,376.30 239.49,373.30 242.38,370.71 245.72,368.61 249.42,367.07 253.37,366.12 257.44,365.80"/>
    <polyline points="233.48,386.80 255.36,386.80"/>
    <polyline points="292.72,365.80 292.72,405.11 292.65,405.71 292.45,406.28 292.13,406.79 291.71,407.21 291.20,407.53 290.63,407.73 290.03,407.80"/>
    <polyline points="292.72,385.54 286.65,385.92 281.00,387.03 276.15,388.80 272.42,391.11 270.08,393.79 269.28,396.67 270.08,399.55 272.42,402.24 276.15,404.54 281.00,406.31 286.65,407.42 292.72,407.80"/>
    <polyline points="281.59,360.34 281.04,361.68 279.70,362.23 278.36,361.68 277.81,360.34 278.36,359.00 279.70,358.45 281.04,359.00 281.59,360.34"/>
    <polyline points="328.00,365.80 328.00,405.11 328.07,405.71 328.27,406.28 328.59,406.79 329.01,407.21 329.52,407.53 330.09,407.73 330.69,407.80"/>
    <polyline points="328.00,365.80 334.07,366.14 339.72,367.12 344.57,368.69 348.30,370.74 350.64,373.12 351.44,375.67 350.64,378.22 348.30,380.61 344.57,382.65 339.72,384.22 334.07,385.20 328.00,385.54"/>
    <polyline points="342.91,360.34 342.36,361.68 341.02,362.23 339.68,361.68 339.13,360.34 339.68,359.00 341.02,358.45 342.36,359.00 342.91,360.34"/>
    <polyline points="389.32,365.80 389.32,405.11 389.25,405.71 389.05,406.28 388.73,406.79 388.31,407.21 387.80,407.53 387.23,407.73 386.63,407.80"/>
    <polyline points="389.32,365.80 383.25,366.14 377.60,367.12 372.75,368.69 369.02,370.74 366.68,373.12 365.88,375.67 366.68,378.22 369.02,380.61 372.75,382.65 377.60,384.22 383.25,385.20 389.32,385.54"/>
    <polyline points="389.32,385.54 383.25,385.92 377.60,387.03 372.75,388.80 369.02,391.11 366.68,393.79 365.88,396.67 366.68,399.55 369.02,402.24 372.75,404.54 377.60,406.31 383.25,407.42 389.32,407.80"/>
    <polyline points="398.56,365.80 398.56,405.11 398.63,405.71 398.83,406.28 399.15,406.79 399.57,407.21 400.08,407.53 400.65,407.73 401.25,407.80"/>
    <polyline points="398.56,365.80 424.60,365.80 425.44,368.22"/>
    <polyline points="398.56,385.54 404.63,385.92 410.28,387.03 415.13,388.80 418.86,391.11 421.20,393.79 422.00,396.67 421.20,399.55 418.86,402.24 415.13,404.54 410.28,406.31 404.63,407.42 398.56,407.80"/>
    <polyline points="413.47,414.10 412.92,415.44 411.58,415.99 410.24,415.44 409.69,414.10 410.24,412.76 411.58,412.21 412.92,412.76 413.47,414.10"/>
    <polyline points="459.88,365.80 459.88,405.11 459.81,405.71 459.61,406.28 459.29,406.79 458.87,407.21 458.36,407.53 457.79,407.73 457.19,407.80"/>
    <polyline points="459.88,365.80 433.84,365.80 433.00,368.22"/>
    <polyline points="459.88,385.54 453.81,385.92 448.16,387.03 443.31,388.80 439.58,391.11 437.24,393.79 436.44,396.67 437.24,399.55 439.58,402.24 443.31,404.54 448.16,406.31 453.81,407.42 459.88,407.80"/>
    <polyline points="482.14,365.80 482.14,405.11 482.07,405.71 481.87,406.28 481.55,406.79 481.13,407.21 480.62,407.53 480.05,407.73 479.45,407.80"/>
    <polyline points="482.14,365.80 479.11,366.14 476.28,367.12 473.85,368.69 471.99,370.74 470.82,373.12 470.42,375.67 470.82,378.22 471.99,380.61 473.85,382.65 476.28,384.22 479.11,385.20 482.14,385.54"/>
    <polyline points="477.27,400.03 476.71,401.76 475.24,402.83 473.42,402.83 471.95,401.76 471.39,400.03 471.95,398.30 473.42,397.23 475.24,397.23 476.71,398.30 477.27,400.03"/>
    <polyline points="517.42,365.80 517.42,405.11 517.35,405.71 517.15,406.28 516.83,406.79 516.41,407.21 515.90,407.53 515.33,407.73 514.73,407.80"/>
    <polyline points="506.48,385.54 528.36,385.54"/>
    <polyline points="81.04,441.40 81.04,480.71 80.97,481.31 80.77,481.88 80.45,482.39 80.03,482.81 79.52,483.13 78.95,483.33 78.35,483.40"/>
    <polyline points="81.04,441.40 74.97,441.74 69.32,442.72 64.47,444.29 60.74,446.34 58.40,448.72 57.60,451.27 58.40,453.82 60.74,456.21 64.47,458.25 69.32,459.82 74.97,460.80 81.04,461.14"/>
    <polyline points="81.04,461.14 74.97,461.52 69.32,462.63 64.47,464.40 60.74,466.71 58.40,469.39 57.60,472.27 58.40,475.15 60.74,477.84 64.47,480.14 69.32,481.91 74.97,483.02 81.04,483.40"/>
    <polyline points="142.36,441.40 142.36,480.71 142.29,481.31 142.09,481.88 141.77,482.39 141.35,482.81 140.84,483.13 140.27,483.33 139.67,483.40"/>
    <polyline points="142.36,441.40 136.29,441.74 130.64,442.72 125.79,444.29 122.06,446.34 119.72,448.72 118.92,451.27 119.72,453.82 122.06,456.21 125.79,458.25 130.64,459.82 136.29,460.80 142.36,461.14"/>
    <polyline points="129.68,475.63 129.11,477.36 127.64,478.43 125.83,478.43 124.36,477.36 123.80,475.63 124.36,473.90 125.83,472.83 127.64,472.83 129.11,473.90 129.68,475.63"/>
    <polyline points="164.62,441.40 164.62,480.71 164.69,481.31 164.89,481.88 165.21,482.39 165.63,482.81 166.14,483.13 166.71,483.33 167.31,483.40"/>
    <polyline points="164.62,441.40 167.65,441.74 170.48,442.72 172.91,444.29 174.77,446.34 175.94,448.72 176.34,451.27 175.94,453.82 174.77,456.21 172.91,458.25 170.48,459.82 167.65,460.80 164.62,461.14"/>
    <polyline points="164.62,461.14 167.65,461.52 170.48,462.63 172.91,464.40 174.77,466.71 175.94,469.39 176.34,472.27 175.94,475.15 174.77,477.84 172.91,480.14 170.48,481.91 167.65,483.02 164.62,483.40"/>
    <polyline points="160.45,437.20 168.79,434.68"/>
    <polyline points="186.88,441.40 186.88,480.71 186.95,481.31 187.15,481.88 187.47,482.39 187.89,482.81 188.40,483.13 188.97,483.33 189.57,483.40"/>
    <polyline points="186.88,441.40 192.95,441.74 198.60,442.72 203.45,444.29 207.18,446.34 209.52,448.72 210.32,451.27 209.52,453.82 207.18,456.21 203.45,458.25 198.60,459.82 192.95,460.80 186.88,461.14"/>
    <polyline points="201.79,435.94 201.24,437.28 199.90,437.83 198.56,437.28 198.01,435.94 198.56,434.60 199.90,434.05 201.24,434.60 201.79,435.94"/>
    <polyline points="248.20,483.40 244.13,483.08 240.18,482.13 236.48,480.59 233.14,478.49 230.25,475.90 227.90,472.90 226.18,469.58 225.12,466.05 224.76,462.40 225.12,458.75 226.18,455.22 227.90,451.90 230.25,448.90 233.14,446.31 236.48,444.21 240.18,442.67 244.13,441.72 248.20,441.40"/>
    <polyline points="237.07,489.70 236.52,491.04 235.18,491.59 233.84,491.04 233.29,489.70 233.84,488.36 235.18,487.81 236.52,488.36 237.07,489.70"/>
    <polyline points="257.44,441.40 257.44,480.71 257.51,481.31 257.71,481.88 258.03,482.39 258.45,482.81 258.96,483.13 259.53,483.33 260.13,483.40"/>
    <polyline points="257.44,441.40 283.48,441.40 284.32,443.82"/>
    <polyline points="257.44,461.14 263.51,461.52 269.16,462.63 274.01,464.40 277.74,466.71 280.08,469.39 280.88,472.27 280.08,475.15 277.74,477.84 274.01,480.14 269.16,481.91 263.51,483.02 257.44,483.40"/>
    <polyline points="272.35,489.70 271.80,491.04 270.46,491.59 269.12,491.04 268.57,489.70 269.12,488.36 270.46,487.81 271.80,488.36 272.35,489.70"/>
    <polyline points="292.72,441.40 296.79,441.72 300.74,442.67 304.44,444.21 307.78,446.31 310.67,448.90 313.02,451.90 314.74,455.22 315.80,458.75 316.16,462.40 315.80,466.05 314.74,469.58 313.02,472.90 310.67,475.90 307.78,478.49 304.44,480.59 300.74,482.13 296.79,483.08 292.72,483.40"/>
    <polyline points="308.89,462.40 308.29,464.25 306.71,465.40 304.77,465.40 303.19,464.25 302.59,462.40 303.19,460.55 304.77,459.40 306.71,459.40 308.29,460.55 308.89,462.40"/>
    <polyline points="307.63,435.94 307.08,437.28 305.74,437.83 304.40,437.28 303.85,435.94 304.40,434.60 305.74,434.05 307.08,434.60 307.63,435.94"/>
    <polyline points="341.02,441.40 341.02,480.71 341.09,481.31 341.29,481.88 341.61,482.39 342.03,482.81 342.54,483.13 343.11,483.33 343.71,483.40"/>
    <polyline points="341.02,441.40 344.05,441.74 346.88,442.72 349.31,444.29 351.17,446.34 352.34,448.72 352.74,451.27 352.34,453.82 351.17,456.21 349.31,458.25 346.88,459.82 344.05,460.80 341.02,461.14"/>
    <polyline points="341.02,461.14 344.05,461.52 346.88,462.63 349.31,464.40 351.17,466.71 352.34,469.39 352.74,472.27 352.34,475.15 351.17,477.84 349.31,480.14 346.88,481.91 344.05,483.02 341.02,483.40"/>
    <polyline points="336.85,437.20 345.19,434.68"/>
    <polyline points="363.28,441.40 366.17,444.71 368.92,448.05 371.55,451.43 374.04,454.84 376.41,458.29 378.64,461.77 380.75,465.29 382.72,468.84 384.57,472.43 386.28,476.05 387.87,479.71 389.32,483.40"/>
    <polyline points="363.28,441.40 389.32,441.40 390.16,443.82"/>
    <polyline points="363.28,483.40 384.11,483.40"/>
    <polyline points="378.19,435.94 377.64,437.28 376.30,437.83 374.96,437.28 374.41,435.94 374.96,434.60 376.30,434.05 377.64,434.60 378.19,435.94"/>
    <polyline points="424.60,441.40 424.60,480.71 424.53,481.31 424.33,481.88 424.01,482.39 423.59,482.81 423.08,483.13 422.51,483.33 421.91,483.40"/>
    <polyline points="424.60,461.14 418.53,461.52 412.88,462.63 408.03,464.40 404.30,466.71 401.96,469.39 401.16,472.27 401.96,475.15 404.30,477.84 408.03,480.14 412.88,481.91 418.53,483.02 424.60,483.40"/>
    <polyline points="413.47,435.94 412.92,437.28 411.58,437.83 410.24,437.28 409.69,435.94 410.24,434.60 411.58,434.05 412.92,434.60 413.47,435.94"/>
    <polyline points="437.41,481.72 436.98,482.76 435.94,483.19 434.90,482.76 434.47,481.72 434.90,480.68 435.94,480.25 436.98,480.68 437.41,481.72"/>
    <polyline points="498.52,441.40 498.52,480.71 498.45,481.31 498.25,481.88 497.93,482.39 497.51,482.81 497.00,483.13 496.43,483.33 495.83,483.40"/>
    <polyline points="498.52,441.40 492.45,441.74 486.80,442.72 481.95,444.29 478.22,446.34 475.88,448.72 475.08,451.27 475.88,453.82 478.22,456.21 481.95,458.25 486.80,459.82 492.45,460.80 498.52,461.14"/>
    <polyline points="485.84,475.63 485.27,477.36 483.80,478.43 481.99,478.43 480.52,477.36 479.96,475.63 480.52,473.90 481.99,472.83 483.80,472.83 485.27,473.90 485.84,475.63"/>
    <polyline points="533.80,441.40 533.80,480.71 533.73,481.31 533.53,481.88 533.21,482.39 532.79,482.81 532.28,483.13 531.71,483.33 531.11,483.40"/>
    <polyline points="533.80,441.40 507.76,441.40 506.92,443.82"/>
    <polyline points="533.80,461.14 527.73,461.52 522.08,462.63 517.23,464.40 513.50,466.71 511.16,469.39 510.36,472.27 511.16,475.15 513.50,477.84 517.23,480.14 522.08,481.91 527.73,483.02 533.80,483.40"/>
    <polyline points="81.04,538.00 80.66,542.93 79.55,547.56 77.77,551.65 75.42,554.94 72.64,557.24 69.59,558.43 66.45,558.43 63.40,557.24 60.62,554.94 58.27,551.65 56.49,547.56 55.38,542.93 55.00,538.00 55.38,533.07 56.49,528.44 58.27,524.35 60.62,521.06 63.40,518.76 66.45,517.57 69.59,517.57 72.64,518.76 75.42,521.06 77.77,524.35 79.55,528.44 80.66,533.07 81.04,538.00"/>
    <polyline points="68.02,517.00 68.02,559.00"/>
    <polyline points="116.32,559.00 112.25,558.68 108.30,557.73 104.60,556.19 101.26,554.09 98.37,551.50 96.02,548.50 94.30,545.18 93.24,541.65 92.88,538.00 93.24,534.35 94.30,530.82 96.02,527.50 98.37,524.50 101.26,521.91 104.60,519.81 108.30,518.27 112.25,517.32 116.32,517.00"/>
    <polyline points="105.19,565.30 104.64,566.64 103.30,567.19 101.96,566.64 101.41,565.30 101.96,563.96 103.30,563.41 104.64,563.96 105.19,565.30"/>
    <polyline points="151.60,517.00 151.60,556.31 151.53,556.91 151.33,557.48 151.01,557.99 150.59,558.41 150.08,558.73 149.51,558.93 148.91,559.00"/>
    <polyline points="151.60,517.00 145.53,517.34 139.88,518.32 135.03,519.89 131.30,521.94 128.96,524.32 128.16,526.87 128.96,529.42 131.30,531.81 135.03,533.85 139.88,535.42 145.53,536.40 151.60,536.74"/>
    <polyline points="138.92,551.23 138.35,552.96 136.88,554.03 135.07,554.03 133.60,552.96 133.04,551.23 133.60,549.50 135.07,548.43 136.88,548.43 138.35,549.50 138.92,551.23"/>
    <polyline points="186.88,559.00 182.81,558.68 178.86,557.73 175.16,556.19 171.82,554.09 168.93,551.50 166.58,548.50 164.86,545.18 163.80,541.65 163.44,538.00 163.80,534.35 164.86,530.82 166.58,527.50 168.93,524.50 171.82,521.91 175.16,519.81 178.86,518.27 182.81,517.32 186.88,517.00"/>
    <polyline points="175.75,565.30 175.20,566.64 173.86,567.19 172.52,566.64 171.97,565.30 172.52,563.96 173.86,563.41 175.20,563.96 175.75,565.30"/>
    <polyline points="222.16,538.00 221.78,542.93 220.67,547.56 218.89,551.65 216.54,554.94 213.76,557.24 210.71,558.43 207.57,558.43 204.52,557.24 201.74,554.94 199.39,551.65 197.61,547.56 196.50,542.93 196.12,538.00 196.50,533.07 197.61,528.44 199.39,524.35 201.74,521.06 204.52,518.76 207.57,517.57 210.71,517.57 213.76,518.76 216.54,521.06 218.89,524.35 220.67,528.44 221.78,533.07 222.16,538.00"/>
    <polyline points="212.29,538.00 211.69,539.85 210.11,541.00 208.17,541.00 206.59,539.85 205.99,538.00 206.59,536.15 208.17,535.00 210.11,535.00 211.69,536.15 212.29,538.00"/>
    <polyline points="211.03,511.54 210.48,512.88 209.14,513.43 207.80,512.88 207.25,511.54 207.80,510.20 209.14,509.65 210.48,510.20 211.03,511.54"/>
    <polyline points="231.40,517.00 231.40,556.31 231.47,556.91 231.67,557.48 231.99,557.99 232.41,558.41 232.92,558.73 233.49,558.93 234.09,559.00"/>
    <polyline points="231.40,517.00 237.47,517.34 243.12,518.32 247.97,519.89 251.70,521.94 254.04,524.32 254.84,526.87 254.04,529.42 251.70,531.81 247.97,533.85 243.12,535.42 237.47,536.40 231.40,536.74"/>
    <polyline points="246.31,511.54 245.76,512.88 244.42,513.43 243.08,512.88 242.53,511.54 243.08,510.20 244.42,509.65 245.76,510.20 246.31,511.54"/>
    <polyline points="270.25,557.32 269.82,558.36 268.78,558.79 267.74,558.36 267.31,557.32 267.74,556.28 268.78,555.85 269.82,556.28 270.25,557.32"/>
    <polyline points="305.32,517.00 305.32,545.98 305.76,549.35 307.06,552.49 309.13,555.19 311.83,557.26 314.97,558.56 318.34,559.00 321.71,558.56 324.85,557.26 327.55,555.19 329.62,552.49 330.92,549.35 331.36,545.98 331.36,517.00"/>
    <polyline points="321.49,538.00 320.89,539.85 319.31,541.00 317.37,541.00 315.79,539.85 315.19,538.00 315.79,536.15 317.37,535.00 319.31,535.00 320.89,536.15 321.49,538.00"/>
    <polyline points="366.64,517.00 366.64,556.31 366.57,556.91 366.37,557.48 366.05,557.99 365.63,558.41 365.12,558.73 364.55,558.93 363.95,559.00"/>
    <polyline points="366.64,517.00 340.60,517.00 339.76,519.42"/>
    <polyline points="366.64,536.74 360.57,537.12 354.92,538.23 350.07,540.00 346.34,542.31 344.00,544.99 343.20,547.87 344.00,550.75 346.34,553.44 350.07,555.74 354.92,557.51 360.57,558.62 366.64,559.00"/>
    <polyline points="401.92,538.00 401.54,542.93 400.43,547.56 398.65,551.65 396.30,554.94 393.52,557.24 390.47,558.43 387.33,558.43 384.28,557.24 381.50,554.94 379.15,551.65 377.37,547.56 376.26,542.93 375.88,538.00 376.26,533.07 377.37,528.44 379.15,524.35 381.50,521.06 384.28,518.76 387.33,517.57 390.47,517.57 393.52,518.76 396.30,521.06 398.65,524.35 400.43,528.44 401.54,533.07 401.92,538.00"/>
    <polyline points="392.05,538.00 391.45,539.85 389.87,541.00 387.93,541.00 386.35,539.85 385.75,538.00 386.35,536.15 387.93,535.00 389.87,535.00 391.45,536.15 392.05,538.00"/>
    <polyline points="390.79,511.54 390.24,512.88 388.90,513.43 387.56,512.88 387.01,511.54 387.56,510.20 388.90,509.65 390.24,510.20 390.79,511.54"/>
    <polyline points="437.20,538.00 436.82,542.93 435.71,547.56 433.93,551.65 431.58,554.94 428.80,557.24 425.75,558.43 422.61,558.43 419.56,557.24 416.78,554.94 414.43,551.65 412.65,547.56 411.54,542.93 411.16,538.00 411.54,533.07 412.65,528.44 414.43,524.35 416.78,521.06 419.56,518.76 422.61,517.57 425.75,517.57 428.80,518.76 431.58,521.06 433.93,524.35 435.71,528.44 436.82,533.07 437.20,538.00"/>
    <polyline points="424.18,517.00 424.18,559.00"/>
    <polyline points="472.48,559.00 468.41,558.68 464.46,557.73 460.76,556.19 457.42,554.09 454.53,551.50 452.18,548.50 450.46,545.18 449.40,541.65 449.04,538.00 449.40,534.35 450.46,530.82 452.18,527.50 454.53,524.50 457.42,521.91 460.76,519.81 464.46,518.27 468.41,517.32 472.48,517.00"/>
    <polyline points="461.35,565.30 460.80,566.64 459.46,567.19 458.12,566.64 457.57,565.30 458.12,563.96 459.46,563.41 460.80,563.96 461.35,565.30"/>
    <polyline points="481.72,517.00 481.72,556.31 481.79,556.91 481.99,557.48 482.31,557.99 482.73,558.41 483.24,558.73 483.81,558.93 484.41,559.00"/>
    <polyline points="481.72,517.00 507.76,517.00 508.60,519.42"/>
    <polyline points="481.72,536.74 487.79,537.12 493.44,538.23 498.29,540.00 502.02,542.31 504.36,544.99 505.16,547.87 504.36,550.75 502.02,553.44 498.29,555.74 493.44,557.51 487.79,558.62 481.72,559.00"/>
    <polyline points="496.63,565.30 496.08,566.64 494.74,567.19 493.40,566.64 492.85,565.30 493.40,563.96 494.74,563.41 496.08,563.96 496.63,565.30"/>
    <polyline points="81.04,592.60 81.04,631.91 80.97,632.51 80.77,633.08 80.45,633.59 80.03,634.01 79.52,634.33 78.95,634.53 78.35,634.60"/>
    <polyline points="81.04,612.34 74.97,612.72 69.32,613.83 64.47,615.60 60.74,617.91 58.40,620.59 57.60,623.47 58.40,626.35 60.74,629.04 64.47,631.34 69.32,633.11 74.97,634.22 81.04,634.60"/>
    <polyline points="69.91,587.14 69.36,588.48 68.02,589.03 66.68,588.48 66.13,587.14 66.68,585.80 68.02,585.25 69.36,585.80 69.91,587.14"/>
    <polyline points="103.30,592.60 103.30,631.91 103.37,632.51 103.57,633.08 103.89,633.59 104.31,634.01 104.82,634.33 105.39,634.53 105.99,634.60"/>
    <polyline points="103.30,592.60 106.33,592.94 109.16,593.92 111.59,595.49 113.45,597.54 114.62,599.92 115.02,602.47 114.62,605.02 113.45,607.41 111.59,609.45 109.16,611.02 106.33,612.00 103.30,612.34"/>
    <polyline points="103.30,612.34 106.33,612.72 109.16,613.83 111.59,615.60 113.45,617.91 114.62,620.59 115.02,623.47 114.62,626.35 113.45,629.04 111.59,631.34 109.16,633.11 106.33,634.22 103.30,634.60"/>
    <polyline points="99.13,588.40 107.47,585.88"/>
    <polyline points="125.56,592.60 125.56,631.91 125.63,632.51 125.83,633.08 126.15,633.59 126.57,634.01 127.08,634.33 127.65,634.53 128.25,634.60"/>
    <polyline points="125.56,592.60 131.63,592.94 137.28,593.92 142.13,595.49 145.86,597.54 148.20,599.92 149.00,602.47 148.20,605.02 145.86,607.41 142.13,609.45 137.28,611.02 131.63,612.00 125.56,612.34"/>
    <polyline points="140.47,587.14 139.92,588.48 138.58,589.03 137.24,588.48 136.69,587.14 137.24,585.80 138.58,585.25 139.92,585.80 140.47,587.14"/>
    <polyline points="160.84,592.60 164.91,592.92 168.86,593.87 172.56,595.41 175.90,597.51 178.79,600.10 181.14,603.10 182.86,606.42 183.92,609.95 184.28,613.60 183.92,617.25 182.86,620.78 181.14,624.10 178.79,627.10 175.90,629.69 172.56,631.79 168.86,633.33 164.91,634.28 160.84,634.60"/>
    <polyline points="177.01,613.60 176.41,615.45 174.83,616.60 172.89,616.60 171.31,615.45 170.71,613.60 171.31,611.75 172.89,610.60 174.83,610.60 176.41,611.75 177.01,613.60"/>
    <polyline points="175.75,587.14 175.20,588.48 173.86,589.03 172.52,588.48 171.97,587.14 172.52,585.80 173.86,585.25 175.20,585.80 175.75,587.14"/>
    <polyline points="222.16,592.60 222.16,631.91 222.09,632.51 221.89,633.08 221.57,633.59 221.15,634.01 220.64,634.33 220.07,634.53 219.47,634.60"/>
    <polyline points="222.16,592.60 196.12,592.60 195.28,595.02"/>
    <polyline points="222.16,612.34 216.09,612.72 210.44,613.83 205.59,615.60 201.86,617.91 199.52,620.59 198.72,623.47 199.52,626.35 201.86,629.04 205.59,631.34 210.44,633.11 216.09,634.22 222.16,634.60"/>
    <polyline points="257.44,613.60 257.06,618.53 255.95,623.16 254.17,627.25 251.82,630.54 249.04,632.84 245.99,634.03 242.85,634.03 239.80,632.84 237.02,630.54 234.67,627.25 232.89,623.16 231.78,618.53 231.40,613.60 231.78,608.67 232.89,604.04 234.67,599.95 237.02,596.66 239.80,594.36 242.85,593.17 245.99,593.17 249.04,594.36 251.82,596.66 254.17,599.95 255.95,604.04 257.06,608.67 257.44,613.60"/>
    <polyline points="247.57,613.60 246.97,615.45 245.39,616.60 243.45,616.60 241.87,615.45 241.27,613.60 241.87,611.75 243.45,610.60 245.39,610.60 246.97,611.75 247.57,613.60"/>
    <polyline points="246.31,587.14 245.76,588.48 244.42,589.03 243.08,588.48 242.53,587.14 243.08,585.80 244.42,585.25 245.76,585.80 246.31,587.14"/>
    <polyline points="305.74,592.60 305.74,631.91 305.81,632.51 306.01,633.08 306.33,633.59 306.75,634.01 307.26,634.33 307.83,634.53 308.43,634.60"/>
    <polyline points="305.74,592.60 308.77,592.94 311.60,593.92 314.03,595.49 315.89,597.54 317.06,599.92 317.46,602.47 317.06,605.02 315.89,607.41 314.03,609.45 311.60,611.02 308.77,612.00 305.74,612.34"/>
    <polyline points="305.74,612.34 308.77,612.72 311.60,613.83 314.03,615.60 315.89,617.91 317.06,620.59 317.46,623.47 317.06,626.35 315.89,629.04 314.03,631.34 311.60,633.11 308.77,634.22 305.74,634.60"/>
    <polyline points="301.57,588.40 309.91,585.88"/>
    <polyline points="354.04,613.60 353.66,618.53 352.55,623.16 350.77,627.25 348.42,630.54 345.64,632.84 342.59,634.03 339.45,634.03 336.40,632.84 333.62,630.54 331.27,627.25 329.49,623.16 328.38,618.53 328.00,613.60 328.38,608.67 329.49,604.04 331.27,599.95 333.62,596.66 336.40,594.36 339.45,593.17 342.59,593.17 345.64,594.36 348.42,596.66 350.77,599.95 352.55,604.04 353.66,608.67 354.04,613.60"/>
    <polyline points="344.17,613.60 343.57,615.45 341.99,616.60 340.05,616.60 338.47,615.45 337.87,613.60 338.47,611.75 340.05,610.60 341.99,610.60 343.57,611.75 344.17,613.60"/>
    <polyline points="342.91,587.14 342.36,588.48 341.02,589.03 339.68,588.48 339.13,587.14 339.68,585.80 341.02,585.25 342.36,585.80 342.91,587.14"/>
    <polyline points="389.32,634.60 385.25,634.28 381.30,633.33 377.60,631.79 374.26,629.69 371.37,627.10 369.02,624.10 367.30,620.78 366.24,617.25 365.88,613.60 366.24,609.95 367.30,606.42 369.02,603.10 371.37,600.10 374.26,597.51 377.60,595.41 381.30,593.87 385.25,592.92 389.32,592.60"/>
    <polyline points="365.36,613.60 387.24,613.60"/>
    <polyline points="424.60,592.60 428.67,592.92 432.62,593.87 436.32,595.41 439.66,597.51 442.55,600.10 444.90,603.10 446.62,606.42 447.68,609.95 448.04,613.60 447.68,617.25 446.62,620.78 444.90,624.10 442.55,627.10 439.66,629.69 436.32,631.79 432.62,633.33 428.67,634.28 424.60,634.60"/>
    <polyline points="440.77,613.60 440.17,615.45 438.59,616.60 436.65,616.60 435.07,615.45 434.47,613.60 435.07,611.75 436.65,610.60 438.59,610.60 440.17,611.75 440.77,613.60"/>
    <polyline points="439.51,587.14 438.96,588.48 437.62,589.03 436.28,588.48 435.73,587.14 436.28,585.80 437.62,585.25 438.96,585.80 439.51,587.14"/>
    <polyline points="485.92,592.60 485.92,631.91 485.85,632.51 485.65,633.08 485.33,633.59 484.91,634.01 484.40,634.33 483.83,634.53 483.23,634.60"/>
    <polyline points="485.92,592.60 479.85,592.94 474.20,593.92 469.35,595.49 465.62,597.54 463.28,599.92 462.48,602.47 463.28,605.02 465.62,607.41 469.35,609.45 474.20,611.02 479.85,612.00 485.92,612.34"/>
    <polyline points="473.24,626.83 472.67,628.56 471.20,629.63 469.39,629.63 467.92,628.56 467.36,626.83 467.92,625.10 469.39,624.03 471.20,624.03 472.67,625.10 473.24,626.83"/>
    <polyline points="508.18,592.60 508.18,631.91 508.25,632.51 508.45,633.08 508.77,633.59 509.19,634.01 509.70,634.33 510.27,634.53 510.87,634.60"/>
    <polyline points="508.18,592.60 511.21,592.94 514.04,593.92 516.47,595.49 518.33,597.54 519.50,599.92 519.90,602.47 519.50,605.02 518.33,607.41 516.47,609.45 514.04,611.02 511.21,612.00 508.18,612.34"/>
    <polyline points="508.18,612.34 511.21,612.72 514.04,613.83 516.47,615.60 518.33,617.91 519.50,620.59 519.90,623.47 519.50,626.35 518.33,629.04 516.47,631.34 514.04,633.11 511.21,634.22 508.18,634.60"/>
    <polyline points="504.01,588.40 512.35,585.88"/>
    <polyline points="68.02,668.20 68.02,707.51 67.95,708.11 67.75,708.68 67.43,709.19 67.01,709.61 66.50,709.93 65.93,710.13 65.33,710.20"/>
    <polyline points="57.08,687.94 78.96,687.94"/>
    <polyline points="90.28,668.20 94.35,668.52 98.30,669.47 102.00,671.01 105.34,673.11 108.23,675.70 110.58,678.70 112.30,682.02 113.36,685.55 113.72,689.20 113.36,692.85 112.30,696.38 110.58,699.70 108.23,702.70 105.34,705.29 102.00,707.39 98.30,708.93 94.35,709.88 90.28,710.20"/>
    <polyline points="106.45,689.20 105.85,691.05 104.27,692.20 102.33,692.20 100.75,691.05 100.15,689.20 100.75,687.35 102.33,686.20 104.27,686.20 105.85,687.35 106.45,689.20"/>
    <polyline points="105.19,662.74 104.64,664.08 103.30,664.63 101.96,664.08 101.41,662.74 101.96,661.40 103.30,660.85 104.64,661.40 105.19,662.74"/>
    <polyline points="151.60,689.20 151.22,694.13 150.11,698.76 148.33,702.85 145.98,706.14 143.20,708.44 140.15,709.63 137.01,709.63 133.96,708.44 131.18,706.14 128.83,702.85 127.05,698.76 125.94,694.13 125.56,689.20 125.94,684.27 127.05,679.64 128.83,675.55 131.18,672.26 133.96,669.96 137.01,668.77 140.15,668.77 143.20,669.96 145.98,672.26 148.33,675.55 150.11,679.64 151.22,684.27 151.60,689.20"/>
    <polyline points="141.73,689.20 141.13,691.05 139.55,692.20 137.61,692.20 136.03,691.05 135.43,689.20 136.03,687.35 137.61,686.20 139.55,686.20 141.13,687.35 141.73,689.20"/>
    <polyline points="140.47,662.74 139.92,664.08 138.58,664.63 137.24,664.08 136.69,662.74 137.24,661.40 138.58,660.85 139.92,661.40 140.47,662.74"/>
    <polyline points="173.86,668.20 173.86,707.51 173.93,708.11 174.13,708.68 174.45,709.19 174.87,709.61 175.38,709.93 175.95,710.13 176.55,710.20"/>
    <polyline points="173.86,668.20 176.89,668.54 179.72,669.52 182.15,671.09 184.01,673.14 185.18,675.52 185.58,678.07 185.18,680.62 184.01,683.01 182.15,685.05 179.72,686.62 176.89,687.60 173.86,687.94"/>
    <polyline points="173.86,687.94 176.89,688.32 179.72,689.43 182.15,691.20 184.01,693.51 185.18,696.19 185.58,699.07 185.18,701.95 184.01,704.64 182.15,706.94 179.72,708.71 176.89,709.82 173.86,710.20"/>
    <polyline points="169.69,664.00 178.03,661.48"/>
    <polyline points="196.12,668.20 196.12,707.51 196.19,708.11 196.39,708.68 196.71,709.19 197.13,709.61 197.64,709.93 198.21,710.13 198.81,710.20"/>
    <polyline points="196.12,668.20 202.19,668.54 207.84,669.52 212.69,671.09 216.42,673.14 218.76,675.52 219.56,678.07 218.76,680.62 216.42,683.01 212.69,685.05 207.84,686.62 202.19,687.60 196.12,687.94"/>
    <polyline points="211.03,662.74 210.48,664.08 209.14,664.63 207.80,664.08 207.25,662.74 207.80,661.40 209.14,660.85 210.48,661.40 211.03,662.74"/>
    <polyline points="231.40,668.20 235.47,668.52 239.42,669.47 243.12,671.01 246.46,673.11 249.35,675.70 251.70,678.70 253.42,682.02 254.48,685.55 254.84,689.20 254.48,692.85 253.42,696.38 251.70,699.70 249.35,702.70 246.46,705.29 243.12,707.39 239.42,708.93 235.47,709.88 231.40,710.20"/>
    <polyline points="247.57,689.20 246.97,691.05 245.39,692.20 243.45,692.20 241.87,691.05 241.27,689.20 241.87,687.35 243.45,686.20 245.39,686.20 246.97,687.35 247.57,689.20"/>
    <polyline points="246.31,662.74 245.76,664.08 244.42,664.63 243.08,664.08 242.53,662.74 243.08,661.40 244.42,660.85 245.76,661.40 246.31,662.74"/>
    <polyline points="292.72,668.20 292.72,707.51 292.65,708.11 292.45,708.68 292.13,709.19 291.71,709.61 291.20,709.93 290.63,710.13 290.03,710.20"/>
    <polyline points="292.72,668.20 266.68,668.20 265.84,670.62"/>
    <polyline points="292.72,687.94 286.65,688.32 281.00,689.43 276.15,691.20 272.42,693.51 270.08,696.19 269.28,699.07 270.08,701.95 272.42,704.64 276.15,706.94 281.00,708.71 286.65,709.82 292.72,710.20"/>
    <polyline points="328.00,689.20 327.62,694.13 326.51,698.76 324.73,702.85 322.38,706.14 319.60,708.44 316.55,709.63 313.41,709.63 310.36,708.44 307.58,706.14 305.23,702.85 303.45,698.76 302.34,694.13 301.96,689.20 302.34,684.27 303.45,679.64 305.23,675.55 307.58,672.26 310.36,669.96 313.41,668.77 316.55,668.77 319.60,669.96 322.38,672.26 324.73,675.55 326.51,679.64 327.62,684.27 328.00,689.20"/>
    <polyline points="318.13,689.20 317.53,691.05 315.95,692.20 314.01,692.20 312.43,691.05 311.83,689.20 312.43,687.35 314.01,686.20 315.95,686.20 317.53,687.35 318.13,689.20"/>
    <polyline points="316.87,662.74 316.32,664.08 314.98,664.63 313.64,664.08 313.09,662.74 313.64,661.40 314.98,660.85 316.32,661.40 316.87,662.74"/>
    <polyline points="337.24,668.20 337.24,710.20"/>
    <polyline points="397.80,668.20 397.80,707.51 397.87,708.11 398.07,708.68 398.39,709.19 398.82,709.61 399.33,709.93 399.89,710.13 400.49,710.20"/>
    <polyline points="397.80,668.20 423.84,668.20 424.68,670.62"/>
    <polyline points="397.80,687.94 403.87,688.32 409.52,689.43 414.38,691.20 418.10,693.51 420.44,696.19 421.24,699.07 420.44,701.95 418.10,704.64 414.38,706.94 409.52,708.71 403.87,709.82 397.80,710.20"/>
    <polyline points="412.71,716.50 412.16,717.84 410.82,718.39 409.49,717.84 408.93,716.50 409.49,715.16 410.82,714.61 412.16,715.16 412.71,716.50"/>
    <polyline points="459.12,710.20 455.05,709.88 451.11,708.93 447.41,707.39 444.06,705.29 441.17,702.70 438.83,699.70 437.10,696.38 436.04,692.85 435.69,689.20 436.04,685.55 437.10,682.02 438.83,678.70 441.17,675.70 444.06,673.11 447.41,671.01 451.11,669.47 455.05,668.52 459.12,668.20"/>
    <polyline points="447.99,716.50 447.44,717.84 446.10,718.39 444.77,717.84 444.21,716.50 444.77,715.16 446.10,714.61 447.44,715.16 447.99,716.50"/>
    <polyline points="481.38,668.20 481.38,707.51 481.45,708.11 481.65,708.68 481.97,709.19 482.40,709.61 482.91,709.93 483.47,710.13 484.07,710.20"/>
    <polyline points="481.38,668.20 484.42,668.54 487.24,669.52 489.67,671.09 491.53,673.14 492.70,675.52 493.10,678.07 492.70,680.62 491.53,683.01 489.67,685.05 487.24,686.62 484.42,687.60 481.38,687.94"/>
    <polyline points="481.38,687.94 484.42,688.32 487.24,689.43 489.67,691.20 491.53,693.51 492.70,696.19 493.10,699.07 492.70,701.95 491.53,704.64 489.67,706.94 487.24,708.71 484.42,709.82 481.38,710.20"/>
    <polyline points="477.22,664.00 485.55,661.48"/>
    <polyline points="529.68,710.20 525.61,709.88 521.67,708.93 517.97,707.39 514.62,705.29 511.73,702.70 509.39,699.70 507.66,696.38 506.60,692.85 506.25,689.20 506.60,685.55 507.66,682.02 509.39,678.70 511.73,675.70 514.62,673.11 517.97,671.01 521.67,669.47 525.61,668.52 529.68,668.20"/>
    <polyline points="505.73,689.20 527.60,689.20"/>
  </g>
</svg>