<svg xmlns="http://www.w3.org/2000/svg" width="1000" height="1274" viewBox="0 0 1000 1274">
  <rect width="1000" height="1274" fill="#ffffff"/>
  <g fill="none" stroke="#141414" stroke-width="2.2" stroke-linecap="round" stroke-linejoin="round">
    <polyline points="57.5,57.5 57.5,78.5"/>
    <polyline points="57.5,78.5 70.7,78.5"/>
    <polyline points="81.9,57.5 87.9,57.5"/>
    <polyline points="84.9,57.5 84.9,78.5"/>
    <polyline points="81.9,78.5 87.9,78.5"/>
    <polyline points="97.2,78.5 97.2,57.5 108.0,57.5 110.8,59.9 110.8,65.6 108.0,68.0 97.2,68.0"/>
    <polyline points="121.6,57.5 127.6,57.5"/>
    <polyline points="124.6,57.5 124.6,78.5"/>
    <polyline points="121.6,78.5 127.6,78.5"/>
    <polyline points="152.9,58.1 165.8,58.1 157.7,78.5"/>
    <polyline points="190.8,68.6 190.8,69.8"/>
    <polyline points="230.6,61.7 227.0,58.4 221.5,58.4 218.2,62.0 217.3,68.0 218.2,74.0 221.5,77.6 227.0,77.6 230.6,74.3 230.6,70.1 225.2,70.1"/>
    <polyline points="238.1,57.5 238.1,78.5"/>
    <polyline points="238.1,78.5 251.3,78.5"/>
    <polyline points="267.0,57.5 262.5,59.0 260.1,63.5 260.1,72.5 262.5,77.0 267.0,78.5 271.5,77.0 273.9,72.5 273.9,63.5 271.5,59.0 267.0,57.5"/>
    <polyline points="294.1,61.1 290.5,58.1 285.1,58.1 282.0,61.1 282.0,65.9 285.1,67.7 291.1,68.3 294.1,70.4 294.1,75.2 291.1,77.9 285.1,77.9 281.4,74.9"/>
    <polyline points="315.5,61.1 311.9,58.1 306.4,58.1 303.4,61.1 303.4,65.9 306.4,67.7 312.5,68.3 315.5,70.4 315.5,75.2 312.5,77.9 306.4,77.9 302.8,74.9"/>
    <polyline points="323.6,78.5 331.1,57.5 338.6,78.5"/>
    <polyline points="326.3,71.3 335.9,71.3"/>
    <polyline points="345.0,78.5 345.0,57.5 355.8,57.5 358.5,59.9 358.5,65.6 355.8,68.0 345.0,68.0"/>
    <polyline points="351.6,68.0 359.4,78.5"/>
    <polyline points="366.3,57.5 373.9,68.6 381.4,57.5"/>
    <polyline points="373.9,68.6 373.9,78.5"/>
    <polyline points="131.2,124.2 131.2,189.9 131.3,190.9 131.7,191.9 132.2,192.8 132.9,193.5 133.8,194.0 134.7,194.3 135.7,194.4"/>
    <polyline points="131.2,124.2 136.3,124.8 141.0,126.4 145.1,129.0 148.2,132.5 150.2,136.4 150.8,140.7 150.2,145.0 148.2,149.0 145.1,152.4 141.0,155.0 136.3,156.7 131.2,157.2"/>
    <polyline points="131.2,157.2 136.3,157.9 141.0,159.7 145.1,162.7 148.2,166.5 150.2,171.0 150.8,175.8 150.2,180.6 148.2,185.1 145.1,189.0 141.0,192.0 136.3,193.8 131.2,194.4"/>
    <polyline points="124.3,117.2 138.2,113.0"/>
    <polyline points="120.7,255.6 131.2,226.1 141.8,255.6"/>
    <polyline points="124.5,245.4 138.0,245.4"/>
    <polyline points="257.0,194.4 257.0,146.0 257.7,140.3 259.9,135.1 263.3,130.6 267.8,127.1 273.1,124.9 278.7,124.2 284.4,124.9 289.6,127.1 294.1,130.6 297.6,135.1 299.8,140.3 300.5,146.0 300.5,194.4"/>
    <polyline points="260.4,159.3 297.0,159.3"/>
    <polyline points="268.2,226.1 268.2,255.6"/>
    <polyline points="268.2,226.1 283.0,226.1 286.3,229.0 286.3,237.9 283.0,240.8 268.2,240.8"/>
    <polyline points="268.2,240.8 284.2,240.8 287.6,244.2 287.6,252.2 284.2,255.6 268.2,255.6"/>
    <polyline points="404.5,124.2 404.5,172.7 405.2,178.3 407.4,183.6 410.8,188.1 415.4,191.5 420.6,193.7 426.2,194.4 431.9,193.7 437.1,191.5 441.6,188.1 445.1,183.6 447.3,178.3 448.0,172.7 448.0,124.2"/>
    <polyline points="431.5,159.3 430.5,162.4 427.9,164.3 424.6,164.3 422.0,162.4 421.0,159.3 422.0,156.2 424.6,154.3 427.9,154.3 430.5,156.2 431.5,159.3"/>
    <polyline points="435.1,232.0 430.0,227.3 422.5,227.3 417.8,232.4 416.6,240.8 417.8,249.2 422.5,254.3 430.0,254.3 435.1,249.7"/>
    <polyline points="595.5,194.4 588.7,193.9 582.1,192.3 575.9,189.7 570.3,186.2 565.5,181.9 561.6,176.9 558.7,171.3 556.9,165.4 556.3,159.3 556.9,153.2 558.7,147.3 561.6,141.8 565.5,136.7 570.3,132.4 575.9,128.9 582.1,126.3 588.7,124.7 595.5,124.2"/>
    <polyline points="555.5,159.3 592.0,159.3"/>
    <polyline points="563.2,226.1 563.2,255.6"/>
    <polyline points="563.2,226.1 575.9,226.1 582.6,232.8 582.6,248.8 575.9,255.6 563.2,255.6"/>
    <polyline points="743.0,194.4 736.2,193.9 729.6,192.3 723.4,189.7 717.8,186.2 713.0,181.9 709.1,176.9 706.2,171.3 704.4,165.4 703.8,159.3 704.4,153.2 706.2,147.3 709.1,141.8 713.0,136.7 717.8,132.4 723.4,128.9 729.6,126.3 736.2,124.7 743.0,124.2"/>
    <polyline points="724.4,205.0 723.5,207.2 721.3,208.1 719.0,207.2 718.1,205.0 719.0,202.7 721.3,201.8 723.5,202.7 724.4,205.0"/>
    <polyline points="710.7,226.1 710.7,255.6"/>
    <polyline points="710.7,226.1 729.3,226.1"/>
    <polyline points="710.7,240.8 725.1,240.8"/>
    <polyline points="710.7,255.6 729.3,255.6"/>
    <polyline points="890.5,124.2 890.5,189.9 890.4,190.9 890.1,191.9 889.6,192.8 888.9,193.5 888.0,194.0 887.1,194.3 886.1,194.4"/>
    <polyline points="890.5,124.2 882.9,124.9 875.5,126.9 868.8,130.1 862.8,134.5 858.0,139.8 854.3,145.9 852.1,152.5 851.4,159.3 852.1,166.2 854.3,172.8 858.0,178.8 862.8,184.2 868.8,188.5 875.5,191.8 882.9,193.8 890.5,194.4"/>
    <polyline points="858.2,226.1 858.2,255.6"/>
    <polyline points="858.2,226.1 876.8,226.1"/>
    <polyline points="858.2,240.8 871.7,240.8"/>
    <polyline points="131.2,306.8 131.2,372.6 131.1,373.6 130.8,374.5 130.2,375.4 129.5,376.1 128.7,376.6 127.7,377.0 126.7,377.1"/>
    <polyline points="112.9,339.8 149.5,339.8"/>
    <polyline points="140.1,414.6 135.0,409.9 127.4,409.9 122.8,415.0 121.5,423.4 122.8,431.9 127.4,436.9 135.0,436.9 140.1,432.3 140.1,426.4 132.5,426.4"/>
    <polyline points="300.5,306.8 300.5,372.6 300.4,373.6 300.1,374.5 299.5,375.4 298.8,376.1 298.0,376.6 297.0,377.0 296.0,377.1"/>
    <polyline points="300.5,306.8 290.4,307.4 280.9,309.0 272.8,311.7 266.6,315.1 262.7,319.1 261.3,323.3 262.7,327.6 266.6,331.6 272.8,335.0 280.9,337.6 290.4,339.3 300.5,339.8"/>
    <polyline points="300.5,339.8 290.4,340.5 280.9,342.3 272.8,345.3 266.6,349.2 262.7,353.6 261.3,358.5 262.7,363.3 266.6,367.8 272.8,371.6 280.9,374.6 290.4,376.4 300.5,377.1"/>
    <polyline points="268.2,408.7 268.2,438.2"/>
    <polyline points="289.3,408.7 289.3,438.2"/>
    <polyline points="268.2,423.4 289.3,423.4"/>
    <polyline points="404.5,306.8 411.3,307.4 417.9,309.0 424.1,311.5 429.7,315.0 434.5,319.4 438.4,324.4 441.3,329.9 443.1,335.9 443.7,342.0 443.1,348.1 441.3,354.0 438.4,359.5 434.5,364.5 429.7,368.9 424.1,372.4 417.9,375.0 411.3,376.5 404.5,377.1"/>
    <polyline points="431.5,342.0 430.5,345.1 427.9,347.0 424.6,347.0 422.0,345.1 421.0,342.0 422.0,338.9 424.6,336.9 427.9,336.9 430.5,338.9 431.5,342.0"/>
    <polyline points="429.4,297.7 428.5,299.9 426.2,300.9 424.0,299.9 423.1,297.7 424.0,295.5 426.2,294.5 428.5,295.5 429.4,297.7"/>
    <polyline points="422.0,408.7 430.5,408.7"/>
    <polyline points="426.2,408.7 426.2,438.2"/>
    <polyline points="422.0,438.2 430.5,438.2"/>
    <polyline points="573.8,306.8 573.8,372.6 573.6,373.6 573.3,374.5 572.8,375.4 572.1,376.1 571.2,376.6 570.3,377.0 569.3,377.1"/>
    <polyline points="573.8,306.8 552.0,306.8 550.6,310.9"/>
    <polyline points="573.8,339.8 571.4,341.9 569.1,344.3 566.8,347.1 564.5,350.3 562.3,353.8 560.2,357.7 558.1,362.0 556.0,366.7 554.0,371.7 552.0,377.1"/>
    <polyline points="578.4,408.7 578.4,431.4 575.4,437.3 569.1,438.2 564.9,434.4 563.6,429.8"/>
    <polyline points="699.5,306.8 699.5,372.6 699.6,373.6 699.9,374.5 700.5,375.4 701.2,376.1 702.0,376.6 703.0,377.0 704.0,377.1"/>
    <polyline points="699.5,339.8 734.3,339.8"/>
    <polyline points="699.5,377.1 734.3,377.1"/>
    <polyline points="710.7,408.7 710.7,438.2"/>
    <polyline points="731.8,408.7 711.6,424.7"/>
    <polyline points="717.9,419.6 731.8,438.2"/>
    <polyline points="847.0,306.8 851.8,312.4 856.4,318.0 860.8,323.6 865.0,329.3 869.0,335.1 872.7,340.9 876.2,346.8 879.5,352.7 882.6,358.7 885.5,364.8 888.1,370.9 890.5,377.1"/>
    <polyline points="847.0,306.8 890.5,306.8 892.0,310.9"/>
    <polyline points="847.0,377.1 881.8,377.1"/>
    <polyline points="871.9,297.7 871.0,299.9 868.8,300.9 866.5,299.9 865.6,297.7 866.5,295.5 868.8,294.5 871.0,295.5 871.9,297.7"/>
    <polyline points="858.2,408.7 858.2,438.2"/>
    <polyline points="858.2,438.2 876.8,438.2"/>
    <polyline points="153.0,489.5 153.0,555.2 152.9,556.2 152.6,557.2 152.0,558.0 151.3,558.7 150.5,559.3 149.5,559.6 148.5,559.7"/>
    <polyline points="153.0,489.5 142.9,490.0 133.4,491.7 125.3,494.3 119.1,497.7 115.1,501.7 113.8,506.0 115.1,510.2 119.1,514.2 125.3,517.6 133.4,520.3 142.9,521.9 153.0,522.5"/>
    <polyline points="131.8,546.7 130.8,549.6 128.4,551.4 125.4,551.4 122.9,549.6 122.0,546.7 122.9,543.8 125.4,542.0 128.4,542.0 130.8,543.8 131.8,546.7"/>
    <polyline points="118.6,620.8 118.6,591.3 131.2,609.0 143.9,591.3 143.9,620.8"/>
    <polyline points="300.5,524.6 299.9,532.8 298.0,540.6 295.0,547.4 291.1,552.9 286.5,556.8 281.4,558.8 276.1,558.8 271.0,556.8 266.4,552.9 262.4,547.4 259.5,540.6 257.6,532.8 257.0,524.6 257.6,516.3 259.5,508.6 262.4,501.8 266.4,496.3 271.0,492.4 276.1,490.4 281.4,490.4 286.5,492.4 291.1,496.3 295.0,501.8 298.0,508.6 299.9,516.3 300.5,524.6"/>
    <polyline points="284.0,524.6 283.0,527.7 280.4,529.6 277.1,529.6 274.5,527.7 273.5,524.6 274.5,521.5 277.1,519.6 280.4,519.6 283.0,521.5 284.0,524.6"/>
    <polyline points="281.9,480.3 281.0,482.6 278.7,483.5 276.5,482.6 275.6,480.3 276.5,478.1 278.7,477.2 281.0,478.1 281.9,480.3"/>
    <polyline points="268.2,620.8 268.2,591.3 289.3,620.8 289.3,591.3"/>
    <polyline points="448.0,489.5 448.0,555.2 447.9,556.2 447.6,557.2 447.0,558.0 446.3,558.7 445.5,559.3 444.5,559.6 443.5,559.7"/>
    <polyline points="448.0,489.5 404.5,489.5 403.1,493.5"/>
    <polyline points="448.0,522.5 437.9,523.1 428.4,525.0 420.3,527.9 414.1,531.8 410.2,536.3 408.8,541.1 410.2,545.9 414.1,550.4 420.3,554.3 428.4,557.2 437.9,559.1 448.0,559.7"/>
    <polyline points="426.2,591.3 419.9,593.4 416.6,599.7 416.6,612.4 419.9,618.7 426.2,620.8 432.6,618.7 435.9,612.4 435.9,599.7 432.6,593.4 426.2,591.3"/>
    <polyline points="595.5,489.5 595.5,555.2 595.4,556.2 595.1,557.2 594.5,558.0 593.8,558.7 593.0,559.3 592.0,559.6 591.0,559.7"/>
    <polyline points="595.5,489.5 552.0,489.5 550.6,493.5"/>
    <polyline points="563.2,620.8 563.2,591.3 578.4,591.3 582.2,594.7 582.2,602.7 578.4,606.1 563.2,606.1"/>
    <polyline points="743.0,559.7 736.2,559.2 729.6,557.6 723.4,555.0 717.8,551.5 713.0,547.2 709.1,542.1 706.2,536.6 704.4,530.7 703.8,524.6 704.4,518.5 706.2,512.6 709.1,507.0 713.0,502.0 717.8,497.7 723.4,494.2 729.6,491.6 736.2,490.0 743.0,489.5"/>
    <polyline points="743.0,559.7 744.8,562.4 746.0,565.0 746.8,567.3 747.2,569.5 747.1,571.6 746.5,573.4 745.4,575.1 743.9,576.6"/>
    <polyline points="724.4,480.3 723.5,482.6 721.3,483.5 719.0,482.6 718.1,480.3 719.0,478.1 721.3,477.2 723.5,478.1 724.4,480.3"/>
    <polyline points="721.3,591.3 714.9,593.4 711.6,599.7 711.6,612.4 714.9,618.7 721.3,620.8 727.6,618.7 731.0,612.4 731.0,599.7 727.6,593.4 721.3,591.3"/>
    <polyline points="723.4,613.2 731.8,622.1"/>
    <polyline points="847.0,489.5 847.0,555.2 847.1,556.2 847.4,557.2 848.0,558.0 848.7,558.7 849.5,559.3 850.5,559.6 851.5,559.7"/>
    <polyline points="847.0,489.5 890.5,489.5 892.0,493.5"/>
    <polyline points="847.0,522.5 857.1,523.1 866.6,525.0 874.7,527.9 880.9,531.8 884.9,536.3 886.2,541.1 884.9,545.9 880.9,550.4 874.7,554.3 866.6,557.2 857.1,559.1 847.0,559.7"/>
    <polyline points="871.9,570.2 871.0,572.5 868.8,573.4 866.5,572.5 865.6,570.2 866.5,568.0 868.8,567.1 871.0,568.0 871.9,570.2"/>
    <polyline points="858.2,620.8 858.2,591.3 873.4,591.3 877.2,594.7 877.2,602.7 873.4,606.1 858.2,606.1"/>
    <polyline points="867.5,606.1 878.5,620.8"/>
    <polyline points="153.0,672.1 153.0,737.8 152.9,738.8 152.6,739.8 152.0,740.6 151.3,741.4 150.5,741.9 149.5,742.2 148.5,742.3"/>
    <polyline points="153.0,705.1 142.9,705.7 133.4,707.6 125.3,710.6 119.1,714.4 115.1,718.9 113.8,723.7 115.1,728.5 119.1,733.0 125.3,736.9 133.4,739.8 142.9,741.7 153.0,742.3"/>
    <polyline points="134.4,663.0 133.5,665.2 131.2,666.1 129.0,665.2 128.1,663.0 129.0,660.7 131.2,659.8 133.5,660.7 134.4,663.0"/>
    <polyline points="139.2,779.0 134.2,774.8 126.6,774.8 122.4,779.0 122.4,785.7 126.6,788.3 135.0,789.1 139.2,792.1 139.2,798.8 135.0,802.6 126.6,802.6 121.5,798.4"/>
    <polyline points="257.0,672.1 257.0,737.8 257.1,738.8 257.4,739.8 257.9,740.6 258.7,741.4 259.5,741.9 260.5,742.2 261.5,742.3"/>
    <polyline points="257.0,672.1 267.1,672.7 276.6,674.3 284.7,676.9 290.9,680.3 294.8,684.3 296.2,688.6 294.8,692.9 290.9,696.9 284.7,700.3 276.6,702.9 267.1,704.5 257.0,705.1"/>
    <polyline points="281.9,663.0 281.0,665.2 278.7,666.1 276.5,665.2 275.6,663.0 276.5,660.7 278.7,659.8 281.0,660.7 281.9,663.0"/>
    <polyline points="268.2,773.9 289.3,773.9"/>
    <polyline points="278.7,773.9 278.7,803.4"/>
    <polyline points="426.2,672.1 426.2,737.8 426.1,738.8 425.8,739.8 425.3,740.6 424.6,741.4 423.7,741.9 422.8,742.2 421.7,742.3"/>
    <polyline points="426.2,672.1 421.2,672.7 416.4,674.3 412.4,676.9 409.3,680.3 407.3,684.3 406.6,688.6 407.3,692.9 409.3,696.9 412.4,700.3 416.4,702.9 421.2,704.5 426.2,705.1"/>
    <polyline points="418.1,729.3 417.2,732.2 414.7,734.0 411.7,734.0 409.2,732.2 408.3,729.3 409.2,726.5 411.7,724.7 414.7,724.7 417.2,726.5 418.1,729.3"/>
    <polyline points="415.7,773.9 415.7,795.0 419.9,802.2 426.2,803.4 432.6,802.2 436.8,795.0 436.8,773.9"/>
    <polyline points="595.5,707.2 594.9,715.5 593.0,723.2 590.1,730.0 586.1,735.5 581.5,739.4 576.4,741.4 571.1,741.4 566.0,739.4 561.4,735.5 557.5,730.0 554.5,723.2 552.6,715.5 552.0,707.2 552.6,699.0 554.5,691.2 557.5,684.4 561.4,678.9 566.0,675.0 571.1,673.0 576.4,673.0 581.5,675.0 586.1,678.9 590.1,684.4 593.0,691.2 594.9,699.0 595.5,707.2"/>
    <polyline points="573.8,672.1 573.8,742.3"/>
    <polyline points="563.2,773.9 573.8,803.4 584.3,773.9"/>
    <polyline points="699.5,672.1 699.5,737.8 699.6,738.8 699.9,739.8 700.5,740.6 701.2,741.4 702.0,741.9 703.0,742.2 704.0,742.3"/>
    <polyline points="699.5,672.1 743.0,672.1 744.4,676.1"/>
    <polyline points="699.5,705.1 704.2,707.2 708.9,709.6 713.5,712.4 718.0,715.5 722.4,719.1 726.7,723.0 730.9,727.3 735.0,731.9 739.1,736.9 743.0,742.3"/>
    <polyline points="708.6,773.9 714.5,803.4 721.3,784.9 728.0,803.4 733.9,773.9"/>
    <polyline points="847.0,672.1 847.0,737.8 847.1,738.8 847.4,739.8 848.0,740.6 848.7,741.4 849.5,741.9 850.5,742.2 851.5,742.3"/>
    <polyline points="847.0,672.1 890.5,672.1 892.0,676.1"/>
    <polyline points="858.2,773.9 879.3,803.4"/>
    <polyline points="879.3,773.9 858.2,803.4"/>
    <polyline points="109.5,854.7 114.3,860.3 118.9,865.8 123.3,871.5 127.5,877.2 131.4,883.0 135.1,888.8 138.7,894.7 142.0,900.6 145.1,906.6 147.9,912.7 150.6,918.8 153.0,925.0"/>
    <polyline points="136.5,889.8 135.5,892.9 132.9,894.9 129.6,894.9 127.0,892.9 126.0,889.8 127.0,886.8 129.6,884.8 132.9,884.8 135.5,886.8 136.5,889.8"/>
    <polyline points="134.4,845.6 133.5,847.8 131.2,848.8 129.0,847.8 128.1,845.6 129.0,843.4 131.2,842.4 133.5,843.4 134.4,845.6"/>
    <polyline points="120.7,956.6 131.2,972.2 141.8,956.6"/>
    <polyline points="131.2,972.2 131.2,986.1"/>
    <polyline points="300.5,854.7 300.5,920.5 300.4,921.5 300.1,922.4 299.5,923.3 298.8,924.0 298.0,924.5 297.0,924.9 296.0,925.0"/>
    <polyline points="282.2,887.7 318.8,887.7"/>
    <polyline points="281.9,935.5 281.0,937.7 278.7,938.7 276.5,937.7 275.6,935.5 276.5,933.3 278.7,932.3 281.0,933.3 281.9,935.5"/>
    <polyline points="268.2,956.6 289.3,956.6 268.2,986.1 289.3,986.1"/>
    <polyline points="404.5,854.7 411.3,855.3 417.9,856.8 424.1,859.4 429.7,862.9 434.5,867.3 438.4,872.3 441.3,877.8 443.1,883.7 443.7,889.8 443.1,895.9 441.3,901.9 438.4,907.4 434.5,912.4 429.7,916.8 424.1,920.3 417.9,922.8 411.3,924.4 404.5,925.0"/>
    <polyline points="404.5,925.0 406.2,927.7 407.5,930.2 408.3,932.6 408.6,934.8 408.5,936.8 407.9,938.7 406.9,940.3 405.3,941.8"/>
    <polyline points="429.4,845.6 428.5,847.8 426.2,848.8 424.0,847.8 423.1,845.6 424.0,843.4 426.2,842.4 428.5,843.4 429.4,845.6"/>
    <polyline points="426.2,956.6 420.3,958.7 417.4,965.0 417.4,977.7 420.3,984.0 426.2,986.1 432.1,984.0 435.1,977.7 435.1,965.0 432.1,958.7 426.2,956.6"/>
    <polyline points="573.8,854.7 573.8,920.5 573.6,921.5 573.3,922.4 572.8,923.3 572.1,924.0 571.2,924.5 570.3,924.9 569.3,925.0"/>
    <polyline points="573.8,854.7 568.7,855.3 564.0,856.9 559.9,859.6 556.8,863.0 554.8,867.0 554.2,871.2 554.8,875.5 556.8,879.5 559.9,882.9 564.0,885.5 568.7,887.2 573.8,887.7"/>
    <polyline points="573.8,887.7 571.4,889.8 569.1,892.2 566.8,895.0 564.5,898.2 562.3,901.7 560.2,905.6 558.1,909.9 556.0,914.5 554.0,919.6 552.0,925.0"/>
    <polyline points="568.3,963.3 574.6,956.6 574.6,986.1"/>
    <polyline points="568.3,986.1 580.9,986.1"/>
    <polyline points="721.3,854.7 721.3,920.5 721.2,921.5 720.8,922.4 720.3,923.3 719.6,924.0 718.7,924.5 717.8,924.9 716.8,925.0"/>
    <polyline points="721.3,854.7 699.5,854.7 698.1,858.8"/>
    <polyline points="714.3,847.7 728.2,843.5"/>
    <polyline points="712.8,962.9 718.3,957.4 725.5,957.4 730.1,962.5 730.1,968.4 712.8,986.1 730.5,986.1"/>
    <polyline points="890.5,854.7 890.5,920.5 890.4,921.5 890.1,922.4 889.6,923.3 888.9,924.0 888.0,924.5 887.1,924.9 886.1,925.0"/>
    <polyline points="890.5,854.7 847.0,854.7 845.6,858.8"/>
    <polyline points="890.5,887.7 885.8,889.8 881.1,892.2 876.6,895.0 872.1,898.2 867.7,901.7 863.4,905.6 859.1,909.9 855.0,914.5 851.0,919.6 847.0,925.0"/>
    <polyline points="860.3,960.8 866.2,957.4 873.4,957.4 877.6,961.6 877.6,967.5 871.7,971.3 877.6,975.1 877.6,981.4 873.4,985.2 865.8,985.2 860.3,981.9"/>
    <polyline points="153.0,1107.6 146.2,1107.1 139.6,1105.5 133.4,1102.9 127.8,1099.4 123.0,1095.1 119.1,1090.0 116.2,1084.5 114.4,1078.6 113.8,1072.5 114.4,1066.4 116.2,1060.5 119.1,1054.9 123.0,1049.9 127.8,1045.6 133.4,1042.1 139.6,1039.5 146.2,1037.9 153.0,1037.4"/>
    <polyline points="112.9,1072.5 149.5,1072.5"/>
    <polyline points="136.5,1072.5 135.5,1075.6 132.9,1077.5 129.6,1077.5 127.0,1075.6 126.0,1072.5 127.0,1069.4 129.6,1067.5 132.9,1067.5 135.5,1069.4 136.5,1072.5"/>
    <polyline points="135.9,1168.7 135.9,1139.2 122.4,1159.9 140.9,1159.9"/>
    <polyline points="300.5,1072.5 299.9,1080.7 298.0,1088.5 295.0,1095.3 291.1,1100.8 286.5,1104.7 281.4,1106.6 276.1,1106.6 271.0,1104.7 266.4,1100.8 262.4,1095.3 259.5,1088.5 257.6,1080.7 257.0,1072.5 257.6,1064.2 259.5,1056.5 262.4,1049.7 266.4,1044.2 271.0,1040.3 276.1,1038.3 281.4,1038.3 286.5,1040.3 291.1,1044.2 295.0,1049.7 298.0,1056.5 299.9,1064.2 300.5,1072.5"/>
    <polyline points="287.2,1140.1 271.6,1140.1 270.7,1151.9 277.0,1150.2 283.8,1151.4 287.6,1155.6 287.6,1163.2 283.4,1167.9 275.8,1168.3 270.3,1164.5"/>
    <polyline points="404.5,1107.6 404.5,1059.1 405.2,1053.5 407.4,1048.2 410.8,1043.7 415.4,1040.3 420.6,1038.1 426.2,1037.4 431.9,1038.1 437.1,1040.3 441.6,1043.7 445.1,1048.2 447.3,1053.5 448.0,1059.1 448.0,1107.6"/>
    <polyline points="431.5,1072.5 430.5,1075.6 427.9,1077.5 424.6,1077.5 422.0,1075.6 421.0,1072.5 422.0,1069.4 424.6,1067.5 427.9,1067.5 430.5,1069.4 431.5,1072.5"/>
    <polyline points="429.4,1028.2 428.5,1030.5 426.2,1031.4 424.0,1030.5 423.1,1028.2 424.0,1026.0 426.2,1025.1 428.5,1026.0 429.4,1028.2"/>
    <polyline points="433.4,1143.4 428.4,1140.1 422.5,1141.7 418.7,1148.1 417.8,1158.6 417.8,1163.2 422.0,1167.9 428.8,1168.3 433.4,1164.9 434.7,1159.9 432.1,1154.8 426.2,1153.1 420.8,1154.8 418.2,1159.0"/>
    <polyline points="552.0,1037.4 552.0,1103.1 552.1,1104.1 552.4,1105.1 553.0,1105.9 553.7,1106.6 554.5,1107.2 555.5,1107.5 556.5,1107.6"/>
    <polyline points="552.0,1070.4 562.1,1071.0 571.6,1072.9 579.7,1075.8 585.9,1079.7 589.8,1084.2 591.2,1089.0 589.8,1093.8 585.9,1098.3 579.7,1102.1 571.6,1105.1 562.1,1107.0 552.0,1107.6"/>
    <polyline points="576.9,1028.2 576.0,1030.5 573.8,1031.4 571.5,1030.5 570.6,1028.2 571.5,1026.0 573.8,1025.1 576.0,1026.0 576.9,1028.2"/>
    <polyline points="564.9,1140.1 583.0,1140.1 571.6,1168.7"/>
    <polyline points="699.5,1107.6 699.5,1059.1 700.2,1053.5 702.4,1048.2 705.9,1043.7 710.4,1040.3 715.6,1038.1 721.3,1037.4 726.9,1038.1 732.2,1040.3 736.7,1043.7 740.1,1048.2 742.3,1053.5 743.0,1059.1 743.0,1107.6"/>
    <polyline points="721.3,1153.5 715.8,1151.4 714.1,1146.4 717.5,1140.9 721.3,1140.1 725.5,1140.9 728.4,1146.4 726.7,1151.4 721.3,1153.5 715.8,1156.1 713.7,1162.0 717.5,1167.9 721.3,1168.3 725.5,1167.9 729.3,1162.0 726.7,1156.1 721.3,1153.5"/>
    <polyline points="890.5,1037.4 890.5,1103.1 890.4,1104.1 890.1,1105.1 889.6,1105.9 888.9,1106.6 888.0,1107.2 887.1,1107.5 886.1,1107.6"/>
    <polyline points="890.5,1037.4 880.4,1037.9 871.0,1039.6 862.8,1042.2 856.6,1045.6 852.7,1049.6 851.4,1053.9 852.7,1058.1 856.6,1062.1 862.8,1065.5 871.0,1068.2 880.4,1069.8 890.5,1070.4"/>
    <polyline points="890.5,1070.4 885.8,1072.4 881.1,1074.8 876.6,1077.6 872.1,1080.8 867.7,1084.3 863.4,1088.2 859.1,1092.5 855.0,1097.2 851.0,1102.2 847.0,1107.6"/>
    <polyline points="861.6,1164.5 867.1,1167.9 873.0,1166.2 876.8,1160.3 877.6,1149.3 877.6,1145.1 873.8,1140.5 867.1,1140.1 862.5,1143.0 861.2,1147.6 863.3,1152.7 869.2,1154.4 875.1,1152.7 877.2,1147.6"/>
  </g>
</svg>