<?xml version="1.0" encoding="UTF-8"?>
<!-- LIPI PANEL SERIES 1/7 · seed 7 · A1 594x841mm · text continues from panel 0 -->
<svg xmlns="http://www.w3.org/2000/svg" width="594mm" height="841mm" viewBox="0 0 594 841">
  <g fill="none" stroke="#000000" stroke-width="1" stroke-linecap="round" stroke-linejoin="round">
    <polyline points="55.00,63.40 55.00,102.71 55.07,103.31 55.27,103.88 55.59,104.39 56.01,104.81 56.52,105.13 57.09,105.33 57.69,105.40"/>
    <polyline points="55.00,63.40 81.04,63.40 81.88,65.82"/>
    <polyline points="55.00,83.14 61.07,83.52 66.72,84.63 71.57,86.40 75.30,88.70 77.64,91.39 78.44,94.27 77.64,97.15 75.30,99.83 71.57,102.14 66.72,103.91 61.07,105.02 55.00,105.40"/>
    <polyline points="69.91,111.70 69.36,113.04 68.02,113.59 66.68,113.04 66.13,111.70 66.68,110.36 68.02,109.81 69.36,110.36 69.91,111.70"/>
    <polyline points="116.32,105.40 112.25,105.08 108.30,104.13 104.60,102.59 101.26,100.49 98.37,97.90 96.02,94.90 94.30,91.58 93.24,88.05 92.88,84.40 93.24,80.75 94.30,77.22 96.02,73.90 98.37,70.90 101.26,68.31 104.60,66.21 108.30,64.67 112.25,63.72 116.32,63.40"/>
    <polyline points="105.19,111.70 104.64,113.04 103.30,113.59 101.96,113.04 101.41,111.70 101.96,110.36 103.30,109.81 104.64,110.36 105.19,111.70"/>
    <polyline points="138.58,63.40 138.58,102.71 138.65,103.31 138.85,103.88 139.17,104.39 139.59,104.81 140.10,105.13 140.67,105.33 141.27,105.40"/>
    <polyline points="138.58,63.40 141.61,63.74 144.44,64.72 146.87,66.29 148.73,68.33 149.90,70.72 150.30,73.27 149.90,75.82 148.73,78.20 146.87,80.25 144.44,81.82 141.61,82.80 138.58,83.14"/>
    <polyline points="138.58,83.14 141.61,83.52 144.44,84.63 146.87,86.40 148.73,88.70 149.90,91.39 150.30,94.27 149.90,97.15 148.73,99.83 146.87,102.14 144.44,103.91 141.61,105.02 138.58,105.40"/>
    <polyline points="134.41,59.20 142.75,56.68"/>
    <polyline points="186.88,105.40 182.81,105.08 178.86,104.13 175.16,102.59 171.82,100.49 168.93,97.90 166.58,94.90 164.86,91.58 163.80,88.05 163.44,84.40 163.80,80.75 164.86,77.22 166.58,73.90 168.93,70.90 171.82,68.31 175.16,66.21 178.86,64.67 182.81,63.72 186.88,63.40"/>
    <polyline points="162.92,84.40 184.80,84.40"/>
    <polyline points="196.12,63.40 200.19,63.72 204.14,64.67 207.84,66.21 211.18,68.31 214.07,70.90 216.42,73.90 218.14,77.22 219.20,80.75 219.56,84.40 219.20,88.05 218.14,91.58 216.42,94.90 214.07,97.90 211.18,100.49 207.84,102.59 204.14,104.13 200.19,105.08 196.12,105.40"/>
    <polyline points="212.29,84.40 211.69,86.25 210.11,87.40 208.17,87.40 206.59,86.25 205.99,84.40 206.59,82.55 208.17,81.40 210.11,81.40 211.69,82.55 212.29,84.40"/>
    <polyline points="211.03,57.94 210.48,59.28 209.14,59.83 207.80,59.28 207.25,57.94 207.80,56.60 209.14,56.05 210.48,56.60 211.03,57.94"/>
    <polyline points="257.44,84.40 257.06,89.33 255.95,93.96 254.17,98.05 251.82,101.34 249.04,103.64 245.99,104.83 242.85,104.83 239.80,103.64 237.02,101.34 234.67,98.05 232.89,93.96 231.78,89.33 231.40,84.40 231.78,79.47 232.89,74.84 234.67,70.75 237.02,67.46 239.80,65.16 242.85,63.97 245.99,63.97 249.04,65.16 251.82,67.46 254.17,70.75 255.95,74.84 257.06,79.47 257.44,84.40"/>
    <polyline points="247.57,84.40 246.97,86.25 245.39,87.40 243.45,87.40 241.87,86.25 241.27,84.40 241.87,82.55 243.45,81.40 245.39,81.40 246.97,82.55 247.57,84.40"/>
    <polyline points="246.31,57.94 245.76,59.28 244.42,59.83 243.08,59.28 242.53,57.94 243.08,56.60 244.42,56.05 245.76,56.60 246.31,57.94"/>
    <polyline points="279.70,63.40 279.70,102.71 279.63,103.31 279.43,103.88 279.11,104.39 278.69,104.81 278.18,105.13 277.61,105.33 277.01,105.40"/>
    <polyline points="268.76,83.14 290.64,83.14"/>
    <polyline points="354.04,105.40 349.97,105.08 346.02,104.13 342.32,102.59 338.98,100.49 336.09,97.90 333.74,94.90 332.02,91.58 330.96,88.05 330.60,84.40 330.96,80.75 332.02,77.22 333.74,73.90 336.09,70.90 338.98,68.31 342.32,66.21 346.02,64.67 349.97,63.72 354.04,63.40"/>
    <polyline points="342.91,111.70 342.36,113.04 341.02,113.59 339.68,113.04 339.13,111.70 339.68,110.36 341.02,109.81 342.36,110.36 342.91,111.70"/>
    <polyline points="363.28,63.40 363.28,102.71 363.35,103.31 363.55,103.88 363.87,104.39 364.29,104.81 364.80,105.13 365.37,105.33 365.97,105.40"/>
    <polyline points="363.28,63.40 389.32,63.40 390.16,65.82"/>
    <polyline points="398.56,63.40 398.56,102.71 398.63,103.31 398.83,103.88 399.15,104.39 399.57,104.81 400.08,105.13 400.65,105.33 401.25,105.40"/>
    <polyline points="398.56,63.40 404.63,63.74 410.28,64.72 415.13,66.29 418.86,68.33 421.20,70.72 422.00,73.27 421.20,75.82 418.86,78.20 415.13,80.25 410.28,81.82 404.63,82.80 398.56,83.14"/>
    <polyline points="413.47,57.94 412.92,59.28 411.58,59.83 410.24,59.28 409.69,57.94 410.24,56.60 411.58,56.05 412.92,56.60 413.47,57.94"/>
    <polyline points="459.88,105.40 455.81,105.08 451.86,104.13 448.16,102.59 444.82,100.49 441.93,97.90 439.58,94.90 437.86,91.58 436.80,88.05 436.44,84.40 436.80,80.75 437.86,77.22 439.58,73.90 441.93,70.90 444.82,68.31 448.16,66.21 451.86,64.67 455.81,63.72 459.88,63.40"/>
    <polyline points="448.75,111.70 448.20,113.04 446.86,113.59 445.52,113.04 444.97,111.70 445.52,110.36 446.86,109.81 448.20,110.36 448.75,111.70"/>
    <polyline points="495.16,84.40 494.78,89.33 493.67,93.96 491.89,98.05 489.54,101.34 486.76,103.64 483.71,104.83 480.57,104.83 477.52,103.64 474.74,101.34 472.39,98.05 470.61,93.96 469.50,89.33 469.12,84.40 469.50,79.47 470.61,74.84 472.39,70.75 474.74,67.46 477.52,65.16 480.57,63.97 483.71,63.97 486.76,65.16 489.54,67.46 491.89,70.75 493.67,74.84 494.78,79.47 495.16,84.40"/>
    <polyline points="485.29,84.40 484.69,86.25 483.11,87.40 481.17,87.40 479.59,86.25 478.99,84.40 479.59,82.55 481.17,81.40 483.11,81.40 484.69,82.55 485.29,84.40"/>
    <polyline points="484.03,57.94 483.48,59.28 482.14,59.83 480.80,59.28 480.25,57.94 480.80,56.60 482.14,56.05 483.48,56.60 484.03,57.94"/>
    <polyline points="530.44,105.40 526.37,105.08 522.42,104.13 518.72,102.59 515.38,100.49 512.49,97.90 510.14,94.90 508.42,91.58 507.36,88.05 507.00,84.40 507.36,80.75 508.42,77.22 510.14,73.90 512.49,70.90 515.38,68.31 518.72,66.21 522.42,64.67 526.37,63.72 530.44,63.40"/>
    <polyline points="506.48,84.40 528.36,84.40"/>
    <polyline points="81.04,139.00 81.04,178.31 80.97,178.91 80.77,179.48 80.45,179.99 80.03,180.41 79.52,180.73 78.95,180.93 78.35,181.00"/>
    <polyline points="81.04,158.74 74.97,159.12 69.32,160.23 64.47,162.00 60.74,164.31 58.40,166.99 57.60,169.87 58.40,172.75 60.74,175.44 64.47,177.74 69.32,179.51 74.97,180.62 81.04,181.00"/>
    <polyline points="69.91,133.54 69.36,134.88 68.02,135.43 66.68,134.88 66.13,133.54 66.68,132.20 68.02,131.65 69.36,132.20 69.91,133.54"/>
    <polyline points="116.32,181.00 116.32,152.02 116.76,148.65 118.06,145.51 120.13,142.81 122.83,140.74 125.97,139.44 129.34,139.00 132.71,139.44 135.85,140.74 138.55,142.81 140.62,145.51 141.92,148.65 142.36,152.02 142.36,181.00"/>
    <polyline points="118.40,160.00 140.28,160.00"/>
    <polyline points="177.64,181.00 173.57,180.68 169.62,179.73 165.92,178.19 162.58,176.09 159.69,173.50 157.34,170.50 155.62,167.18 154.56,163.65 154.20,160.00 154.56,156.35 155.62,152.82 157.34,149.50 159.69,146.50 162.58,143.91 165.92,141.81 169.62,140.27 173.57,139.32 177.64,139.00"/>
    <polyline points="166.51,187.30 165.96,188.64 164.62,189.19 163.28,188.64 162.73,187.30 163.28,185.96 164.62,185.41 165.96,185.96 166.51,187.30"/>
    <polyline points="186.88,139.00 189.77,142.31 192.52,145.65 195.15,149.03 197.64,152.44 200.01,155.89 202.24,159.37 204.35,162.89 206.32,166.44 208.17,170.03 209.88,173.65 211.47,177.31 212.92,181.00"/>
    <polyline points="203.05,160.00 202.45,161.85 200.87,163.00 198.93,163.00 197.35,161.85 196.75,160.00 197.35,158.15 198.93,157.00 200.87,157.00 202.45,158.15 203.05,160.00"/>
    <polyline points="201.79,133.54 201.24,134.88 199.90,135.43 198.56,134.88 198.01,133.54 198.56,132.20 199.90,131.65 201.24,132.20 201.79,133.54"/>
    <polyline points="248.20,139.00 248.20,178.31 248.13,178.91 247.93,179.48 247.61,179.99 247.19,180.41 246.68,180.73 246.11,180.93 245.51,181.00"/>
    <polyline points="248.20,139.00 222.16,139.00 221.32,141.42"/>
    <polyline points="248.20,158.74 242.13,159.12 236.48,160.23 231.63,162.00 227.90,164.31 225.56,166.99 224.76,169.87 225.56,172.75 227.90,175.44 231.63,177.74 236.48,179.51 242.13,180.62 248.20,181.00"/>
    <polyline points="283.48,160.00 283.10,164.93 281.99,169.56 280.21,173.65 277.86,176.94 275.08,179.24 272.03,180.43 268.89,180.43 265.84,179.24 263.06,176.94 260.71,173.65 258.93,169.56 257.82,164.93 257.44,160.00 257.82,155.07 258.93,150.44 260.71,146.35 263.06,143.06 265.84,140.76 268.89,139.57 272.03,139.57 275.08,140.76 277.86,143.06 280.21,146.35 281.99,150.44 283.10,155.07 283.48,160.00"/>
    <polyline points="273.61,160.00 273.01,161.85 271.43,163.00 269.49,163.00 267.91,161.85 267.31,160.00 267.91,158.15 269.49,157.00 271.43,157.00 273.01,158.15 273.61,160.00"/>
    <polyline points="272.35,133.54 271.80,134.88 270.46,135.43 269.12,134.88 268.57,133.54 269.12,132.20 270.46,131.65 271.80,132.20 272.35,133.54"/>
    <polyline points="318.76,181.00 314.69,180.68 310.74,179.73 307.04,178.19 303.70,176.09 300.81,173.50 298.46,170.50 296.74,167.18 295.68,163.65 295.32,160.00 295.68,156.35 296.74,152.82 298.46,149.50 300.81,146.50 303.70,143.91 307.04,141.81 310.74,140.27 314.69,139.32 318.76,139.00"/>
    <polyline points="294.80,160.00 316.68,160.00"/>
    <polyline points="354.04,139.00 354.04,178.31 354.11,178.91 354.31,179.48 354.63,179.99 355.05,180.41 355.56,180.73 356.13,180.93 356.73,181.00"/>
    <polyline points="354.04,139.00 360.11,139.34 365.76,140.32 370.61,141.89 374.34,143.94 376.68,146.32 377.48,148.87 376.68,151.42 374.34,153.81 370.61,155.85 365.76,157.42 360.11,158.40 354.04,158.74"/>
    <polyline points="368.95,133.54 368.40,134.88 367.06,135.43 365.72,134.88 365.17,133.54 365.72,132.20 367.06,131.65 368.40,132.20 368.95,133.54"/>
    <polyline points="415.36,139.00 415.36,178.31 415.29,178.91 415.09,179.48 414.77,179.99 414.35,180.41 413.84,180.73 413.27,180.93 412.67,181.00"/>
    <polyline points="415.36,139.00 409.29,139.34 403.64,140.32 398.79,141.89 395.06,143.94 392.72,146.32 391.92,148.87 392.72,151.42 395.06,153.81 398.79,155.85 403.64,157.42 409.29,158.40 415.36,158.74"/>
    <polyline points="415.36,158.74 409.29,159.12 403.64,160.23 398.79,162.00 395.06,164.31 392.72,166.99 391.92,169.87 392.72,172.75 395.06,175.44 398.79,177.74 403.64,179.51 409.29,180.62 415.36,181.00"/>
    <polyline points="450.64,181.00 446.57,180.68 442.62,179.73 438.92,178.19 435.58,176.09 432.69,173.50 430.34,170.50 428.62,167.18 427.56,163.65 427.20,160.00 427.56,156.35 428.62,152.82 430.34,149.50 432.69,146.50 435.58,143.91 438.92,141.81 442.62,140.27 446.57,139.32 450.64,139.00"/>
    <polyline points="439.51,187.30 438.96,188.64 437.62,189.19 436.28,188.64 435.73,187.30 436.28,185.96 437.62,185.41 438.96,185.96 439.51,187.30"/>
    <polyline points="511.96,139.00 511.96,178.31 511.89,178.91 511.69,179.48 511.37,179.99 510.95,180.41 510.44,180.73 509.87,180.93 509.27,181.00"/>
    <polyline points="511.96,139.00 485.92,139.00 485.08,141.42"/>
    <polyline points="68.02,214.60 68.02,253.91 68.09,254.51 68.29,255.08 68.61,255.59 69.03,256.01 69.54,256.33 70.11,256.53 70.71,256.60"/>
    <polyline points="68.02,214.60 71.05,214.94 73.88,215.92 76.31,217.49 78.17,219.54 79.34,221.92 79.74,224.47 79.34,227.02 78.17,229.41 76.31,231.45 73.88,233.02 71.05,234.00 68.02,234.34"/>
    <polyline points="68.02,234.34 71.05,234.72 73.88,235.83 76.31,237.60 78.17,239.91 79.34,242.59 79.74,245.47 79.34,248.35 78.17,251.04 76.31,253.34 73.88,255.11 71.05,256.22 68.02,256.60"/>
    <polyline points="63.85,210.40 72.19,207.88"/>
    <polyline points="103.30,214.60 103.30,253.91 103.23,254.51 103.03,255.08 102.71,255.59 102.29,256.01 101.78,256.33 101.21,256.53 100.61,256.60"/>
    <polyline points="92.36,234.34 114.24,234.34"/>
    <polyline points="151.60,256.60 147.53,256.28 143.58,255.33 139.88,253.79 136.54,251.69 133.65,249.10 131.30,246.10 129.58,242.78 128.52,239.25 128.16,235.60 128.52,231.95 129.58,228.42 131.30,225.10 133.65,222.10 136.54,219.51 139.88,217.41 143.58,215.87 147.53,214.92 151.60,214.60"/>
    <polyline points="140.47,262.90 139.92,264.24 138.58,264.79 137.24,264.24 136.69,262.90 137.24,261.56 138.58,261.01 139.92,261.56 140.47,262.90"/>
    <polyline points="160.84,214.60 160.84,256.60"/>
    <polyline points="205.78,214.60 208.67,217.91 211.42,221.25 214.05,224.63 216.54,228.04 218.91,231.49 221.14,234.97 223.25,238.49 225.22,242.04 227.07,245.63 228.78,249.25 230.37,252.91 231.82,256.60"/>
    <polyline points="205.78,214.60 231.82,214.60 232.66,217.02"/>
    <polyline points="205.78,256.60 226.61,256.60"/>
    <polyline points="220.69,209.14 220.14,210.48 218.80,211.03 217.46,210.48 216.91,209.14 217.46,207.80 218.80,207.25 220.14,207.80 220.69,209.14"/>
    <polyline points="267.10,256.60 263.03,256.28 259.08,255.33 255.38,253.79 252.04,251.69 249.15,249.10 246.80,246.10 245.08,242.78 244.02,239.25 243.66,235.60 244.02,231.95 245.08,228.42 246.80,225.10 249.15,222.10 252.04,219.51 255.38,217.41 259.08,215.87 263.03,214.92 267.10,214.60"/>
    <polyline points="255.97,262.90 255.42,264.24 254.08,264.79 252.74,264.24 252.19,262.90 252.74,261.56 254.08,261.01 255.42,261.56 255.97,262.90"/>
    <polyline points="289.36,214.60 289.36,253.91 289.43,254.51 289.63,255.08 289.95,255.59 290.37,256.01 290.88,256.33 291.45,256.53 292.05,256.60"/>
    <polyline points="289.36,214.60 292.39,214.94 295.22,215.92 297.65,217.49 299.51,219.54 300.68,221.92 301.08,224.47 300.68,227.02 299.51,229.41 297.65,231.45 295.22,233.02 292.39,234.00 289.36,234.34"/>
    <polyline points="289.36,234.34 292.39,234.72 295.22,235.83 297.65,237.60 299.51,239.91 300.68,242.59 301.08,245.47 300.68,248.35 299.51,251.04 297.65,253.34 295.22,255.11 292.39,256.22 289.36,256.60"/>
    <polyline points="285.19,210.40 293.53,207.88"/>
    <polyline points="311.62,214.60 311.62,253.91 311.69,254.51 311.89,255.08 312.21,255.59 312.63,256.01 313.14,256.33 313.71,256.53 314.31,256.60"/>
    <polyline points="311.62,214.60 337.66,214.60 338.50,217.02"/>
    <polyline points="311.62,234.34 317.69,234.72 323.34,235.83 328.19,237.60 331.92,239.91 334.26,242.59 335.06,245.47 334.26,248.35 331.92,251.04 328.19,253.34 323.34,255.11 317.69,256.22 311.62,256.60"/>
    <polyline points="326.53,262.90 325.98,264.24 324.64,264.79 323.30,264.24 322.75,262.90 323.30,261.56 324.64,261.01 325.98,261.56 326.53,262.90"/>
    <polyline points="372.94,235.60 372.56,240.53 371.45,245.16 369.67,249.25 367.32,252.54 364.54,254.84 361.49,256.03 358.35,256.03 355.30,254.84 352.52,252.54 350.17,249.25 348.39,245.16 347.28,240.53 346.90,235.60 347.28,230.67 348.39,226.04 350.17,221.95 352.52,218.66 355.30,216.36 358.35,215.17 361.49,215.17 364.54,216.36 367.32,218.66 369.67,221.95 371.45,226.04 372.56,230.67 372.94,235.60"/>
    <polyline points="363.07,235.60 362.47,237.45 360.89,238.60 358.95,238.60 357.37,237.45 356.77,235.60 357.37,233.75 358.95,232.60 360.89,232.60 362.47,233.75 363.07,235.60"/>
    <polyline points="361.81,209.14 361.26,210.48 359.92,211.03 358.58,210.48 358.03,209.14 358.58,207.80 359.92,207.25 361.26,207.80 361.81,209.14"/>
    <polyline points="382.18,214.60 386.25,214.92 390.20,215.87 393.90,217.41 397.24,219.51 400.13,222.10 402.48,225.10 404.20,228.42 405.26,231.95 405.62,235.60 405.26,239.25 404.20,242.78 402.48,246.10 400.13,249.10 397.24,251.69 393.90,253.79 390.20,255.33 386.25,256.28 382.18,256.60"/>
    <polyline points="398.35,235.60 397.75,237.45 396.17,238.60 394.23,238.60 392.65,237.45 392.05,235.60 392.65,233.75 394.23,232.60 396.17,232.60 397.75,233.75 398.35,235.60"/>
    <polyline points="397.09,209.14 396.54,210.48 395.20,211.03 393.86,210.48 393.31,209.14 393.86,207.80 395.20,207.25 396.54,207.80 397.09,209.14"/>
    <polyline points="443.50,235.60 443.12,240.53 442.01,245.16 440.23,249.25 437.88,252.54 435.10,254.84 432.05,256.03 428.91,256.03 425.86,254.84 423.08,252.54 420.73,249.25 418.95,245.16 417.84,240.53 417.46,235.60 417.84,230.67 418.95,226.04 420.73,221.95 423.08,218.66 425.86,216.36 428.91,215.17 432.05,215.17 435.10,216.36 437.88,218.66 440.23,221.95 442.01,226.04 443.12,230.67 443.50,235.60"/>
    <polyline points="433.63,235.60 433.03,237.45 431.45,238.60 429.51,238.60 427.93,237.45 427.33,235.60 427.93,233.75 429.51,232.60 431.45,232.60 433.03,233.75 433.63,235.60"/>
    <polyline points="432.37,209.14 431.82,210.48 430.48,211.03 429.14,210.48 428.59,209.14 429.14,207.80 430.48,207.25 431.82,207.80 432.37,209.14"/>
    <polyline points="465.76,214.60 465.76,253.91 465.69,254.51 465.49,255.08 465.17,255.59 464.75,256.01 464.24,256.33 463.67,256.53 463.07,256.60"/>
    <polyline points="454.82,234.34 476.70,234.34"/>
    <polyline points="68.02,290.20 68.02,329.51 67.95,330.11 67.75,330.68 67.43,331.19 67.01,331.61 66.50,331.93 65.93,332.13 65.33,332.20"/>
    <polyline points="68.02,290.20 64.99,290.54 62.16,291.52 59.73,293.09 57.87,295.14 56.70,297.52 56.30,300.07 56.70,302.62 57.87,305.01 59.73,307.05 62.16,308.62 64.99,309.60 68.02,309.94"/>
    <polyline points="63.15,324.43 62.59,326.16 61.12,327.23 59.30,327.23 57.83,326.16 57.27,324.43 57.83,322.70 59.30,321.63 61.12,321.63 62.59,322.70 63.15,324.43"/>
    <polyline points="116.32,311.20 115.94,316.13 114.83,320.76 113.05,324.85 110.70,328.14 107.92,330.44 104.87,331.63 101.73,331.63 98.68,330.44 95.90,328.14 93.55,324.85 91.77,320.76 90.66,316.13 90.28,311.20 90.66,306.27 91.77,301.64 93.55,297.55 95.90,294.26 98.68,291.96 101.73,290.77 104.87,290.77 107.92,291.96 110.70,294.26 113.05,297.55 114.83,301.64 115.94,306.27 116.32,311.20"/>
    <polyline points="106.45,311.20 105.85,313.05 104.27,314.20 102.33,314.20 100.75,313.05 100.15,311.20 100.75,309.35 102.33,308.20 104.27,308.20 105.85,309.35 106.45,311.20"/>
    <polyline points="105.19,284.74 104.64,286.08 103.30,286.63 101.96,286.08 101.41,284.74 101.96,283.40 103.30,282.85 104.64,283.40 105.19,284.74"/>
    <polyline points="151.60,290.20 151.60,329.51 151.53,330.11 151.33,330.68 151.01,331.19 150.59,331.61 150.08,331.93 149.51,332.13 148.91,332.20"/>
    <polyline points="151.60,290.20 147.03,290.60 142.63,291.80 138.58,293.74 135.03,296.35 132.11,299.53 129.95,303.16 128.61,307.10 128.16,311.20 128.61,315.30 129.95,319.24 132.11,322.87 135.03,326.05 138.58,328.66 142.63,330.60 147.03,331.80 151.60,332.20"/>
    <polyline points="186.88,290.20 186.88,329.51 186.81,330.11 186.61,330.68 186.29,331.19 185.87,331.61 185.36,331.93 184.79,332.13 184.19,332.20"/>
    <polyline points="186.88,290.20 160.84,290.20 160.00,292.62"/>
    <polyline points="186.88,309.94 180.81,310.32 175.16,311.43 170.31,313.20 166.58,315.51 164.24,318.19 163.44,321.07 164.24,323.95 166.58,326.64 170.31,328.94 175.16,330.71 180.81,331.82 186.88,332.20"/>
    <polyline points="196.12,290.20 199.01,293.51 201.76,296.85 204.39,300.23 206.88,303.64 209.25,307.09 211.48,310.57 213.59,314.09 215.56,317.64 217.41,321.23 219.12,324.85 220.71,328.51 222.16,332.20"/>
    <polyline points="196.12,290.20 222.16,290.20 223.00,292.62"/>
    <polyline points="196.12,332.20 216.95,332.20"/>
    <polyline points="211.03,284.74 210.48,286.08 209.14,286.63 207.80,286.08 207.25,284.74 207.80,283.40 209.14,282.85 210.48,283.40 211.03,284.74"/>
    <polyline points="257.44,332.20 253.37,331.88 249.42,330.93 245.72,329.39 242.38,327.29 239.49,324.70 237.14,321.70 235.42,318.38 234.36,314.85 234.00,311.20 234.36,307.55 235.42,304.02 237.14,300.70 239.49,297.70 242.38,295.11 245.72,293.01 249.42,291.47 253.37,290.52 257.44,290.20"/>
    <polyline points="233.48,311.20 255.36,311.20"/>
    <polyline points="292.72,290.20 292.72,329.51 292.65,330.11 292.45,330.68 292.13,331.19 291.71,331.61 291.20,331.93 290.63,332.13 290.03,332.20"/>
    <polyline points="292.72,309.94 286.65,310.32 281.00,311.43 276.15,313.20 272.42,315.51 270.08,318.19 269.28,321.07 270.08,323.95 272.42,326.64 276.15,328.94 281.00,330.71 286.65,331.82 292.72,332.20"/>
    <polyline points="281.59,284.74 281.04,286.08 279.70,286.63 278.36,286.08 277.81,284.74 278.36,283.40 279.70,282.85 281.04,283.40 281.59,284.74"/>
    <polyline points="328.00,290.20 328.00,329.51 328.07,330.11 328.27,330.68 328.59,331.19 329.01,331.61 329.52,331.93 330.09,332.13 330.69,332.20"/>
    <polyline points="328.00,290.20 334.07,290.54 339.72,291.52 344.57,293.09 348.30,295.14 350.64,297.52 351.44,300.07 350.64,302.62 348.30,305.01 344.57,307.05 339.72,308.62 334.07,309.60 328.00,309.94"/>
    <polyline points="342.91,284.74 342.36,286.08 341.02,286.63 339.68,286.08 339.13,284.74 339.68,283.40 341.02,282.85 342.36,283.40 342.91,284.74"/>
    <polyline points="389.32,290.20 389.32,329.51 389.25,330.11 389.05,330.68 388.73,331.19 388.31,331.61 387.80,331.93 387.23,332.13 386.63,332.20"/>
    <polyline points="389.32,290.20 383.25,290.54 377.60,291.52 372.75,293.09 369.02,295.14 366.68,297.52 365.88,300.07 366.68,302.62 369.02,305.01 372.75,307.05 377.60,308.62 383.25,309.60 389.32,309.94"/>
    <polyline points="389.32,309.94 383.25,310.32 377.60,311.43 372.75,313.20 369.02,315.51 366.68,318.19 365.88,321.07 366.68,323.95 369.02,326.64 372.75,328.94 377.60,330.71 383.25,331.82 389.32,332.20"/>
    <polyline points="398.56,290.20 398.56,329.51 398.63,330.11 398.83,330.68 399.15,331.19 399.57,331.61 400.08,331.93 400.65,332.13 401.25,332.20"/>
    <polyline points="398.56,290.20 424.60,290.20 425.44,292.62"/>
    <polyline points="398.56,309.94 404.63,310.32 410.28,311.43 415.13,313.20 418.86,315.51 421.20,318.19 422.00,321.07 421.20,323.95 418.86,326.64 415.13,328.94 410.28,330.71 404.63,331.82 398.56,332.20"/>
    <polyline points="413.47,338.50 412.92,339.84 411.58,340.39 410.24,339.84 409.69,338.50 410.24,337.16 411.58,336.61 412.92,337.16 413.47,338.50"/>
    <polyline points="459.88,290.20 459.88,329.51 459.81,330.11 459.61,330.68 459.29,331.19 458.87,331.61 458.36,331.93 457.79,332.13 457.19,332.20"/>
    <polyline points="459.88,290.20 433.84,290.20 433.00,292.62"/>
    <polyline points="459.88,309.94 453.81,310.32 448.16,311.43 443.31,313.20 439.58,315.51 437.24,318.19 436.44,321.07 437.24,323.95 439.58,326.64 443.31,328.94 448.16,330.71 453.81,331.82 459.88,332.20"/>
    <polyline points="482.14,290.20 482.14,329.51 482.07,330.11 481.87,330.68 481.55,331.19 481.13,331.61 480.62,331.93 480.05,332.13 479.45,332.20"/>
    <polyline points="482.14,290.20 479.11,290.54 476.28,291.52 473.85,293.09 471.99,295.14 470.82,297.52 470.42,300.07 470.82,302.62 471.99,305.01 473.85,307.05 476.28,308.62 479.11,309.60 482.14,309.94"/>
    <polyline points="477.27,324.43 476.71,326.16 475.24,327.23 473.42,327.23 471.95,326.16 471.39,324.43 471.95,322.70 473.42,321.63 475.24,321.63 476.71,322.70 477.27,324.43"/>
    <polyline points="517.42,290.20 517.42,329.51 517.35,330.11 517.15,330.68 516.83,331.19 516.41,331.61 515.90,331.93 515.33,332.13 514.73,332.20"/>
    <polyline points="506.48,309.94 528.36,309.94"/>
    <polyline points="81.04,365.80 81.04,405.11 80.97,405.71 80.77,406.28 80.45,406.79 80.03,407.21 79.52,407.53 78.95,407.73 78.35,407.80"/>
    <polyline points="81.04,365.80 74.97,366.14 69.32,367.12 64.47,368.69 60.74,370.74 58.40,373.12 57.60,375.67 58.40,378.22 60.74,380.61 64.47,382.65 69.32,384.22 74.97,385.20 81.04,385.54"/>
    <polyline points="81.04,385.54 74.97,385.92 69.32,387.03 64.47,388.80 60.74,391.11 58.40,393.79 57.60,396.67 58.40,399.55 60.74,402.24 64.47,404.54 69.32,406.31 74.97,407.42 81.04,407.80"/>
    <polyline points="142.36,365.80 142.36,405.11 142.29,405.71 142.09,406.28 141.77,406.79 141.35,407.21 140.84,407.53 140.27,407.73 139.67,407.80"/>
    <polyline points="142.36,365.80 136.29,366.14 130.64,367.12 125.79,368.69 122.06,370.74 119.72,373.12 118.92,375.67 119.72,378.22 122.06,380.61 125.79,382.65 130.64,384.22 136.29,385.20 142.36,385.54"/>
    <polyline points="129.68,400.03 129.11,401.76 127.64,402.83 125.83,402.83 124.36,401.76 123.80,400.03 124.36,398.30 125.83,397.23 127.64,397.23 129.11,398.30 129.68,400.03"/>
    <polyline points="164.62,365.80 164.62,405.11 164.69,405.71 164.89,406.28 165.21,406.79 165.63,407.21 166.14,407.53 166.71,407.73 167.31,407.80"/>
    <polyline points="164.62,365.80 167.65,366.14 170.48,367.12 172.91,368.69 174.77,370.74 175.94,373.12 176.34,375.67 175.94,378.22 174.77,380.61 172.91,382.65 170.48,384.22 167.65,385.20 164.62,385.54"/>
    <polyline points="164.62,385.54 167.65,385.92 170.48,387.03 172.91,388.80 174.77,391.11 175.94,393.79 176.34,396.67 175.94,399.55 174.77,402.24 172.91,404.54 170.48,406.31 167.65,407.42 164.62,407.80"/>
    <polyline points="160.45,361.60 168.79,359.08"/>
    <polyline points="186.88,365.80 186.88,405.11 186.95,405.71 187.15,406.28 187.47,406.79 187.89,407.21 188.40,407.53 188.97,407.73 189.57,407.80"/>
    <polyline points="186.88,365.80 192.95,366.14 198.60,367.12 203.45,368.69 207.18,370.74 209.52,373.12 210.32,375.67 209.52,378.22 207.18,380.61 203.45,382.65 198.60,384.22 192.95,385.20 186.88,385.54"/>
    <polyline points="201.79,360.34 201.24,361.68 199.90,362.23 198.56,361.68 198.01,360.34 198.56,359.00 199.90,358.45 201.24,359.00 201.79,360.34"/>
    <polyline points="248.20,407.80 244.13,407.48 240.18,406.53 236.48,404.99 233.14,402.89 230.25,400.30 227.90,397.30 226.18,393.98 225.12,390.45 224.76,386.80 225.12,383.15 226.18,379.62 227.90,376.30 230.25,373.30 233.14,370.71 236.48,368.61 240.18,367.07 244.13,366.12 248.20,365.80"/>
    <polyline points="237.07,414.10 236.52,415.44 235.18,415.99 233.84,415.44 233.29,414.10 233.84,412.76 235.18,412.21 236.52,412.76 237.07,414.10"/>
    <polyline points="257.44,365.80 257.44,405.11 257.51,405.71 257.71,406.28 258.03,406.79 258.45,407.21 258.96,407.53 259.53,407.73 260.13,407.80"/>
    <polyline points="257.44,365.80 283.48,365.80 284.32,368.22"/>
    <polyline points="257.44,385.54 263.51,385.92 269.16,387.03 274.01,388.80 277.74,391.11 280.08,393.79 280.88,396.67 280.08,399.55 277.74,402.24 274.01,404.54 269.16,406.31 263.51,407.42 257.44,407.80"/>
    <polyline points="272.35,414.10 271.80,415.44 270.46,415.99 269.12,415.44 268.57,414.10 269.12,412.76 270.46,412.21 271.80,412.76 272.35,414.10"/>
    <polyline points="292.72,365.80 296.79,366.12 300.74,367.07 304.44,368.61 307.78,370.71 310.67,373.30 313.02,376.30 314.74,379.62 315.80,383.15 316.16,386.80 315.80,390.45 314.74,393.98 313.02,397.30 310.67,400.30 307.78,402.89 304.44,404.99 300.74,406.53 296.79,407.48 292.72,407.80"/>
    <polyline points="308.89,386.80 308.29,388.65 306.71,389.80 304.77,389.80 303.19,388.65 302.59,386.80 303.19,384.95 304.77,383.80 306.71,383.80 308.29,384.95 308.89,386.80"/>
    <polyline points="307.63,360.34 307.08,361.68 305.74,362.23 304.40,361.68 303.85,360.34 304.40,359.00 305.74,358.45 307.08,359.00 307.63,360.34"/>
    <polyline points="341.02,365.80 341.02,405.11 341.09,405.71 341.29,406.28 341.61,406.79 342.03,407.21 342.54,407.53 343.11,407.73 343.71,407.80"/>
    <polyline points="341.02,365.80 344.05,366.14 346.88,367.12 349.31,368.69 351.17,370.74 352.34,373.12 352.74,375.67 352.34,378.22 351.17,380.61 349.31,382.65 346.88,384.22 344.05,385.20 341.02,385.54"/>
    <polyline points="341.02,385.54 344.05,385.92 346.88,387.03 349.31,388.80 351.17,391.11 352.34,393.79 352.74,396.67 352.34,399.55 351.17,402.24 349.31,404.54 346.88,406.31 344.05,407.42 341.02,407.80"/>
    <polyline points="336.85,361.60 345.19,359.08"/>
    <polyline points="363.28,365.80 366.17,369.11 368.92,372.45 371.55,375.83 374.04,379.24 376.41,382.69 378.64,386.17 380.75,389.69 382.72,393.24 384.57,396.83 386.28,400.45 387.87,404.11 389.32,407.80"/>
    <polyline points="363.28,365.80 389.32,365.80 390.16,368.22"/>
    <polyline points="363.28,407.80 384.11,407.80"/>
    <polyline points="378.19,360.34 377.64,361.68 376.30,362.23 374.96,361.68 374.41,360.34 374.96,359.00 376.30,358.45 377.64,359.00 378.19,360.34"/>
    <polyline points="424.60,365.80 424.60,405.11 424.53,405.71 424.33,406.28 424.01,406.79 423.59,407.21 423.08,407.53 422.51,407.73 421.91,407.80"/>
    <polyline points="424.60,385.54 418.53,385.92 412.88,387.03 408.03,388.80 404.30,391.11 401.96,393.79 401.16,396.67 401.96,399.55 404.30,402.24 408.03,404.54 412.88,406.31 418.53,407.42 424.60,407.80"/>
    <polyline points="413.47,360.34 412.92,361.68 411.58,362.23 410.24,361.68 409.69,360.34 410.24,359.00 411.58,358.45 412.92,359.00 413.47,360.34"/>
    <polyline points="437.41,406.12 436.98,407.16 435.94,407.59 434.90,407.16 434.47,406.12 434.90,405.08 435.94,404.65 436.98,405.08 437.41,406.12"/>
    <polyline points="498.52,365.80 498.52,405.11 498.45,405.71 498.25,406.28 497.93,406.79 497.51,407.21 497.00,407.53 496.43,407.73 495.83,407.80"/>
    <polyline points="498.52,365.80 492.45,366.14 486.80,367.12 481.95,368.69 478.22,370.74 475.88,373.12 475.08,375.67 475.88,378.22 478.22,380.61 481.95,382.65 486.80,384.22 492.45,385.20 498.52,385.54"/>
    <polyline points="485.84,400.03 485.27,401.76 483.80,402.83 481.99,402.83 480.52,401.76 479.96,400.03 480.52,398.30 481.99,397.23 483.80,397.23 485.27,398.30 485.84,400.03"/>
    <polyline points="533.80,365.80 533.80,405.11 533.73,405.71 533.53,406.28 533.21,406.79 532.79,407.21 532.28,407.53 531.71,407.73 531.11,407.80"/>
    <polyline points="533.80,365.80 507.76,365.80 506.92,368.22"/>
    <polyline points="533.80,385.54 527.73,385.92 522.08,387.03 517.23,388.80 513.50,391.11 511.16,393.79 510.36,396.67 511.16,399.55 513.50,402.24 517.23,404.54 522.08,406.31 527.73,407.42 533.80,407.80"/>
    <polyline points="81.04,462.40 80.66,467.33 79.55,471.96 77.77,476.05 75.42,479.34 72.64,481.64 69.59,482.83 66.45,482.83 63.40,481.64 60.62,479.34 58.27,476.05 56.49,471.96 55.38,467.33 55.00,462.40 55.38,457.47 56.49,452.84 58.27,448.75 60.62,445.46 63.40,443.16 66.45,441.97 69.59,441.97 72.64,443.16 75.42,445.46 77.77,448.75 79.55,452.84 80.66,457.47 81.04,462.40"/>
    <polyline points="68.02,441.40 68.02,483.40"/>
    <polyline points="116.32,483.40 112.25,483.08 108.30,482.13 104.60,480.59 101.26,478.49 98.37,475.90 96.02,472.90 94.30,469.58 93.24,466.05 92.88,462.40 93.24,458.75 94.30,455.22 96.02,451.90 98.37,448.90 101.26,446.31 104.60,444.21 108.30,442.67 112.25,441.72 116.32,441.40"/>
    <polyline points="105.19,489.70 104.64,491.04 103.30,491.59 101.96,491.04 101.41,489.70 101.96,488.36 103.30,487.81 104.64,488.36 105.19,489.70"/>
    <polyline points="151.60,441.40 151.60,480.71 151.53,481.31 151.33,481.88 151.01,482.39 150.59,482.81 150.08,483.13 149.51,483.33 148.91,483.40"/>
    <polyline points="151.60,441.40 145.53,441.74 139.88,442.72 135.03,444.29 131.30,446.34 128.96,448.72 128.16,451.27 128.96,453.82 131.30,456.21 135.03,458.25 139.88,459.82 145.53,460.80 151.60,461.14"/>
    <polyline points="138.92,475.63 138.35,477.36 136.88,478.43 135.07,478.43 133.60,477.36 133.04,475.63 133.60,473.90 135.07,472.83 136.88,472.83 138.35,473.90 138.92,475.63"/>
    <polyline points="186.88,483.40 182.81,483.08 178.86,482.13 175.16,480.59 171.82,478.49 168.93,475.90 166.58,472.90 164.86,469.58 163.80,466.05 163.44,462.40 163.80,458.75 164.86,455.22 166.58,451.90 168.93,448.90 171.82,446.31 175.16,444.21 178.86,442.67 182.81,441.72 186.88,441.40"/>
    <polyline points="175.75,489.70 175.20,491.04 173.86,491.59 172.52,491.04 171.97,489.70 172.52,488.36 173.86,487.81 175.20,488.36 175.75,489.70"/>
    <polyline points="222.16,462.40 221.78,467.33 220.67,471.96 218.89,476.05 216.54,479.34 213.76,481.64 210.71,482.83 207.57,482.83 204.52,481.64 201.74,479.34 199.39,476.05 197.61,471.96 196.50,467.33 196.12,462.40 196.50,457.47 197.61,452.84 199.39,448.75 201.74,445.46 204.52,443.16 207.57,441.97 210.71,441.97 213.76,443.16 216.54,445.46 218.89,448.75 220.67,452.84 221.78,457.47 222.16,462.40"/>
    <polyline points="212.29,462.40 211.69,464.25 210.11,465.40 208.17,465.40 206.59,464.25 205.99,462.40 206.59,460.55 208.17,459.40 210.11,459.40 211.69,460.55 212.29,462.40"/>
    <polyline points="211.03,435.94 210.48,437.28 209.14,437.83 207.80,437.28 207.25,435.94 207.80,434.60 209.14,434.05 210.48,434.60 211.03,435.94"/>
    <polyline points="231.40,441.40 231.40,480.71 231.47,481.31 231.67,481.88 231.99,482.39 232.41,482.81 232.92,483.13 233.49,483.33 234.09,483.40"/>
    <polyline points="231.40,441.40 237.47,441.74 243.12,442.72 247.97,444.29 251.70,446.34 254.04,448.72 254.84,451.27 254.04,453.82 251.70,456.21 247.97,458.25 243.12,459.82 237.47,460.80 231.40,461.14"/>
    <polyline points="246.31,435.94 245.76,437.28 244.42,437.83 243.08,437.28 242.53,435.94 243.08,434.60 244.42,434.05 245.76,434.60 246.31,435.94"/>
    <polyline points="270.25,481.72 269.82,482.76 268.78,483.19 267.74,482.76 267.31,481.72 267.74,480.68 268.78,480.25 269.82,480.68 270.25,481.72"/>
    <polyline points="305.32,441.40 305.32,470.38 305.76,473.75 307.06,476.89 309.13,479.59 311.83,481.66 314.97,482.96 318.34,483.40 321.71,482.96 324.85,481.66 327.55,479.59 329.62,476.89 330.92,473.75 331.36,470.38 331.36,441.40"/>
    <polyline points="321.49,462.40 320.89,464.25 319.31,465.40 317.37,465.40 315.79,464.25 315.19,462.40 315.79,460.55 317.37,459.40 319.31,459.40 320.89,460.55 321.49,462.40"/>
    <polyline points="366.64,441.40 366.64,480.71 366.57,481.31 366.37,481.88 366.05,482.39 365.63,482.81 365.12,483.13 364.55,483.33 363.95,483.40"/>
    <polyline points="366.64,441.40 340.60,441.40 339.76,443.82"/>
    <polyline points="366.64,461.14 360.57,461.52 354.92,462.63 350.07,464.40 346.34,466.71 344.00,469.39 343.20,472.27 344.00,475.15 346.34,477.84 350.07,480.14 354.92,481.91 360.57,483.02 366.64,483.40"/>
    <polyline points="401.92,462.40 401.54,467.33 400.43,471.96 398.65,476.05 396.30,479.34 393.52,481.64 390.47,482.83 387.33,482.83 384.28,481.64 381.50,479.34 379.15,476.05 377.37,471.96 376.26,467.33 375.88,462.40 376.26,457.47 377.37,452.84 379.15,448.75 381.50,445.46 384.28,443.16 387.33,441.97 390.47,441.97 393.52,443.16 396.30,445.46 398.65,448.75 400.43,452.84 401.54,457.47 401.92,462.40"/>
    <polyline points="392.05,462.40 391.45,464.25 389.87,465.40 387.93,465.40 386.35,464.25 385.75,462.40 386.35,460.55 387.93,459.40 389.87,459.40 391.45,460.55 392.05,462.40"/>
    <polyline points="390.79,435.94 390.24,437.28 388.90,437.83 387.56,437.28 387.01,435.94 387.56,434.60 388.90,434.05 390.24,434.60 390.79,435.94"/>
    <polyline points="437.20,462.40 436.82,467.33 435.71,471.96 433.93,476.05 431.58,479.34 428.80,481.64 425.75,482.83 422.61,482.83 419.56,481.64 416.78,479.34 414.43,476.05 412.65,471.96 411.54,467.33 411.16,462.40 411.54,457.47 412.65,452.84 414.43,448.75 416.78,445.46 419.56,443.16 422.61,441.97 425.75,441.97 428.80,443.16 431.58,445.46 433.93,448.75 435.71,452.84 436.82,457.47 437.20,462.40"/>
    <polyline points="424.18,441.40 424.18,483.40"/>
    <polyline points="472.48,483.40 468.41,483.08 464.46,482.13 460.76,480.59 457.42,478.49 454.53,475.90 452.18,472.90 450.46,469.58 449.40,466.05 449.04,462.40 449.40,458.75 450.46,455.22 452.18,451.90 454.53,448.90 457.42,446.31 460.76,444.21 464.46,442.67 468.41,441.72 472.48,441.40"/>
    <polyline points="461.35,489.70 460.80,491.04 459.46,491.59 458.12,491.04 457.57,489.70 458.12,488.36 459.46,487.81 460.80,488.36 461.35,489.70"/>
    <polyline points="481.72,441.40 481.72,480.71 481.79,481.31 481.99,481.88 482.31,482.39 482.73,482.81 483.24,483.13 483.81,483.33 484.41,483.40"/>
    <polyline points="481.72,441.40 507.76,441.40 508.60,443.82"/>
    <polyline points="481.72,461.14 487.79,461.52 493.44,462.63 498.29,464.40 502.02,466.71 504.36,469.39 505.16,472.27 504.36,475.15 502.02,477.84 498.29,480.14 493.44,481.91 487.79,483.02 481.72,483.40"/>
    <polyline points="496.63,489.70 496.08,491.04 494.74,491.59 493.40,491.04 492.85,489.70 493.40,488.36 494.74,487.81 496.08,488.36 496.63,489.70"/>
    <polyline points="81.04,517.00 81.04,556.31 80.97,556.91 80.77,557.48 80.45,557.99 80.03,558.41 79.52,558.73 78.95,558.93 78.35,559.00"/>
    <polyline points="81.04,536.74 74.97,537.12 69.32,538.23 64.47,540.00 60.74,542.31 58.40,544.99 57.60,547.87 58.40,550.75 60.74,553.44 64.47,555.74 69.32,557.51 74.97,558.62 81.04,559.00"/>
    <polyline points="69.91,511.54 69.36,512.88 68.02,513.43 66.68,512.88 66.13,511.54 66.68,510.20 68.02,509.65 69.36,510.20 69.91,511.54"/>
    <polyline points="103.30,517.00 103.30,556.31 103.37,556.91 103.57,557.48 103.89,557.99 104.31,558.41 104.82,558.73 105.39,558.93 105.99,559.00"/>
    <polyline points="103.30,517.00 106.33,517.34 109.16,518.32 111.59,519.89 113.45,521.94 114.62,524.32 115.02,526.87 114.62,529.42 113.45,531.81 111.59,533.85 109.16,535.42 106.33,536.40 103.30,536.74"/>
    <polyline points="103.30,536.74 106.33,537.12 109.16,538.23 111.59,540.00 113.45,542.31 114.62,544.99 115.02,547.87 114.62,550.75 113.45,553.44 111.59,555.74 109.16,557.51 106.33,558.62 103.30,559.00"/>
    <polyline points="99.13,512.80 107.47,510.28"/>
    <polyline points="125.56,517.00 125.56,556.31 125.63,556.91 125.83,557.48 126.15,557.99 126.57,558.41 127.08,558.73 127.65,558.93 128.25,559.00"/>
    <polyline points="125.56,517.00 131.63,517.34 137.28,518.32 142.13,519.89 145.86,521.94 148.20,524.32 149.00,526.87 148.20,529.42 145.86,531.81 142.13,533.85 137.28,535.42 131.63,536.40 125.56,536.74"/>
    <polyline points="140.47,511.54 139.92,512.88 138.58,513.43 137.24,512.88 136.69,511.54 137.24,510.20 138.58,509.65 139.92,510.20 140.47,511.54"/>
    <polyline points="160.84,517.00 164.91,517.32 168.86,518.27 172.56,519.81 175.90,521.91 178.79,524.50 181.14,527.50 182.86,530.82 183.92,534.35 184.28,538.00 183.92,541.65 182.86,545.18 181.14,548.50 178.79,551.50 175.90,554.09 172.56,556.19 168.86,557.73 164.91,558.68 160.84,559.00"/>
    <polyline points="177.01,538.00 176.41,539.85 174.83,541.00 172.89,541.00 171.31,539.85 170.71,538.00 171.31,536.15 172.89,535.00 174.83,535.00 176.41,536.15 177.01,538.00"/>
    <polyline points="175.75,511.54 175.20,512.88 173.86,513.43 172.52,512.88 171.97,511.54 172.52,510.20 173.86,509.65 175.20,510.20 175.75,511.54"/>
    <polyline points="222.16,517.00 222.16,556.31 222.09,556.91 221.89,557.48 221.57,557.99 221.15,558.41 220.64,558.73 220.07,558.93 219.47,559.00"/>
    <polyline points="222.16,517.00 196.12,517.00 195.28,519.42"/>
    <polyline points="222.16,536.74 216.09,537.12 210.44,538.23 205.59,540.00 201.86,542.31 199.52,544.99 198.72,547.87 199.52,550.75 201.86,553.44 205.59,555.74 210.44,557.51 216.09,558.62 222.16,559.00"/>
    <polyline points="257.44,538.00 257.06,542.93 255.95,547.56 254.17,551.65 251.82,554.94 249.04,557.24 245.99,558.43 242.85,558.43 239.80,557.24 237.02,554.94 234.67,551.65 232.89,547.56 231.78,542.93 231.40,538.00 231.78,533.07 232.89,528.44 234.67,524.35 237.02,521.06 239.80,518.76 242.85,517.57 245.99,517.57 249.04,518.76 251.82,521.06 254.17,524.35 255.95,528.44 257.06,533.07 257.44,538.00"/>
    <polyline points="247.57,538.00 246.97,539.85 245.39,541.00 243.45,541.00 241.87,539.85 241.27,538.00 241.87,536.15 243.45,535.00 245.39,535.00 246.97,536.15 247.57,538.00"/>
    <polyline points="246.31,511.54 245.76,512.88 244.42,513.43 243.08,512.88 242.53,511.54 243.08,510.20 244.42,509.65 245.76,510.20 246.31,511.54"/>
    <polyline points="305.74,517.00 305.74,556.31 305.81,556.91 306.01,557.48 306.33,557.99 306.75,558.41 307.26,558.73 307.83,558.93 308.43,559.00"/>
    <polyline points="305.74,517.00 308.77,517.34 311.60,518.32 314.03,519.89 315.89,521.94 317.06,524.32 317.46,526.87 317.06,529.42 315.89,531.81 314.03,533.85 311.60,535.42 308.77,536.40 305.74,536.74"/>
    <polyline points="305.74,536.74 308.77,537.12 311.60,538.23 314.03,540.00 315.89,542.31 317.06,544.99 317.46,547.87 317.06,550.75 315.89,553.44 314.03,555.74 311.60,557.51 308.77,558.62 305.74,559.00"/>
    <polyline points="301.57,512.80 309.91,510.28"/>
    <polyline points="354.04,538.00 353.66,542.93 352.55,547.56 350.77,551.65 348.42,554.94 345.64,557.24 342.59,558.43 339.45,558.43 336.40,557.24 333.62,554.94 331.27,551.65 329.49,547.56 328.38,542.93 328.00,538.00 328.38,533.07 329.49,528.44 331.27,524.35 333.62,521.06 336.40,518.76 339.45,517.57 342.59,517.57 345.64,518.76 348.42,521.06 350.77,524.35 352.55,528.44 353.66,533.07 354.04,538.00"/>
    <polyline points="344.17,538.00 343.57,539.85 341.99,541.00 340.05,541.00 338.47,539.85 337.87,538.00 338.47,536.15 340.05,535.00 341.99,535.00 343.57,536.15 344.17,538.00"/>
    <polyline points="342.91,511.54 342.36,512.88 341.02,513.43 339.68,512.88 339.13,511.54 339.68,510.20 341.02,509.65 342.36,510.20 342.91,511.54"/>
    <polyline points="389.32,559.00 385.25,558.68 381.30,557.73 377.60,556.19 374.26,554.09 371.37,551.50 369.02,548.50 367.30,545.18 366.24,541.65 365.88,538.00 366.24,534.35 367.30,530.82 369.02,527.50 371.37,524.50 374.26,521.91 377.60,519.81 381.30,518.27 385.25,517.32 389.32,517.00"/>
    <polyline points="365.36,538.00 387.24,538.00"/>
    <polyline points="424.60,517.00 428.67,517.32 432.62,518.27 436.32,519.81 439.66,521.91 442.55,524.50 444.90,527.50 446.62,530.82 447.68,534.35 448.04,538.00 447.68,541.65 446.62,545.18 444.90,548.50 442.55,551.50 439.66,554.09 436.32,556.19 432.62,557.73 428.67,558.68 424.60,559.00"/>
    <polyline points="440.77,538.00 440.17,539.85 438.59,541.00 436.65,541.00 435.07,539.85 434.47,538.00 435.07,536.15 436.65,535.00 438.59,535.00 440.17,536.15 440.77,538.00"/>
    <polyline points="439.51,511.54 438.96,512.88 437.62,513.43 436.28,512.88 435.73,511.54 436.28,510.20 437.62,509.65 438.96,510.20 439.51,511.54"/>
    <polyline points="485.92,517.00 485.92,556.31 485.85,556.91 485.65,557.48 485.33,557.99 484.91,558.41 484.40,558.73 483.83,558.93 483.23,559.00"/>
    <polyline points="485.92,517.00 479.85,517.34 474.20,518.32 469.35,519.89 465.62,521.94 463.28,524.32 462.48,526.87 463.28,529.42 465.62,531.81 469.35,533.85 474.20,535.42 479.85,536.40 485.92,536.74"/>
    <polyline points="473.24,551.23 472.67,552.96 471.20,554.03 469.39,554.03 467.92,552.96 467.36,551.23 467.92,549.50 469.39,548.43 471.20,548.43 472.67,549.50 473.24,551.23"/>
    <polyline points="508.18,517.00 508.18,556.31 508.25,556.91 508.45,557.48 508.77,557.99 509.19,558.41 509.70,558.73 510.27,558.93 510.87,559.00"/>
    <polyline points="508.18,517.00 511.21,517.34 514.04,518.32 516.47,519.89 518.33,521.94 519.50,524.32 519.90,526.87 519.50,529.42 518.33,531.81 516.47,533.85 514.04,535.42 511.21,536.40 508.18,536.74"/>
    <polyline points="508.18,536.74 511.21,537.12 514.04,538.23 516.47,540.00 518.33,542.31 519.50,544.99 519.90,547.87 519.50,550.75 518.33,553.44 516.47,555.74 514.04,557.51 511.21,558.62 508.18,559.00"/>
    <polyline points="504.01,512.80 512.35,510.28"/>
    <polyline points="68.02,592.60 68.02,631.91 67.95,632.51 67.75,633.08 67.43,633.59 67.01,634.01 66.50,634.33 65.93,634.53 65.33,634.60"/>
    <polyline points="57.08,612.34 78.96,612.34"/>
    <polyline points="90.28,592.60 94.35,592.92 98.30,593.87 102.00,595.41 105.34,597.51 108.23,600.10 110.58,603.10 112.30,606.42 113.36,609.95 113.72,613.60 113.36,617.25 112.30,620.78 110.58,624.10 108.23,627.10 105.34,629.69 102.00,631.79 98.30,633.33 94.35,634.28 90.28,634.60"/>
    <polyline points="106.45,613.60 105.85,615.45 104.27,616.60 102.33,616.60 100.75,615.45 100.15,613.60 100.75,611.75 102.33,610.60 104.27,610.60 105.85,611.75 106.45,613.60"/>
    <polyline points="105.19,587.14 104.64,588.48 103.30,589.03 101.96,588.48 101.41,587.14 101.96,585.80 103.30,585.25 104.64,585.80 105.19,587.14"/>
    <polyline points="151.60,613.60 151.22,618.53 150.11,623.16 148.33,627.25 145.98,630.54 143.20,632.84 140.15,634.03 137.01,634.03 133.96,632.84 131.18,630.54 128.83,627.25 127.05,623.16 125.94,618.53 125.56,613.60 125.94,608.67 127.05,604.04 128.83,599.95 131.18,596.66 133.96,594.36 137.01,593.17 140.15,593.17 143.20,594.36 145.98,596.66 148.33,599.95 150.11,604.04 151.22,608.67 151.60,613.60"/>
    <polyline points="141.73,613.60 141.13,615.45 139.55,616.60 137.61,616.60 136.03,615.45 135.43,613.60 136.03,611.75 137.61,610.60 139.55,610.60 141.13,611.75 141.73,613.60"/>
    <polyline points="140.47,587.14 139.92,588.48 138.58,589.03 137.24,588.48 136.69,587.14 137.24,585.80 138.58,585.25 139.92,585.80 140.47,587.14"/>
    <polyline points="173.86,592.60 173.86,631.91 173.93,632.51 174.13,633.08 174.45,633.59 174.87,634.01 175.38,634.33 175.95,634.53 176.55,634.60"/>
    <polyline points="173.86,592.60 176.89,592.94 179.72,593.92 182.15,595.49 184.01,597.54 185.18,599.92 185.58,602.47 185.18,605.02 184.01,607.41 182.15,609.45 179.72,611.02 176.89,612.00 173.86,612.34"/>
    <polyline points="173.86,612.34 176.89,612.72 179.72,613.83 182.15,615.60 184.01,617.91 185.18,620.59 185.58,623.47 185.18,626.35 184.01,629.04 182.15,631.34 179.72,633.11 176.89,634.22 173.86,634.60"/>
    <polyline points="169.69,588.40 178.03,585.88"/>
    <polyline points="196.12,592.60 196.12,631.91 196.19,632.51 196.39,633.08 196.71,633.59 197.13,634.01 197.64,634.33 198.21,634.53 198.81,634.60"/>
    <polyline points="196.12,592.60 202.19,592.94 207.84,593.92 212.69,595.49 216.42,597.54 218.76,599.92 219.56,602.47 218.76,605.02 216.42,607.41 212.69,609.45 207.84,611.02 202.19,612.00 196.12,612.34"/>
    <polyline points="211.03,587.14 210.48,588.48 209.14,589.03 207.80,588.48 207.25,587.14 207.80,585.80 209.14,585.25 210.48,585.80 211.03,587.14"/>
    <polyline points="231.40,592.60 235.47,592.92 239.42,593.87 243.12,595.41 246.46,597.51 249.35,600.10 251.70,603.10 253.42,606.42 254.48,609.95 254.84,613.60 254.48,617.25 253.42,620.78 251.70,624.10 249.35,627.10 246.46,629.69 243.12,631.79 239.42,633.33 235.47,634.28 231.40,634.60"/>
    <polyline points="247.57,613.60 246.97,615.45 245.39,616.60 243.45,616.60 241.87,615.45 241.27,613.60 241.87,611.75 243.45,610.60 245.39,610.60 246.97,611.75 247.57,613.60"/>
    <polyline points="246.31,587.14 245.76,588.48 244.42,589.03 243.08,588.48 242.53,587.14 243.08,585.80 244.42,585.25 245.76,585.80 246.31,587.14"/>
    <polyline points="292.72,592.60 292.72,631.91 292.65,632.51 292.45,633.08 292.13,633.59 291.71,634.01 291.20,634.33 290.63,634.53 290.03,634.60"/>
    <polyline points="292.72,592.60 266.68,592.60 265.84,595.02"/>
    <polyline points="292.72,612.34 286.65,612.72 281.00,613.83 276.15,615.60 272.42,617.91 270.08,620.59 269.28,623.47 270.08,626.35 272.42,629.04 276.15,631.34 281.00,633.11 286.65,634.22 292.72,634.60"/>
    <polyline points="328.00,613.60 327.62,618.53 326.51,623.16 324.73,627.25 322.38,630.54 319.60,632.84 316.55,634.03 313.41,634.03 310.36,632.84 307.58,630.54 305.23,627.25 303.45,623.16 302.34,618.53 301.96,613.60 302.34,608.67 303.45,604.04 305.23,599.95 307.58,596.66 310.36,594.36 313.41,593.17 316.55,593.17 319.60,594.36 322.38,596.66 324.73,599.95 326.51,604.04 327.62,608.67 328.00,613.60"/>
    <polyline points="318.13,613.60 317.53,615.45 315.95,616.60 314.01,616.60 312.43,615.45 311.83,613.60 312.43,611.75 314.01,610.60 315.95,610.60 317.53,611.75 318.13,613.60"/>
    <polyline points="316.87,587.14 316.32,588.48 314.98,589.03 313.64,588.48 313.09,587.14 313.64,585.80 314.98,585.25 316.32,585.80 316.87,587.14"/>
    <polyline points="337.24,592.60 337.24,634.60"/>
    <polyline points="397.80,592.60 397.80,631.91 397.87,632.51 398.07,633.08 398.39,633.59 398.82,634.01 399.33,634.33 399.89,634.53 400.49,634.60"/>
    <polyline points="397.80,592.60 423.84,592.60 424.68,595.02"/>
    <polyline points="397.80,612.34 403.87,612.72 409.52,613.83 414.38,615.60 418.10,617.91 420.44,620.59 421.24,623.47 420.44,626.35 418.10,629.04 414.38,631.34 409.52,633.11 403.87,634.22 397.80,634.60"/>
    <polyline points="412.71,640.90 412.16,642.24 410.82,642.79 409.49,642.24 408.93,640.90 409.49,639.56 410.82,639.01 412.16,639.56 412.71,640.90"/>
    <polyline points="459.12,634.60 455.05,634.28 451.11,633.33 447.41,631.79 444.06,629.69 441.17,627.10 438.83,624.10 437.10,620.78 436.04,617.25 435.69,613.60 436.04,609.95 437.10,606.42 438.83,603.10 441.17,600.10 444.06,597.51 447.41,595.41 451.11,593.87 455.05,592.92 459.12,592.60"/>
    <polyline points="447.99,640.90 447.44,642.24 446.10,642.79 444.77,642.24 444.21,640.90 444.77,639.56 446.10,639.01 447.44,639.56 447.99,640.90"/>
    <polyline points="481.38,592.60 481.38,631.91 481.45,632.51 481.65,633.08 481.97,633.59 482.40,634.01 482.91,634.33 483.47,634.53 484.07,634.60"/>
    <polyline points="481.38,592.60 484.42,592.94 487.24,593.92 489.67,595.49 491.53,597.54 492.70,599.92 493.10,602.47 492.70,605.02 491.53,607.41 489.67,609.45 487.24,611.02 484.42,612.00 481.38,612.34"/>
    <polyline points="481.38,612.34 484.42,612.72 487.24,613.83 489.67,615.60 491.53,617.91 492.70,620.59 493.10,623.47 492.70,626.35 491.53,629.04 489.67,631.34 487.24,633.11 484.42,634.22 481.38,634.60"/>
    <polyline points="477.22,588.40 485.55,585.88"/>
    <polyline points="529.68,634.60 525.61,634.28 521.67,633.33 517.97,631.79 514.62,629.69 511.73,627.10 509.39,624.10 507.66,620.78 506.60,617.25 506.25,613.60 506.60,609.95 507.66,606.42 509.39,603.10 511.73,600.10 514.62,597.51 517.97,595.41 521.67,593.87 525.61,592.92 529.68,592.60"/>
    <polyline points="505.73,613.60 527.60,613.60"/>
    <polyline points="55.00,668.20 59.07,668.52 63.02,669.47 66.72,671.01 70.06,673.11 72.95,675.70 75.30,678.70 77.02,682.02 78.08,685.55 78.44,689.20 78.08,692.85 77.02,696.38 75.30,699.70 72.95,702.70 70.06,705.29 66.72,707.39 63.02,708.93 59.07,709.88 55.00,710.20"/>
    <polyline points="71.17,689.20 70.57,691.05 68.99,692.20 67.05,692.20 65.47,691.05 64.87,689.20 65.47,687.35 67.05,686.20 68.99,686.20 70.57,687.35 71.17,689.20"/>
    <polyline points="69.91,662.74 69.36,664.08 68.02,664.63 66.68,664.08 66.13,662.74 66.68,661.40 68.02,660.85 69.36,661.40 69.91,662.74"/>
    <polyline points="116.32,689.20 115.94,694.13 114.83,698.76 113.05,702.85 110.70,706.14 107.92,708.44 104.87,709.63 101.73,709.63 98.68,708.44 95.90,706.14 93.55,702.85 91.77,698.76 90.66,694.13 90.28,689.20 90.66,684.27 91.77,679.64 93.55,675.55 95.90,672.26 98.68,669.96 101.73,668.77 104.87,668.77 107.92,669.96 110.70,672.26 113.05,675.55 114.83,679.64 115.94,684.27 116.32,689.20"/>
    <polyline points="106.45,689.20 105.85,691.05 104.27,692.20 102.33,692.20 100.75,691.05 100.15,689.20 100.75,687.35 102.33,686.20 104.27,686.20 105.85,687.35 106.45,689.20"/>
    <polyline points="105.19,662.74 104.64,664.08 103.30,664.63 101.96,664.08 101.41,662.74 101.96,661.40 103.30,660.85 104.64,661.40 105.19,662.74"/>
    <polyline points="138.58,668.20 138.58,707.51 138.51,708.11 138.31,708.68 137.99,709.19 137.57,709.61 137.06,709.93 136.49,710.13 135.89,710.20"/>
    <polyline points="127.64,687.94 149.52,687.94"/>
    <polyline points="212.92,710.20 208.85,709.88 204.90,708.93 201.20,707.39 197.86,705.29 194.97,702.70 192.62,699.70 190.90,696.38 189.84,692.85 189.48,689.20 189.84,685.55 190.90,682.02 192.62,678.70 194.97,675.70 197.86,673.11 201.20,671.01 204.90,669.47 208.85,668.52 212.92,668.20"/>
    <polyline points="201.79,716.50 201.24,717.84 199.90,718.39 198.56,717.84 198.01,716.50 198.56,715.16 199.90,714.61 201.24,715.16 201.79,716.50"/>
    <polyline points="222.16,668.20 222.16,707.51 222.23,708.11 222.43,708.68 222.75,709.19 223.17,709.61 223.68,709.93 224.25,710.13 224.85,710.20"/>
    <polyline points="222.16,668.20 248.20,668.20 249.04,670.62"/>
    <polyline points="257.44,668.20 257.44,707.51 257.51,708.11 257.71,708.68 258.03,709.19 258.45,709.61 258.96,709.93 259.53,710.13 260.13,710.20"/>
    <polyline points="257.44,668.20 263.51,668.54 269.16,669.52 274.01,671.09 277.74,673.14 280.08,675.52 280.88,678.07 280.08,680.62 277.74,683.01 274.01,685.05 269.16,686.62 263.51,687.60 257.44,687.94"/>
    <polyline points="272.35,662.74 271.80,664.08 270.46,664.63 269.12,664.08 268.57,662.74 269.12,661.40 270.46,660.85 271.80,661.40 272.35,662.74"/>
    <polyline points="318.76,710.20 314.69,709.88 310.74,708.93 307.04,707.39 303.70,705.29 300.81,702.70 298.46,699.70 296.74,696.38 295.68,692.85 295.32,689.20 295.68,685.55 296.74,682.02 298.46,678.70 300.81,675.70 303.70,673.11 307.04,671.01 310.74,669.47 314.69,668.52 318.76,668.20"/>
    <polyline points="307.63,716.50 307.08,717.84 305.74,718.39 304.40,717.84 303.85,716.50 304.40,715.16 305.74,714.61 307.08,715.16 307.63,716.50"/>
    <polyline points="354.04,689.20 353.66,694.13 352.55,698.76 350.77,702.85 348.42,706.14 345.64,708.44 342.59,709.63 339.45,709.63 336.40,708.44 333.62,706.14 331.27,702.85 329.49,698.76 328.38,694.13 328.00,689.20 328.38,684.27 329.49,679.64 331.27,675.55 333.62,672.26 336.40,669.96 339.45,668.77 342.59,668.77 345.64,669.96 348.42,672.26 350.77,675.55 352.55,679.64 353.66,684.27 354.04,689.20"/>
    <polyline points="344.17,689.20 343.57,691.05 341.99,692.20 340.05,692.20 338.47,691.05 337.87,689.20 338.47,687.35 340.05,686.20 341.99,686.20 343.57,687.35 344.17,689.20"/>
    <polyline points="342.91,662.74 342.36,664.08 341.02,664.63 339.68,664.08 339.13,662.74 339.68,661.40 341.02,660.85 342.36,661.40 342.91,662.74"/>
    <polyline points="389.32,710.20 385.25,709.88 381.30,708.93 377.60,707.39 374.26,705.29 371.37,702.70 369.02,699.70 367.30,696.38 366.24,692.85 365.88,689.20 366.24,685.55 367.30,682.02 369.02,678.70 371.37,675.70 374.26,673.11 377.60,671.01 381.30,669.47 385.25,668.52 389.32,668.20"/>
    <polyline points="365.36,689.20 387.24,689.20"/>
    <polyline points="424.60,668.20 424.60,707.51 424.53,708.11 424.33,708.68 424.01,709.19 423.59,709.61 423.08,709.93 422.51,710.13 421.91,710.20"/>
    <polyline points="424.60,687.94 418.53,688.32 412.88,689.43 408.03,691.20 404.30,693.51 401.96,696.19 401.16,699.07 401.96,701.95 404.30,704.64 408.03,706.94 412.88,708.71 418.53,709.82 424.60,710.20"/>
    <polyline points="413.47,662.74 412.92,664.08 411.58,664.63 410.24,664.08 409.69,662.74 410.24,661.40 411.58,660.85 412.92,661.40 413.47,662.74"/>
    <polyline points="459.88,710.20 459.88,681.22 460.32,677.85 461.62,674.71 463.69,672.01 466.39,669.94 469.53,668.64 472.90,668.20 476.27,668.64 479.41,669.94 482.11,672.01 484.18,674.71 485.48,677.85 485.92,681.22 485.92,710.20"/>
    <polyline points="461.96,689.20 483.84,689.20"/>
    <polyline points="521.20,710.20 517.13,709.88 513.18,708.93 509.48,707.39 506.14,705.29 503.25,702.70 500.90,699.70 499.18,696.38 498.12,692.85 497.76,689.20 498.12,685.55 499.18,682.02 500.90,678.70 503.25,675.70 506.14,673.11 509.48,671.01 513.18,669.47 517.13,668.52 521.20,668.20"/>
    <polyline points="510.07,716.50 509.52,717.84 508.18,718.39 506.84,717.84 506.29,716.50 506.84,715.16 508.18,714.61 509.52,715.16 510.07,716.50"/>
  </g>
</svg>