<?xml version="1.0" encoding="UTF-8"?>
<!-- LIPI PANEL SERIES 3/7 · seed 7 · A1 594x841mm · text continues from panel 2 -->
<svg xmlns="http://www.w3.org/2000/svg" width="594mm" height="841mm" viewBox="0 0 594 841">
  <g fill="none" stroke="#000000" stroke-width="1" stroke-linecap="round" stroke-linejoin="round">
    <polyline points="81.04,84.40 80.66,89.33 79.55,93.96 77.77,98.05 75.42,101.34 72.64,103.64 69.59,104.83 66.45,104.83 63.40,103.64 60.62,101.34 58.27,98.05 56.49,93.96 55.38,89.33 55.00,84.40 55.38,79.47 56.49,74.84 58.27,70.75 60.62,67.46 63.40,65.16 66.45,63.97 69.59,63.97 72.64,65.16 75.42,67.46 77.77,70.75 79.55,74.84 80.66,79.47 81.04,84.40"/>
    <polyline points="71.17,84.40 70.57,86.25 68.99,87.40 67.05,87.40 65.47,86.25 64.87,84.40 65.47,82.55 67.05,81.40 68.99,81.40 70.57,82.55 71.17,84.40"/>
    <polyline points="69.91,57.94 69.36,59.28 68.02,59.83 66.68,59.28 66.13,57.94 66.68,56.60 68.02,56.05 69.36,56.60 69.91,57.94"/>
    <polyline points="90.28,63.40 94.35,63.72 98.30,64.67 102.00,66.21 105.34,68.31 108.23,70.90 110.58,73.90 112.30,77.22 113.36,80.75 113.72,84.40 113.36,88.05 112.30,91.58 110.58,94.90 108.23,97.90 105.34,100.49 102.00,102.59 98.30,104.13 94.35,105.08 90.28,105.40"/>
    <polyline points="106.45,84.40 105.85,86.25 104.27,87.40 102.33,87.40 100.75,86.25 100.15,84.40 100.75,82.55 102.33,81.40 104.27,81.40 105.85,82.55 106.45,84.40"/>
    <polyline points="105.19,57.94 104.64,59.28 103.30,59.83 101.96,59.28 101.41,57.94 101.96,56.60 103.30,56.05 104.64,56.60 105.19,57.94"/>
    <polyline points="151.60,84.40 151.22,89.33 150.11,93.96 148.33,98.05 145.98,101.34 143.20,103.64 140.15,104.83 137.01,104.83 133.96,103.64 131.18,101.34 128.83,98.05 127.05,93.96 125.94,89.33 125.56,84.40 125.94,79.47 127.05,74.84 128.83,70.75 131.18,67.46 133.96,65.16 137.01,63.97 140.15,63.97 143.20,65.16 145.98,67.46 148.33,70.75 150.11,74.84 151.22,79.47 151.60,84.40"/>
    <polyline points="141.73,84.40 141.13,86.25 139.55,87.40 137.61,87.40 136.03,86.25 135.43,84.40 136.03,82.55 137.61,81.40 139.55,81.40 141.13,82.55 141.73,84.40"/>
    <polyline points="140.47,57.94 139.92,59.28 138.58,59.83 137.24,59.28 136.69,57.94 137.24,56.60 138.58,56.05 139.92,56.60 140.47,57.94"/>
    <polyline points="173.86,63.40 173.86,102.71 173.79,103.31 173.59,103.88 173.27,104.39 172.85,104.81 172.34,105.13 171.77,105.33 171.17,105.40"/>
    <polyline points="162.92,83.14 184.80,83.14"/>
    <polyline points="235.18,63.40 235.18,102.71 235.11,103.31 234.91,103.88 234.59,104.39 234.17,104.81 233.66,105.13 233.09,105.33 232.49,105.40"/>
    <polyline points="235.18,63.40 232.15,63.74 229.32,64.72 226.89,66.29 225.03,68.33 223.86,70.72 223.46,73.27 223.86,75.82 225.03,78.20 226.89,80.25 229.32,81.82 232.15,82.80 235.18,83.14"/>
    <polyline points="230.31,97.63 229.75,99.36 228.28,100.43 226.46,100.43 224.99,99.36 224.43,97.63 224.99,95.90 226.46,94.83 228.28,94.83 229.75,95.90 230.31,97.63"/>
    <polyline points="283.48,84.40 283.10,89.33 281.99,93.96 280.21,98.05 277.86,101.34 275.08,103.64 272.03,104.83 268.89,104.83 265.84,103.64 263.06,101.34 260.71,98.05 258.93,93.96 257.82,89.33 257.44,84.40 257.82,79.47 258.93,74.84 260.71,70.75 263.06,67.46 265.84,65.16 268.89,63.97 272.03,63.97 275.08,65.16 277.86,67.46 280.21,70.75 281.99,74.84 283.10,79.47 283.48,84.40"/>
    <polyline points="273.61,84.40 273.01,86.25 271.43,87.40 269.49,87.40 267.91,86.25 267.31,84.40 267.91,82.55 269.49,81.40 271.43,81.40 273.01,82.55 273.61,84.40"/>
    <polyline points="272.35,57.94 271.80,59.28 270.46,59.83 269.12,59.28 268.57,57.94 269.12,56.60 270.46,56.05 271.80,56.60 272.35,57.94"/>
    <polyline points="318.76,63.40 318.76,102.71 318.69,103.31 318.49,103.88 318.17,104.39 317.75,104.81 317.24,105.13 316.67,105.33 316.07,105.40"/>
    <polyline points="318.76,63.40 314.19,63.80 309.79,65.00 305.74,66.94 302.19,69.55 299.27,72.73 297.11,76.36 295.77,80.30 295.32,84.40 295.77,88.50 297.11,92.44 299.27,96.07 302.19,99.25 305.74,101.86 309.79,103.80 314.19,105.00 318.76,105.40"/>
    <polyline points="354.04,63.40 354.04,102.71 353.97,103.31 353.77,103.88 353.45,104.39 353.03,104.81 352.52,105.13 351.95,105.33 351.35,105.40"/>
    <polyline points="354.04,63.40 328.00,63.40 327.16,65.82"/>
    <polyline points="354.04,83.14 347.97,83.52 342.32,84.63 337.47,86.40 333.74,88.70 331.40,91.39 330.60,94.27 331.40,97.15 333.74,99.83 337.47,102.14 342.32,103.91 347.97,105.02 354.04,105.40"/>
    <polyline points="363.28,63.40 366.17,66.71 368.92,70.05 371.55,73.43 374.04,76.84 376.41,80.29 378.64,83.77 380.75,87.29 382.72,90.84 384.57,94.43 386.28,98.05 387.87,101.71 389.32,105.40"/>
    <polyline points="363.28,63.40 389.32,63.40 390.16,65.82"/>
    <polyline points="363.28,105.40 384.11,105.40"/>
    <polyline points="378.19,57.94 377.64,59.28 376.30,59.83 374.96,59.28 374.41,57.94 374.96,56.60 376.30,56.05 377.64,56.60 378.19,57.94"/>
    <polyline points="424.60,105.40 420.53,105.08 416.58,104.13 412.88,102.59 409.54,100.49 406.65,97.90 404.30,94.90 402.58,91.58 401.52,88.05 401.16,84.40 401.52,80.75 402.58,77.22 404.30,73.90 406.65,70.90 409.54,68.31 412.88,66.21 416.58,64.67 420.53,63.72 424.60,63.40"/>
    <polyline points="400.64,84.40 422.52,84.40"/>
    <polyline points="459.88,63.40 459.88,102.71 459.81,103.31 459.61,103.88 459.29,104.39 458.87,104.81 458.36,105.13 457.79,105.33 457.19,105.40"/>
    <polyline points="459.88,83.14 453.81,83.52 448.16,84.63 443.31,86.40 439.58,88.70 437.24,91.39 436.44,94.27 437.24,97.15 439.58,99.83 443.31,102.14 448.16,103.91 453.81,105.02 459.88,105.40"/>
    <polyline points="448.75,57.94 448.20,59.28 446.86,59.83 445.52,59.28 444.97,57.94 445.52,56.60 446.86,56.05 448.20,56.60 448.75,57.94"/>
    <polyline points="495.16,63.40 495.16,102.71 495.23,103.31 495.43,103.88 495.75,104.39 496.17,104.81 496.68,105.13 497.25,105.33 497.85,105.40"/>
    <polyline points="495.16,63.40 501.23,63.74 506.88,64.72 511.73,66.29 515.46,68.33 517.80,70.72 518.60,73.27 517.80,75.82 515.46,78.20 511.73,80.25 506.88,81.82 501.23,82.80 495.16,83.14"/>
    <polyline points="510.07,57.94 509.52,59.28 508.18,59.83 506.84,59.28 506.29,57.94 506.84,56.60 508.18,56.05 509.52,56.60 510.07,57.94"/>
    <polyline points="81.04,139.00 81.04,178.31 80.97,178.91 80.77,179.48 80.45,179.99 80.03,180.41 79.52,180.73 78.95,180.93 78.35,181.00"/>
    <polyline points="81.04,139.00 74.97,139.34 69.32,140.32 64.47,141.89 60.74,143.94 58.40,146.32 57.60,148.87 58.40,151.42 60.74,153.81 64.47,155.85 69.32,157.42 74.97,158.40 81.04,158.74"/>
    <polyline points="81.04,158.74 74.97,159.12 69.32,160.23 64.47,162.00 60.74,164.31 58.40,166.99 57.60,169.87 58.40,172.75 60.74,175.44 64.47,177.74 69.32,179.51 74.97,180.62 81.04,181.00"/>
    <polyline points="90.28,139.00 90.28,178.31 90.35,178.91 90.55,179.48 90.87,179.99 91.29,180.41 91.80,180.73 92.37,180.93 92.97,181.00"/>
    <polyline points="90.28,139.00 116.32,139.00 117.16,141.42"/>
    <polyline points="90.28,158.74 96.35,159.12 102.00,160.23 106.85,162.00 110.58,164.31 112.92,166.99 113.72,169.87 112.92,172.75 110.58,175.44 106.85,177.74 102.00,179.51 96.35,180.62 90.28,181.00"/>
    <polyline points="105.19,187.30 104.64,188.64 103.30,189.19 101.96,188.64 101.41,187.30 101.96,185.96 103.30,185.41 104.64,185.96 105.19,187.30"/>
    <polyline points="151.60,139.00 151.60,178.31 151.53,178.91 151.33,179.48 151.01,179.99 150.59,180.41 150.08,180.73 149.51,180.93 148.91,181.00"/>
    <polyline points="151.60,139.00 125.56,139.00 124.72,141.42"/>
    <polyline points="151.60,158.74 145.53,159.12 139.88,160.23 135.03,162.00 131.30,164.31 128.96,166.99 128.16,169.87 128.96,172.75 131.30,175.44 135.03,177.74 139.88,179.51 145.53,180.62 151.60,181.00"/>
    <polyline points="173.86,139.00 173.86,178.31 173.79,178.91 173.59,179.48 173.27,179.99 172.85,180.41 172.34,180.73 171.77,180.93 171.17,181.00"/>
    <polyline points="173.86,139.00 170.83,139.34 168.00,140.32 165.57,141.89 163.71,143.94 162.54,146.32 162.14,148.87 162.54,151.42 163.71,153.81 165.57,155.85 168.00,157.42 170.83,158.40 173.86,158.74"/>
    <polyline points="168.99,173.23 168.43,174.96 166.96,176.03 165.14,176.03 163.67,174.96 163.11,173.23 163.67,171.50 165.14,170.43 166.96,170.43 168.43,171.50 168.99,173.23"/>
    <polyline points="209.14,139.00 209.14,178.31 209.07,178.91 208.87,179.48 208.55,179.99 208.13,180.41 207.62,180.73 207.05,180.93 206.45,181.00"/>
    <polyline points="198.20,158.74 220.08,158.74"/>
    <polyline points="257.44,139.00 257.44,178.31 257.37,178.91 257.17,179.48 256.85,179.99 256.43,180.41 255.92,180.73 255.35,180.93 254.75,181.00"/>
    <polyline points="257.44,139.00 251.37,139.34 245.72,140.32 240.87,141.89 237.14,143.94 234.80,146.32 234.00,148.87 234.80,151.42 237.14,153.81 240.87,155.85 245.72,157.42 251.37,158.40 257.44,158.74"/>
    <polyline points="257.44,158.74 251.37,159.12 245.72,160.23 240.87,162.00 237.14,164.31 234.80,166.99 234.00,169.87 234.80,172.75 237.14,175.44 240.87,177.74 245.72,179.51 251.37,180.62 257.44,181.00"/>
    <polyline points="318.76,139.00 318.76,178.31 318.69,178.91 318.49,179.48 318.17,179.99 317.75,180.41 317.24,180.73 316.67,180.93 316.07,181.00"/>
    <polyline points="318.76,139.00 312.69,139.34 307.04,140.32 302.19,141.89 298.46,143.94 296.12,146.32 295.32,148.87 296.12,151.42 298.46,153.81 302.19,155.85 307.04,157.42 312.69,158.40 318.76,158.74"/>
    <polyline points="306.08,173.23 305.51,174.96 304.04,176.03 302.23,176.03 300.76,174.96 300.20,173.23 300.76,171.50 302.23,170.43 304.04,170.43 305.51,171.50 306.08,173.23"/>
    <polyline points="341.02,139.00 341.02,178.31 341.09,178.91 341.29,179.48 341.61,179.99 342.03,180.41 342.54,180.73 343.11,180.93 343.71,181.00"/>
    <polyline points="341.02,139.00 344.05,139.34 346.88,140.32 349.31,141.89 351.17,143.94 352.34,146.32 352.74,148.87 352.34,151.42 351.17,153.81 349.31,155.85 346.88,157.42 344.05,158.40 341.02,158.74"/>
    <polyline points="341.02,158.74 344.05,159.12 346.88,160.23 349.31,162.00 351.17,164.31 352.34,166.99 352.74,169.87 352.34,172.75 351.17,175.44 349.31,177.74 346.88,179.51 344.05,180.62 341.02,181.00"/>
    <polyline points="336.85,134.80 345.19,132.28"/>
    <polyline points="363.28,139.00 363.28,178.31 363.35,178.91 363.55,179.48 363.87,179.99 364.29,180.41 364.80,180.73 365.37,180.93 365.97,181.00"/>
    <polyline points="363.28,139.00 369.35,139.34 375.00,140.32 379.85,141.89 383.58,143.94 385.92,146.32 386.72,148.87 385.92,151.42 383.58,153.81 379.85,155.85 375.00,157.42 369.35,158.40 363.28,158.74"/>
    <polyline points="378.19,133.54 377.64,134.88 376.30,135.43 374.96,134.88 374.41,133.54 374.96,132.20 376.30,131.65 377.64,132.20 378.19,133.54"/>
    <polyline points="424.60,181.00 420.53,180.68 416.58,179.73 412.88,178.19 409.54,176.09 406.65,173.50 404.30,170.50 402.58,167.18 401.52,163.65 401.16,160.00 401.52,156.35 402.58,152.82 404.30,149.50 406.65,146.50 409.54,143.91 412.88,141.81 416.58,140.27 420.53,139.32 424.60,139.00"/>
    <polyline points="413.47,187.30 412.92,188.64 411.58,189.19 410.24,188.64 409.69,187.30 410.24,185.96 411.58,185.41 412.92,185.96 413.47,187.30"/>
    <polyline points="433.84,139.00 433.84,178.31 433.91,178.91 434.11,179.48 434.43,179.99 434.85,180.41 435.36,180.73 435.93,180.93 436.53,181.00"/>
    <polyline points="433.84,139.00 459.88,139.00 460.72,141.42"/>
    <polyline points="433.84,158.74 439.91,159.12 445.56,160.23 450.41,162.00 454.14,164.31 456.48,166.99 457.28,169.87 456.48,172.75 454.14,175.44 450.41,177.74 445.56,179.51 439.91,180.62 433.84,181.00"/>
    <polyline points="448.75,187.30 448.20,188.64 446.86,189.19 445.52,188.64 444.97,187.30 445.52,185.96 446.86,185.41 448.20,185.96 448.75,187.30"/>
    <polyline points="469.12,139.00 473.19,139.32 477.14,140.27 480.84,141.81 484.18,143.91 487.07,146.50 489.42,149.50 491.14,152.82 492.20,156.35 492.56,160.00 492.20,163.65 491.14,167.18 489.42,170.50 487.07,173.50 484.18,176.09 480.84,178.19 477.14,179.73 473.19,180.68 469.12,181.00"/>
    <polyline points="485.29,160.00 484.69,161.85 483.11,163.00 481.17,163.00 479.59,161.85 478.99,160.00 479.59,158.15 481.17,157.00 483.11,157.00 484.69,158.15 485.29,160.00"/>
    <polyline points="484.03,133.54 483.48,134.88 482.14,135.43 480.80,134.88 480.25,133.54 480.80,132.20 482.14,131.65 483.48,132.20 484.03,133.54"/>
    <polyline points="517.42,139.00 517.42,178.31 517.49,178.91 517.69,179.48 518.01,179.99 518.43,180.41 518.94,180.73 519.51,180.93 520.11,181.00"/>
    <polyline points="517.42,139.00 520.45,139.34 523.28,140.32 525.71,141.89 527.57,143.94 528.74,146.32 529.14,148.87 528.74,151.42 527.57,153.81 525.71,155.85 523.28,157.42 520.45,158.40 517.42,158.74"/>
    <polyline points="517.42,158.74 520.45,159.12 523.28,160.23 525.71,162.00 527.57,164.31 528.74,166.99 529.14,169.87 528.74,172.75 527.57,175.44 525.71,177.74 523.28,179.51 520.45,180.62 517.42,181.00"/>
    <polyline points="513.25,134.80 521.59,132.28"/>
    <polyline points="55.00,214.60 57.89,217.91 60.64,221.25 63.27,224.63 65.76,228.04 68.13,231.49 70.36,234.97 72.47,238.49 74.44,242.04 76.29,245.63 78.00,249.25 79.59,252.91 81.04,256.60"/>
    <polyline points="55.00,214.60 81.04,214.60 81.88,217.02"/>
    <polyline points="55.00,256.60 75.83,256.60"/>
    <polyline points="69.91,209.14 69.36,210.48 68.02,211.03 66.68,210.48 66.13,209.14 66.68,207.80 68.02,207.25 69.36,207.80 69.91,209.14"/>
    <polyline points="116.32,214.60 116.32,253.91 116.25,254.51 116.05,255.08 115.73,255.59 115.31,256.01 114.80,256.33 114.23,256.53 113.63,256.60"/>
    <polyline points="116.32,234.34 110.25,234.72 104.60,235.83 99.75,237.60 96.02,239.91 93.68,242.59 92.88,245.47 93.68,248.35 96.02,251.04 99.75,253.34 104.60,255.11 110.25,256.22 116.32,256.60"/>
    <polyline points="105.19,209.14 104.64,210.48 103.30,211.03 101.96,210.48 101.41,209.14 101.96,207.80 103.30,207.25 104.64,207.80 105.19,209.14"/>
    <polyline points="129.13,254.92 128.70,255.96 127.66,256.39 126.62,255.96 126.19,254.92 126.62,253.88 127.66,253.45 128.70,253.88 129.13,254.92"/>
    <polyline points="190.24,214.60 190.24,253.91 190.17,254.51 189.97,255.08 189.65,255.59 189.23,256.01 188.72,256.33 188.15,256.53 187.55,256.60"/>
    <polyline points="190.24,214.60 184.17,214.94 178.52,215.92 173.67,217.49 169.94,219.54 167.60,221.92 166.80,224.47 167.60,227.02 169.94,229.41 173.67,231.45 178.52,233.02 184.17,234.00 190.24,234.34"/>
    <polyline points="177.56,248.83 176.99,250.56 175.52,251.63 173.71,251.63 172.24,250.56 171.68,248.83 172.24,247.10 173.71,246.03 175.52,246.03 176.99,247.10 177.56,248.83"/>
    <polyline points="225.52,214.60 225.52,253.91 225.45,254.51 225.25,255.08 224.93,255.59 224.51,256.01 224.00,256.33 223.43,256.53 222.83,256.60"/>
    <polyline points="225.52,214.60 199.48,214.60 198.64,217.02"/>
    <polyline points="225.52,234.34 219.45,234.72 213.80,235.83 208.95,237.60 205.22,239.91 202.88,242.59 202.08,245.47 202.88,248.35 205.22,251.04 208.95,253.34 213.80,255.11 219.45,256.22 225.52,256.60"/>
    <polyline points="260.80,235.60 260.42,240.53 259.31,245.16 257.53,249.25 255.18,252.54 252.40,254.84 249.35,256.03 246.21,256.03 243.16,254.84 240.38,252.54 238.03,249.25 236.25,245.16 235.14,240.53 234.76,235.60 235.14,230.67 236.25,226.04 238.03,221.95 240.38,218.66 243.16,216.36 246.21,215.17 249.35,215.17 252.40,216.36 255.18,218.66 257.53,221.95 259.31,226.04 260.42,230.67 260.80,235.60"/>
    <polyline points="247.78,214.60 247.78,256.60"/>
    <polyline points="296.08,256.60 292.01,256.28 288.06,255.33 284.36,253.79 281.02,251.69 278.13,249.10 275.78,246.10 274.06,242.78 273.00,239.25 272.64,235.60 273.00,231.95 274.06,228.42 275.78,225.10 278.13,222.10 281.02,219.51 284.36,217.41 288.06,215.87 292.01,214.92 296.08,214.60"/>
    <polyline points="284.95,262.90 284.40,264.24 283.06,264.79 281.72,264.24 281.17,262.90 281.72,261.56 283.06,261.01 284.40,261.56 284.95,262.90"/>
    <polyline points="331.36,214.60 331.36,253.91 331.29,254.51 331.09,255.08 330.77,255.59 330.35,256.01 329.84,256.33 329.27,256.53 328.67,256.60"/>
    <polyline points="331.36,214.60 325.29,214.94 319.64,215.92 314.79,217.49 311.06,219.54 308.72,221.92 307.92,224.47 308.72,227.02 311.06,229.41 314.79,231.45 319.64,233.02 325.29,234.00 331.36,234.34"/>
    <polyline points="318.68,248.83 318.11,250.56 316.64,251.63 314.83,251.63 313.36,250.56 312.80,248.83 313.36,247.10 314.83,246.03 316.64,246.03 318.11,247.10 318.68,248.83"/>
    <polyline points="366.64,256.60 362.57,256.28 358.62,255.33 354.92,253.79 351.58,251.69 348.69,249.10 346.34,246.10 344.62,242.78 343.56,239.25 343.20,235.60 343.56,231.95 344.62,228.42 346.34,225.10 348.69,222.10 351.58,219.51 354.92,217.41 358.62,215.87 362.57,214.92 366.64,214.60"/>
    <polyline points="355.51,262.90 354.96,264.24 353.62,264.79 352.28,264.24 351.73,262.90 352.28,261.56 353.62,261.01 354.96,261.56 355.51,262.90"/>
    <polyline points="401.92,235.60 401.54,240.53 400.43,245.16 398.65,249.25 396.30,252.54 393.52,254.84 390.47,256.03 387.33,256.03 384.28,254.84 381.50,252.54 379.15,249.25 377.37,245.16 376.26,240.53 375.88,235.60 376.26,230.67 377.37,226.04 379.15,221.95 381.50,218.66 384.28,216.36 387.33,215.17 390.47,215.17 393.52,216.36 396.30,218.66 398.65,221.95 400.43,226.04 401.54,230.67 401.92,235.60"/>
    <polyline points="392.05,235.60 391.45,237.45 389.87,238.60 387.93,238.60 386.35,237.45 385.75,235.60 386.35,233.75 387.93,232.60 389.87,232.60 391.45,233.75 392.05,235.60"/>
    <polyline points="390.79,209.14 390.24,210.48 388.90,211.03 387.56,210.48 387.01,209.14 387.56,207.80 388.90,207.25 390.24,207.80 390.79,209.14"/>
    <polyline points="411.16,214.60 411.16,253.91 411.23,254.51 411.43,255.08 411.75,255.59 412.17,256.01 412.68,256.33 413.25,256.53 413.85,256.60"/>
    <polyline points="411.16,214.60 417.23,214.94 422.88,215.92 427.73,217.49 431.46,219.54 433.80,221.92 434.60,224.47 433.80,227.02 431.46,229.41 427.73,231.45 422.88,233.02 417.23,234.00 411.16,234.34"/>
    <polyline points="426.07,209.14 425.52,210.48 424.18,211.03 422.84,210.48 422.29,209.14 422.84,207.80 424.18,207.25 425.52,207.80 426.07,209.14"/>
    <polyline points="450.01,254.92 449.58,255.96 448.54,256.39 447.50,255.96 447.07,254.92 447.50,253.88 448.54,253.45 449.58,253.88 450.01,254.92"/>
    <polyline points="485.08,214.60 485.08,243.58 485.52,246.95 486.82,250.09 488.89,252.79 491.59,254.86 494.73,256.16 498.10,256.60 501.47,256.16 504.61,254.86 507.31,252.79 509.38,250.09 510.68,246.95 511.12,243.58 511.12,214.60"/>
    <polyline points="501.25,235.60 500.65,237.45 499.07,238.60 497.13,238.60 495.55,237.45 494.95,235.60 495.55,233.75 497.13,232.60 499.07,232.60 500.65,233.75 501.25,235.60"/>
    <polyline points="81.04,290.20 81.04,329.51 80.97,330.11 80.77,330.68 80.45,331.19 80.03,331.61 79.52,331.93 78.95,332.13 78.35,332.20"/>
    <polyline points="81.04,290.20 55.00,290.20 54.16,292.62"/>
    <polyline points="81.04,309.94 74.97,310.32 69.32,311.43 64.47,313.20 60.74,315.51 58.40,318.19 57.60,321.07 58.40,323.95 60.74,326.64 64.47,328.94 69.32,330.71 74.97,331.82 81.04,332.20"/>
    <polyline points="116.32,311.20 115.94,316.13 114.83,320.76 113.05,324.85 110.70,328.14 107.92,330.44 104.87,331.63 101.73,331.63 98.68,330.44 95.90,328.14 93.55,324.85 91.77,320.76 90.66,316.13 90.28,311.20 90.66,306.27 91.77,301.64 93.55,297.55 95.90,294.26 98.68,291.96 101.73,290.77 104.87,290.77 107.92,291.96 110.70,294.26 113.05,297.55 114.83,301.64 115.94,306.27 116.32,311.20"/>
    <polyline points="106.45,311.20 105.85,313.05 104.27,314.20 102.33,314.20 100.75,313.05 100.15,311.20 100.75,309.35 102.33,308.20 104.27,308.20 105.85,309.35 106.45,311.20"/>
    <polyline points="105.19,284.74 104.64,286.08 103.30,286.63 101.96,286.08 101.41,284.74 101.96,283.40 103.30,282.85 104.64,283.40 105.19,284.74"/>
    <polyline points="151.60,311.20 151.22,316.13 150.11,320.76 148.33,324.85 145.98,328.14 143.20,330.44 140.15,331.63 137.01,331.63 133.96,330.44 131.18,328.14 128.83,324.85 127.05,320.76 125.94,316.13 125.56,311.20 125.94,306.27 127.05,301.64 128.83,297.55 131.18,294.26 133.96,291.96 137.01,290.77 140.15,290.77 143.20,291.96 145.98,294.26 148.33,297.55 150.11,301.64 151.22,306.27 151.60,311.20"/>
    <polyline points="138.58,290.20 138.58,332.20"/>
    <polyline points="186.88,332.20 182.81,331.88 178.86,330.93 175.16,329.39 171.82,327.29 168.93,324.70 166.58,321.70 164.86,318.38 163.80,314.85 163.44,311.20 163.80,307.55 164.86,304.02 166.58,300.70 168.93,297.70 171.82,295.11 175.16,293.01 178.86,291.47 182.81,290.52 186.88,290.20"/>
    <polyline points="175.75,338.50 175.20,339.84 173.86,340.39 172.52,339.84 171.97,338.50 172.52,337.16 173.86,336.61 175.20,337.16 175.75,338.50"/>
    <polyline points="196.12,290.20 196.12,329.51 196.19,330.11 196.39,330.68 196.71,331.19 197.13,331.61 197.64,331.93 198.21,332.13 198.81,332.20"/>
    <polyline points="196.12,290.20 222.16,290.20 223.00,292.62"/>
    <polyline points="196.12,309.94 202.19,310.32 207.84,311.43 212.69,313.20 216.42,315.51 218.76,318.19 219.56,321.07 218.76,323.95 216.42,326.64 212.69,328.94 207.84,330.71 202.19,331.82 196.12,332.20"/>
    <polyline points="211.03,338.50 210.48,339.84 209.14,340.39 207.80,339.84 207.25,338.50 207.80,337.16 209.14,336.61 210.48,337.16 211.03,338.50"/>
    <polyline points="257.44,290.20 257.44,329.51 257.37,330.11 257.17,330.68 256.85,331.19 256.43,331.61 255.92,331.93 255.35,332.13 254.75,332.20"/>
    <polyline points="257.44,309.94 251.37,310.32 245.72,311.43 240.87,313.20 237.14,315.51 234.80,318.19 234.00,321.07 234.80,323.95 237.14,326.64 240.87,328.94 245.72,330.71 251.37,331.82 257.44,332.20"/>
    <polyline points="246.31,284.74 245.76,286.08 244.42,286.63 243.08,286.08 242.53,284.74 243.08,283.40 244.42,282.85 245.76,283.40 246.31,284.74"/>
    <polyline points="279.70,290.20 279.70,329.51 279.77,330.11 279.97,330.68 280.29,331.19 280.71,331.61 281.22,331.93 281.79,332.13 282.39,332.20"/>
    <polyline points="279.70,290.20 282.73,290.54 285.56,291.52 287.99,293.09 289.85,295.14 291.02,297.52 291.42,300.07 291.02,302.62 289.85,305.01 287.99,307.05 285.56,308.62 282.73,309.60 279.70,309.94"/>
    <polyline points="279.70,309.94 282.73,310.32 285.56,311.43 287.99,313.20 289.85,315.51 291.02,318.19 291.42,321.07 291.02,323.95 289.85,326.64 287.99,328.94 285.56,330.71 282.73,331.82 279.70,332.20"/>
    <polyline points="275.53,286.00 283.87,283.48"/>
    <polyline points="301.96,290.20 301.96,329.51 302.03,330.11 302.23,330.68 302.55,331.19 302.97,331.61 303.48,331.93 304.05,332.13 304.65,332.20"/>
    <polyline points="301.96,290.20 308.03,290.54 313.68,291.52 318.53,293.09 322.26,295.14 324.60,297.52 325.40,300.07 324.60,302.62 322.26,305.01 318.53,307.05 313.68,308.62 308.03,309.60 301.96,309.94"/>
    <polyline points="316.87,284.74 316.32,286.08 314.98,286.63 313.64,286.08 313.09,284.74 313.64,283.40 314.98,282.85 316.32,283.40 316.87,284.74"/>
    <polyline points="337.24,290.20 341.31,290.52 345.26,291.47 348.96,293.01 352.30,295.11 355.19,297.70 357.54,300.70 359.26,304.02 360.32,307.55 360.68,311.20 360.32,314.85 359.26,318.38 357.54,321.70 355.19,324.70 352.30,327.29 348.96,329.39 345.26,330.93 341.31,331.88 337.24,332.20"/>
    <polyline points="353.41,311.20 352.81,313.05 351.23,314.20 349.29,314.20 347.71,313.05 347.11,311.20 347.71,309.35 349.29,308.20 351.23,308.20 352.81,309.35 353.41,311.20"/>
    <polyline points="352.15,284.74 351.60,286.08 350.26,286.63 348.92,286.08 348.37,284.74 348.92,283.40 350.26,282.85 351.60,283.40 352.15,284.74"/>
    <polyline points="398.56,290.20 398.56,329.51 398.49,330.11 398.29,330.68 397.97,331.19 397.55,331.61 397.04,331.93 396.47,332.13 395.87,332.20"/>
    <polyline points="398.56,290.20 372.52,290.20 371.68,292.62"/>
    <polyline points="398.56,309.94 392.49,310.32 386.84,311.43 381.99,313.20 378.26,315.51 375.92,318.19 375.12,321.07 375.92,323.95 378.26,326.64 381.99,328.94 386.84,330.71 392.49,331.82 398.56,332.20"/>
    <polyline points="433.84,311.20 433.46,316.13 432.35,320.76 430.57,324.85 428.22,328.14 425.44,330.44 422.39,331.63 419.25,331.63 416.20,330.44 413.42,328.14 411.07,324.85 409.29,320.76 408.18,316.13 407.80,311.20 408.18,306.27 409.29,301.64 411.07,297.55 413.42,294.26 416.20,291.96 419.25,290.77 422.39,290.77 425.44,291.96 428.22,294.26 430.57,297.55 432.35,301.64 433.46,306.27 433.84,311.20"/>
    <polyline points="423.97,311.20 423.37,313.05 421.79,314.20 419.85,314.20 418.27,313.05 417.67,311.20 418.27,309.35 419.85,308.20 421.79,308.20 423.37,309.35 423.97,311.20"/>
    <polyline points="422.71,284.74 422.16,286.08 420.82,286.63 419.48,286.08 418.93,284.74 419.48,283.40 420.82,282.85 422.16,283.40 422.71,284.74"/>
    <polyline points="482.14,290.20 482.14,329.51 482.21,330.11 482.41,330.68 482.73,331.19 483.15,331.61 483.66,331.93 484.23,332.13 484.83,332.20"/>
    <polyline points="482.14,290.20 485.17,290.54 488.00,291.52 490.43,293.09 492.29,295.14 493.46,297.52 493.86,300.07 493.46,302.62 492.29,305.01 490.43,307.05 488.00,308.62 485.17,309.60 482.14,309.94"/>
    <polyline points="482.14,309.94 485.17,310.32 488.00,311.43 490.43,313.20 492.29,315.51 493.46,318.19 493.86,321.07 493.46,323.95 492.29,326.64 490.43,328.94 488.00,330.71 485.17,331.82 482.14,332.20"/>
    <polyline points="477.97,286.00 486.31,283.48"/>
    <polyline points="530.44,311.20 530.06,316.13 528.95,320.76 527.17,324.85 524.82,328.14 522.04,330.44 518.99,331.63 515.85,331.63 512.80,330.44 510.02,328.14 507.67,324.85 505.89,320.76 504.78,316.13 504.40,311.20 504.78,306.27 505.89,301.64 507.67,297.55 510.02,294.26 512.80,291.96 515.85,290.77 518.99,290.77 522.04,291.96 524.82,294.26 527.17,297.55 528.95,301.64 530.06,306.27 530.44,311.20"/>
    <polyline points="520.57,311.20 519.97,313.05 518.39,314.20 516.45,314.20 514.87,313.05 514.27,311.20 514.87,309.35 516.45,308.20 518.39,308.20 519.97,309.35 520.57,311.20"/>
    <polyline points="519.31,284.74 518.76,286.08 517.42,286.63 516.08,286.08 515.53,284.74 516.08,283.40 517.42,282.85 518.76,283.40 519.31,284.74"/>
    <polyline points="81.04,407.80 76.97,407.48 73.02,406.53 69.32,404.99 65.98,402.89 63.09,400.30 60.74,397.30 59.02,393.98 57.96,390.45 57.60,386.80 57.96,383.15 59.02,379.62 60.74,376.30 63.09,373.30 65.98,370.71 69.32,368.61 73.02,367.07 76.97,366.12 81.04,365.80"/>
    <polyline points="57.08,386.80 78.96,386.80"/>
    <polyline points="116.32,365.80 120.39,366.12 124.34,367.07 128.04,368.61 131.38,370.71 134.27,373.30 136.62,376.30 138.34,379.62 139.40,383.15 139.76,386.80 139.40,390.45 138.34,393.98 136.62,397.30 134.27,400.30 131.38,402.89 128.04,404.99 124.34,406.53 120.39,407.48 116.32,407.80"/>
    <polyline points="132.49,386.80 131.89,388.65 130.31,389.80 128.37,389.80 126.79,388.65 126.19,386.80 126.79,384.95 128.37,383.80 130.31,383.80 131.89,384.95 132.49,386.80"/>
    <polyline points="131.23,360.34 130.68,361.68 129.34,362.23 128.00,361.68 127.45,360.34 128.00,359.00 129.34,358.45 130.68,359.00 131.23,360.34"/>
    <polyline points="177.64,365.80 177.64,405.11 177.57,405.71 177.37,406.28 177.05,406.79 176.63,407.21 176.12,407.53 175.55,407.73 174.95,407.80"/>
    <polyline points="177.64,365.80 171.57,366.14 165.92,367.12 161.07,368.69 157.34,370.74 155.00,373.12 154.20,375.67 155.00,378.22 157.34,380.61 161.07,382.65 165.92,384.22 171.57,385.20 177.64,385.54"/>
    <polyline points="164.96,400.03 164.39,401.76 162.92,402.83 161.11,402.83 159.64,401.76 159.08,400.03 159.64,398.30 161.11,397.23 162.92,397.23 164.39,398.30 164.96,400.03"/>
    <polyline points="199.90,365.80 199.90,405.11 199.97,405.71 200.17,406.28 200.49,406.79 200.91,407.21 201.42,407.53 201.99,407.73 202.59,407.80"/>
    <polyline points="199.90,365.80 202.93,366.14 205.76,367.12 208.19,368.69 210.05,370.74 211.22,373.12 211.62,375.67 211.22,378.22 210.05,380.61 208.19,382.65 205.76,384.22 202.93,385.20 199.90,385.54"/>
    <polyline points="199.90,385.54 202.93,385.92 205.76,387.03 208.19,388.80 210.05,391.11 211.22,393.79 211.62,396.67 211.22,399.55 210.05,402.24 208.19,404.54 205.76,406.31 202.93,407.42 199.90,407.80"/>
    <polyline points="195.73,361.60 204.07,359.08"/>
    <polyline points="235.18,365.80 235.18,405.11 235.11,405.71 234.91,406.28 234.59,406.79 234.17,407.21 233.66,407.53 233.09,407.73 232.49,407.80"/>
    <polyline points="224.24,385.54 246.12,385.54"/>
    <polyline points="257.44,365.80 261.51,366.12 265.46,367.07 269.16,368.61 272.50,370.71 275.39,373.30 277.74,376.30 279.46,379.62 280.52,383.15 280.88,386.80 280.52,390.45 279.46,393.98 277.74,397.30 275.39,400.30 272.50,402.89 269.16,404.99 265.46,406.53 261.51,407.48 257.44,407.80"/>
    <polyline points="273.61,386.80 273.01,388.65 271.43,389.80 269.49,389.80 267.91,388.65 267.31,386.80 267.91,384.95 269.49,383.80 271.43,383.80 273.01,384.95 273.61,386.80"/>
    <polyline points="272.35,360.34 271.80,361.68 270.46,362.23 269.12,361.68 268.57,360.34 269.12,359.00 270.46,358.45 271.80,359.00 272.35,360.34"/>
    <polyline points="318.76,386.80 318.38,391.73 317.27,396.36 315.49,400.45 313.14,403.74 310.36,406.04 307.31,407.23 304.17,407.23 301.12,406.04 298.34,403.74 295.99,400.45 294.21,396.36 293.10,391.73 292.72,386.80 293.10,381.87 294.21,377.24 295.99,373.15 298.34,369.86 301.12,367.56 304.17,366.37 307.31,366.37 310.36,367.56 313.14,369.86 315.49,373.15 317.27,377.24 318.38,381.87 318.76,386.80"/>
    <polyline points="308.89,386.80 308.29,388.65 306.71,389.80 304.77,389.80 303.19,388.65 302.59,386.80 303.19,384.95 304.77,383.80 306.71,383.80 308.29,384.95 308.89,386.80"/>
    <polyline points="307.63,360.34 307.08,361.68 305.74,362.23 304.40,361.68 303.85,360.34 304.40,359.00 305.74,358.45 307.08,359.00 307.63,360.34"/>
    <polyline points="341.02,365.80 341.02,405.11 341.09,405.71 341.29,406.28 341.61,406.79 342.03,407.21 342.54,407.53 343.11,407.73 343.71,407.80"/>
    <polyline points="341.02,365.80 344.05,366.14 346.88,367.12 349.31,368.69 351.17,370.74 352.34,373.12 352.74,375.67 352.34,378.22 351.17,380.61 349.31,382.65 346.88,384.22 344.05,385.20 341.02,385.54"/>
    <polyline points="341.02,385.54 344.05,385.92 346.88,387.03 349.31,388.80 351.17,391.11 352.34,393.79 352.74,396.67 352.34,399.55 351.17,402.24 349.31,404.54 346.88,406.31 344.05,407.42 341.02,407.80"/>
    <polyline points="336.85,361.60 345.19,359.08"/>
    <polyline points="363.28,365.80 363.28,405.11 363.35,405.71 363.55,406.28 363.87,406.79 364.29,407.21 364.80,407.53 365.37,407.73 365.97,407.80"/>
    <polyline points="363.28,365.80 369.35,366.14 375.00,367.12 379.85,368.69 383.58,370.74 385.92,373.12 386.72,375.67 385.92,378.22 383.58,380.61 379.85,382.65 375.00,384.22 369.35,385.20 363.28,385.54"/>
    <polyline points="378.19,360.34 377.64,361.68 376.30,362.23 374.96,361.68 374.41,360.34 374.96,359.00 376.30,358.45 377.64,359.00 378.19,360.34"/>
    <polyline points="398.56,365.80 402.63,366.12 406.58,367.07 410.28,368.61 413.62,370.71 416.51,373.30 418.86,376.30 420.58,379.62 421.64,383.15 422.00,386.80 421.64,390.45 420.58,393.98 418.86,397.30 416.51,400.30 413.62,402.89 410.28,404.99 406.58,406.53 402.63,407.48 398.56,407.80"/>
    <polyline points="414.73,386.80 414.13,388.65 412.55,389.80 410.61,389.80 409.03,388.65 408.43,386.80 409.03,384.95 410.61,383.80 412.55,383.80 414.13,384.95 414.73,386.80"/>
    <polyline points="413.47,360.34 412.92,361.68 411.58,362.23 410.24,361.68 409.69,360.34 410.24,359.00 411.58,358.45 412.92,359.00 413.47,360.34"/>
    <polyline points="459.88,365.80 459.88,405.11 459.81,405.71 459.61,406.28 459.29,406.79 458.87,407.21 458.36,407.53 457.79,407.73 457.19,407.80"/>
    <polyline points="459.88,365.80 433.84,365.80 433.00,368.22"/>
    <polyline points="459.88,385.54 453.81,385.92 448.16,387.03 443.31,388.80 439.58,391.11 437.24,393.79 436.44,396.67 437.24,399.55 439.58,402.24 443.31,404.54 448.16,406.31 453.81,407.42 459.88,407.80"/>
    <polyline points="495.16,386.80 494.78,391.73 493.67,396.36 491.89,400.45 489.54,403.74 486.76,406.04 483.71,407.23 480.57,407.23 477.52,406.04 474.74,403.74 472.39,400.45 470.61,396.36 469.50,391.73 469.12,386.80 469.50,381.87 470.61,377.24 472.39,373.15 474.74,369.86 477.52,367.56 480.57,366.37 483.71,366.37 486.76,367.56 489.54,369.86 491.89,373.15 493.67,377.24 494.78,381.87 495.16,386.80"/>
    <polyline points="485.29,386.80 484.69,388.65 483.11,389.80 481.17,389.80 479.59,388.65 478.99,386.80 479.59,384.95 481.17,383.80 483.11,383.80 484.69,384.95 485.29,386.80"/>
    <polyline points="484.03,360.34 483.48,361.68 482.14,362.23 480.80,361.68 480.25,360.34 480.80,359.00 482.14,358.45 483.48,359.00 484.03,360.34"/>
    <polyline points="504.40,365.80 504.40,407.80"/>
    <polyline points="55.00,441.40 55.00,480.71 55.07,481.31 55.27,481.88 55.59,482.39 56.01,482.81 56.52,483.13 57.09,483.33 57.69,483.40"/>
    <polyline points="55.00,441.40 81.04,441.40 81.88,443.82"/>
    <polyline points="55.00,461.14 61.07,461.52 66.72,462.63 71.57,464.40 75.30,466.71 77.64,469.39 78.44,472.27 77.64,475.15 75.30,477.84 71.57,480.14 66.72,481.91 61.07,483.02 55.00,483.40"/>
    <polyline points="69.91,489.70 69.36,491.04 68.02,491.59 66.68,491.04 66.13,489.70 66.68,488.36 68.02,487.81 69.36,488.36 69.91,489.70"/>
    <polyline points="116.32,483.40 112.25,483.08 108.30,482.13 104.60,480.59 101.26,478.49 98.37,475.90 96.02,472.90 94.30,469.58 93.24,466.05 92.88,462.40 93.24,458.75 94.30,455.22 96.02,451.90 98.37,448.90 101.26,446.31 104.60,444.21 108.30,442.67 112.25,441.72 116.32,441.40"/>
    <polyline points="105.19,489.70 104.64,491.04 103.30,491.59 101.96,491.04 101.41,489.70 101.96,488.36 103.30,487.81 104.64,488.36 105.19,489.70"/>
    <polyline points="138.58,441.40 138.58,480.71 138.65,481.31 138.85,481.88 139.17,482.39 139.59,482.81 140.10,483.13 140.67,483.33 141.27,483.40"/>
    <polyline points="138.58,441.40 141.61,441.74 144.44,442.72 146.87,444.29 148.73,446.34 149.90,448.72 150.30,451.27 149.90,453.82 148.73,456.21 146.87,458.25 144.44,459.82 141.61,460.80 138.58,461.14"/>
    <polyline points="138.58,461.14 141.61,461.52 144.44,462.63 146.87,464.40 148.73,466.71 149.90,469.39 150.30,472.27 149.90,475.15 148.73,477.84 146.87,480.14 144.44,481.91 141.61,483.02 138.58,483.40"/>
    <polyline points="134.41,437.20 142.75,434.68"/>
    <polyline points="186.88,483.40 182.81,483.08 178.86,482.13 175.16,480.59 171.82,478.49 168.93,475.90 166.58,472.90 164.86,469.58 163.80,466.05 163.44,462.40 163.80,458.75 164.86,455.22 166.58,451.90 168.93,448.90 171.82,446.31 175.16,444.21 178.86,442.67 182.81,441.72 186.88,441.40"/>
    <polyline points="162.92,462.40 184.80,462.40"/>
    <polyline points="196.12,441.40 200.19,441.72 204.14,442.67 207.84,444.21 211.18,446.31 214.07,448.90 216.42,451.90 218.14,455.22 219.20,458.75 219.56,462.40 219.20,466.05 218.14,469.58 216.42,472.90 214.07,475.90 211.18,478.49 207.84,480.59 204.14,482.13 200.19,483.08 196.12,483.40"/>
    <polyline points="212.29,462.40 211.69,464.25 210.11,465.40 208.17,465.40 206.59,464.25 205.99,462.40 206.59,460.55 208.17,459.40 210.11,459.40 211.69,460.55 212.29,462.40"/>
    <polyline points="211.03,435.94 210.48,437.28 209.14,437.83 207.80,437.28 207.25,435.94 207.80,434.60 209.14,434.05 210.48,434.60 211.03,435.94"/>
    <polyline points="257.44,462.40 257.06,467.33 255.95,471.96 254.17,476.05 251.82,479.34 249.04,481.64 245.99,482.83 242.85,482.83 239.80,481.64 237.02,479.34 234.67,476.05 232.89,471.96 231.78,467.33 231.40,462.40 231.78,457.47 232.89,452.84 234.67,448.75 237.02,445.46 239.80,443.16 242.85,441.97 245.99,441.97 249.04,443.16 251.82,445.46 254.17,448.75 255.95,452.84 257.06,457.47 257.44,462.40"/>
    <polyline points="247.57,462.40 246.97,464.25 245.39,465.40 243.45,465.40 241.87,464.25 241.27,462.40 241.87,460.55 243.45,459.40 245.39,459.40 246.97,460.55 247.57,462.40"/>
    <polyline points="246.31,435.94 245.76,437.28 244.42,437.83 243.08,437.28 242.53,435.94 243.08,434.60 244.42,434.05 245.76,434.60 246.31,435.94"/>
    <polyline points="279.70,441.40 279.70,480.71 279.63,481.31 279.43,481.88 279.11,482.39 278.69,482.81 278.18,483.13 277.61,483.33 277.01,483.40"/>
    <polyline points="268.76,461.14 290.64,461.14"/>
    <polyline points="354.04,483.40 349.97,483.08 346.02,482.13 342.32,480.59 338.98,478.49 336.09,475.90 333.74,472.90 332.02,469.58 330.96,466.05 330.60,462.40 330.96,458.75 332.02,455.22 333.74,451.90 336.09,448.90 338.98,446.31 342.32,444.21 346.02,442.67 349.97,441.72 354.04,441.40"/>
    <polyline points="342.91,489.70 342.36,491.04 341.02,491.59 339.68,491.04 339.13,489.70 339.68,488.36 341.02,487.81 342.36,488.36 342.91,489.70"/>
    <polyline points="363.28,441.40 363.28,480.71 363.35,481.31 363.55,481.88 363.87,482.39 364.29,482.81 364.80,483.13 365.37,483.33 365.97,483.40"/>
    <polyline points="363.28,441.40 389.32,441.40 390.16,443.82"/>
    <polyline points="398.56,441.40 398.56,480.71 398.63,481.31 398.83,481.88 399.15,482.39 399.57,482.81 400.08,483.13 400.65,483.33 401.25,483.40"/>
    <polyline points="398.56,441.40 404.63,441.74 410.28,442.72 415.13,444.29 418.86,446.34 421.20,448.72 422.00,451.27 421.20,453.82 418.86,456.21 415.13,458.25 410.28,459.82 404.63,460.80 398.56,461.14"/>
    <polyline points="413.47,435.94 412.92,437.28 411.58,437.83 410.24,437.28 409.69,435.94 410.24,434.60 411.58,434.05 412.92,434.60 413.47,435.94"/>
    <polyline points="459.88,483.40 455.81,483.08 451.86,482.13 448.16,480.59 444.82,478.49 441.93,475.90 439.58,472.90 437.86,469.58 436.80,466.05 436.44,462.40 436.80,458.75 437.86,455.22 439.58,451.90 441.93,448.90 444.82,446.31 448.16,444.21 451.86,442.67 455.81,441.72 459.88,441.40"/>
    <polyline points="448.75,489.70 448.20,491.04 446.86,491.59 445.52,491.04 444.97,489.70 445.52,488.36 446.86,487.81 448.20,488.36 448.75,489.70"/>
    <polyline points="495.16,462.40 494.78,467.33 493.67,471.96 491.89,476.05 489.54,479.34 486.76,481.64 483.71,482.83 480.57,482.83 477.52,481.64 474.74,479.34 472.39,476.05 470.61,471.96 469.50,467.33 469.12,462.40 469.50,457.47 470.61,452.84 472.39,448.75 474.74,445.46 477.52,443.16 480.57,441.97 483.71,441.97 486.76,443.16 489.54,445.46 491.89,448.75 493.67,452.84 494.78,457.47 495.16,462.40"/>
    <polyline points="485.29,462.40 484.69,464.25 483.11,465.40 481.17,465.40 479.59,464.25 478.99,462.40 479.59,460.55 481.17,459.40 483.11,459.40 484.69,460.55 485.29,462.40"/>
    <polyline points="484.03,435.94 483.48,437.28 482.14,437.83 480.80,437.28 480.25,435.94 480.80,434.60 482.14,434.05 483.48,434.60 484.03,435.94"/>
    <polyline points="530.44,483.40 526.37,483.08 522.42,482.13 518.72,480.59 515.38,478.49 512.49,475.90 510.14,472.90 508.42,469.58 507.36,466.05 507.00,462.40 507.36,458.75 508.42,455.22 510.14,451.90 512.49,448.90 515.38,446.31 518.72,444.21 522.42,442.67 526.37,441.72 530.44,441.40"/>
    <polyline points="506.48,462.40 528.36,462.40"/>
    <polyline points="81.04,517.00 81.04,556.31 80.97,556.91 80.77,557.48 80.45,557.99 80.03,558.41 79.52,558.73 78.95,558.93 78.35,559.00"/>
    <polyline points="81.04,536.74 74.97,537.12 69.32,538.23 64.47,540.00 60.74,542.31 58.40,544.99 57.60,547.87 58.40,550.75 60.74,553.44 64.47,555.74 69.32,557.51 74.97,558.62 81.04,559.00"/>
    <polyline points="69.91,511.54 69.36,512.88 68.02,513.43 66.68,512.88 66.13,511.54 66.68,510.20 68.02,509.65 69.36,510.20 69.91,511.54"/>
    <polyline points="116.32,559.00 116.32,530.02 116.76,526.65 118.06,523.51 120.13,520.81 122.83,518.74 125.97,517.44 129.34,517.00 132.71,517.44 135.85,518.74 138.55,520.81 140.62,523.51 141.92,526.65 142.36,530.02 142.36,559.00"/>
    <polyline points="118.40,538.00 140.28,538.00"/>
    <polyline points="177.64,559.00 173.57,558.68 169.62,557.73 165.92,556.19 162.58,554.09 159.69,551.50 157.34,548.50 155.62,545.18 154.56,541.65 154.20,538.00 154.56,534.35 155.62,530.82 157.34,527.50 159.69,524.50 162.58,521.91 165.92,519.81 169.62,518.27 173.57,517.32 177.64,517.00"/>
    <polyline points="166.51,565.30 165.96,566.64 164.62,567.19 163.28,566.64 162.73,565.30 163.28,563.96 164.62,563.41 165.96,563.96 166.51,565.30"/>
    <polyline points="186.88,517.00 189.77,520.31 192.52,523.65 195.15,527.03 197.64,530.44 200.01,533.89 202.24,537.37 204.35,540.89 206.32,544.44 208.17,548.03 209.88,551.65 211.47,555.31 212.92,559.00"/>
    <polyline points="203.05,538.00 202.45,539.85 200.87,541.00 198.93,541.00 197.35,539.85 196.75,538.00 197.35,536.15 198.93,535.00 200.87,535.00 202.45,536.15 203.05,538.00"/>
    <polyline points="201.79,511.54 201.24,512.88 199.90,513.43 198.56,512.88 198.01,511.54 198.56,510.20 199.90,509.65 201.24,510.20 201.79,511.54"/>
    <polyline points="248.20,517.00 248.20,556.31 248.13,556.91 247.93,557.48 247.61,557.99 247.19,558.41 246.68,558.73 246.11,558.93 245.51,559.00"/>
    <polyline points="248.20,517.00 222.16,517.00 221.32,519.42"/>
    <polyline points="248.20,536.74 242.13,537.12 236.48,538.23 231.63,540.00 227.90,542.31 225.56,544.99 224.76,547.87 225.56,550.75 227.90,553.44 231.63,555.74 236.48,557.51 242.13,558.62 248.20,559.00"/>
    <polyline points="283.48,538.00 283.10,542.93 281.99,547.56 280.21,551.65 277.86,554.94 275.08,557.24 272.03,558.43 268.89,558.43 265.84,557.24 263.06,554.94 260.71,551.65 258.93,547.56 257.82,542.93 257.44,538.00 257.82,533.07 258.93,528.44 260.71,524.35 263.06,521.06 265.84,518.76 268.89,517.57 272.03,517.57 275.08,518.76 277.86,521.06 280.21,524.35 281.99,528.44 283.10,533.07 283.48,538.00"/>
    <polyline points="273.61,538.00 273.01,539.85 271.43,541.00 269.49,541.00 267.91,539.85 267.31,538.00 267.91,536.15 269.49,535.00 271.43,535.00 273.01,536.15 273.61,538.00"/>
    <polyline points="272.35,511.54 271.80,512.88 270.46,513.43 269.12,512.88 268.57,511.54 269.12,510.20 270.46,509.65 271.80,510.20 272.35,511.54"/>
    <polyline points="318.76,559.00 314.69,558.68 310.74,557.73 307.04,556.19 303.70,554.09 300.81,551.50 298.46,548.50 296.74,545.18 295.68,541.65 295.32,538.00 295.68,534.35 296.74,530.82 298.46,527.50 300.81,524.50 303.70,521.91 307.04,519.81 310.74,518.27 314.69,517.32 318.76,517.00"/>
    <polyline points="294.80,538.00 316.68,538.00"/>
    <polyline points="354.04,517.00 354.04,556.31 354.11,556.91 354.31,557.48 354.63,557.99 355.05,558.41 355.56,558.73 356.13,558.93 356.73,559.00"/>
    <polyline points="354.04,517.00 360.11,517.34 365.76,518.32 370.61,519.89 374.34,521.94 376.68,524.32 377.48,526.87 376.68,529.42 374.34,531.81 370.61,533.85 365.76,535.42 360.11,536.40 354.04,536.74"/>
    <polyline points="368.95,511.54 368.40,512.88 367.06,513.43 365.72,512.88 365.17,511.54 365.72,510.20 367.06,509.65 368.40,510.20 368.95,511.54"/>
    <polyline points="415.36,517.00 415.36,556.31 415.29,556.91 415.09,557.48 414.77,557.99 414.35,558.41 413.84,558.73 413.27,558.93 412.67,559.00"/>
    <polyline points="415.36,517.00 409.29,517.34 403.64,518.32 398.79,519.89 395.06,521.94 392.72,524.32 391.92,526.87 392.72,529.42 395.06,531.81 398.79,533.85 403.64,535.42 409.29,536.40 415.36,536.74"/>
    <polyline points="415.36,536.74 409.29,537.12 403.64,538.23 398.79,540.00 395.06,542.31 392.72,544.99 391.92,547.87 392.72,550.75 395.06,553.44 398.79,555.74 403.64,557.51 409.29,558.62 415.36,559.00"/>
    <polyline points="450.64,559.00 446.57,558.68 442.62,557.73 438.92,556.19 435.58,554.09 432.69,551.50 430.34,548.50 428.62,545.18 427.56,541.65 427.20,538.00 427.56,534.35 428.62,530.82 430.34,527.50 432.69,524.50 435.58,521.91 438.92,519.81 442.62,518.27 446.57,517.32 450.64,517.00"/>
    <polyline points="439.51,565.30 438.96,566.64 437.62,567.19 436.28,566.64 435.73,565.30 436.28,563.96 437.62,563.41 438.96,563.96 439.51,565.30"/>
    <polyline points="511.96,517.00 511.96,556.31 511.89,556.91 511.69,557.48 511.37,557.99 510.95,558.41 510.44,558.73 509.87,558.93 509.27,559.00"/>
    <polyline points="511.96,517.00 485.92,517.00 485.08,519.42"/>
    <polyline points="68.02,592.60 68.02,631.91 68.09,632.51 68.29,633.08 68.61,633.59 69.03,634.01 69.54,634.33 70.11,634.53 70.71,634.60"/>
    <polyline points="68.02,592.60 71.05,592.94 73.88,593.92 76.31,595.49 78.17,597.54 79.34,599.92 79.74,602.47 79.34,605.02 78.17,607.41 76.31,609.45 73.88,611.02 71.05,612.00 68.02,612.34"/>
    <polyline points="68.02,612.34 71.05,612.72 73.88,613.83 76.31,615.60 78.17,617.91 79.34,620.59 79.74,623.47 79.34,626.35 78.17,629.04 76.31,631.34 73.88,633.11 71.05,634.22 68.02,634.60"/>
    <polyline points="63.85,588.40 72.19,585.88"/>
    <polyline points="103.30,592.60 103.30,631.91 103.23,632.51 103.03,633.08 102.71,633.59 102.29,634.01 101.78,634.33 101.21,634.53 100.61,634.60"/>
    <polyline points="92.36,612.34 114.24,612.34"/>
    <polyline points="151.60,634.60 147.53,634.28 143.58,633.33 139.88,631.79 136.54,629.69 133.65,627.10 131.30,624.10 129.58,620.78 128.52,617.25 128.16,613.60 128.52,609.95 129.58,606.42 131.30,603.10 133.65,600.10 136.54,597.51 139.88,595.41 143.58,593.87 147.53,592.92 151.60,592.60"/>
    <polyline points="140.47,640.90 139.92,642.24 138.58,642.79 137.24,642.24 136.69,640.90 137.24,639.56 138.58,639.01 139.92,639.56 140.47,640.90"/>
    <polyline points="160.84,592.60 160.84,634.60"/>
    <polyline points="205.78,592.60 208.67,595.91 211.42,599.25 214.05,602.63 216.54,606.04 218.91,609.49 221.14,612.97 223.25,616.49 225.22,620.04 227.07,623.63 228.78,627.25 230.37,630.91 231.82,634.60"/>
    <polyline points="205.78,592.60 231.82,592.60 232.66,595.02"/>
    <polyline points="205.78,634.60 226.61,634.60"/>
    <polyline points="220.69,587.14 220.14,588.48 218.80,589.03 217.46,588.48 216.91,587.14 217.46,585.80 218.80,585.25 220.14,585.80 220.69,587.14"/>
    <polyline points="267.10,634.60 263.03,634.28 259.08,633.33 255.38,631.79 252.04,629.69 249.15,627.10 246.80,624.10 245.08,620.78 244.02,617.25 243.66,613.60 244.02,609.95 245.08,606.42 246.80,603.10 249.15,600.10 252.04,597.51 255.38,595.41 259.08,593.87 263.03,592.92 267.10,592.60"/>
    <polyline points="255.97,640.90 255.42,642.24 254.08,642.79 252.74,642.24 252.19,640.90 252.74,639.56 254.08,639.01 255.42,639.56 255.97,640.90"/>
    <polyline points="289.36,592.60 289.36,631.91 289.43,632.51 289.63,633.08 289.95,633.59 290.37,634.01 290.88,634.33 291.45,634.53 292.05,634.60"/>
    <polyline points="289.36,592.60 292.39,592.94 295.22,593.92 297.65,595.49 299.51,597.54 300.68,599.92 301.08,602.47 300.68,605.02 299.51,607.41 297.65,609.45 295.22,611.02 292.39,612.00 289.36,612.34"/>
    <polyline points="289.36,612.34 292.39,612.72 295.22,613.83 297.65,615.60 299.51,617.91 300.68,620.59 301.08,623.47 300.68,626.35 299.51,629.04 297.65,631.34 295.22,633.11 292.39,634.22 289.36,634.60"/>
    <polyline points="285.19,588.40 293.53,585.88"/>
    <polyline points="311.62,592.60 311.62,631.91 311.69,632.51 311.89,633.08 312.21,633.59 312.63,634.01 313.14,634.33 313.71,634.53 314.31,634.60"/>
    <polyline points="311.62,592.60 337.66,592.60 338.50,595.02"/>
    <polyline points="311.62,612.34 317.69,612.72 323.34,613.83 328.19,615.60 331.92,617.91 334.26,620.59 335.06,623.47 334.26,626.35 331.92,629.04 328.19,631.34 323.34,633.11 317.69,634.22 311.62,634.60"/>
    <polyline points="326.53,640.90 325.98,642.24 324.64,642.79 323.30,642.24 322.75,640.90 323.30,639.56 324.64,639.01 325.98,639.56 326.53,640.90"/>
    <polyline points="372.94,613.60 372.56,618.53 371.45,623.16 369.67,627.25 367.32,630.54 364.54,632.84 361.49,634.03 358.35,634.03 355.30,632.84 352.52,630.54 350.17,627.25 348.39,623.16 347.28,618.53 346.90,613.60 347.28,608.67 348.39,604.04 350.17,599.95 352.52,596.66 355.30,594.36 358.35,593.17 361.49,593.17 364.54,594.36 367.32,596.66 369.67,599.95 371.45,604.04 372.56,608.67 372.94,613.60"/>
    <polyline points="363.07,613.60 362.47,615.45 360.89,616.60 358.95,616.60 357.37,615.45 356.77,613.60 357.37,611.75 358.95,610.60 360.89,610.60 362.47,611.75 363.07,613.60"/>
    <polyline points="361.81,587.14 361.26,588.48 359.92,589.03 358.58,588.48 358.03,587.14 358.58,585.80 359.92,585.25 361.26,585.80 361.81,587.14"/>
    <polyline points="382.18,592.60 386.25,592.92 390.20,593.87 393.90,595.41 397.24,597.51 400.13,600.10 402.48,603.10 404.20,606.42 405.26,609.95 405.62,613.60 405.26,617.25 404.20,620.78 402.48,624.10 400.13,627.10 397.24,629.69 393.90,631.79 390.20,633.33 386.25,634.28 382.18,634.60"/>
    <polyline points="398.35,613.60 397.75,615.45 396.17,616.60 394.23,616.60 392.65,615.45 392.05,613.60 392.65,611.75 394.23,610.60 396.17,610.60 397.75,611.75 398.35,613.60"/>
    <polyline points="397.09,587.14 396.54,588.48 395.20,589.03 393.86,588.48 393.31,587.14 393.86,585.80 395.20,585.25 396.54,585.80 397.09,587.14"/>
    <polyline points="443.50,613.60 443.12,618.53 442.01,623.16 440.23,627.25 437.88,630.54 435.10,632.84 432.05,634.03 428.91,634.03 425.86,632.84 423.08,630.54 420.73,627.25 418.95,623.16 417.84,618.53 417.46,613.60 417.84,608.67 418.95,604.04 420.73,599.95 423.08,596.66 425.86,594.36 428.91,593.17 432.05,593.17 435.10,594.36 437.88,596.66 440.23,599.95 442.01,604.04 443.12,608.67 443.50,613.60"/>
    <polyline points="433.63,613.60 433.03,615.45 431.45,616.60 429.51,616.60 427.93,615.45 427.33,613.60 427.93,611.75 429.51,610.60 431.45,610.60 433.03,611.75 433.63,613.60"/>
    <polyline points="432.37,587.14 431.82,588.48 430.48,589.03 429.14,588.48 428.59,587.14 429.14,585.80 430.48,585.25 431.82,585.80 432.37,587.14"/>
    <polyline points="465.76,592.60 465.76,631.91 465.69,632.51 465.49,633.08 465.17,633.59 464.75,634.01 464.24,634.33 463.67,634.53 463.07,634.60"/>
    <polyline points="454.82,612.34 476.70,612.34"/>
    <polyline points="68.02,668.20 68.02,707.51 67.95,708.11 67.75,708.68 67.43,709.19 67.01,709.61 66.50,709.93 65.93,710.13 65.33,710.20"/>
    <polyline points="68.02,668.20 64.99,668.54 62.16,669.52 59.73,671.09 57.87,673.14 56.70,675.52 56.30,678.07 56.70,680.62 57.87,683.01 59.73,685.05 62.16,686.62 64.99,687.60 68.02,687.94"/>
    <polyline points="63.15,702.43 62.59,704.16 61.12,705.23 59.30,705.23 57.83,704.16 57.27,702.43 57.83,700.70 59.30,699.63 61.12,699.63 62.59,700.70 63.15,702.43"/>
    <polyline points="116.32,689.20 115.94,694.13 114.83,698.76 113.05,702.85 110.70,706.14 107.92,708.44 104.87,709.63 101.73,709.63 98.68,708.44 95.90,706.14 93.55,702.85 91.77,698.76 90.66,694.13 90.28,689.20 90.66,684.27 91.77,679.64 93.55,675.55 95.90,672.26 98.68,669.96 101.73,668.77 104.87,668.77 107.92,669.96 110.70,672.26 113.05,675.55 114.83,679.64 115.94,684.27 116.32,689.20"/>
    <polyline points="106.45,689.20 105.85,691.05 104.27,692.20 102.33,692.20 100.75,691.05 100.15,689.20 100.75,687.35 102.33,686.20 104.27,686.20 105.85,687.35 106.45,689.20"/>
    <polyline points="105.19,662.74 104.64,664.08 103.30,664.63 101.96,664.08 101.41,662.74 101.96,661.40 103.30,660.85 104.64,661.40 105.19,662.74"/>
    <polyline points="151.60,668.20 151.60,707.51 151.53,708.11 151.33,708.68 151.01,709.19 150.59,709.61 150.08,709.93 149.51,710.13 148.91,710.20"/>
    <polyline points="151.60,668.20 147.03,668.60 142.63,669.80 138.58,671.74 135.03,674.35 132.11,677.53 129.95,681.16 128.61,685.10 128.16,689.20 128.61,693.30 129.95,697.24 132.11,700.87 135.03,704.05 138.58,706.66 142.63,708.60 147.03,709.80 151.60,710.20"/>
    <polyline points="186.88,668.20 186.88,707.51 186.81,708.11 186.61,708.68 186.29,709.19 185.87,709.61 185.36,709.93 184.79,710.13 184.19,710.20"/>
    <polyline points="186.88,668.20 160.84,668.20 160.00,670.62"/>
    <polyline points="186.88,687.94 180.81,688.32 175.16,689.43 170.31,691.20 166.58,693.51 164.24,696.19 163.44,699.07 164.24,701.95 166.58,704.64 170.31,706.94 175.16,708.71 180.81,709.82 186.88,710.20"/>
    <polyline points="196.12,668.20 199.01,671.51 201.76,674.85 204.39,678.23 206.88,681.64 209.25,685.09 211.48,688.57 213.59,692.09 215.56,695.64 217.41,699.23 219.12,702.85 220.71,706.51 222.16,710.20"/>
    <polyline points="196.12,668.20 222.16,668.20 223.00,670.62"/>
    <polyline points="196.12,710.20 216.95,710.20"/>
    <polyline points="211.03,662.74 210.48,664.08 209.14,664.63 207.80,664.08 207.25,662.74 207.80,661.40 209.14,660.85 210.48,661.40 211.03,662.74"/>
    <polyline points="257.44,710.20 253.37,709.88 249.42,708.93 245.72,707.39 242.38,705.29 239.49,702.70 237.14,699.70 235.42,696.38 234.36,692.85 234.00,689.20 234.36,685.55 235.42,682.02 237.14,678.70 239.49,675.70 242.38,673.11 245.72,671.01 249.42,669.47 253.37,668.52 257.44,668.20"/>
    <polyline points="233.48,689.20 255.36,689.20"/>
    <polyline points="292.72,668.20 292.72,707.51 292.65,708.11 292.45,708.68 292.13,709.19 291.71,709.61 291.20,709.93 290.63,710.13 290.03,710.20"/>
    <polyline points="292.72,687.94 286.65,688.32 281.00,689.43 276.15,691.20 272.42,693.51 270.08,696.19 269.28,699.07 270.08,701.95 272.42,704.64 276.15,706.94 281.00,708.71 286.65,709.82 292.72,710.20"/>
    <polyline points="281.59,662.74 281.04,664.08 279.70,664.63 278.36,664.08 277.81,662.74 278.36,661.40 279.70,660.85 281.04,661.40 281.59,662.74"/>
    <polyline points="328.00,668.20 328.00,707.51 328.07,708.11 328.27,708.68 328.59,709.19 329.01,709.61 329.52,709.93 330.09,710.13 330.69,710.20"/>
    <polyline points="328.00,668.20 334.07,668.54 339.72,669.52 344.57,671.09 348.30,673.14 350.64,675.52 351.44,678.07 350.64,680.62 348.30,683.01 344.57,685.05 339.72,686.62 334.07,687.60 328.00,687.94"/>
    <polyline points="342.91,662.74 342.36,664.08 341.02,664.63 339.68,664.08 339.13,662.74 339.68,661.40 341.02,660.85 342.36,661.40 342.91,662.74"/>
    <polyline points="389.32,668.20 389.32,707.51 389.25,708.11 389.05,708.68 388.73,709.19 388.31,709.61 387.80,709.93 387.23,710.13 386.63,710.20"/>
    <polyline points="389.32,668.20 383.25,668.54 377.60,669.52 372.75,671.09 369.02,673.14 366.68,675.52 365.88,678.07 366.68,680.62 369.02,683.01 372.75,685.05 377.60,686.62 383.25,687.60 389.32,687.94"/>
    <polyline points="389.32,687.94 383.25,688.32 377.60,689.43 372.75,691.20 369.02,693.51 366.68,696.19 365.88,699.07 366.68,701.95 369.02,704.64 372.75,706.94 377.60,708.71 383.25,709.82 389.32,710.20"/>
    <polyline points="398.56,668.20 398.56,707.51 398.63,708.11 398.83,708.68 399.15,709.19 399.57,709.61 400.08,709.93 400.65,710.13 401.25,710.20"/>
    <polyline points="398.56,668.20 424.60,668.20 425.44,670.62"/>
    <polyline points="398.56,687.94 404.63,688.32 410.28,689.43 415.13,691.20 418.86,693.51 421.20,696.19 422.00,699.07 421.20,701.95 418.86,704.64 415.13,706.94 410.28,708.71 404.63,709.82 398.56,710.20"/>
    <polyline points="413.47,716.50 412.92,717.84 411.58,718.39 410.24,717.84 409.69,716.50 410.24,715.16 411.58,714.61 412.92,715.16 413.47,716.50"/>
    <polyline points="459.88,668.20 459.88,707.51 459.81,708.11 459.61,708.68 459.29,709.19 458.87,709.61 458.36,709.93 457.79,710.13 457.19,710.20"/>
    <polyline points="459.88,668.20 433.84,668.20 433.00,670.62"/>
    <polyline points="459.88,687.94 453.81,688.32 448.16,689.43 443.31,691.20 439.58,693.51 437.24,696.19 436.44,699.07 437.24,701.95 439.58,704.64 443.31,706.94 448.16,708.71 453.81,709.82 459.88,710.20"/>
    <polyline points="482.14,668.20 482.14,707.51 482.07,708.11 481.87,708.68 481.55,709.19 481.13,709.61 480.62,709.93 480.05,710.13 479.45,710.20"/>
    <polyline points="482.14,668.20 479.11,668.54 476.28,669.52 473.85,671.09 471.99,673.14 470.82,675.52 470.42,678.07 470.82,680.62 471.99,683.01 473.85,685.05 476.28,686.62 479.11,687.60 482.14,687.94"/>
    <polyline points="477.27,702.43 476.71,704.16 475.24,705.23 473.42,705.23 471.95,704.16 471.39,702.43 471.95,700.70 473.42,699.63 475.24,699.63 476.71,700.70 477.27,702.43"/>
    <polyline points="517.42,668.20 517.42,707.51 517.35,708.11 517.15,708.68 516.83,709.19 516.41,709.61 515.90,709.93 515.33,710.13 514.73,710.20"/>
    <polyline points="506.48,687.94 528.36,687.94"/>
  </g>
</svg>