<?xml version="1.0" encoding="UTF-8"?>
<!-- LIPI PANEL SERIES 5/7 · seed 7 · A1 594x841mm · text continues from panel 4 -->
<svg xmlns="http://www.w3.org/2000/svg" width="594mm" height="841mm" viewBox="0 0 594 841">
  <g fill="none" stroke="#000000" stroke-width="1" stroke-linecap="round" stroke-linejoin="round">
    <polyline points="81.04,84.40 80.66,89.33 79.55,93.96 77.77,98.05 75.42,101.34 72.64,103.64 69.59,104.83 66.45,104.83 63.40,103.64 60.62,101.34 58.27,98.05 56.49,93.96 55.38,89.33 55.00,84.40 55.38,79.47 56.49,74.84 58.27,70.75 60.62,67.46 63.40,65.16 66.45,63.97 69.59,63.97 72.64,65.16 75.42,67.46 77.77,70.75 79.55,74.84 80.66,79.47 81.04,84.40"/>
    <polyline points="71.17,84.40 70.57,86.25 68.99,87.40 67.05,87.40 65.47,86.25 64.87,84.40 65.47,82.55 67.05,81.40 68.99,81.40 70.57,82.55 71.17,84.40"/>
    <polyline points="69.91,57.94 69.36,59.28 68.02,59.83 66.68,59.28 66.13,57.94 66.68,56.60 68.02,56.05 69.36,56.60 69.91,57.94"/>
    <polyline points="90.28,63.40 90.28,102.71 90.35,103.31 90.55,103.88 90.87,104.39 91.29,104.81 91.80,105.13 92.37,105.33 92.97,105.40"/>
    <polyline points="90.28,63.40 96.35,63.74 102.00,64.72 106.85,66.29 110.58,68.33 112.92,70.72 113.72,73.27 112.92,75.82 110.58,78.20 106.85,80.25 102.00,81.82 96.35,82.80 90.28,83.14"/>
    <polyline points="105.19,57.94 104.64,59.28 103.30,59.83 101.96,59.28 101.41,57.94 101.96,56.60 103.30,56.05 104.64,56.60 105.19,57.94"/>
    <polyline points="129.13,103.72 128.70,104.76 127.66,105.19 126.62,104.76 126.19,103.72 126.62,102.68 127.66,102.25 128.70,102.68 129.13,103.72"/>
    <polyline points="164.20,63.40 164.20,92.38 164.64,95.75 165.94,98.89 168.01,101.59 170.71,103.66 173.85,104.96 177.22,105.40 180.59,104.96 183.73,103.66 186.43,101.59 188.50,98.89 189.80,95.75 190.24,92.38 190.24,63.40"/>
    <polyline points="180.37,84.40 179.77,86.25 178.19,87.40 176.25,87.40 174.67,86.25 174.07,84.40 174.67,82.55 176.25,81.40 178.19,81.40 179.77,82.55 180.37,84.40"/>
    <polyline points="225.52,63.40 225.52,102.71 225.45,103.31 225.25,103.88 224.93,104.39 224.51,104.81 224.00,105.13 223.43,105.33 222.83,105.40"/>
    <polyline points="225.52,63.40 199.48,63.40 198.64,65.82"/>
    <polyline points="225.52,83.14 219.45,83.52 213.80,84.63 208.95,86.40 205.22,88.70 202.88,91.39 202.08,94.27 202.88,97.15 205.22,99.83 208.95,102.14 213.80,103.91 219.45,105.02 225.52,105.40"/>
    <polyline points="260.80,84.40 260.42,89.33 259.31,93.96 257.53,98.05 255.18,101.34 252.40,103.64 249.35,104.83 246.21,104.83 243.16,103.64 240.38,101.34 238.03,98.05 236.25,93.96 235.14,89.33 234.76,84.40 235.14,79.47 236.25,74.84 238.03,70.75 240.38,67.46 243.16,65.16 246.21,63.97 249.35,63.97 252.40,65.16 255.18,67.46 257.53,70.75 259.31,74.84 260.42,79.47 260.80,84.40"/>
    <polyline points="250.93,84.40 250.33,86.25 248.75,87.40 246.81,87.40 245.23,86.25 244.63,84.40 245.23,82.55 246.81,81.40 248.75,81.40 250.33,82.55 250.93,84.40"/>
    <polyline points="249.67,57.94 249.12,59.28 247.78,59.83 246.44,59.28 245.89,57.94 246.44,56.60 247.78,56.05 249.12,56.60 249.67,57.94"/>
    <polyline points="296.08,84.40 295.70,89.33 294.59,93.96 292.81,98.05 290.46,101.34 287.68,103.64 284.63,104.83 281.49,104.83 278.44,103.64 275.66,101.34 273.31,98.05 271.53,93.96 270.42,89.33 270.04,84.40 270.42,79.47 271.53,74.84 273.31,70.75 275.66,67.46 278.44,65.16 281.49,63.97 284.63,63.97 287.68,65.16 290.46,67.46 292.81,70.75 294.59,74.84 295.70,79.47 296.08,84.40"/>
    <polyline points="283.06,63.40 283.06,105.40"/>
    <polyline points="331.36,105.40 327.29,105.08 323.34,104.13 319.64,102.59 316.30,100.49 313.41,97.90 311.06,94.90 309.34,91.58 308.28,88.05 307.92,84.40 308.28,80.75 309.34,77.22 311.06,73.90 313.41,70.90 316.30,68.31 319.64,66.21 323.34,64.67 327.29,63.72 331.36,63.40"/>
    <polyline points="320.23,111.70 319.68,113.04 318.34,113.59 317.00,113.04 316.45,111.70 317.00,110.36 318.34,109.81 319.68,110.36 320.23,111.70"/>
    <polyline points="340.60,63.40 340.60,102.71 340.67,103.31 340.87,103.88 341.19,104.39 341.61,104.81 342.12,105.13 342.69,105.33 343.29,105.40"/>
    <polyline points="340.60,63.40 366.64,63.40 367.48,65.82"/>
    <polyline points="340.60,83.14 346.67,83.52 352.32,84.63 357.17,86.40 360.90,88.70 363.24,91.39 364.04,94.27 363.24,97.15 360.90,99.83 357.17,102.14 352.32,103.91 346.67,105.02 340.60,105.40"/>
    <polyline points="355.51,111.70 354.96,113.04 353.62,113.59 352.28,113.04 351.73,111.70 352.28,110.36 353.62,109.81 354.96,110.36 355.51,111.70"/>
    <polyline points="401.92,63.40 401.92,102.71 401.85,103.31 401.65,103.88 401.33,104.39 400.91,104.81 400.40,105.13 399.83,105.33 399.23,105.40"/>
    <polyline points="401.92,83.14 395.85,83.52 390.20,84.63 385.35,86.40 381.62,88.70 379.28,91.39 378.48,94.27 379.28,97.15 381.62,99.83 385.35,102.14 390.20,103.91 395.85,105.02 401.92,105.40"/>
    <polyline points="390.79,57.94 390.24,59.28 388.90,59.83 387.56,59.28 387.01,57.94 387.56,56.60 388.90,56.05 390.24,56.60 390.79,57.94"/>
    <polyline points="424.18,63.40 424.18,102.71 424.25,103.31 424.45,103.88 424.77,104.39 425.19,104.81 425.70,105.13 426.27,105.33 426.87,105.40"/>
    <polyline points="424.18,63.40 427.21,63.74 430.04,64.72 432.47,66.29 434.33,68.33 435.50,70.72 435.90,73.27 435.50,75.82 434.33,78.20 432.47,80.25 430.04,81.82 427.21,82.80 424.18,83.14"/>
    <polyline points="424.18,83.14 427.21,83.52 430.04,84.63 432.47,86.40 434.33,88.70 435.50,91.39 435.90,94.27 435.50,97.15 434.33,99.83 432.47,102.14 430.04,103.91 427.21,105.02 424.18,105.40"/>
    <polyline points="420.01,59.20 428.35,56.68"/>
    <polyline points="446.44,63.40 446.44,102.71 446.51,103.31 446.71,103.88 447.03,104.39 447.45,104.81 447.96,105.13 448.53,105.33 449.13,105.40"/>
    <polyline points="446.44,63.40 452.51,63.74 458.16,64.72 463.01,66.29 466.74,68.33 469.08,70.72 469.88,73.27 469.08,75.82 466.74,78.20 463.01,80.25 458.16,81.82 452.51,82.80 446.44,83.14"/>
    <polyline points="461.35,57.94 460.80,59.28 459.46,59.83 458.12,59.28 457.57,57.94 458.12,56.60 459.46,56.05 460.80,56.60 461.35,57.94"/>
    <polyline points="481.72,63.40 485.79,63.72 489.74,64.67 493.44,66.21 496.78,68.31 499.67,70.90 502.02,73.90 503.74,77.22 504.80,80.75 505.16,84.40 504.80,88.05 503.74,91.58 502.02,94.90 499.67,97.90 496.78,100.49 493.44,102.59 489.74,104.13 485.79,105.08 481.72,105.40"/>
    <polyline points="497.89,84.40 497.29,86.25 495.71,87.40 493.77,87.40 492.19,86.25 491.59,84.40 492.19,82.55 493.77,81.40 495.71,81.40 497.29,82.55 497.89,84.40"/>
    <polyline points="496.63,57.94 496.08,59.28 494.74,59.83 493.40,59.28 492.85,57.94 493.40,56.60 494.74,56.05 496.08,56.60 496.63,57.94"/>
    <polyline points="81.04,139.00 81.04,178.31 80.97,178.91 80.77,179.48 80.45,179.99 80.03,180.41 79.52,180.73 78.95,180.93 78.35,181.00"/>
    <polyline points="81.04,139.00 55.00,139.00 54.16,141.42"/>
    <polyline points="81.04,158.74 74.97,159.12 69.32,160.23 64.47,162.00 60.74,164.31 58.40,166.99 57.60,169.87 58.40,172.75 60.74,175.44 64.47,177.74 69.32,179.51 74.97,180.62 81.04,181.00"/>
    <polyline points="116.32,160.00 115.94,164.93 114.83,169.56 113.05,173.65 110.70,176.94 107.92,179.24 104.87,180.43 101.73,180.43 98.68,179.24 95.90,176.94 93.55,173.65 91.77,169.56 90.66,164.93 90.28,160.00 90.66,155.07 91.77,150.44 93.55,146.35 95.90,143.06 98.68,140.76 101.73,139.57 104.87,139.57 107.92,140.76 110.70,143.06 113.05,146.35 114.83,150.44 115.94,155.07 116.32,160.00"/>
    <polyline points="106.45,160.00 105.85,161.85 104.27,163.00 102.33,163.00 100.75,161.85 100.15,160.00 100.75,158.15 102.33,157.00 104.27,157.00 105.85,158.15 106.45,160.00"/>
    <polyline points="105.19,133.54 104.64,134.88 103.30,135.43 101.96,134.88 101.41,133.54 101.96,132.20 103.30,131.65 104.64,132.20 105.19,133.54"/>
    <polyline points="164.62,139.00 164.62,178.31 164.69,178.91 164.89,179.48 165.21,179.99 165.63,180.41 166.14,180.73 166.71,180.93 167.31,181.00"/>
    <polyline points="164.62,139.00 167.65,139.34 170.48,140.32 172.91,141.89 174.77,143.94 175.94,146.32 176.34,148.87 175.94,151.42 174.77,153.81 172.91,155.85 170.48,157.42 167.65,158.40 164.62,158.74"/>
    <polyline points="164.62,158.74 167.65,159.12 170.48,160.23 172.91,162.00 174.77,164.31 175.94,166.99 176.34,169.87 175.94,172.75 174.77,175.44 172.91,177.74 170.48,179.51 167.65,180.62 164.62,181.00"/>
    <polyline points="160.45,134.80 168.79,132.28"/>
    <polyline points="212.92,160.00 212.54,164.93 211.43,169.56 209.65,173.65 207.30,176.94 204.52,179.24 201.47,180.43 198.33,180.43 195.28,179.24 192.50,176.94 190.15,173.65 188.37,169.56 187.26,164.93 186.88,160.00 187.26,155.07 188.37,150.44 190.15,146.35 192.50,143.06 195.28,140.76 198.33,139.57 201.47,139.57 204.52,140.76 207.30,143.06 209.65,146.35 211.43,150.44 212.54,155.07 212.92,160.00"/>
    <polyline points="203.05,160.00 202.45,161.85 200.87,163.00 198.93,163.00 197.35,161.85 196.75,160.00 197.35,158.15 198.93,157.00 200.87,157.00 202.45,158.15 203.05,160.00"/>
    <polyline points="201.79,133.54 201.24,134.88 199.90,135.43 198.56,134.88 198.01,133.54 198.56,132.20 199.90,131.65 201.24,132.20 201.79,133.54"/>
    <polyline points="248.20,181.00 244.13,180.68 240.18,179.73 236.48,178.19 233.14,176.09 230.25,173.50 227.90,170.50 226.18,167.18 225.12,163.65 224.76,160.00 225.12,156.35 226.18,152.82 227.90,149.50 230.25,146.50 233.14,143.91 236.48,141.81 240.18,140.27 244.13,139.32 248.20,139.00"/>
    <polyline points="224.24,160.00 246.12,160.00"/>
    <polyline points="283.48,139.00 287.55,139.32 291.50,140.27 295.20,141.81 298.54,143.91 301.43,146.50 303.78,149.50 305.50,152.82 306.56,156.35 306.92,160.00 306.56,163.65 305.50,167.18 303.78,170.50 301.43,173.50 298.54,176.09 295.20,178.19 291.50,179.73 287.55,180.68 283.48,181.00"/>
    <polyline points="299.65,160.00 299.05,161.85 297.47,163.00 295.53,163.00 293.95,161.85 293.35,160.00 293.95,158.15 295.53,157.00 297.47,157.00 299.05,158.15 299.65,160.00"/>
    <polyline points="298.39,133.54 297.84,134.88 296.50,135.43 295.16,134.88 294.61,133.54 295.16,132.20 296.50,131.65 297.84,132.20 298.39,133.54"/>
    <polyline points="344.80,139.00 344.80,178.31 344.73,178.91 344.53,179.48 344.21,179.99 343.79,180.41 343.28,180.73 342.71,180.93 342.11,181.00"/>
    <polyline points="344.80,139.00 338.73,139.34 333.08,140.32 328.23,141.89 324.50,143.94 322.16,146.32 321.36,148.87 322.16,151.42 324.50,153.81 328.23,155.85 333.08,157.42 338.73,158.40 344.80,158.74"/>
    <polyline points="332.12,173.23 331.55,174.96 330.08,176.03 328.27,176.03 326.80,174.96 326.24,173.23 326.80,171.50 328.27,170.43 330.08,170.43 331.55,171.50 332.12,173.23"/>
    <polyline points="367.06,139.00 367.06,178.31 367.13,178.91 367.33,179.48 367.65,179.99 368.07,180.41 368.58,180.73 369.15,180.93 369.75,181.00"/>
    <polyline points="367.06,139.00 370.09,139.34 372.92,140.32 375.35,141.89 377.21,143.94 378.38,146.32 378.78,148.87 378.38,151.42 377.21,153.81 375.35,155.85 372.92,157.42 370.09,158.40 367.06,158.74"/>
    <polyline points="367.06,158.74 370.09,159.12 372.92,160.23 375.35,162.00 377.21,164.31 378.38,166.99 378.78,169.87 378.38,172.75 377.21,175.44 375.35,177.74 372.92,179.51 370.09,180.62 367.06,181.00"/>
    <polyline points="362.89,134.80 371.23,132.28"/>
    <polyline points="402.34,139.00 402.34,178.31 402.27,178.91 402.07,179.48 401.75,179.99 401.33,180.41 400.82,180.73 400.25,180.93 399.65,181.00"/>
    <polyline points="391.40,158.74 413.28,158.74"/>
    <polyline points="424.60,139.00 428.67,139.32 432.62,140.27 436.32,141.81 439.66,143.91 442.55,146.50 444.90,149.50 446.62,152.82 447.68,156.35 448.04,160.00 447.68,163.65 446.62,167.18 444.90,170.50 442.55,173.50 439.66,176.09 436.32,178.19 432.62,179.73 428.67,180.68 424.60,181.00"/>
    <polyline points="440.77,160.00 440.17,161.85 438.59,163.00 436.65,163.00 435.07,161.85 434.47,160.00 435.07,158.15 436.65,157.00 438.59,157.00 440.17,158.15 440.77,160.00"/>
    <polyline points="439.51,133.54 438.96,134.88 437.62,135.43 436.28,134.88 435.73,133.54 436.28,132.20 437.62,131.65 438.96,132.20 439.51,133.54"/>
    <polyline points="485.92,160.00 485.54,164.93 484.43,169.56 482.65,173.65 480.30,176.94 477.52,179.24 474.47,180.43 471.33,180.43 468.28,179.24 465.50,176.94 463.15,173.65 461.37,169.56 460.26,164.93 459.88,160.00 460.26,155.07 461.37,150.44 463.15,146.35 465.50,143.06 468.28,140.76 471.33,139.57 474.47,139.57 477.52,140.76 480.30,143.06 482.65,146.35 484.43,150.44 485.54,155.07 485.92,160.00"/>
    <polyline points="476.05,160.00 475.45,161.85 473.87,163.00 471.93,163.00 470.35,161.85 469.75,160.00 470.35,158.15 471.93,157.00 473.87,157.00 475.45,158.15 476.05,160.00"/>
    <polyline points="474.79,133.54 474.24,134.88 472.90,135.43 471.56,134.88 471.01,133.54 471.56,132.20 472.90,131.65 474.24,132.20 474.79,133.54"/>
    <polyline points="508.18,139.00 508.18,178.31 508.25,178.91 508.45,179.48 508.77,179.99 509.19,180.41 509.70,180.73 510.27,180.93 510.87,181.00"/>
    <polyline points="508.18,139.00 511.21,139.34 514.04,140.32 516.47,141.89 518.33,143.94 519.50,146.32 519.90,148.87 519.50,151.42 518.33,153.81 516.47,155.85 514.04,157.42 511.21,158.40 508.18,158.74"/>
    <polyline points="508.18,158.74 511.21,159.12 514.04,160.23 516.47,162.00 518.33,164.31 519.50,166.99 519.90,169.87 519.50,172.75 518.33,175.44 516.47,177.74 514.04,179.51 511.21,180.62 508.18,181.00"/>
    <polyline points="504.01,134.80 512.35,132.28"/>
    <polyline points="55.00,214.60 55.00,253.91 55.07,254.51 55.27,255.08 55.59,255.59 56.01,256.01 56.52,256.33 57.09,256.53 57.69,256.60"/>
    <polyline points="55.00,214.60 61.07,214.94 66.72,215.92 71.57,217.49 75.30,219.54 77.64,221.92 78.44,224.47 77.64,227.02 75.30,229.41 71.57,231.45 66.72,233.02 61.07,234.00 55.00,234.34"/>
    <polyline points="69.91,209.14 69.36,210.48 68.02,211.03 66.68,210.48 66.13,209.14 66.68,207.80 68.02,207.25 69.36,207.80 69.91,209.14"/>
    <polyline points="90.28,214.60 94.35,214.92 98.30,215.87 102.00,217.41 105.34,219.51 108.23,222.10 110.58,225.10 112.30,228.42 113.36,231.95 113.72,235.60 113.36,239.25 112.30,242.78 110.58,246.10 108.23,249.10 105.34,251.69 102.00,253.79 98.30,255.33 94.35,256.28 90.28,256.60"/>
    <polyline points="106.45,235.60 105.85,237.45 104.27,238.60 102.33,238.60 100.75,237.45 100.15,235.60 100.75,233.75 102.33,232.60 104.27,232.60 105.85,233.75 106.45,235.60"/>
    <polyline points="105.19,209.14 104.64,210.48 103.30,211.03 101.96,210.48 101.41,209.14 101.96,207.80 103.30,207.25 104.64,207.80 105.19,209.14"/>
    <polyline points="151.60,214.60 151.60,253.91 151.53,254.51 151.33,255.08 151.01,255.59 150.59,256.01 150.08,256.33 149.51,256.53 148.91,256.60"/>
    <polyline points="151.60,214.60 125.56,214.60 124.72,217.02"/>
    <polyline points="151.60,234.34 145.53,234.72 139.88,235.83 135.03,237.60 131.30,239.91 128.96,242.59 128.16,245.47 128.96,248.35 131.30,251.04 135.03,253.34 139.88,255.11 145.53,256.22 151.60,256.60"/>
    <polyline points="186.88,235.60 186.50,240.53 185.39,245.16 183.61,249.25 181.26,252.54 178.48,254.84 175.43,256.03 172.29,256.03 169.24,254.84 166.46,252.54 164.11,249.25 162.33,245.16 161.22,240.53 160.84,235.60 161.22,230.67 162.33,226.04 164.11,221.95 166.46,218.66 169.24,216.36 172.29,215.17 175.43,215.17 178.48,216.36 181.26,218.66 183.61,221.95 185.39,226.04 186.50,230.67 186.88,235.60"/>
    <polyline points="177.01,235.60 176.41,237.45 174.83,238.60 172.89,238.60 171.31,237.45 170.71,235.60 171.31,233.75 172.89,232.60 174.83,232.60 176.41,233.75 177.01,235.60"/>
    <polyline points="175.75,209.14 175.20,210.48 173.86,211.03 172.52,210.48 171.97,209.14 172.52,207.80 173.86,207.25 175.20,207.80 175.75,209.14"/>
    <polyline points="196.12,214.60 196.12,256.60"/>
    <polyline points="256.68,214.60 256.68,253.91 256.75,254.51 256.95,255.08 257.27,255.59 257.70,256.01 258.21,256.33 258.77,256.53 259.37,256.60"/>
    <polyline points="256.68,214.60 282.72,214.60 283.56,217.02"/>
    <polyline points="256.68,234.34 262.75,234.72 268.40,235.83 273.26,237.60 276.98,239.91 279.32,242.59 280.12,245.47 279.32,248.35 276.98,251.04 273.26,253.34 268.40,255.11 262.75,256.22 256.68,256.60"/>
    <polyline points="271.59,262.90 271.04,264.24 269.70,264.79 268.37,264.24 267.81,262.90 268.37,261.56 269.70,261.01 271.04,261.56 271.59,262.90"/>
    <polyline points="318.00,256.60 313.93,256.28 309.99,255.33 306.29,253.79 302.94,251.69 300.05,249.10 297.71,246.10 295.98,242.78 294.92,239.25 294.57,235.60 294.92,231.95 295.98,228.42 297.71,225.10 300.05,222.10 302.94,219.51 306.29,217.41 309.99,215.87 313.93,214.92 318.00,214.60"/>
    <polyline points="306.87,262.90 306.32,264.24 304.98,264.79 303.65,264.24 303.09,262.90 303.65,261.56 304.98,261.01 306.32,261.56 306.87,262.90"/>
    <polyline points="340.26,214.60 340.26,253.91 340.33,254.51 340.53,255.08 340.85,255.59 341.28,256.01 341.79,256.33 342.35,256.53 342.95,256.60"/>
    <polyline points="340.26,214.60 343.30,214.94 346.12,215.92 348.55,217.49 350.41,219.54 351.58,221.92 351.98,224.47 351.58,227.02 350.41,229.41 348.55,231.45 346.12,233.02 343.30,234.00 340.26,234.34"/>
    <polyline points="340.26,234.34 343.30,234.72 346.12,235.83 348.55,237.60 350.41,239.91 351.58,242.59 351.98,245.47 351.58,248.35 350.41,251.04 348.55,253.34 346.12,255.11 343.30,256.22 340.26,256.60"/>
    <polyline points="336.10,210.40 344.43,207.88"/>
    <polyline points="388.56,256.60 384.49,256.28 380.55,255.33 376.85,253.79 373.50,251.69 370.61,249.10 368.27,246.10 366.54,242.78 365.48,239.25 365.13,235.60 365.48,231.95 366.54,228.42 368.27,225.10 370.61,222.10 373.50,219.51 376.85,217.41 380.55,215.87 384.49,214.92 388.56,214.60"/>
    <polyline points="364.61,235.60 386.48,235.60"/>
    <polyline points="397.80,214.60 401.87,214.92 405.82,215.87 409.52,217.41 412.87,219.51 415.76,222.10 418.10,225.10 419.83,228.42 420.88,231.95 421.24,235.60 420.88,239.25 419.83,242.78 418.10,246.10 415.76,249.10 412.87,251.69 409.52,253.79 405.82,255.33 401.87,256.28 397.80,256.60"/>
    <polyline points="413.97,235.60 413.37,237.45 411.80,238.60 409.85,238.60 408.28,237.45 407.67,235.60 408.28,233.75 409.85,232.60 411.80,232.60 413.37,233.75 413.97,235.60"/>
    <polyline points="412.71,209.14 412.16,210.48 410.82,211.03 409.49,210.48 408.93,209.14 409.49,207.80 410.82,207.25 412.16,207.80 412.71,209.14"/>
    <polyline points="459.12,235.60 458.75,240.53 457.63,245.16 455.85,249.25 453.50,252.54 450.72,254.84 447.67,256.03 444.53,256.03 441.49,254.84 438.71,252.54 436.36,249.25 434.58,245.16 433.46,240.53 433.08,235.60 433.46,230.67 434.58,226.04 436.36,221.95 438.71,218.66 441.49,216.36 444.53,215.17 447.67,215.17 450.72,216.36 453.50,218.66 455.85,221.95 457.63,226.04 458.75,230.67 459.12,235.60"/>
    <polyline points="449.25,235.60 448.65,237.45 447.08,238.60 445.13,238.60 443.56,237.45 442.95,235.60 443.56,233.75 445.13,232.60 447.08,232.60 448.65,233.75 449.25,235.60"/>
    <polyline points="447.99,209.14 447.44,210.48 446.10,211.03 444.77,210.48 444.21,209.14 444.77,207.80 446.10,207.25 447.44,207.80 447.99,209.14"/>
    <polyline points="481.38,214.60 481.38,253.91 481.32,254.51 481.12,255.08 480.80,255.59 480.37,256.01 479.86,256.33 479.29,256.53 478.70,256.60"/>
    <polyline points="470.45,234.34 492.32,234.34"/>
    <polyline points="81.04,332.20 76.97,331.88 73.02,330.93 69.32,329.39 65.98,327.29 63.09,324.70 60.74,321.70 59.02,318.38 57.96,314.85 57.60,311.20 57.96,307.55 59.02,304.02 60.74,300.70 63.09,297.70 65.98,295.11 69.32,293.01 73.02,291.47 76.97,290.52 81.04,290.20"/>
    <polyline points="69.91,338.50 69.36,339.84 68.02,340.39 66.68,339.84 66.13,338.50 66.68,337.16 68.02,336.61 69.36,337.16 69.91,338.50"/>
    <polyline points="90.28,290.20 90.28,329.51 90.35,330.11 90.55,330.68 90.87,331.19 91.29,331.61 91.80,331.93 92.37,332.13 92.97,332.20"/>
    <polyline points="90.28,290.20 116.32,290.20 117.16,292.62"/>
    <polyline points="125.56,290.20 125.56,329.51 125.63,330.11 125.83,330.68 126.15,331.19 126.57,331.61 127.08,331.93 127.65,332.13 128.25,332.20"/>
    <polyline points="125.56,290.20 131.63,290.54 137.28,291.52 142.13,293.09 145.86,295.14 148.20,297.52 149.00,300.07 148.20,302.62 145.86,305.01 142.13,307.05 137.28,308.62 131.63,309.60 125.56,309.94"/>
    <polyline points="140.47,284.74 139.92,286.08 138.58,286.63 137.24,286.08 136.69,284.74 137.24,283.40 138.58,282.85 139.92,283.40 140.47,284.74"/>
    <polyline points="186.88,332.20 182.81,331.88 178.86,330.93 175.16,329.39 171.82,327.29 168.93,324.70 166.58,321.70 164.86,318.38 163.80,314.85 163.44,311.20 163.80,307.55 164.86,304.02 166.58,300.70 168.93,297.70 171.82,295.11 175.16,293.01 178.86,291.47 182.81,290.52 186.88,290.20"/>
    <polyline points="175.75,338.50 175.20,339.84 173.86,340.39 172.52,339.84 171.97,338.50 172.52,337.16 173.86,336.61 175.20,337.16 175.75,338.50"/>
    <polyline points="222.16,311.20 221.78,316.13 220.67,320.76 218.89,324.85 216.54,328.14 213.76,330.44 210.71,331.63 207.57,331.63 204.52,330.44 201.74,328.14 199.39,324.85 197.61,320.76 196.50,316.13 196.12,311.20 196.50,306.27 197.61,301.64 199.39,297.55 201.74,294.26 204.52,291.96 207.57,290.77 210.71,290.77 213.76,291.96 216.54,294.26 218.89,297.55 220.67,301.64 221.78,306.27 222.16,311.20"/>
    <polyline points="212.29,311.20 211.69,313.05 210.11,314.20 208.17,314.20 206.59,313.05 205.99,311.20 206.59,309.35 208.17,308.20 210.11,308.20 211.69,309.35 212.29,311.20"/>
    <polyline points="211.03,284.74 210.48,286.08 209.14,286.63 207.80,286.08 207.25,284.74 207.80,283.40 209.14,282.85 210.48,283.40 211.03,284.74"/>
    <polyline points="257.44,332.20 253.37,331.88 249.42,330.93 245.72,329.39 242.38,327.29 239.49,324.70 237.14,321.70 235.42,318.38 234.36,314.85 234.00,311.20 234.36,307.55 235.42,304.02 237.14,300.70 239.49,297.70 242.38,295.11 245.72,293.01 249.42,291.47 253.37,290.52 257.44,290.20"/>
    <polyline points="233.48,311.20 255.36,311.20"/>
    <polyline points="292.72,290.20 292.72,329.51 292.65,330.11 292.45,330.68 292.13,331.19 291.71,331.61 291.20,331.93 290.63,332.13 290.03,332.20"/>
    <polyline points="292.72,309.94 286.65,310.32 281.00,311.43 276.15,313.20 272.42,315.51 270.08,318.19 269.28,321.07 270.08,323.95 272.42,326.64 276.15,328.94 281.00,330.71 286.65,331.82 292.72,332.20"/>
    <polyline points="281.59,284.74 281.04,286.08 279.70,286.63 278.36,286.08 277.81,284.74 278.36,283.40 279.70,282.85 281.04,283.40 281.59,284.74"/>
    <polyline points="328.00,332.20 328.00,303.22 328.44,299.85 329.74,296.71 331.81,294.01 334.51,291.94 337.65,290.64 341.02,290.20 344.39,290.64 347.53,291.94 350.23,294.01 352.30,296.71 353.60,299.85 354.04,303.22 354.04,332.20"/>
    <polyline points="330.08,311.20 351.96,311.20"/>
    <polyline points="389.32,332.20 385.25,331.88 381.30,330.93 377.60,329.39 374.26,327.29 371.37,324.70 369.02,321.70 367.30,318.38 366.24,314.85 365.88,311.20 366.24,307.55 367.30,304.02 369.02,300.70 371.37,297.70 374.26,295.11 377.60,293.01 381.30,291.47 385.25,290.52 389.32,290.20"/>
    <polyline points="378.19,338.50 377.64,339.84 376.30,340.39 374.96,339.84 374.41,338.50 374.96,337.16 376.30,336.61 377.64,337.16 378.19,338.50"/>
    <polyline points="398.56,290.20 401.45,293.51 404.20,296.85 406.83,300.23 409.32,303.64 411.69,307.09 413.92,310.57 416.03,314.09 418.00,317.64 419.85,321.23 421.56,324.85 423.15,328.51 424.60,332.20"/>
    <polyline points="414.73,311.20 414.13,313.05 412.55,314.20 410.61,314.20 409.03,313.05 408.43,311.20 409.03,309.35 410.61,308.20 412.55,308.20 414.13,309.35 414.73,311.20"/>
    <polyline points="413.47,284.74 412.92,286.08 411.58,286.63 410.24,286.08 409.69,284.74 410.24,283.40 411.58,282.85 412.92,283.40 413.47,284.74"/>
    <polyline points="459.88,290.20 459.88,329.51 459.81,330.11 459.61,330.68 459.29,331.19 458.87,331.61 458.36,331.93 457.79,332.13 457.19,332.20"/>
    <polyline points="459.88,290.20 433.84,290.20 433.00,292.62"/>
    <polyline points="459.88,309.94 453.81,310.32 448.16,311.43 443.31,313.20 439.58,315.51 437.24,318.19 436.44,321.07 437.24,323.95 439.58,326.64 443.31,328.94 448.16,330.71 453.81,331.82 459.88,332.20"/>
    <polyline points="495.16,311.20 494.78,316.13 493.67,320.76 491.89,324.85 489.54,328.14 486.76,330.44 483.71,331.63 480.57,331.63 477.52,330.44 474.74,328.14 472.39,324.85 470.61,320.76 469.50,316.13 469.12,311.20 469.50,306.27 470.61,301.64 472.39,297.55 474.74,294.26 477.52,291.96 480.57,290.77 483.71,290.77 486.76,291.96 489.54,294.26 491.89,297.55 493.67,301.64 494.78,306.27 495.16,311.20"/>
    <polyline points="485.29,311.20 484.69,313.05 483.11,314.20 481.17,314.20 479.59,313.05 478.99,311.20 479.59,309.35 481.17,308.20 483.11,308.20 484.69,309.35 485.29,311.20"/>
    <polyline points="484.03,284.74 483.48,286.08 482.14,286.63 480.80,286.08 480.25,284.74 480.80,283.40 482.14,282.85 483.48,283.40 484.03,284.74"/>
    <polyline points="530.44,332.20 526.37,331.88 522.42,330.93 518.72,329.39 515.38,327.29 512.49,324.70 510.14,321.70 508.42,318.38 507.36,314.85 507.00,311.20 507.36,307.55 508.42,304.02 510.14,300.70 512.49,297.70 515.38,295.11 518.72,293.01 522.42,291.47 526.37,290.52 530.44,290.20"/>
    <polyline points="506.48,311.20 528.36,311.20"/>
    <polyline points="55.00,365.80 55.00,405.11 55.07,405.71 55.27,406.28 55.59,406.79 56.01,407.21 56.52,407.53 57.09,407.73 57.69,407.80"/>
    <polyline points="55.00,365.80 61.07,366.14 66.72,367.12 71.57,368.69 75.30,370.74 77.64,373.12 78.44,375.67 77.64,378.22 75.30,380.61 71.57,382.65 66.72,384.22 61.07,385.20 55.00,385.54"/>
    <polyline points="69.91,360.34 69.36,361.68 68.02,362.23 66.68,361.68 66.13,360.34 66.68,359.00 68.02,358.45 69.36,359.00 69.91,360.34"/>
    <polyline points="116.32,365.80 116.32,405.11 116.25,405.71 116.05,406.28 115.73,406.79 115.31,407.21 114.80,407.53 114.23,407.73 113.63,407.80"/>
    <polyline points="116.32,365.80 110.25,366.14 104.60,367.12 99.75,368.69 96.02,370.74 93.68,373.12 92.88,375.67 93.68,378.22 96.02,380.61 99.75,382.65 104.60,384.22 110.25,385.20 116.32,385.54"/>
    <polyline points="116.32,385.54 110.25,385.92 104.60,387.03 99.75,388.80 96.02,391.11 93.68,393.79 92.88,396.67 93.68,399.55 96.02,402.24 99.75,404.54 104.60,406.31 110.25,407.42 116.32,407.80"/>
    <polyline points="151.60,407.80 147.53,407.48 143.58,406.53 139.88,404.99 136.54,402.89 133.65,400.30 131.30,397.30 129.58,393.98 128.52,390.45 128.16,386.80 128.52,383.15 129.58,379.62 131.30,376.30 133.65,373.30 136.54,370.71 139.88,368.61 143.58,367.07 147.53,366.12 151.60,365.80"/>
    <polyline points="140.47,414.10 139.92,415.44 138.58,415.99 137.24,415.44 136.69,414.10 137.24,412.76 138.58,412.21 139.92,412.76 140.47,414.10"/>
    <polyline points="212.92,365.80 212.92,405.11 212.85,405.71 212.65,406.28 212.33,406.79 211.91,407.21 211.40,407.53 210.83,407.73 210.23,407.80"/>
    <polyline points="212.92,365.80 186.88,365.80 186.04,368.22"/>
    <polyline points="235.18,365.80 235.18,405.11 235.25,405.71 235.45,406.28 235.77,406.79 236.19,407.21 236.70,407.53 237.27,407.73 237.87,407.80"/>
    <polyline points="235.18,365.80 238.21,366.14 241.04,367.12 243.47,368.69 245.33,370.74 246.50,373.12 246.90,375.67 246.50,378.22 245.33,380.61 243.47,382.65 241.04,384.22 238.21,385.20 235.18,385.54"/>
    <polyline points="235.18,385.54 238.21,385.92 241.04,387.03 243.47,388.80 245.33,391.11 246.50,393.79 246.90,396.67 246.50,399.55 245.33,402.24 243.47,404.54 241.04,406.31 238.21,407.42 235.18,407.80"/>
    <polyline points="231.01,361.60 239.35,359.08"/>
    <polyline points="270.46,365.80 270.46,405.11 270.39,405.71 270.19,406.28 269.87,406.79 269.45,407.21 268.94,407.53 268.37,407.73 267.77,407.80"/>
    <polyline points="259.52,385.54 281.40,385.54"/>
    <polyline points="318.76,407.80 314.69,407.48 310.74,406.53 307.04,404.99 303.70,402.89 300.81,400.30 298.46,397.30 296.74,393.98 295.68,390.45 295.32,386.80 295.68,383.15 296.74,379.62 298.46,376.30 300.81,373.30 303.70,370.71 307.04,368.61 310.74,367.07 314.69,366.12 318.76,365.80"/>
    <polyline points="307.63,414.10 307.08,415.44 305.74,415.99 304.40,415.44 303.85,414.10 304.40,412.76 305.74,412.21 307.08,412.76 307.63,414.10"/>
    <polyline points="328.00,365.80 328.00,407.80"/>
    <polyline points="372.94,365.80 375.83,369.11 378.58,372.45 381.21,375.83 383.70,379.24 386.07,382.69 388.30,386.17 390.41,389.69 392.38,393.24 394.23,396.83 395.94,400.45 397.53,404.11 398.98,407.80"/>
    <polyline points="372.94,365.80 398.98,365.80 399.82,368.22"/>
    <polyline points="372.94,407.80 393.77,407.80"/>
    <polyline points="387.85,360.34 387.30,361.68 385.96,362.23 384.62,361.68 384.07,360.34 384.62,359.00 385.96,358.45 387.30,359.00 387.85,360.34"/>
    <polyline points="434.26,407.80 430.19,407.48 426.24,406.53 422.54,404.99 419.20,402.89 416.31,400.30 413.96,397.30 412.24,393.98 411.18,390.45 410.82,386.80 411.18,383.15 412.24,379.62 413.96,376.30 416.31,373.30 419.20,370.71 422.54,368.61 426.24,367.07 430.19,366.12 434.26,365.80"/>
    <polyline points="423.13,414.10 422.58,415.44 421.24,415.99 419.90,415.44 419.35,414.10 419.90,412.76 421.24,412.21 422.58,412.76 423.13,414.10"/>
    <polyline points="456.52,365.80 456.52,405.11 456.59,405.71 456.79,406.28 457.11,406.79 457.53,407.21 458.04,407.53 458.61,407.73 459.21,407.80"/>
    <polyline points="456.52,365.80 459.55,366.14 462.38,367.12 464.81,368.69 466.67,370.74 467.84,373.12 468.24,375.67 467.84,378.22 466.67,380.61 464.81,382.65 462.38,384.22 459.55,385.20 456.52,385.54"/>
    <polyline points="456.52,385.54 459.55,385.92 462.38,387.03 464.81,388.80 466.67,391.11 467.84,393.79 468.24,396.67 467.84,399.55 466.67,402.24 464.81,404.54 462.38,406.31 459.55,407.42 456.52,407.80"/>
    <polyline points="452.35,361.60 460.69,359.08"/>
    <polyline points="478.78,365.80 478.78,405.11 478.85,405.71 479.05,406.28 479.37,406.79 479.79,407.21 480.30,407.53 480.87,407.73 481.47,407.80"/>
    <polyline points="478.78,365.80 504.82,365.80 505.66,368.22"/>
    <polyline points="478.78,385.54 484.85,385.92 490.50,387.03 495.35,388.80 499.08,391.11 501.42,393.79 502.22,396.67 501.42,399.55 499.08,402.24 495.35,404.54 490.50,406.31 484.85,407.42 478.78,407.80"/>
    <polyline points="493.69,414.10 493.14,415.44 491.80,415.99 490.46,415.44 489.91,414.10 490.46,412.76 491.80,412.21 493.14,412.76 493.69,414.10"/>
    <polyline points="81.04,462.40 80.66,467.33 79.55,471.96 77.77,476.05 75.42,479.34 72.64,481.64 69.59,482.83 66.45,482.83 63.40,481.64 60.62,479.34 58.27,476.05 56.49,471.96 55.38,467.33 55.00,462.40 55.38,457.47 56.49,452.84 58.27,448.75 60.62,445.46 63.40,443.16 66.45,441.97 69.59,441.97 72.64,443.16 75.42,445.46 77.77,448.75 79.55,452.84 80.66,457.47 81.04,462.40"/>
    <polyline points="71.17,462.40 70.57,464.25 68.99,465.40 67.05,465.40 65.47,464.25 64.87,462.40 65.47,460.55 67.05,459.40 68.99,459.40 70.57,460.55 71.17,462.40"/>
    <polyline points="69.91,435.94 69.36,437.28 68.02,437.83 66.68,437.28 66.13,435.94 66.68,434.60 68.02,434.05 69.36,434.60 69.91,435.94"/>
    <polyline points="90.28,441.40 94.35,441.72 98.30,442.67 102.00,444.21 105.34,446.31 108.23,448.90 110.58,451.90 112.30,455.22 113.36,458.75 113.72,462.40 113.36,466.05 112.30,469.58 110.58,472.90 108.23,475.90 105.34,478.49 102.00,480.59 98.30,482.13 94.35,483.08 90.28,483.40"/>
    <polyline points="106.45,462.40 105.85,464.25 104.27,465.40 102.33,465.40 100.75,464.25 100.15,462.40 100.75,460.55 102.33,459.40 104.27,459.40 105.85,460.55 106.45,462.40"/>
    <polyline points="105.19,435.94 104.64,437.28 103.30,437.83 101.96,437.28 101.41,435.94 101.96,434.60 103.30,434.05 104.64,434.60 105.19,435.94"/>
    <polyline points="151.60,462.40 151.22,467.33 150.11,471.96 148.33,476.05 145.98,479.34 143.20,481.64 140.15,482.83 137.01,482.83 133.96,481.64 131.18,479.34 128.83,476.05 127.05,471.96 125.94,467.33 125.56,462.40 125.94,457.47 127.05,452.84 128.83,448.75 131.18,445.46 133.96,443.16 137.01,441.97 140.15,441.97 143.20,443.16 145.98,445.46 148.33,448.75 150.11,452.84 151.22,457.47 151.60,462.40"/>
    <polyline points="141.73,462.40 141.13,464.25 139.55,465.40 137.61,465.40 136.03,464.25 135.43,462.40 136.03,460.55 137.61,459.40 139.55,459.40 141.13,460.55 141.73,462.40"/>
    <polyline points="140.47,435.94 139.92,437.28 138.58,437.83 137.24,437.28 136.69,435.94 137.24,434.60 138.58,434.05 139.92,434.60 140.47,435.94"/>
    <polyline points="173.86,441.40 173.86,480.71 173.79,481.31 173.59,481.88 173.27,482.39 172.85,482.81 172.34,483.13 171.77,483.33 171.17,483.40"/>
    <polyline points="162.92,461.14 184.80,461.14"/>
    <polyline points="235.18,441.40 235.18,480.71 235.11,481.31 234.91,481.88 234.59,482.39 234.17,482.81 233.66,483.13 233.09,483.33 232.49,483.40"/>
    <polyline points="235.18,441.40 232.15,441.74 229.32,442.72 226.89,444.29 225.03,446.34 223.86,448.72 223.46,451.27 223.86,453.82 225.03,456.21 226.89,458.25 229.32,459.82 232.15,460.80 235.18,461.14"/>
    <polyline points="230.31,475.63 229.75,477.36 228.28,478.43 226.46,478.43 224.99,477.36 224.43,475.63 224.99,473.90 226.46,472.83 228.28,472.83 229.75,473.90 230.31,475.63"/>
    <polyline points="283.48,462.40 283.10,467.33 281.99,471.96 280.21,476.05 277.86,479.34 275.08,481.64 272.03,482.83 268.89,482.83 265.84,481.64 263.06,479.34 260.71,476.05 258.93,471.96 257.82,467.33 257.44,462.40 257.82,457.47 258.93,452.84 260.71,448.75 263.06,445.46 265.84,443.16 268.89,441.97 272.03,441.97 275.08,443.16 277.86,445.46 280.21,448.75 281.99,452.84 283.10,457.47 283.48,462.40"/>
    <polyline points="273.61,462.40 273.01,464.25 271.43,465.40 269.49,465.40 267.91,464.25 267.31,462.40 267.91,460.55 269.49,459.40 271.43,459.40 273.01,460.55 273.61,462.40"/>
    <polyline points="272.35,435.94 271.80,437.28 270.46,437.83 269.12,437.28 268.57,435.94 269.12,434.60 270.46,434.05 271.80,434.60 272.35,435.94"/>
    <polyline points="318.76,441.40 318.76,480.71 318.69,481.31 318.49,481.88 318.17,482.39 317.75,482.81 317.24,483.13 316.67,483.33 316.07,483.40"/>
    <polyline points="318.76,441.40 314.19,441.80 309.79,443.00 305.74,444.94 302.19,447.55 299.27,450.73 297.11,454.36 295.77,458.30 295.32,462.40 295.77,466.50 297.11,470.44 299.27,474.07 302.19,477.25 305.74,479.86 309.79,481.80 314.19,483.00 318.76,483.40"/>
    <polyline points="354.04,441.40 354.04,480.71 353.97,481.31 353.77,481.88 353.45,482.39 353.03,482.81 352.52,483.13 351.95,483.33 351.35,483.40"/>
    <polyline points="354.04,441.40 328.00,441.40 327.16,443.82"/>
    <polyline points="354.04,461.14 347.97,461.52 342.32,462.63 337.47,464.40 333.74,466.71 331.40,469.39 330.60,472.27 331.40,475.15 333.74,477.84 337.47,480.14 342.32,481.91 347.97,483.02 354.04,483.40"/>
    <polyline points="363.28,441.40 366.17,444.71 368.92,448.05 371.55,451.43 374.04,454.84 376.41,458.29 378.64,461.77 380.75,465.29 382.72,468.84 384.57,472.43 386.28,476.05 387.87,479.71 389.32,483.40"/>
    <polyline points="363.28,441.40 389.32,441.40 390.16,443.82"/>
    <polyline points="363.28,483.40 384.11,483.40"/>
    <polyline points="378.19,435.94 377.64,437.28 376.30,437.83 374.96,437.28 374.41,435.94 374.96,434.60 376.30,434.05 377.64,434.60 378.19,435.94"/>
    <polyline points="424.60,483.40 420.53,483.08 416.58,482.13 412.88,480.59 409.54,478.49 406.65,475.90 404.30,472.90 402.58,469.58 401.52,466.05 401.16,462.40 401.52,458.75 402.58,455.22 404.30,451.90 406.65,448.90 409.54,446.31 412.88,444.21 416.58,442.67 420.53,441.72 424.60,441.40"/>
    <polyline points="400.64,462.40 422.52,462.40"/>
    <polyline points="459.88,441.40 459.88,480.71 459.81,481.31 459.61,481.88 459.29,482.39 458.87,482.81 458.36,483.13 457.79,483.33 457.19,483.40"/>
    <polyline points="459.88,461.14 453.81,461.52 448.16,462.63 443.31,464.40 439.58,466.71 437.24,469.39 436.44,472.27 437.24,475.15 439.58,477.84 443.31,480.14 448.16,481.91 453.81,483.02 459.88,483.40"/>
    <polyline points="448.75,435.94 448.20,437.28 446.86,437.83 445.52,437.28 444.97,435.94 445.52,434.60 446.86,434.05 448.20,434.60 448.75,435.94"/>
    <polyline points="495.16,441.40 495.16,480.71 495.23,481.31 495.43,481.88 495.75,482.39 496.17,482.81 496.68,483.13 497.25,483.33 497.85,483.40"/>
    <polyline points="495.16,441.40 501.23,441.74 506.88,442.72 511.73,444.29 515.46,446.34 517.80,448.72 518.60,451.27 517.80,453.82 515.46,456.21 511.73,458.25 506.88,459.82 501.23,460.80 495.16,461.14"/>
    <polyline points="510.07,435.94 509.52,437.28 508.18,437.83 506.84,437.28 506.29,435.94 506.84,434.60 508.18,434.05 509.52,434.60 510.07,435.94"/>
    <polyline points="81.04,517.00 81.04,556.31 80.97,556.91 80.77,557.48 80.45,557.99 80.03,558.41 79.52,558.73 78.95,558.93 78.35,559.00"/>
    <polyline points="81.04,517.00 74.97,517.34 69.32,518.32 64.47,519.89 60.74,521.94 58.40,524.32 57.60,526.87 58.40,529.42 60.74,531.81 64.47,533.85 69.32,535.42 74.97,536.40 81.04,536.74"/>
    <polyline points="81.04,536.74 74.97,537.12 69.32,538.23 64.47,540.00 60.74,542.31 58.40,544.99 57.60,547.87 58.40,550.75 60.74,553.44 64.47,555.74 69.32,557.51 74.97,558.62 81.04,559.00"/>
    <polyline points="90.28,517.00 90.28,556.31 90.35,556.91 90.55,557.48 90.87,557.99 91.29,558.41 91.80,558.73 92.37,558.93 92.97,559.00"/>
    <polyline points="90.28,517.00 116.32,517.00 117.16,519.42"/>
    <polyline points="90.28,536.74 96.35,537.12 102.00,538.23 106.85,540.00 110.58,542.31 112.92,544.99 113.72,547.87 112.92,550.75 110.58,553.44 106.85,555.74 102.00,557.51 96.35,558.62 90.28,559.00"/>
    <polyline points="105.19,565.30 104.64,566.64 103.30,567.19 101.96,566.64 101.41,565.30 101.96,563.96 103.30,563.41 104.64,563.96 105.19,565.30"/>
    <polyline points="151.60,517.00 151.60,556.31 151.53,556.91 151.33,557.48 151.01,557.99 150.59,558.41 150.08,558.73 149.51,558.93 148.91,559.00"/>
    <polyline points="151.60,517.00 125.56,517.00 124.72,519.42"/>
    <polyline points="151.60,536.74 145.53,537.12 139.88,538.23 135.03,540.00 131.30,542.31 128.96,544.99 128.16,547.87 128.96,550.75 131.30,553.44 135.03,555.74 139.88,557.51 145.53,558.62 151.60,559.00"/>
    <polyline points="173.86,517.00 173.86,556.31 173.79,556.91 173.59,557.48 173.27,557.99 172.85,558.41 172.34,558.73 171.77,558.93 171.17,559.00"/>
    <polyline points="173.86,517.00 170.83,517.34 168.00,518.32 165.57,519.89 163.71,521.94 162.54,524.32 162.14,526.87 162.54,529.42 163.71,531.81 165.57,533.85 168.00,535.42 170.83,536.40 173.86,536.74"/>
    <polyline points="168.99,551.23 168.43,552.96 166.96,554.03 165.14,554.03 163.67,552.96 163.11,551.23 163.67,549.50 165.14,548.43 166.96,548.43 168.43,549.50 168.99,551.23"/>
    <polyline points="209.14,517.00 209.14,556.31 209.07,556.91 208.87,557.48 208.55,557.99 208.13,558.41 207.62,558.73 207.05,558.93 206.45,559.00"/>
    <polyline points="198.20,536.74 220.08,536.74"/>
    <polyline points="257.44,517.00 257.44,556.31 257.37,556.91 257.17,557.48 256.85,557.99 256.43,558.41 255.92,558.73 255.35,558.93 254.75,559.00"/>
    <polyline points="257.44,517.00 251.37,517.34 245.72,518.32 240.87,519.89 237.14,521.94 234.80,524.32 234.00,526.87 234.80,529.42 237.14,531.81 240.87,533.85 245.72,535.42 251.37,536.40 257.44,536.74"/>
    <polyline points="257.44,536.74 251.37,537.12 245.72,538.23 240.87,540.00 237.14,542.31 234.80,544.99 234.00,547.87 234.80,550.75 237.14,553.44 240.87,555.74 245.72,557.51 251.37,558.62 257.44,559.00"/>
    <polyline points="318.76,517.00 318.76,556.31 318.69,556.91 318.49,557.48 318.17,557.99 317.75,558.41 317.24,558.73 316.67,558.93 316.07,559.00"/>
    <polyline points="318.76,517.00 312.69,517.34 307.04,518.32 302.19,519.89 298.46,521.94 296.12,524.32 295.32,526.87 296.12,529.42 298.46,531.81 302.19,533.85 307.04,535.42 312.69,536.40 318.76,536.74"/>
    <polyline points="306.08,551.23 305.51,552.96 304.04,554.03 302.23,554.03 300.76,552.96 300.20,551.23 300.76,549.50 302.23,548.43 304.04,548.43 305.51,549.50 306.08,551.23"/>
    <polyline points="341.02,517.00 341.02,556.31 341.09,556.91 341.29,557.48 341.61,557.99 342.03,558.41 342.54,558.73 343.11,558.93 343.71,559.00"/>
    <polyline points="341.02,517.00 344.05,517.34 346.88,518.32 349.31,519.89 351.17,521.94 352.34,524.32 352.74,526.87 352.34,529.42 351.17,531.81 349.31,533.85 346.88,535.42 344.05,536.40 341.02,536.74"/>
    <polyline points="341.02,536.74 344.05,537.12 346.88,538.23 349.31,540.00 351.17,542.31 352.34,544.99 352.74,547.87 352.34,550.75 351.17,553.44 349.31,555.74 346.88,557.51 344.05,558.62 341.02,559.00"/>
    <polyline points="336.85,512.80 345.19,510.28"/>
    <polyline points="363.28,517.00 363.28,556.31 363.35,556.91 363.55,557.48 363.87,557.99 364.29,558.41 364.80,558.73 365.37,558.93 365.97,559.00"/>
    <polyline points="363.28,517.00 369.35,517.34 375.00,518.32 379.85,519.89 383.58,521.94 385.92,524.32 386.72,526.87 385.92,529.42 383.58,531.81 379.85,533.85 375.00,535.42 369.35,536.40 363.28,536.74"/>
    <polyline points="378.19,511.54 377.64,512.88 376.30,513.43 374.96,512.88 374.41,511.54 374.96,510.20 376.30,509.65 377.64,510.20 378.19,511.54"/>
    <polyline points="424.60,559.00 420.53,558.68 416.58,557.73 412.88,556.19 409.54,554.09 406.65,551.50 404.30,548.50 402.58,545.18 401.52,541.65 401.16,538.00 401.52,534.35 402.58,530.82 404.30,527.50 406.65,524.50 409.54,521.91 412.88,519.81 416.58,518.27 420.53,517.32 424.60,517.00"/>
    <polyline points="413.47,565.30 412.92,566.64 411.58,567.19 410.24,566.64 409.69,565.30 410.24,563.96 411.58,563.41 412.92,563.96 413.47,565.30"/>
    <polyline points="433.84,517.00 433.84,556.31 433.91,556.91 434.11,557.48 434.43,557.99 434.85,558.41 435.36,558.73 435.93,558.93 436.53,559.00"/>
    <polyline points="433.84,517.00 459.88,517.00 460.72,519.42"/>
    <polyline points="433.84,536.74 439.91,537.12 445.56,538.23 450.41,540.00 454.14,542.31 456.48,544.99 457.28,547.87 456.48,550.75 454.14,553.44 450.41,555.74 445.56,557.51 439.91,558.62 433.84,559.00"/>
    <polyline points="448.75,565.30 448.20,566.64 446.86,567.19 445.52,566.64 444.97,565.30 445.52,563.96 446.86,563.41 448.20,563.96 448.75,565.30"/>
    <polyline points="469.12,517.00 473.19,517.32 477.14,518.27 480.84,519.81 484.18,521.91 487.07,524.50 489.42,527.50 491.14,530.82 492.20,534.35 492.56,538.00 492.20,541.65 491.14,545.18 489.42,548.50 487.07,551.50 484.18,554.09 480.84,556.19 477.14,557.73 473.19,558.68 469.12,559.00"/>
    <polyline points="485.29,538.00 484.69,539.85 483.11,541.00 481.17,541.00 479.59,539.85 478.99,538.00 479.59,536.15 481.17,535.00 483.11,535.00 484.69,536.15 485.29,538.00"/>
    <polyline points="484.03,511.54 483.48,512.88 482.14,513.43 480.80,512.88 480.25,511.54 480.80,510.20 482.14,509.65 483.48,510.20 484.03,511.54"/>
    <polyline points="517.42,517.00 517.42,556.31 517.49,556.91 517.69,557.48 518.01,557.99 518.43,558.41 518.94,558.73 519.51,558.93 520.11,559.00"/>
    <polyline points="517.42,517.00 520.45,517.34 523.28,518.32 525.71,519.89 527.57,521.94 528.74,524.32 529.14,526.87 528.74,529.42 527.57,531.81 525.71,533.85 523.28,535.42 520.45,536.40 517.42,536.74"/>
    <polyline points="517.42,536.74 520.45,537.12 523.28,538.23 525.71,540.00 527.57,542.31 528.74,544.99 529.14,547.87 528.74,550.75 527.57,553.44 525.71,555.74 523.28,557.51 520.45,558.62 517.42,559.00"/>
    <polyline points="513.25,512.80 521.59,510.28"/>
    <polyline points="55.00,592.60 57.89,595.91 60.64,599.25 63.27,602.63 65.76,606.04 68.13,609.49 70.36,612.97 72.47,616.49 74.44,620.04 76.29,623.63 78.00,627.25 79.59,630.91 81.04,634.60"/>
    <polyline points="55.00,592.60 81.04,592.60 81.88,595.02"/>
    <polyline points="55.00,634.60 75.83,634.60"/>
    <polyline points="69.91,587.14 69.36,588.48 68.02,589.03 66.68,588.48 66.13,587.14 66.68,585.80 68.02,585.25 69.36,585.80 69.91,587.14"/>
    <polyline points="116.32,592.60 116.32,631.91 116.25,632.51 116.05,633.08 115.73,633.59 115.31,634.01 114.80,634.33 114.23,634.53 113.63,634.60"/>
    <polyline points="116.32,612.34 110.25,612.72 104.60,613.83 99.75,615.60 96.02,617.91 93.68,620.59 92.88,623.47 93.68,626.35 96.02,629.04 99.75,631.34 104.60,633.11 110.25,634.22 116.32,634.60"/>
    <polyline points="105.19,587.14 104.64,588.48 103.30,589.03 101.96,588.48 101.41,587.14 101.96,585.80 103.30,585.25 104.64,585.80 105.19,587.14"/>
    <polyline points="129.13,632.92 128.70,633.96 127.66,634.39 126.62,633.96 126.19,632.92 126.62,631.88 127.66,631.45 128.70,631.88 129.13,632.92"/>
    <polyline points="190.24,592.60 190.24,631.91 190.17,632.51 189.97,633.08 189.65,633.59 189.23,634.01 188.72,634.33 188.15,634.53 187.55,634.60"/>
    <polyline points="190.24,592.60 184.17,592.94 178.52,593.92 173.67,595.49 169.94,597.54 167.60,599.92 166.80,602.47 167.60,605.02 169.94,607.41 173.67,609.45 178.52,611.02 184.17,612.00 190.24,612.34"/>
    <polyline points="177.56,626.83 176.99,628.56 175.52,629.63 173.71,629.63 172.24,628.56 171.68,626.83 172.24,625.10 173.71,624.03 175.52,624.03 176.99,625.10 177.56,626.83"/>
    <polyline points="225.52,592.60 225.52,631.91 225.45,632.51 225.25,633.08 224.93,633.59 224.51,634.01 224.00,634.33 223.43,634.53 222.83,634.60"/>
    <polyline points="225.52,592.60 199.48,592.60 198.64,595.02"/>
    <polyline points="225.52,612.34 219.45,612.72 213.80,613.83 208.95,615.60 205.22,617.91 202.88,620.59 202.08,623.47 202.88,626.35 205.22,629.04 208.95,631.34 213.80,633.11 219.45,634.22 225.52,634.60"/>
    <polyline points="260.80,613.60 260.42,618.53 259.31,623.16 257.53,627.25 255.18,630.54 252.40,632.84 249.35,634.03 246.21,634.03 243.16,632.84 240.38,630.54 238.03,627.25 236.25,623.16 235.14,618.53 234.76,613.60 235.14,608.67 236.25,604.04 238.03,599.95 240.38,596.66 243.16,594.36 246.21,593.17 249.35,593.17 252.40,594.36 255.18,596.66 257.53,599.95 259.31,604.04 260.42,608.67 260.80,613.60"/>
    <polyline points="247.78,592.60 247.78,634.60"/>
    <polyline points="296.08,634.60 292.01,634.28 288.06,633.33 284.36,631.79 281.02,629.69 278.13,627.10 275.78,624.10 274.06,620.78 273.00,617.25 272.64,613.60 273.00,609.95 274.06,606.42 275.78,603.10 278.13,600.10 281.02,597.51 284.36,595.41 288.06,593.87 292.01,592.92 296.08,592.60"/>
    <polyline points="284.95,640.90 284.40,642.24 283.06,642.79 281.72,642.24 281.17,640.90 281.72,639.56 283.06,639.01 284.40,639.56 284.95,640.90"/>
    <polyline points="331.36,592.60 331.36,631.91 331.29,632.51 331.09,633.08 330.77,633.59 330.35,634.01 329.84,634.33 329.27,634.53 328.67,634.60"/>
    <polyline points="331.36,592.60 325.29,592.94 319.64,593.92 314.79,595.49 311.06,597.54 308.72,599.92 307.92,602.47 308.72,605.02 311.06,607.41 314.79,609.45 319.64,611.02 325.29,612.00 331.36,612.34"/>
    <polyline points="318.68,626.83 318.11,628.56 316.64,629.63 314.83,629.63 313.36,628.56 312.80,626.83 313.36,625.10 314.83,624.03 316.64,624.03 318.11,625.10 318.68,626.83"/>
    <polyline points="366.64,634.60 362.57,634.28 358.62,633.33 354.92,631.79 351.58,629.69 348.69,627.10 346.34,624.10 344.62,620.78 343.56,617.25 343.20,613.60 343.56,609.95 344.62,606.42 346.34,603.10 348.69,600.10 351.58,597.51 354.92,595.41 358.62,593.87 362.57,592.92 366.64,592.60"/>
    <polyline points="355.51,640.90 354.96,642.24 353.62,642.79 352.28,642.24 351.73,640.90 352.28,639.56 353.62,639.01 354.96,639.56 355.51,640.90"/>
    <polyline points="401.92,613.60 401.54,618.53 400.43,623.16 398.65,627.25 396.30,630.54 393.52,632.84 390.47,634.03 387.33,634.03 384.28,632.84 381.50,630.54 379.15,627.25 377.37,623.16 376.26,618.53 375.88,613.60 376.26,608.67 377.37,604.04 379.15,599.95 381.50,596.66 384.28,594.36 387.33,593.17 390.47,593.17 393.52,594.36 396.30,596.66 398.65,599.95 400.43,604.04 401.54,608.67 401.92,613.60"/>
    <polyline points="392.05,613.60 391.45,615.45 389.87,616.60 387.93,616.60 386.35,615.45 385.75,613.60 386.35,611.75 387.93,610.60 389.87,610.60 391.45,611.75 392.05,613.60"/>
    <polyline points="390.79,587.14 390.24,588.48 388.90,589.03 387.56,588.48 387.01,587.14 387.56,585.80 388.90,585.25 390.24,585.80 390.79,587.14"/>
    <polyline points="411.16,592.60 411.16,631.91 411.23,632.51 411.43,633.08 411.75,633.59 412.17,634.01 412.68,634.33 413.25,634.53 413.85,634.60"/>
    <polyline points="411.16,592.60 417.23,592.94 422.88,593.92 427.73,595.49 431.46,597.54 433.80,599.92 434.60,602.47 433.80,605.02 431.46,607.41 427.73,609.45 422.88,611.02 417.23,612.00 411.16,612.34"/>
    <polyline points="426.07,587.14 425.52,588.48 424.18,589.03 422.84,588.48 422.29,587.14 422.84,585.80 424.18,585.25 425.52,585.80 426.07,587.14"/>
    <polyline points="450.01,632.92 449.58,633.96 448.54,634.39 447.50,633.96 447.07,632.92 447.50,631.88 448.54,631.45 449.58,631.88 450.01,632.92"/>
    <polyline points="485.08,592.60 485.08,621.58 485.52,624.95 486.82,628.09 488.89,630.79 491.59,632.86 494.73,634.16 498.10,634.60 501.47,634.16 504.61,632.86 507.31,630.79 509.38,628.09 510.68,624.95 511.12,621.58 511.12,592.60"/>
    <polyline points="501.25,613.60 500.65,615.45 499.07,616.60 497.13,616.60 495.55,615.45 494.95,613.60 495.55,611.75 497.13,610.60 499.07,610.60 500.65,611.75 501.25,613.60"/>
    <polyline points="81.04,668.20 81.04,707.51 80.97,708.11 80.77,708.68 80.45,709.19 80.03,709.61 79.52,709.93 78.95,710.13 78.35,710.20"/>
    <polyline points="81.04,668.20 55.00,668.20 54.16,670.62"/>
    <polyline points="81.04,687.94 74.97,688.32 69.32,689.43 64.47,691.20 60.74,693.51 58.40,696.19 57.60,699.07 58.40,701.95 60.74,704.64 64.47,706.94 69.32,708.71 74.97,709.82 81.04,710.20"/>
    <polyline points="116.32,689.20 115.94,694.13 114.83,698.76 113.05,702.85 110.70,706.14 107.92,708.44 104.87,709.63 101.73,709.63 98.68,708.44 95.90,706.14 93.55,702.85 91.77,698.76 90.66,694.13 90.28,689.20 90.66,684.27 91.77,679.64 93.55,675.55 95.90,672.26 98.68,669.96 101.73,668.77 104.87,668.77 107.92,669.96 110.70,672.26 113.05,675.55 114.83,679.64 115.94,684.27 116.32,689.20"/>
    <polyline points="106.45,689.20 105.85,691.05 104.27,692.20 102.33,692.20 100.75,691.05 100.15,689.20 100.75,687.35 102.33,686.20 104.27,686.20 105.85,687.35 106.45,689.20"/>
    <polyline points="105.19,662.74 104.64,664.08 103.30,664.63 101.96,664.08 101.41,662.74 101.96,661.40 103.30,660.85 104.64,661.40 105.19,662.74"/>
    <polyline points="151.60,689.20 151.22,694.13 150.11,698.76 148.33,702.85 145.98,706.14 143.20,708.44 140.15,709.63 137.01,709.63 133.96,708.44 131.18,706.14 128.83,702.85 127.05,698.76 125.94,694.13 125.56,689.20 125.94,684.27 127.05,679.64 128.83,675.55 131.18,672.26 133.96,669.96 137.01,668.77 140.15,668.77 143.20,669.96 145.98,672.26 148.33,675.55 150.11,679.64 151.22,684.27 151.60,689.20"/>
    <polyline points="138.58,668.20 138.58,710.20"/>
    <polyline points="186.88,710.20 182.81,709.88 178.86,708.93 175.16,707.39 171.82,705.29 168.93,702.70 166.58,699.70 164.86,696.38 163.80,692.85 163.44,689.20 163.80,685.55 164.86,682.02 166.58,678.70 168.93,675.70 171.82,673.11 175.16,671.01 178.86,669.47 182.81,668.52 186.88,668.20"/>
    <polyline points="175.75,716.50 175.20,717.84 173.86,718.39 172.52,717.84 171.97,716.50 172.52,715.16 173.86,714.61 175.20,715.16 175.75,716.50"/>
    <polyline points="196.12,668.20 196.12,707.51 196.19,708.11 196.39,708.68 196.71,709.19 197.13,709.61 197.64,709.93 198.21,710.13 198.81,710.20"/>
    <polyline points="196.12,668.20 222.16,668.20 223.00,670.62"/>
    <polyline points="196.12,687.94 202.19,688.32 207.84,689.43 212.69,691.20 216.42,693.51 218.76,696.19 219.56,699.07 218.76,701.95 216.42,704.64 212.69,706.94 207.84,708.71 202.19,709.82 196.12,710.20"/>
    <polyline points="211.03,716.50 210.48,717.84 209.14,718.39 207.80,717.84 207.25,716.50 207.80,715.16 209.14,714.61 210.48,715.16 211.03,716.50"/>
    <polyline points="257.44,668.20 257.44,707.51 257.37,708.11 257.17,708.68 256.85,709.19 256.43,709.61 255.92,709.93 255.35,710.13 254.75,710.20"/>
    <polyline points="257.44,687.94 251.37,688.32 245.72,689.43 240.87,691.20 237.14,693.51 234.80,696.19 234.00,699.07 234.80,701.95 237.14,704.64 240.87,706.94 245.72,708.71 251.37,709.82 257.44,710.20"/>
    <polyline points="246.31,662.74 245.76,664.08 244.42,664.63 243.08,664.08 242.53,662.74 243.08,661.40 244.42,660.85 245.76,661.40 246.31,662.74"/>
    <polyline points="279.70,668.20 279.70,707.51 279.77,708.11 279.97,708.68 280.29,709.19 280.71,709.61 281.22,709.93 281.79,710.13 282.39,710.20"/>
    <polyline points="279.70,668.20 282.73,668.54 285.56,669.52 287.99,671.09 289.85,673.14 291.02,675.52 291.42,678.07 291.02,680.62 289.85,683.01 287.99,685.05 285.56,686.62 282.73,687.60 279.70,687.94"/>
    <polyline points="279.70,687.94 282.73,688.32 285.56,689.43 287.99,691.20 289.85,693.51 291.02,696.19 291.42,699.07 291.02,701.95 289.85,704.64 287.99,706.94 285.56,708.71 282.73,709.82 279.70,710.20"/>
    <polyline points="275.53,664.00 283.87,661.48"/>
    <polyline points="301.96,668.20 301.96,707.51 302.03,708.11 302.23,708.68 302.55,709.19 302.97,709.61 303.48,709.93 304.05,710.13 304.65,710.20"/>
    <polyline points="301.96,668.20 308.03,668.54 313.68,669.52 318.53,671.09 322.26,673.14 324.60,675.52 325.40,678.07 324.60,680.62 322.26,683.01 318.53,685.05 313.68,686.62 308.03,687.60 301.96,687.94"/>
    <polyline points="316.87,662.74 316.32,664.08 314.98,664.63 313.64,664.08 313.09,662.74 313.64,661.40 314.98,660.85 316.32,661.40 316.87,662.74"/>
    <polyline points="337.24,668.20 341.31,668.52 345.26,669.47 348.96,671.01 352.30,673.11 355.19,675.70 357.54,678.70 359.26,682.02 360.32,685.55 360.68,689.20 360.32,692.85 359.26,696.38 357.54,699.70 355.19,702.70 352.30,705.29 348.96,707.39 345.26,708.93 341.31,709.88 337.24,710.20"/>
    <polyline points="353.41,689.20 352.81,691.05 351.23,692.20 349.29,692.20 347.71,691.05 347.11,689.20 347.71,687.35 349.29,686.20 351.23,686.20 352.81,687.35 353.41,689.20"/>
    <polyline points="352.15,662.74 351.60,664.08 350.26,664.63 348.92,664.08 348.37,662.74 348.92,661.40 350.26,660.85 351.60,661.40 352.15,662.74"/>
    <polyline points="398.56,668.20 398.56,707.51 398.49,708.11 398.29,708.68 397.97,709.19 397.55,709.61 397.04,709.93 396.47,710.13 395.87,710.20"/>
    <polyline points="398.56,668.20 372.52,668.20 371.68,670.62"/>
    <polyline points="398.56,687.94 392.49,688.32 386.84,689.43 381.99,691.20 378.26,693.51 375.92,696.19 375.12,699.07 375.92,701.95 378.26,704.64 381.99,706.94 386.84,708.71 392.49,709.82 398.56,710.20"/>
    <polyline points="433.84,689.20 433.46,694.13 432.35,698.76 430.57,702.85 428.22,706.14 425.44,708.44 422.39,709.63 419.25,709.63 416.20,708.44 413.42,706.14 411.07,702.85 409.29,698.76 408.18,694.13 407.80,689.20 408.18,684.27 409.29,679.64 411.07,675.55 413.42,672.26 416.20,669.96 419.25,668.77 422.39,668.77 425.44,669.96 428.22,672.26 430.57,675.55 432.35,679.64 433.46,684.27 433.84,689.20"/>
    <polyline points="423.97,689.20 423.37,691.05 421.79,692.20 419.85,692.20 418.27,691.05 417.67,689.20 418.27,687.35 419.85,686.20 421.79,686.20 423.37,687.35 423.97,689.20"/>
    <polyline points="422.71,662.74 422.16,664.08 420.82,664.63 419.48,664.08 418.93,662.74 419.48,661.40 420.82,660.85 422.16,661.40 422.71,662.74"/>
    <polyline points="482.14,668.20 482.14,707.51 482.21,708.11 482.41,708.68 482.73,709.19 483.15,709.61 483.66,709.93 484.23,710.13 484.83,710.20"/>
    <polyline points="482.14,668.20 485.17,668.54 488.00,669.52 490.43,671.09 492.29,673.14 493.46,675.52 493.86,678.07 493.46,680.62 492.29,683.01 490.43,685.05 488.00,686.62 485.17,687.60 482.14,687.94"/>
    <polyline points="482.14,687.94 485.17,688.32 488.00,689.43 490.43,691.20 492.29,693.51 493.46,696.19 493.86,699.07 493.46,701.95 492.29,704.64 490.43,706.94 488.00,708.71 485.17,709.82 482.14,710.20"/>
    <polyline points="477.97,664.00 486.31,661.48"/>
    <polyline points="530.44,689.20 530.06,694.13 528.95,698.76 527.17,702.85 524.82,706.14 522.04,708.44 518.99,709.63 515.85,709.63 512.80,708.44 510.02,706.14 507.67,702.85 505.89,698.76 504.78,694.13 504.40,689.20 504.78,684.27 505.89,679.64 507.67,675.55 510.02,672.26 512.80,669.96 515.85,668.77 518.99,668.77 522.04,669.96 524.82,672.26 527.17,675.55 528.95,679.64 530.06,684.27 530.44,689.20"/>
    <polyline points="520.57,689.20 519.97,691.05 518.39,692.20 516.45,692.20 514.87,691.05 514.27,689.20 514.87,687.35 516.45,686.20 518.39,686.20 519.97,687.35 520.57,689.20"/>
    <polyline points="519.31,662.74 518.76,664.08 517.42,664.63 516.08,664.08 515.53,662.74 516.08,661.40 517.42,660.85 518.76,661.40 519.31,662.74"/>
  </g>
</svg>