<?xml version="1.0" encoding="UTF-8"?>
<!-- LIPI PANEL SERIES 2/7 · seed 7 · A1 594x841mm · text continues from panel 1 -->
<svg xmlns="http://www.w3.org/2000/svg" width="594mm" height="841mm" viewBox="0 0 594 841">
  <g fill="none" stroke="#000000" stroke-width="1" stroke-linecap="round" stroke-linejoin="round">
    <polyline points="55.00,63.40 57.89,66.71 60.64,70.05 63.27,73.43 65.76,76.84 68.13,80.29 70.36,83.77 72.47,87.29 74.44,90.84 76.29,94.43 78.00,98.05 79.59,101.71 81.04,105.40"/>
    <polyline points="71.17,84.40 70.57,86.25 68.99,87.40 67.05,87.40 65.47,86.25 64.87,84.40 65.47,82.55 67.05,81.40 68.99,81.40 70.57,82.55 71.17,84.40"/>
    <polyline points="69.91,57.94 69.36,59.28 68.02,59.83 66.68,59.28 66.13,57.94 66.68,56.60 68.02,56.05 69.36,56.60 69.91,57.94"/>
    <polyline points="116.32,63.40 116.32,102.71 116.25,103.31 116.05,103.88 115.73,104.39 115.31,104.81 114.80,105.13 114.23,105.33 113.63,105.40"/>
    <polyline points="116.32,63.40 90.28,63.40 89.44,65.82"/>
    <polyline points="116.32,83.14 110.25,83.52 104.60,84.63 99.75,86.40 96.02,88.70 93.68,91.39 92.88,94.27 93.68,97.15 96.02,99.83 99.75,102.14 104.60,103.91 110.25,105.02 116.32,105.40"/>
    <polyline points="151.60,84.40 151.22,89.33 150.11,93.96 148.33,98.05 145.98,101.34 143.20,103.64 140.15,104.83 137.01,104.83 133.96,103.64 131.18,101.34 128.83,98.05 127.05,93.96 125.94,89.33 125.56,84.40 125.94,79.47 127.05,74.84 128.83,70.75 131.18,67.46 133.96,65.16 137.01,63.97 140.15,63.97 143.20,65.16 145.98,67.46 148.33,70.75 150.11,74.84 151.22,79.47 151.60,84.40"/>
    <polyline points="141.73,84.40 141.13,86.25 139.55,87.40 137.61,87.40 136.03,86.25 135.43,84.40 136.03,82.55 137.61,81.40 139.55,81.40 141.13,82.55 141.73,84.40"/>
    <polyline points="140.47,57.94 139.92,59.28 138.58,59.83 137.24,59.28 136.69,57.94 137.24,56.60 138.58,56.05 139.92,56.60 140.47,57.94"/>
    <polyline points="186.88,105.40 182.81,105.08 178.86,104.13 175.16,102.59 171.82,100.49 168.93,97.90 166.58,94.90 164.86,91.58 163.80,88.05 163.44,84.40 163.80,80.75 164.86,77.22 166.58,73.90 168.93,70.90 171.82,68.31 175.16,66.21 178.86,64.67 182.81,63.72 186.88,63.40"/>
    <polyline points="162.92,84.40 184.80,84.40"/>
    <polyline points="222.16,63.40 222.16,102.71 222.23,103.31 222.43,103.88 222.75,104.39 223.17,104.81 223.68,105.13 224.25,105.33 224.85,105.40"/>
    <polyline points="222.16,63.40 228.23,63.74 233.88,64.72 238.73,66.29 242.46,68.33 244.80,70.72 245.60,73.27 244.80,75.82 242.46,78.20 238.73,80.25 233.88,81.82 228.23,82.80 222.16,83.14"/>
    <polyline points="237.07,57.94 236.52,59.28 235.18,59.83 233.84,59.28 233.29,57.94 233.84,56.60 235.18,56.05 236.52,56.60 237.07,57.94"/>
    <polyline points="283.48,63.40 283.48,102.71 283.41,103.31 283.21,103.88 282.89,104.39 282.47,104.81 281.96,105.13 281.39,105.33 280.79,105.40"/>
    <polyline points="283.48,63.40 277.41,63.74 271.76,64.72 266.91,66.29 263.18,68.33 260.84,70.72 260.04,73.27 260.84,75.82 263.18,78.20 266.91,80.25 271.76,81.82 277.41,82.80 283.48,83.14"/>
    <polyline points="283.48,83.14 277.41,83.52 271.76,84.63 266.91,86.40 263.18,88.70 260.84,91.39 260.04,94.27 260.84,97.15 263.18,99.83 266.91,102.14 271.76,103.91 277.41,105.02 283.48,105.40"/>
    <polyline points="318.76,105.40 314.69,105.08 310.74,104.13 307.04,102.59 303.70,100.49 300.81,97.90 298.46,94.90 296.74,91.58 295.68,88.05 295.32,84.40 295.68,80.75 296.74,77.22 298.46,73.90 300.81,70.90 303.70,68.31 307.04,66.21 310.74,64.67 314.69,63.72 318.76,63.40"/>
    <polyline points="307.63,111.70 307.08,113.04 305.74,113.59 304.40,113.04 303.85,111.70 304.40,110.36 305.74,109.81 307.08,110.36 307.63,111.70"/>
    <polyline points="380.08,63.40 380.08,102.71 380.01,103.31 379.81,103.88 379.49,104.39 379.07,104.81 378.56,105.13 377.99,105.33 377.39,105.40"/>
    <polyline points="380.08,63.40 354.04,63.40 353.20,65.82"/>
    <polyline points="402.34,63.40 402.34,102.71 402.41,103.31 402.61,103.88 402.93,104.39 403.35,104.81 403.86,105.13 404.43,105.33 405.03,105.40"/>
    <polyline points="402.34,63.40 405.37,63.74 408.20,64.72 410.63,66.29 412.49,68.33 413.66,70.72 414.06,73.27 413.66,75.82 412.49,78.20 410.63,80.25 408.20,81.82 405.37,82.80 402.34,83.14"/>
    <polyline points="402.34,83.14 405.37,83.52 408.20,84.63 410.63,86.40 412.49,88.70 413.66,91.39 414.06,94.27 413.66,97.15 412.49,99.83 410.63,102.14 408.20,103.91 405.37,105.02 402.34,105.40"/>
    <polyline points="398.17,59.20 406.51,56.68"/>
    <polyline points="437.62,63.40 437.62,102.71 437.55,103.31 437.35,103.88 437.03,104.39 436.61,104.81 436.10,105.13 435.53,105.33 434.93,105.40"/>
    <polyline points="426.68,83.14 448.56,83.14"/>
    <polyline points="485.92,105.40 481.85,105.08 477.90,104.13 474.20,102.59 470.86,100.49 467.97,97.90 465.62,94.90 463.90,91.58 462.84,88.05 462.48,84.40 462.84,80.75 463.90,77.22 465.62,73.90 467.97,70.90 470.86,68.31 474.20,66.21 477.90,64.67 481.85,63.72 485.92,63.40"/>
    <polyline points="474.79,111.70 474.24,113.04 472.90,113.59 471.56,113.04 471.01,111.70 471.56,110.36 472.90,109.81 474.24,110.36 474.79,111.70"/>
    <polyline points="495.16,63.40 495.16,105.40"/>
    <polyline points="55.00,139.00 57.89,142.31 60.64,145.65 63.27,149.03 65.76,152.44 68.13,155.89 70.36,159.37 72.47,162.89 74.44,166.44 76.29,170.03 78.00,173.65 79.59,177.31 81.04,181.00"/>
    <polyline points="55.00,139.00 81.04,139.00 81.88,141.42"/>
    <polyline points="55.00,181.00 75.83,181.00"/>
    <polyline points="69.91,133.54 69.36,134.88 68.02,135.43 66.68,134.88 66.13,133.54 66.68,132.20 68.02,131.65 69.36,132.20 69.91,133.54"/>
    <polyline points="116.32,181.00 112.25,180.68 108.30,179.73 104.60,178.19 101.26,176.09 98.37,173.50 96.02,170.50 94.30,167.18 93.24,163.65 92.88,160.00 93.24,156.35 94.30,152.82 96.02,149.50 98.37,146.50 101.26,143.91 104.60,141.81 108.30,140.27 112.25,139.32 116.32,139.00"/>
    <polyline points="105.19,187.30 104.64,188.64 103.30,189.19 101.96,188.64 101.41,187.30 101.96,185.96 103.30,185.41 104.64,185.96 105.19,187.30"/>
    <polyline points="138.58,139.00 138.58,178.31 138.65,178.91 138.85,179.48 139.17,179.99 139.59,180.41 140.10,180.73 140.67,180.93 141.27,181.00"/>
    <polyline points="138.58,139.00 141.61,139.34 144.44,140.32 146.87,141.89 148.73,143.94 149.90,146.32 150.30,148.87 149.90,151.42 148.73,153.81 146.87,155.85 144.44,157.42 141.61,158.40 138.58,158.74"/>
    <polyline points="138.58,158.74 141.61,159.12 144.44,160.23 146.87,162.00 148.73,164.31 149.90,166.99 150.30,169.87 149.90,172.75 148.73,175.44 146.87,177.74 144.44,179.51 141.61,180.62 138.58,181.00"/>
    <polyline points="134.41,134.80 142.75,132.28"/>
    <polyline points="160.84,139.00 160.84,178.31 160.91,178.91 161.11,179.48 161.43,179.99 161.85,180.41 162.36,180.73 162.93,180.93 163.53,181.00"/>
    <polyline points="160.84,139.00 186.88,139.00 187.72,141.42"/>
    <polyline points="160.84,158.74 166.91,159.12 172.56,160.23 177.41,162.00 181.14,164.31 183.48,166.99 184.28,169.87 183.48,172.75 181.14,175.44 177.41,177.74 172.56,179.51 166.91,180.62 160.84,181.00"/>
    <polyline points="175.75,187.30 175.20,188.64 173.86,189.19 172.52,188.64 171.97,187.30 172.52,185.96 173.86,185.41 175.20,185.96 175.75,187.30"/>
    <polyline points="222.16,160.00 221.78,164.93 220.67,169.56 218.89,173.65 216.54,176.94 213.76,179.24 210.71,180.43 207.57,180.43 204.52,179.24 201.74,176.94 199.39,173.65 197.61,169.56 196.50,164.93 196.12,160.00 196.50,155.07 197.61,150.44 199.39,146.35 201.74,143.06 204.52,140.76 207.57,139.57 210.71,139.57 213.76,140.76 216.54,143.06 218.89,146.35 220.67,150.44 221.78,155.07 222.16,160.00"/>
    <polyline points="212.29,160.00 211.69,161.85 210.11,163.00 208.17,163.00 206.59,161.85 205.99,160.00 206.59,158.15 208.17,157.00 210.11,157.00 211.69,158.15 212.29,160.00"/>
    <polyline points="211.03,133.54 210.48,134.88 209.14,135.43 207.80,134.88 207.25,133.54 207.80,132.20 209.14,131.65 210.48,132.20 211.03,133.54"/>
    <polyline points="231.40,139.00 235.47,139.32 239.42,140.27 243.12,141.81 246.46,143.91 249.35,146.50 251.70,149.50 253.42,152.82 254.48,156.35 254.84,160.00 254.48,163.65 253.42,167.18 251.70,170.50 249.35,173.50 246.46,176.09 243.12,178.19 239.42,179.73 235.47,180.68 231.40,181.00"/>
    <polyline points="247.57,160.00 246.97,161.85 245.39,163.00 243.45,163.00 241.87,161.85 241.27,160.00 241.87,158.15 243.45,157.00 245.39,157.00 246.97,158.15 247.57,160.00"/>
    <polyline points="246.31,133.54 245.76,134.88 244.42,135.43 243.08,134.88 242.53,133.54 243.08,132.20 244.42,131.65 245.76,132.20 246.31,133.54"/>
    <polyline points="292.72,160.00 292.34,164.93 291.23,169.56 289.45,173.65 287.10,176.94 284.32,179.24 281.27,180.43 278.13,180.43 275.08,179.24 272.30,176.94 269.95,173.65 268.17,169.56 267.06,164.93 266.68,160.00 267.06,155.07 268.17,150.44 269.95,146.35 272.30,143.06 275.08,140.76 278.13,139.57 281.27,139.57 284.32,140.76 287.10,143.06 289.45,146.35 291.23,150.44 292.34,155.07 292.72,160.00"/>
    <polyline points="282.85,160.00 282.25,161.85 280.67,163.00 278.73,163.00 277.15,161.85 276.55,160.00 277.15,158.15 278.73,157.00 280.67,157.00 282.25,158.15 282.85,160.00"/>
    <polyline points="281.59,133.54 281.04,134.88 279.70,135.43 278.36,134.88 277.81,133.54 278.36,132.20 279.70,131.65 281.04,132.20 281.59,133.54"/>
    <polyline points="314.98,139.00 314.98,178.31 314.91,178.91 314.71,179.48 314.39,179.99 313.97,180.41 313.46,180.73 312.89,180.93 312.29,181.00"/>
    <polyline points="304.04,158.74 325.92,158.74"/>
    <polyline points="376.30,139.00 376.30,178.31 376.23,178.91 376.03,179.48 375.71,179.99 375.29,180.41 374.78,180.73 374.21,180.93 373.61,181.00"/>
    <polyline points="376.30,139.00 373.27,139.34 370.44,140.32 368.01,141.89 366.15,143.94 364.98,146.32 364.58,148.87 364.98,151.42 366.15,153.81 368.01,155.85 370.44,157.42 373.27,158.40 376.30,158.74"/>
    <polyline points="371.43,173.23 370.87,174.96 369.40,176.03 367.58,176.03 366.11,174.96 365.55,173.23 366.11,171.50 367.58,170.43 369.40,170.43 370.87,171.50 371.43,173.23"/>
    <polyline points="424.60,160.00 424.22,164.93 423.11,169.56 421.33,173.65 418.98,176.94 416.20,179.24 413.15,180.43 410.01,180.43 406.96,179.24 404.18,176.94 401.83,173.65 400.05,169.56 398.94,164.93 398.56,160.00 398.94,155.07 400.05,150.44 401.83,146.35 404.18,143.06 406.96,140.76 410.01,139.57 413.15,139.57 416.20,140.76 418.98,143.06 421.33,146.35 423.11,150.44 424.22,155.07 424.60,160.00"/>
    <polyline points="414.73,160.00 414.13,161.85 412.55,163.00 410.61,163.00 409.03,161.85 408.43,160.00 409.03,158.15 410.61,157.00 412.55,157.00 414.13,158.15 414.73,160.00"/>
    <polyline points="413.47,133.54 412.92,134.88 411.58,135.43 410.24,134.88 409.69,133.54 410.24,132.20 411.58,131.65 412.92,132.20 413.47,133.54"/>
    <polyline points="459.88,139.00 459.88,178.31 459.81,178.91 459.61,179.48 459.29,179.99 458.87,180.41 458.36,180.73 457.79,180.93 457.19,181.00"/>
    <polyline points="459.88,139.00 455.31,139.40 450.91,140.60 446.86,142.54 443.31,145.15 440.39,148.33 438.23,151.96 436.89,155.90 436.44,160.00 436.89,164.10 438.23,168.04 440.39,171.67 443.31,174.85 446.86,177.46 450.91,179.40 455.31,180.60 459.88,181.00"/>
    <polyline points="495.16,139.00 495.16,178.31 495.09,178.91 494.89,179.48 494.57,179.99 494.15,180.41 493.64,180.73 493.07,180.93 492.47,181.00"/>
    <polyline points="495.16,139.00 469.12,139.00 468.28,141.42"/>
    <polyline points="495.16,158.74 489.09,159.12 483.44,160.23 478.59,162.00 474.86,164.31 472.52,166.99 471.72,169.87 472.52,172.75 474.86,175.44 478.59,177.74 483.44,179.51 489.09,180.62 495.16,181.00"/>
    <polyline points="504.40,139.00 507.29,142.31 510.04,145.65 512.67,149.03 515.16,152.44 517.53,155.89 519.76,159.37 521.87,162.89 523.84,166.44 525.69,170.03 527.40,173.65 528.99,177.31 530.44,181.00"/>
    <polyline points="504.40,139.00 530.44,139.00 531.28,141.42"/>
    <polyline points="504.40,181.00 525.23,181.00"/>
    <polyline points="519.31,133.54 518.76,134.88 517.42,135.43 516.08,134.88 515.53,133.54 516.08,132.20 517.42,131.65 518.76,132.20 519.31,133.54"/>
    <polyline points="81.04,256.60 76.97,256.28 73.02,255.33 69.32,253.79 65.98,251.69 63.09,249.10 60.74,246.10 59.02,242.78 57.96,239.25 57.60,235.60 57.96,231.95 59.02,228.42 60.74,225.10 63.09,222.10 65.98,219.51 69.32,217.41 73.02,215.87 76.97,214.92 81.04,214.60"/>
    <polyline points="57.08,235.60 78.96,235.60"/>
    <polyline points="116.32,214.60 116.32,253.91 116.25,254.51 116.05,255.08 115.73,255.59 115.31,256.01 114.80,256.33 114.23,256.53 113.63,256.60"/>
    <polyline points="116.32,234.34 110.25,234.72 104.60,235.83 99.75,237.60 96.02,239.91 93.68,242.59 92.88,245.47 93.68,248.35 96.02,251.04 99.75,253.34 104.60,255.11 110.25,256.22 116.32,256.60"/>
    <polyline points="105.19,209.14 104.64,210.48 103.30,211.03 101.96,210.48 101.41,209.14 101.96,207.80 103.30,207.25 104.64,207.80 105.19,209.14"/>
    <polyline points="151.60,214.60 151.60,253.91 151.67,254.51 151.87,255.08 152.19,255.59 152.61,256.01 153.12,256.33 153.69,256.53 154.29,256.60"/>
    <polyline points="151.60,214.60 157.67,214.94 163.32,215.92 168.17,217.49 171.90,219.54 174.24,221.92 175.04,224.47 174.24,227.02 171.90,229.41 168.17,231.45 163.32,233.02 157.67,234.00 151.60,234.34"/>
    <polyline points="166.51,209.14 165.96,210.48 164.62,211.03 163.28,210.48 162.73,209.14 163.28,207.80 164.62,207.25 165.96,207.80 166.51,209.14"/>
    <polyline points="212.92,214.60 212.92,253.91 212.85,254.51 212.65,255.08 212.33,255.59 211.91,256.01 211.40,256.33 210.83,256.53 210.23,256.60"/>
    <polyline points="212.92,214.60 206.85,214.94 201.20,215.92 196.35,217.49 192.62,219.54 190.28,221.92 189.48,224.47 190.28,227.02 192.62,229.41 196.35,231.45 201.20,233.02 206.85,234.00 212.92,234.34"/>
    <polyline points="212.92,234.34 206.85,234.72 201.20,235.83 196.35,237.60 192.62,239.91 190.28,242.59 189.48,245.47 190.28,248.35 192.62,251.04 196.35,253.34 201.20,255.11 206.85,256.22 212.92,256.60"/>
    <polyline points="222.16,214.60 222.16,253.91 222.23,254.51 222.43,255.08 222.75,255.59 223.17,256.01 223.68,256.33 224.25,256.53 224.85,256.60"/>
    <polyline points="222.16,214.60 248.20,214.60 249.04,217.02"/>
    <polyline points="222.16,234.34 228.23,234.72 233.88,235.83 238.73,237.60 242.46,239.91 244.80,242.59 245.60,245.47 244.80,248.35 242.46,251.04 238.73,253.34 233.88,255.11 228.23,256.22 222.16,256.60"/>
    <polyline points="237.07,262.90 236.52,264.24 235.18,264.79 233.84,264.24 233.29,262.90 233.84,261.56 235.18,261.01 236.52,261.56 237.07,262.90"/>
    <polyline points="283.48,214.60 283.48,253.91 283.41,254.51 283.21,255.08 282.89,255.59 282.47,256.01 281.96,256.33 281.39,256.53 280.79,256.60"/>
    <polyline points="283.48,214.60 257.44,214.60 256.60,217.02"/>
    <polyline points="283.48,234.34 277.41,234.72 271.76,235.83 266.91,237.60 263.18,239.91 260.84,242.59 260.04,245.47 260.84,248.35 263.18,251.04 266.91,253.34 271.76,255.11 277.41,256.22 283.48,256.60"/>
    <polyline points="305.74,214.60 305.74,253.91 305.67,254.51 305.47,255.08 305.15,255.59 304.73,256.01 304.22,256.33 303.65,256.53 303.05,256.60"/>
    <polyline points="305.74,214.60 302.71,214.94 299.88,215.92 297.45,217.49 295.59,219.54 294.42,221.92 294.02,224.47 294.42,227.02 295.59,229.41 297.45,231.45 299.88,233.02 302.71,234.00 305.74,234.34"/>
    <polyline points="300.87,248.83 300.31,250.56 298.84,251.63 297.02,251.63 295.55,250.56 294.99,248.83 295.55,247.10 297.02,246.03 298.84,246.03 300.31,247.10 300.87,248.83"/>
    <polyline points="341.02,214.60 341.02,253.91 340.95,254.51 340.75,255.08 340.43,255.59 340.01,256.01 339.50,256.33 338.93,256.53 338.33,256.60"/>
    <polyline points="330.08,234.34 351.96,234.34"/>
    <polyline points="389.32,214.60 389.32,253.91 389.25,254.51 389.05,255.08 388.73,255.59 388.31,256.01 387.80,256.33 387.23,256.53 386.63,256.60"/>
    <polyline points="389.32,214.60 383.25,214.94 377.60,215.92 372.75,217.49 369.02,219.54 366.68,221.92 365.88,224.47 366.68,227.02 369.02,229.41 372.75,231.45 377.60,233.02 383.25,234.00 389.32,234.34"/>
    <polyline points="389.32,234.34 383.25,234.72 377.60,235.83 372.75,237.60 369.02,239.91 366.68,242.59 365.88,245.47 366.68,248.35 369.02,251.04 372.75,253.34 377.60,255.11 383.25,256.22 389.32,256.60"/>
    <polyline points="450.64,214.60 450.64,253.91 450.57,254.51 450.37,255.08 450.05,255.59 449.63,256.01 449.12,256.33 448.55,256.53 447.95,256.60"/>
    <polyline points="450.64,214.60 444.57,214.94 438.92,215.92 434.07,217.49 430.34,219.54 428.00,221.92 427.20,224.47 428.00,227.02 430.34,229.41 434.07,231.45 438.92,233.02 444.57,234.00 450.64,234.34"/>
    <polyline points="437.96,248.83 437.39,250.56 435.92,251.63 434.11,251.63 432.64,250.56 432.08,248.83 432.64,247.10 434.11,246.03 435.92,246.03 437.39,247.10 437.96,248.83"/>
    <polyline points="472.90,214.60 472.90,253.91 472.97,254.51 473.17,255.08 473.49,255.59 473.91,256.01 474.42,256.33 474.99,256.53 475.59,256.60"/>
    <polyline points="472.90,214.60 475.93,214.94 478.76,215.92 481.19,217.49 483.05,219.54 484.22,221.92 484.62,224.47 484.22,227.02 483.05,229.41 481.19,231.45 478.76,233.02 475.93,234.00 472.90,234.34"/>
    <polyline points="472.90,234.34 475.93,234.72 478.76,235.83 481.19,237.60 483.05,239.91 484.22,242.59 484.62,245.47 484.22,248.35 483.05,251.04 481.19,253.34 478.76,255.11 475.93,256.22 472.90,256.60"/>
    <polyline points="468.73,210.40 477.07,207.88"/>
    <polyline points="495.16,214.60 495.16,253.91 495.23,254.51 495.43,255.08 495.75,255.59 496.17,256.01 496.68,256.33 497.25,256.53 497.85,256.60"/>
    <polyline points="495.16,214.60 501.23,214.94 506.88,215.92 511.73,217.49 515.46,219.54 517.80,221.92 518.60,224.47 517.80,227.02 515.46,229.41 511.73,231.45 506.88,233.02 501.23,234.00 495.16,234.34"/>
    <polyline points="510.07,209.14 509.52,210.48 508.18,211.03 506.84,210.48 506.29,209.14 506.84,207.80 508.18,207.25 509.52,207.80 510.07,209.14"/>
    <polyline points="81.04,332.20 76.97,331.88 73.02,330.93 69.32,329.39 65.98,327.29 63.09,324.70 60.74,321.70 59.02,318.38 57.96,314.85 57.60,311.20 57.96,307.55 59.02,304.02 60.74,300.70 63.09,297.70 65.98,295.11 69.32,293.01 73.02,291.47 76.97,290.52 81.04,290.20"/>
    <polyline points="69.91,338.50 69.36,339.84 68.02,340.39 66.68,339.84 66.13,338.50 66.68,337.16 68.02,336.61 69.36,337.16 69.91,338.50"/>
    <polyline points="90.28,290.20 90.28,329.51 90.35,330.11 90.55,330.68 90.87,331.19 91.29,331.61 91.80,331.93 92.37,332.13 92.97,332.20"/>
    <polyline points="90.28,290.20 116.32,290.20 117.16,292.62"/>
    <polyline points="90.28,309.94 96.35,310.32 102.00,311.43 106.85,313.20 110.58,315.51 112.92,318.19 113.72,321.07 112.92,323.95 110.58,326.64 106.85,328.94 102.00,330.71 96.35,331.82 90.28,332.20"/>
    <polyline points="105.19,338.50 104.64,339.84 103.30,340.39 101.96,339.84 101.41,338.50 101.96,337.16 103.30,336.61 104.64,337.16 105.19,338.50"/>
    <polyline points="125.56,290.20 129.63,290.52 133.58,291.47 137.28,293.01 140.62,295.11 143.51,297.70 145.86,300.70 147.58,304.02 148.64,307.55 149.00,311.20 148.64,314.85 147.58,318.38 145.86,321.70 143.51,324.70 140.62,327.29 137.28,329.39 133.58,330.93 129.63,331.88 125.56,332.20"/>
    <polyline points="141.73,311.20 141.13,313.05 139.55,314.20 137.61,314.20 136.03,313.05 135.43,311.20 136.03,309.35 137.61,308.20 139.55,308.20 141.13,309.35 141.73,311.20"/>
    <polyline points="140.47,284.74 139.92,286.08 138.58,286.63 137.24,286.08 136.69,284.74 137.24,283.40 138.58,282.85 139.92,283.40 140.47,284.74"/>
    <polyline points="173.86,290.20 173.86,329.51 173.93,330.11 174.13,330.68 174.45,331.19 174.87,331.61 175.38,331.93 175.95,332.13 176.55,332.20"/>
    <polyline points="173.86,290.20 176.89,290.54 179.72,291.52 182.15,293.09 184.01,295.14 185.18,297.52 185.58,300.07 185.18,302.62 184.01,305.01 182.15,307.05 179.72,308.62 176.89,309.60 173.86,309.94"/>
    <polyline points="173.86,309.94 176.89,310.32 179.72,311.43 182.15,313.20 184.01,315.51 185.18,318.19 185.58,321.07 185.18,323.95 184.01,326.64 182.15,328.94 179.72,330.71 176.89,331.82 173.86,332.20"/>
    <polyline points="169.69,286.00 178.03,283.48"/>
    <polyline points="196.12,290.20 199.01,293.51 201.76,296.85 204.39,300.23 206.88,303.64 209.25,307.09 211.48,310.57 213.59,314.09 215.56,317.64 217.41,321.23 219.12,324.85 220.71,328.51 222.16,332.20"/>
    <polyline points="196.12,290.20 222.16,290.20 223.00,292.62"/>
    <polyline points="196.12,332.20 216.95,332.20"/>
    <polyline points="211.03,284.74 210.48,286.08 209.14,286.63 207.80,286.08 207.25,284.74 207.80,283.40 209.14,282.85 210.48,283.40 211.03,284.74"/>
    <polyline points="257.44,290.20 257.44,329.51 257.37,330.11 257.17,330.68 256.85,331.19 256.43,331.61 255.92,331.93 255.35,332.13 254.75,332.20"/>
    <polyline points="257.44,309.94 251.37,310.32 245.72,311.43 240.87,313.20 237.14,315.51 234.80,318.19 234.00,321.07 234.80,323.95 237.14,326.64 240.87,328.94 245.72,330.71 251.37,331.82 257.44,332.20"/>
    <polyline points="246.31,284.74 245.76,286.08 244.42,286.63 243.08,286.08 242.53,284.74 243.08,283.40 244.42,282.85 245.76,283.40 246.31,284.74"/>
    <polyline points="270.25,330.52 269.82,331.56 268.78,331.99 267.74,331.56 267.31,330.52 267.74,329.48 268.78,329.05 269.82,329.48 270.25,330.52"/>
    <polyline points="331.36,290.20 331.36,329.51 331.29,330.11 331.09,330.68 330.77,331.19 330.35,331.61 329.84,331.93 329.27,332.13 328.67,332.20"/>
    <polyline points="331.36,290.20 325.29,290.54 319.64,291.52 314.79,293.09 311.06,295.14 308.72,297.52 307.92,300.07 308.72,302.62 311.06,305.01 314.79,307.05 319.64,308.62 325.29,309.60 331.36,309.94"/>
    <polyline points="318.68,324.43 318.11,326.16 316.64,327.23 314.83,327.23 313.36,326.16 312.80,324.43 313.36,322.70 314.83,321.63 316.64,321.63 318.11,322.70 318.68,324.43"/>
    <polyline points="366.64,290.20 366.64,329.51 366.57,330.11 366.37,330.68 366.05,331.19 365.63,331.61 365.12,331.93 364.55,332.13 363.95,332.20"/>
    <polyline points="366.64,290.20 340.60,290.20 339.76,292.62"/>
    <polyline points="366.64,309.94 360.57,310.32 354.92,311.43 350.07,313.20 346.34,315.51 344.00,318.19 343.20,321.07 344.00,323.95 346.34,326.64 350.07,328.94 354.92,330.71 360.57,331.82 366.64,332.20"/>
    <polyline points="401.92,311.20 401.54,316.13 400.43,320.76 398.65,324.85 396.30,328.14 393.52,330.44 390.47,331.63 387.33,331.63 384.28,330.44 381.50,328.14 379.15,324.85 377.37,320.76 376.26,316.13 375.88,311.20 376.26,306.27 377.37,301.64 379.15,297.55 381.50,294.26 384.28,291.96 387.33,290.77 390.47,290.77 393.52,291.96 396.30,294.26 398.65,297.55 400.43,301.64 401.54,306.27 401.92,311.20"/>
    <polyline points="388.90,290.20 388.90,332.20"/>
    <polyline points="437.20,332.20 433.13,331.88 429.18,330.93 425.48,329.39 422.14,327.29 419.25,324.70 416.90,321.70 415.18,318.38 414.12,314.85 413.76,311.20 414.12,307.55 415.18,304.02 416.90,300.70 419.25,297.70 422.14,295.11 425.48,293.01 429.18,291.47 433.13,290.52 437.20,290.20"/>
    <polyline points="426.07,338.50 425.52,339.84 424.18,340.39 422.84,339.84 422.29,338.50 422.84,337.16 424.18,336.61 425.52,337.16 426.07,338.50"/>
    <polyline points="472.48,290.20 472.48,329.51 472.41,330.11 472.21,330.68 471.89,331.19 471.47,331.61 470.96,331.93 470.39,332.13 469.79,332.20"/>
    <polyline points="472.48,290.20 466.41,290.54 460.76,291.52 455.91,293.09 452.18,295.14 449.84,297.52 449.04,300.07 449.84,302.62 452.18,305.01 455.91,307.05 460.76,308.62 466.41,309.60 472.48,309.94"/>
    <polyline points="459.80,324.43 459.23,326.16 457.76,327.23 455.95,327.23 454.48,326.16 453.92,324.43 454.48,322.70 455.95,321.63 457.76,321.63 459.23,322.70 459.80,324.43"/>
    <polyline points="507.76,332.20 503.69,331.88 499.74,330.93 496.04,329.39 492.70,327.29 489.81,324.70 487.46,321.70 485.74,318.38 484.68,314.85 484.32,311.20 484.68,307.55 485.74,304.02 487.46,300.70 489.81,297.70 492.70,295.11 496.04,293.01 499.74,291.47 503.69,290.52 507.76,290.20"/>
    <polyline points="496.63,338.50 496.08,339.84 494.74,340.39 493.40,339.84 492.85,338.50 493.40,337.16 494.74,336.61 496.08,337.16 496.63,338.50"/>
    <polyline points="81.04,386.80 80.66,391.73 79.55,396.36 77.77,400.45 75.42,403.74 72.64,406.04 69.59,407.23 66.45,407.23 63.40,406.04 60.62,403.74 58.27,400.45 56.49,396.36 55.38,391.73 55.00,386.80 55.38,381.87 56.49,377.24 58.27,373.15 60.62,369.86 63.40,367.56 66.45,366.37 69.59,366.37 72.64,367.56 75.42,369.86 77.77,373.15 79.55,377.24 80.66,381.87 81.04,386.80"/>
    <polyline points="71.17,386.80 70.57,388.65 68.99,389.80 67.05,389.80 65.47,388.65 64.87,386.80 65.47,384.95 67.05,383.80 68.99,383.80 70.57,384.95 71.17,386.80"/>
    <polyline points="69.91,360.34 69.36,361.68 68.02,362.23 66.68,361.68 66.13,360.34 66.68,359.00 68.02,358.45 69.36,359.00 69.91,360.34"/>
    <polyline points="90.28,365.80 90.28,405.11 90.35,405.71 90.55,406.28 90.87,406.79 91.29,407.21 91.80,407.53 92.37,407.73 92.97,407.80"/>
    <polyline points="90.28,365.80 96.35,366.14 102.00,367.12 106.85,368.69 110.58,370.74 112.92,373.12 113.72,375.67 112.92,378.22 110.58,380.61 106.85,382.65 102.00,384.22 96.35,385.20 90.28,385.54"/>
    <polyline points="105.19,360.34 104.64,361.68 103.30,362.23 101.96,361.68 101.41,360.34 101.96,359.00 103.30,358.45 104.64,359.00 105.19,360.34"/>
    <polyline points="129.13,406.12 128.70,407.16 127.66,407.59 126.62,407.16 126.19,406.12 126.62,405.08 127.66,404.65 128.70,405.08 129.13,406.12"/>
    <polyline points="164.20,365.80 164.20,394.78 164.64,398.15 165.94,401.29 168.01,403.99 170.71,406.06 173.85,407.36 177.22,407.80 180.59,407.36 183.73,406.06 186.43,403.99 188.50,401.29 189.80,398.15 190.24,394.78 190.24,365.80"/>
    <polyline points="180.37,386.80 179.77,388.65 178.19,389.80 176.25,389.80 174.67,388.65 174.07,386.80 174.67,384.95 176.25,383.80 178.19,383.80 179.77,384.95 180.37,386.80"/>
    <polyline points="225.52,365.80 225.52,405.11 225.45,405.71 225.25,406.28 224.93,406.79 224.51,407.21 224.00,407.53 223.43,407.73 222.83,407.80"/>
    <polyline points="225.52,365.80 199.48,365.80 198.64,368.22"/>
    <polyline points="225.52,385.54 219.45,385.92 213.80,387.03 208.95,388.80 205.22,391.11 202.88,393.79 202.08,396.67 202.88,399.55 205.22,402.24 208.95,404.54 213.80,406.31 219.45,407.42 225.52,407.80"/>
    <polyline points="260.80,386.80 260.42,391.73 259.31,396.36 257.53,400.45 255.18,403.74 252.40,406.04 249.35,407.23 246.21,407.23 243.16,406.04 240.38,403.74 238.03,400.45 236.25,396.36 235.14,391.73 234.76,386.80 235.14,381.87 236.25,377.24 238.03,373.15 240.38,369.86 243.16,367.56 246.21,366.37 249.35,366.37 252.40,367.56 255.18,369.86 257.53,373.15 259.31,377.24 260.42,381.87 260.80,386.80"/>
    <polyline points="250.93,386.80 250.33,388.65 248.75,389.80 246.81,389.80 245.23,388.65 244.63,386.80 245.23,384.95 246.81,383.80 248.75,383.80 250.33,384.95 250.93,386.80"/>
    <polyline points="249.67,360.34 249.12,361.68 247.78,362.23 246.44,361.68 245.89,360.34 246.44,359.00 247.78,358.45 249.12,359.00 249.67,360.34"/>
    <polyline points="296.08,386.80 295.70,391.73 294.59,396.36 292.81,400.45 290.46,403.74 287.68,406.04 284.63,407.23 281.49,407.23 278.44,406.04 275.66,403.74 273.31,400.45 271.53,396.36 270.42,391.73 270.04,386.80 270.42,381.87 271.53,377.24 273.31,373.15 275.66,369.86 278.44,367.56 281.49,366.37 284.63,366.37 287.68,367.56 290.46,369.86 292.81,373.15 294.59,377.24 295.70,381.87 296.08,386.80"/>
    <polyline points="283.06,365.80 283.06,407.80"/>
    <polyline points="331.36,407.80 327.29,407.48 323.34,406.53 319.64,404.99 316.30,402.89 313.41,400.30 311.06,397.30 309.34,393.98 308.28,390.45 307.92,386.80 308.28,383.15 309.34,379.62 311.06,376.30 313.41,373.30 316.30,370.71 319.64,368.61 323.34,367.07 327.29,366.12 331.36,365.80"/>
    <polyline points="320.23,414.10 319.68,415.44 318.34,415.99 317.00,415.44 316.45,414.10 317.00,412.76 318.34,412.21 319.68,412.76 320.23,414.10"/>
    <polyline points="340.60,365.80 340.60,405.11 340.67,405.71 340.87,406.28 341.19,406.79 341.61,407.21 342.12,407.53 342.69,407.73 343.29,407.80"/>
    <polyline points="340.60,365.80 366.64,365.80 367.48,368.22"/>
    <polyline points="340.60,385.54 346.67,385.92 352.32,387.03 357.17,388.80 360.90,391.11 363.24,393.79 364.04,396.67 363.24,399.55 360.90,402.24 357.17,404.54 352.32,406.31 346.67,407.42 340.60,407.80"/>
    <polyline points="355.51,414.10 354.96,415.44 353.62,415.99 352.28,415.44 351.73,414.10 352.28,412.76 353.62,412.21 354.96,412.76 355.51,414.10"/>
    <polyline points="401.92,365.80 401.92,405.11 401.85,405.71 401.65,406.28 401.33,406.79 400.91,407.21 400.40,407.53 399.83,407.73 399.23,407.80"/>
    <polyline points="401.92,385.54 395.85,385.92 390.20,387.03 385.35,388.80 381.62,391.11 379.28,393.79 378.48,396.67 379.28,399.55 381.62,402.24 385.35,404.54 390.20,406.31 395.85,407.42 401.92,407.80"/>
    <polyline points="390.79,360.34 390.24,361.68 388.90,362.23 387.56,361.68 387.01,360.34 387.56,359.00 388.90,358.45 390.24,359.00 390.79,360.34"/>
    <polyline points="424.18,365.80 424.18,405.11 424.25,405.71 424.45,406.28 424.77,406.79 425.19,407.21 425.70,407.53 426.27,407.73 426.87,407.80"/>
    <polyline points="424.18,365.80 427.21,366.14 430.04,367.12 432.47,368.69 434.33,370.74 435.50,373.12 435.90,375.67 435.50,378.22 434.33,380.61 432.47,382.65 430.04,384.22 427.21,385.20 424.18,385.54"/>
    <polyline points="424.18,385.54 427.21,385.92 430.04,387.03 432.47,388.80 434.33,391.11 435.50,393.79 435.90,396.67 435.50,399.55 434.33,402.24 432.47,404.54 430.04,406.31 427.21,407.42 424.18,407.80"/>
    <polyline points="420.01,361.60 428.35,359.08"/>
    <polyline points="446.44,365.80 446.44,405.11 446.51,405.71 446.71,406.28 447.03,406.79 447.45,407.21 447.96,407.53 448.53,407.73 449.13,407.80"/>
    <polyline points="446.44,365.80 452.51,366.14 458.16,367.12 463.01,368.69 466.74,370.74 469.08,373.12 469.88,375.67 469.08,378.22 466.74,380.61 463.01,382.65 458.16,384.22 452.51,385.20 446.44,385.54"/>
    <polyline points="461.35,360.34 460.80,361.68 459.46,362.23 458.12,361.68 457.57,360.34 458.12,359.00 459.46,358.45 460.80,359.00 461.35,360.34"/>
    <polyline points="481.72,365.80 485.79,366.12 489.74,367.07 493.44,368.61 496.78,370.71 499.67,373.30 502.02,376.30 503.74,379.62 504.80,383.15 505.16,386.80 504.80,390.45 503.74,393.98 502.02,397.30 499.67,400.30 496.78,402.89 493.44,404.99 489.74,406.53 485.79,407.48 481.72,407.80"/>
    <polyline points="497.89,386.80 497.29,388.65 495.71,389.80 493.77,389.80 492.19,388.65 491.59,386.80 492.19,384.95 493.77,383.80 495.71,383.80 497.29,384.95 497.89,386.80"/>
    <polyline points="496.63,360.34 496.08,361.68 494.74,362.23 493.40,361.68 492.85,360.34 493.40,359.00 494.74,358.45 496.08,359.00 496.63,360.34"/>
    <polyline points="81.04,441.40 81.04,480.71 80.97,481.31 80.77,481.88 80.45,482.39 80.03,482.81 79.52,483.13 78.95,483.33 78.35,483.40"/>
    <polyline points="81.04,441.40 55.00,441.40 54.16,443.82"/>
    <polyline points="81.04,461.14 74.97,461.52 69.32,462.63 64.47,464.40 60.74,466.71 58.40,469.39 57.60,472.27 58.40,475.15 60.74,477.84 64.47,480.14 69.32,481.91 74.97,483.02 81.04,483.40"/>
    <polyline points="116.32,462.40 115.94,467.33 114.83,471.96 113.05,476.05 110.70,479.34 107.92,481.64 104.87,482.83 101.73,482.83 98.68,481.64 95.90,479.34 93.55,476.05 91.77,471.96 90.66,467.33 90.28,462.40 90.66,457.47 91.77,452.84 93.55,448.75 95.90,445.46 98.68,443.16 101.73,441.97 104.87,441.97 107.92,443.16 110.70,445.46 113.05,448.75 114.83,452.84 115.94,457.47 116.32,462.40"/>
    <polyline points="106.45,462.40 105.85,464.25 104.27,465.40 102.33,465.40 100.75,464.25 100.15,462.40 100.75,460.55 102.33,459.40 104.27,459.40 105.85,460.55 106.45,462.40"/>
    <polyline points="105.19,435.94 104.64,437.28 103.30,437.83 101.96,437.28 101.41,435.94 101.96,434.60 103.30,434.05 104.64,434.60 105.19,435.94"/>
    <polyline points="164.62,441.40 164.62,480.71 164.69,481.31 164.89,481.88 165.21,482.39 165.63,482.81 166.14,483.13 166.71,483.33 167.31,483.40"/>
    <polyline points="164.62,441.40 167.65,441.74 170.48,442.72 172.91,444.29 174.77,446.34 175.94,448.72 176.34,451.27 175.94,453.82 174.77,456.21 172.91,458.25 170.48,459.82 167.65,460.80 164.62,461.14"/>
    <polyline points="164.62,461.14 167.65,461.52 170.48,462.63 172.91,464.40 174.77,466.71 175.94,469.39 176.34,472.27 175.94,475.15 174.77,477.84 172.91,480.14 170.48,481.91 167.65,483.02 164.62,483.40"/>
    <polyline points="160.45,437.20 168.79,434.68"/>
    <polyline points="212.92,462.40 212.54,467.33 211.43,471.96 209.65,476.05 207.30,479.34 204.52,481.64 201.47,482.83 198.33,482.83 195.28,481.64 192.50,479.34 190.15,476.05 188.37,471.96 187.26,467.33 186.88,462.40 187.26,457.47 188.37,452.84 190.15,448.75 192.50,445.46 195.28,443.16 198.33,441.97 201.47,441.97 204.52,443.16 207.30,445.46 209.65,448.75 211.43,452.84 212.54,457.47 212.92,462.40"/>
    <polyline points="203.05,462.40 202.45,464.25 200.87,465.40 198.93,465.40 197.35,464.25 196.75,462.40 197.35,460.55 198.93,459.40 200.87,459.40 202.45,460.55 203.05,462.40"/>
    <polyline points="201.79,435.94 201.24,437.28 199.90,437.83 198.56,437.28 198.01,435.94 198.56,434.60 199.90,434.05 201.24,434.60 201.79,435.94"/>
    <polyline points="248.20,483.40 244.13,483.08 240.18,482.13 236.48,480.59 233.14,478.49 230.25,475.90 227.90,472.90 226.18,469.58 225.12,466.05 224.76,462.40 225.12,458.75 226.18,455.22 227.90,451.90 230.25,448.90 233.14,446.31 236.48,444.21 240.18,442.67 244.13,441.72 248.20,441.40"/>
    <polyline points="224.24,462.40 246.12,462.40"/>
    <polyline points="283.48,441.40 287.55,441.72 291.50,442.67 295.20,444.21 298.54,446.31 301.43,448.90 303.78,451.90 305.50,455.22 306.56,458.75 306.92,462.40 306.56,466.05 305.50,469.58 303.78,472.90 301.43,475.90 298.54,478.49 295.20,480.59 291.50,482.13 287.55,483.08 283.48,483.40"/>
    <polyline points="299.65,462.40 299.05,464.25 297.47,465.40 295.53,465.40 293.95,464.25 293.35,462.40 293.95,460.55 295.53,459.40 297.47,459.40 299.05,460.55 299.65,462.40"/>
    <polyline points="298.39,435.94 297.84,437.28 296.50,437.83 295.16,437.28 294.61,435.94 295.16,434.60 296.50,434.05 297.84,434.60 298.39,435.94"/>
    <polyline points="344.80,441.40 344.80,480.71 344.73,481.31 344.53,481.88 344.21,482.39 343.79,482.81 343.28,483.13 342.71,483.33 342.11,483.40"/>
    <polyline points="344.80,441.40 338.73,441.74 333.08,442.72 328.23,444.29 324.50,446.34 322.16,448.72 321.36,451.27 322.16,453.82 324.50,456.21 328.23,458.25 333.08,459.82 338.73,460.80 344.80,461.14"/>
    <polyline points="332.12,475.63 331.55,477.36 330.08,478.43 328.27,478.43 326.80,477.36 326.24,475.63 326.80,473.90 328.27,472.83 330.08,472.83 331.55,473.90 332.12,475.63"/>
    <polyline points="367.06,441.40 367.06,480.71 367.13,481.31 367.33,481.88 367.65,482.39 368.07,482.81 368.58,483.13 369.15,483.33 369.75,483.40"/>
    <polyline points="367.06,441.40 370.09,441.74 372.92,442.72 375.35,444.29 377.21,446.34 378.38,448.72 378.78,451.27 378.38,453.82 377.21,456.21 375.35,458.25 372.92,459.82 370.09,460.80 367.06,461.14"/>
    <polyline points="367.06,461.14 370.09,461.52 372.92,462.63 375.35,464.40 377.21,466.71 378.38,469.39 378.78,472.27 378.38,475.15 377.21,477.84 375.35,480.14 372.92,481.91 370.09,483.02 367.06,483.40"/>
    <polyline points="362.89,437.20 371.23,434.68"/>
    <polyline points="402.34,441.40 402.34,480.71 402.27,481.31 402.07,481.88 401.75,482.39 401.33,482.81 400.82,483.13 400.25,483.33 399.65,483.40"/>
    <polyline points="391.40,461.14 413.28,461.14"/>
    <polyline points="424.60,441.40 428.67,441.72 432.62,442.67 436.32,444.21 439.66,446.31 442.55,448.90 444.90,451.90 446.62,455.22 447.68,458.75 448.04,462.40 447.68,466.05 446.62,469.58 444.90,472.90 442.55,475.90 439.66,478.49 436.32,480.59 432.62,482.13 428.67,483.08 424.60,483.40"/>
    <polyline points="440.77,462.40 440.17,464.25 438.59,465.40 436.65,465.40 435.07,464.25 434.47,462.40 435.07,460.55 436.65,459.40 438.59,459.40 440.17,460.55 440.77,462.40"/>
    <polyline points="439.51,435.94 438.96,437.28 437.62,437.83 436.28,437.28 435.73,435.94 436.28,434.60 437.62,434.05 438.96,434.60 439.51,435.94"/>
    <polyline points="485.92,462.40 485.54,467.33 484.43,471.96 482.65,476.05 480.30,479.34 477.52,481.64 474.47,482.83 471.33,482.83 468.28,481.64 465.50,479.34 463.15,476.05 461.37,471.96 460.26,467.33 459.88,462.40 460.26,457.47 461.37,452.84 463.15,448.75 465.50,445.46 468.28,443.16 471.33,441.97 474.47,441.97 477.52,443.16 480.30,445.46 482.65,448.75 484.43,452.84 485.54,457.47 485.92,462.40"/>
    <polyline points="476.05,462.40 475.45,464.25 473.87,465.40 471.93,465.40 470.35,464.25 469.75,462.40 470.35,460.55 471.93,459.40 473.87,459.40 475.45,460.55 476.05,462.40"/>
    <polyline points="474.79,435.94 474.24,437.28 472.90,437.83 471.56,437.28 471.01,435.94 471.56,434.60 472.90,434.05 474.24,434.60 474.79,435.94"/>
    <polyline points="508.18,441.40 508.18,480.71 508.25,481.31 508.45,481.88 508.77,482.39 509.19,482.81 509.70,483.13 510.27,483.33 510.87,483.40"/>
    <polyline points="508.18,441.40 511.21,441.74 514.04,442.72 516.47,444.29 518.33,446.34 519.50,448.72 519.90,451.27 519.50,453.82 518.33,456.21 516.47,458.25 514.04,459.82 511.21,460.80 508.18,461.14"/>
    <polyline points="508.18,461.14 511.21,461.52 514.04,462.63 516.47,464.40 518.33,466.71 519.50,469.39 519.90,472.27 519.50,475.15 518.33,477.84 516.47,480.14 514.04,481.91 511.21,483.02 508.18,483.40"/>
    <polyline points="504.01,437.20 512.35,434.68"/>
    <polyline points="55.00,517.00 55.00,556.31 55.07,556.91 55.27,557.48 55.59,557.99 56.01,558.41 56.52,558.73 57.09,558.93 57.69,559.00"/>
    <polyline points="55.00,517.00 61.07,517.34 66.72,518.32 71.57,519.89 75.30,521.94 77.64,524.32 78.44,526.87 77.64,529.42 75.30,531.81 71.57,533.85 66.72,535.42 61.07,536.40 55.00,536.74"/>
    <polyline points="69.91,511.54 69.36,512.88 68.02,513.43 66.68,512.88 66.13,511.54 66.68,510.20 68.02,509.65 69.36,510.20 69.91,511.54"/>
    <polyline points="90.28,517.00 94.35,517.32 98.30,518.27 102.00,519.81 105.34,521.91 108.23,524.50 110.58,527.50 112.30,530.82 113.36,534.35 113.72,538.00 113.36,541.65 112.30,545.18 110.58,548.50 108.23,551.50 105.34,554.09 102.00,556.19 98.30,557.73 94.35,558.68 90.28,559.00"/>
    <polyline points="106.45,538.00 105.85,539.85 104.27,541.00 102.33,541.00 100.75,539.85 100.15,538.00 100.75,536.15 102.33,535.00 104.27,535.00 105.85,536.15 106.45,538.00"/>
    <polyline points="105.19,511.54 104.64,512.88 103.30,513.43 101.96,512.88 101.41,511.54 101.96,510.20 103.30,509.65 104.64,510.20 105.19,511.54"/>
    <polyline points="151.60,517.00 151.60,556.31 151.53,556.91 151.33,557.48 151.01,557.99 150.59,558.41 150.08,558.73 149.51,558.93 148.91,559.00"/>
    <polyline points="151.60,517.00 125.56,517.00 124.72,519.42"/>
    <polyline points="151.60,536.74 145.53,537.12 139.88,538.23 135.03,540.00 131.30,542.31 128.96,544.99 128.16,547.87 128.96,550.75 131.30,553.44 135.03,555.74 139.88,557.51 145.53,558.62 151.60,559.00"/>
    <polyline points="186.88,538.00 186.50,542.93 185.39,547.56 183.61,551.65 181.26,554.94 178.48,557.24 175.43,558.43 172.29,558.43 169.24,557.24 166.46,554.94 164.11,551.65 162.33,547.56 161.22,542.93 160.84,538.00 161.22,533.07 162.33,528.44 164.11,524.35 166.46,521.06 169.24,518.76 172.29,517.57 175.43,517.57 178.48,518.76 181.26,521.06 183.61,524.35 185.39,528.44 186.50,533.07 186.88,538.00"/>
    <polyline points="177.01,538.00 176.41,539.85 174.83,541.00 172.89,541.00 171.31,539.85 170.71,538.00 171.31,536.15 172.89,535.00 174.83,535.00 176.41,536.15 177.01,538.00"/>
    <polyline points="175.75,511.54 175.20,512.88 173.86,513.43 172.52,512.88 171.97,511.54 172.52,510.20 173.86,509.65 175.20,510.20 175.75,511.54"/>
    <polyline points="196.12,517.00 196.12,559.00"/>
    <polyline points="256.68,517.00 256.68,556.31 256.75,556.91 256.95,557.48 257.27,557.99 257.70,558.41 258.21,558.73 258.77,558.93 259.37,559.00"/>
    <polyline points="256.68,517.00 282.72,517.00 283.56,519.42"/>
    <polyline points="256.68,536.74 262.75,537.12 268.40,538.23 273.26,540.00 276.98,542.31 279.32,544.99 280.12,547.87 279.32,550.75 276.98,553.44 273.26,555.74 268.40,557.51 262.75,558.62 256.68,559.00"/>
    <polyline points="271.59,565.30 271.04,566.64 269.70,567.19 268.37,566.64 267.81,565.30 268.37,563.96 269.70,563.41 271.04,563.96 271.59,565.30"/>
    <polyline points="318.00,559.00 313.93,558.68 309.99,557.73 306.29,556.19 302.94,554.09 300.05,551.50 297.71,548.50 295.98,545.18 294.92,541.65 294.57,538.00 294.92,534.35 295.98,530.82 297.71,527.50 300.05,524.50 302.94,521.91 306.29,519.81 309.99,518.27 313.93,517.32 318.00,517.00"/>
    <polyline points="306.87,565.30 306.32,566.64 304.98,567.19 303.65,566.64 303.09,565.30 303.65,563.96 304.98,563.41 306.32,563.96 306.87,565.30"/>
    <polyline points="340.26,517.00 340.26,556.31 340.33,556.91 340.53,557.48 340.85,557.99 341.28,558.41 341.79,558.73 342.35,558.93 342.95,559.00"/>
    <polyline points="340.26,517.00 343.30,517.34 346.12,518.32 348.55,519.89 350.41,521.94 351.58,524.32 351.98,526.87 351.58,529.42 350.41,531.81 348.55,533.85 346.12,535.42 343.30,536.40 340.26,536.74"/>
    <polyline points="340.26,536.74 343.30,537.12 346.12,538.23 348.55,540.00 350.41,542.31 351.58,544.99 351.98,547.87 351.58,550.75 350.41,553.44 348.55,555.74 346.12,557.51 343.30,558.62 340.26,559.00"/>
    <polyline points="336.10,512.80 344.43,510.28"/>
    <polyline points="388.56,559.00 384.49,558.68 380.55,557.73 376.85,556.19 373.50,554.09 370.61,551.50 368.27,548.50 366.54,545.18 365.48,541.65 365.13,538.00 365.48,534.35 366.54,530.82 368.27,527.50 370.61,524.50 373.50,521.91 376.85,519.81 380.55,518.27 384.49,517.32 388.56,517.00"/>
    <polyline points="364.61,538.00 386.48,538.00"/>
    <polyline points="397.80,517.00 401.87,517.32 405.82,518.27 409.52,519.81 412.87,521.91 415.76,524.50 418.10,527.50 419.83,530.82 420.88,534.35 421.24,538.00 420.88,541.65 419.83,545.18 418.10,548.50 415.76,551.50 412.87,554.09 409.52,556.19 405.82,557.73 401.87,558.68 397.80,559.00"/>
    <polyline points="413.97,538.00 413.37,539.85 411.80,541.00 409.85,541.00 408.28,539.85 407.67,538.00 408.28,536.15 409.85,535.00 411.80,535.00 413.37,536.15 413.97,538.00"/>
    <polyline points="412.71,511.54 412.16,512.88 410.82,513.43 409.49,512.88 408.93,511.54 409.49,510.20 410.82,509.65 412.16,510.20 412.71,511.54"/>
    <polyline points="459.12,538.00 458.75,542.93 457.63,547.56 455.85,551.65 453.50,554.94 450.72,557.24 447.67,558.43 444.53,558.43 441.49,557.24 438.71,554.94 436.36,551.65 434.58,547.56 433.46,542.93 433.08,538.00 433.46,533.07 434.58,528.44 436.36,524.35 438.71,521.06 441.49,518.76 444.53,517.57 447.67,517.57 450.72,518.76 453.50,521.06 455.85,524.35 457.63,528.44 458.75,533.07 459.12,538.00"/>
    <polyline points="449.25,538.00 448.65,539.85 447.08,541.00 445.13,541.00 443.56,539.85 442.95,538.00 443.56,536.15 445.13,535.00 447.08,535.00 448.65,536.15 449.25,538.00"/>
    <polyline points="447.99,511.54 447.44,512.88 446.10,513.43 444.77,512.88 444.21,511.54 444.77,510.20 446.10,509.65 447.44,510.20 447.99,511.54"/>
    <polyline points="481.38,517.00 481.38,556.31 481.32,556.91 481.12,557.48 480.80,557.99 480.37,558.41 479.86,558.73 479.29,558.93 478.70,559.00"/>
    <polyline points="470.45,536.74 492.32,536.74"/>
    <polyline points="81.04,634.60 76.97,634.28 73.02,633.33 69.32,631.79 65.98,629.69 63.09,627.10 60.74,624.10 59.02,620.78 57.96,617.25 57.60,613.60 57.96,609.95 59.02,606.42 60.74,603.10 63.09,600.10 65.98,597.51 69.32,595.41 73.02,593.87 76.97,592.92 81.04,592.60"/>
    <polyline points="69.91,640.90 69.36,642.24 68.02,642.79 66.68,642.24 66.13,640.90 66.68,639.56 68.02,639.01 69.36,639.56 69.91,640.90"/>
    <polyline points="90.28,592.60 90.28,631.91 90.35,632.51 90.55,633.08 90.87,633.59 91.29,634.01 91.80,634.33 92.37,634.53 92.97,634.60"/>
    <polyline points="90.28,592.60 116.32,592.60 117.16,595.02"/>
    <polyline points="125.56,592.60 125.56,631.91 125.63,632.51 125.83,633.08 126.15,633.59 126.57,634.01 127.08,634.33 127.65,634.53 128.25,634.60"/>
    <polyline points="125.56,592.60 131.63,592.94 137.28,593.92 142.13,595.49 145.86,597.54 148.20,599.92 149.00,602.47 148.20,605.02 145.86,607.41 142.13,609.45 137.28,611.02 131.63,612.00 125.56,612.34"/>
    <polyline points="140.47,587.14 139.92,588.48 138.58,589.03 137.24,588.48 136.69,587.14 137.24,585.80 138.58,585.25 139.92,585.80 140.47,587.14"/>
    <polyline points="186.88,634.60 182.81,634.28 178.86,633.33 175.16,631.79 171.82,629.69 168.93,627.10 166.58,624.10 164.86,620.78 163.80,617.25 163.44,613.60 163.80,609.95 164.86,606.42 166.58,603.10 168.93,600.10 171.82,597.51 175.16,595.41 178.86,593.87 182.81,592.92 186.88,592.60"/>
    <polyline points="175.75,640.90 175.20,642.24 173.86,642.79 172.52,642.24 171.97,640.90 172.52,639.56 173.86,639.01 175.20,639.56 175.75,640.90"/>
    <polyline points="222.16,613.60 221.78,618.53 220.67,623.16 218.89,627.25 216.54,630.54 213.76,632.84 210.71,634.03 207.57,634.03 204.52,632.84 201.74,630.54 199.39,627.25 197.61,623.16 196.50,618.53 196.12,613.60 196.50,608.67 197.61,604.04 199.39,599.95 201.74,596.66 204.52,594.36 207.57,593.17 210.71,593.17 213.76,594.36 216.54,596.66 218.89,599.95 220.67,604.04 221.78,608.67 222.16,613.60"/>
    <polyline points="212.29,613.60 211.69,615.45 210.11,616.60 208.17,616.60 206.59,615.45 205.99,613.60 206.59,611.75 208.17,610.60 210.11,610.60 211.69,611.75 212.29,613.60"/>
    <polyline points="211.03,587.14 210.48,588.48 209.14,589.03 207.80,588.48 207.25,587.14 207.80,585.80 209.14,585.25 210.48,585.80 211.03,587.14"/>
    <polyline points="257.44,634.60 253.37,634.28 249.42,633.33 245.72,631.79 242.38,629.69 239.49,627.10 237.14,624.10 235.42,620.78 234.36,617.25 234.00,613.60 234.36,609.95 235.42,606.42 237.14,603.10 239.49,600.10 242.38,597.51 245.72,595.41 249.42,593.87 253.37,592.92 257.44,592.60"/>
    <polyline points="233.48,613.60 255.36,613.60"/>
    <polyline points="292.72,592.60 292.72,631.91 292.65,632.51 292.45,633.08 292.13,633.59 291.71,634.01 291.20,634.33 290.63,634.53 290.03,634.60"/>
    <polyline points="292.72,612.34 286.65,612.72 281.00,613.83 276.15,615.60 272.42,617.91 270.08,620.59 269.28,623.47 270.08,626.35 272.42,629.04 276.15,631.34 281.00,633.11 286.65,634.22 292.72,634.60"/>
    <polyline points="281.59,587.14 281.04,588.48 279.70,589.03 278.36,588.48 277.81,587.14 278.36,585.80 279.70,585.25 281.04,585.80 281.59,587.14"/>
    <polyline points="328.00,634.60 328.00,605.62 328.44,602.25 329.74,599.11 331.81,596.41 334.51,594.34 337.65,593.04 341.02,592.60 344.39,593.04 347.53,594.34 350.23,596.41 352.30,599.11 353.60,602.25 354.04,605.62 354.04,634.60"/>
    <polyline points="330.08,613.60 351.96,613.60"/>
    <polyline points="389.32,634.60 385.25,634.28 381.30,633.33 377.60,631.79 374.26,629.69 371.37,627.10 369.02,624.10 367.30,620.78 366.24,617.25 365.88,613.60 366.24,609.95 367.30,606.42 369.02,603.10 371.37,600.10 374.26,597.51 377.60,595.41 381.30,593.87 385.25,592.92 389.32,592.60"/>
    <polyline points="378.19,640.90 377.64,642.24 376.30,642.79 374.96,642.24 374.41,640.90 374.96,639.56 376.30,639.01 377.64,639.56 378.19,640.90"/>
    <polyline points="398.56,592.60 401.45,595.91 404.20,599.25 406.83,602.63 409.32,606.04 411.69,609.49 413.92,612.97 416.03,616.49 418.00,620.04 419.85,623.63 421.56,627.25 423.15,630.91 424.60,634.60"/>
    <polyline points="414.73,613.60 414.13,615.45 412.55,616.60 410.61,616.60 409.03,615.45 408.43,613.60 409.03,611.75 410.61,610.60 412.55,610.60 414.13,611.75 414.73,613.60"/>
    <polyline points="413.47,587.14 412.92,588.48 411.58,589.03 410.24,588.48 409.69,587.14 410.24,585.80 411.58,585.25 412.92,585.80 413.47,587.14"/>
    <polyline points="459.88,592.60 459.88,631.91 459.81,632.51 459.61,633.08 459.29,633.59 458.87,634.01 458.36,634.33 457.79,634.53 457.19,634.60"/>
    <polyline points="459.88,592.60 433.84,592.60 433.00,595.02"/>
    <polyline points="459.88,612.34 453.81,612.72 448.16,613.83 443.31,615.60 439.58,617.91 437.24,620.59 436.44,623.47 437.24,626.35 439.58,629.04 443.31,631.34 448.16,633.11 453.81,634.22 459.88,634.60"/>
    <polyline points="495.16,613.60 494.78,618.53 493.67,623.16 491.89,627.25 489.54,630.54 486.76,632.84 483.71,634.03 480.57,634.03 477.52,632.84 474.74,630.54 472.39,627.25 470.61,623.16 469.50,618.53 469.12,613.60 469.50,608.67 470.61,604.04 472.39,599.95 474.74,596.66 477.52,594.36 480.57,593.17 483.71,593.17 486.76,594.36 489.54,596.66 491.89,599.95 493.67,604.04 494.78,608.67 495.16,613.60"/>
    <polyline points="485.29,613.60 484.69,615.45 483.11,616.60 481.17,616.60 479.59,615.45 478.99,613.60 479.59,611.75 481.17,610.60 483.11,610.60 484.69,611.75 485.29,613.60"/>
    <polyline points="484.03,587.14 483.48,588.48 482.14,589.03 480.80,588.48 480.25,587.14 480.80,585.80 482.14,585.25 483.48,585.80 484.03,587.14"/>
    <polyline points="530.44,634.60 526.37,634.28 522.42,633.33 518.72,631.79 515.38,629.69 512.49,627.10 510.14,624.10 508.42,620.78 507.36,617.25 507.00,613.60 507.36,609.95 508.42,606.42 510.14,603.10 512.49,600.10 515.38,597.51 518.72,595.41 522.42,593.87 526.37,592.92 530.44,592.60"/>
    <polyline points="506.48,613.60 528.36,613.60"/>
    <polyline points="55.00,668.20 55.00,707.51 55.07,708.11 55.27,708.68 55.59,709.19 56.01,709.61 56.52,709.93 57.09,710.13 57.69,710.20"/>
    <polyline points="55.00,668.20 61.07,668.54 66.72,669.52 71.57,671.09 75.30,673.14 77.64,675.52 78.44,678.07 77.64,680.62 75.30,683.01 71.57,685.05 66.72,686.62 61.07,687.60 55.00,687.94"/>
    <polyline points="69.91,662.74 69.36,664.08 68.02,664.63 66.68,664.08 66.13,662.74 66.68,661.40 68.02,660.85 69.36,661.40 69.91,662.74"/>
    <polyline points="116.32,668.20 116.32,707.51 116.25,708.11 116.05,708.68 115.73,709.19 115.31,709.61 114.80,709.93 114.23,710.13 113.63,710.20"/>
    <polyline points="116.32,668.20 110.25,668.54 104.60,669.52 99.75,671.09 96.02,673.14 93.68,675.52 92.88,678.07 93.68,680.62 96.02,683.01 99.75,685.05 104.60,686.62 110.25,687.60 116.32,687.94"/>
    <polyline points="116.32,687.94 110.25,688.32 104.60,689.43 99.75,691.20 96.02,693.51 93.68,696.19 92.88,699.07 93.68,701.95 96.02,704.64 99.75,706.94 104.60,708.71 110.25,709.82 116.32,710.20"/>
    <polyline points="151.60,710.20 147.53,709.88 143.58,708.93 139.88,707.39 136.54,705.29 133.65,702.70 131.30,699.70 129.58,696.38 128.52,692.85 128.16,689.20 128.52,685.55 129.58,682.02 131.30,678.70 133.65,675.70 136.54,673.11 139.88,671.01 143.58,669.47 147.53,668.52 151.60,668.20"/>
    <polyline points="140.47,716.50 139.92,717.84 138.58,718.39 137.24,717.84 136.69,716.50 137.24,715.16 138.58,714.61 139.92,715.16 140.47,716.50"/>
    <polyline points="212.92,668.20 212.92,707.51 212.85,708.11 212.65,708.68 212.33,709.19 211.91,709.61 211.40,709.93 210.83,710.13 210.23,710.20"/>
    <polyline points="212.92,668.20 186.88,668.20 186.04,670.62"/>
    <polyline points="235.18,668.20 235.18,707.51 235.25,708.11 235.45,708.68 235.77,709.19 236.19,709.61 236.70,709.93 237.27,710.13 237.87,710.20"/>
    <polyline points="235.18,668.20 238.21,668.54 241.04,669.52 243.47,671.09 245.33,673.14 246.50,675.52 246.90,678.07 246.50,680.62 245.33,683.01 243.47,685.05 241.04,686.62 238.21,687.60 235.18,687.94"/>
    <polyline points="235.18,687.94 238.21,688.32 241.04,689.43 243.47,691.20 245.33,693.51 246.50,696.19 246.90,699.07 246.50,701.95 245.33,704.64 243.47,706.94 241.04,708.71 238.21,709.82 235.18,710.20"/>
    <polyline points="231.01,664.00 239.35,661.48"/>
    <polyline points="270.46,668.20 270.46,707.51 270.39,708.11 270.19,708.68 269.87,709.19 269.45,709.61 268.94,709.93 268.37,710.13 267.77,710.20"/>
    <polyline points="259.52,687.94 281.40,687.94"/>
    <polyline points="318.76,710.20 314.69,709.88 310.74,708.93 307.04,707.39 303.70,705.29 300.81,702.70 298.46,699.70 296.74,696.38 295.68,692.85 295.32,689.20 295.68,685.55 296.74,682.02 298.46,678.70 300.81,675.70 303.70,673.11 307.04,671.01 310.74,669.47 314.69,668.52 318.76,668.20"/>
    <polyline points="307.63,716.50 307.08,717.84 305.74,718.39 304.40,717.84 303.85,716.50 304.40,715.16 305.74,714.61 307.08,715.16 307.63,716.50"/>
    <polyline points="328.00,668.20 328.00,710.20"/>
    <polyline points="372.94,668.20 375.83,671.51 378.58,674.85 381.21,678.23 383.70,681.64 386.07,685.09 388.30,688.57 390.41,692.09 392.38,695.64 394.23,699.23 395.94,702.85 397.53,706.51 398.98,710.20"/>
    <polyline points="372.94,668.20 398.98,668.20 399.82,670.62"/>
    <polyline points="372.94,710.20 393.77,710.20"/>
    <polyline points="387.85,662.74 387.30,664.08 385.96,664.63 384.62,664.08 384.07,662.74 384.62,661.40 385.96,660.85 387.30,661.40 387.85,662.74"/>
    <polyline points="434.26,710.20 430.19,709.88 426.24,708.93 422.54,707.39 419.20,705.29 416.31,702.70 413.96,699.70 412.24,696.38 411.18,692.85 410.82,689.20 411.18,685.55 412.24,682.02 413.96,678.70 416.31,675.70 419.20,673.11 422.54,671.01 426.24,669.47 430.19,668.52 434.26,668.20"/>
    <polyline points="423.13,716.50 422.58,717.84 421.24,718.39 419.90,717.84 419.35,716.50 419.90,715.16 421.24,714.61 422.58,715.16 423.13,716.50"/>
    <polyline points="456.52,668.20 456.52,707.51 456.59,708.11 456.79,708.68 457.11,709.19 457.53,709.61 458.04,709.93 458.61,710.13 459.21,710.20"/>
    <polyline points="456.52,668.20 459.55,668.54 462.38,669.52 464.81,671.09 466.67,673.14 467.84,675.52 468.24,678.07 467.84,680.62 466.67,683.01 464.81,685.05 462.38,686.62 459.55,687.60 456.52,687.94"/>
    <polyline points="456.52,687.94 459.55,688.32 462.38,689.43 464.81,691.20 466.67,693.51 467.84,696.19 468.24,699.07 467.84,701.95 466.67,704.64 464.81,706.94 462.38,708.71 459.55,709.82 456.52,710.20"/>
    <polyline points="452.35,664.00 460.69,661.48"/>
    <polyline points="478.78,668.20 478.78,707.51 478.85,708.11 479.05,708.68 479.37,709.19 479.79,709.61 480.30,709.93 480.87,710.13 481.47,710.20"/>
    <polyline points="478.78,668.20 504.82,668.20 505.66,670.62"/>
    <polyline points="478.78,687.94 484.85,688.32 490.50,689.43 495.35,691.20 499.08,693.51 501.42,696.19 502.22,699.07 501.42,701.95 499.08,704.64 495.35,706.94 490.50,708.71 484.85,709.82 478.78,710.20"/>
    <polyline points="493.69,716.50 493.14,717.84 491.80,718.39 490.46,717.84 489.91,716.50 490.46,715.16 491.80,714.61 493.14,715.16 493.69,716.50"/>
  </g>
</svg>